#N canvas 71 25 1369 787 10;
#X obj 807 626 tabread4~ \$0-sampleL;
#X obj 807 777 outlet~;
#X obj 807 649 hip~ 5;
#X obj 807 757 *~;
#X obj 822 737 vline~;
#X obj 808 96 inlet;
#X obj 808 118 stripnote;
#X floatatom 1198 371 24 0 0 0 - - - 0;
#X obj 1111 352 unpack symbol f;
#X listbox 1111 406 19 0 0 0 - - - 0;
#X obj 1198 388 s \$0-samplelength;
#X msg 956 564 set \$1;
#X obj 1104 448 s \$0-sample-name;
#X obj 956 515 r \$0-sample-name;
#X obj 1104 426 symbol;
#X obj 807 545 vline~;
#X floatatom 1438 360 16 0 0 0 - - - 0;
#X obj 807 486 pack 0 0 0;
#X msg 807 524 \$1 \, \$2 \$3;
#X obj 807 505 t a a;
#X msg 807 467 0;
#X obj 1438 339 expr 60000/$f1;
#X floatatom 1438 441 10 0 0 0 - - - 0;
#X obj 865 418 r \$0-samplelength;
#X obj 845 457 f;
#X obj 1438 420 * 4;
#X obj 1124 203 hsl 128 15 0 127 0 1 \$0-2-s \$0-2-r BARS 133 7 0 10 #fcfcfc #000000 #000000 10400 1;
#X obj 1562 261 / 127;
#X floatatom 1562 324 5 0 0 0 - - - 0;
#X obj 1562 344 i;
#X floatatom 1562 365 5 0 0 0 - - - 0;
#X obj 1562 302 + 1;
#X floatatom 235 215 5 0 0 0 - - - 0;
#X obj 1562 409 t b f;
#X obj 1562 385 * 4;
#X text 1890 38 RESET IN;
#X obj 1893 133 t b b;
#X msg 1896 343 0 5;
#X msg 1482 148 1;
#X obj 1438 149 f \$0;
#X obj 1438 168 pack f f;
#X obj 1438 130 t b b;
#X obj 1438 110 r \$0-editor-button;
#N canvas 208 233 620 306 \$0-editor 0;
#N canvas 0 25 1440 789 sample-editor 0;
#N canvas 0 22 450 278 (subpatch) 0;
#X array \$1-sample-editor 3.36147e+06 float 2;
#X coords 0 1 3.36147e+06 -1 500 140 1 0 0;
#X restore 148 127 graph;
#X obj 149 273 bng 16 250 50 0 empty empty Normalize 20 8 0 10 #fcfcfc #000000 #000000;
#X obj 148 341 bng 16 250 50 0 empty empty Load\ from\ Computer 20 8 0 10 #fcfcfc #000000 #000000;
#X obj 748 273 loadbang;
#X floatatom 748 163 5 0 0 0 - - - 0;
#X msg 748 100 click;
#X msg 579 705 1e+15;
#X floatatom 876 202 5 0 0 0 - - - 0;
#X floatatom 834 163 5 0 0 0 - - - 0;
#X obj 487 288 hradio 16 1 0 10 empty empty empty 0 -8 0 10 #fcfcfc #000000 #000000 0;
#X floatatom 615 273 5 0 0 0 - - - 0;
#X obj 460 341 bng 16 250 50 0 empty empty LOAD\ FROM\ LIBRARY 20 8 0 10 #fcfcfc #000000 #000000;
#X obj 309 342 bng 16 250 50 0 empty empty SAVE\ TO\ LIBRARY 20 8 0 10 #fcfcfc #000000 #000000;
#X obj 493 626 pack s f;
#X obj 536 506 f;
#X floatatom 834 220 5 0 0 0 - - - 0;
#X obj 747 202 unpack symbol f;
#X listbox 747 237 19 0 0 0 - - - 0;
#X obj 237 276 bng 16 250 50 0 empty empty Reload\ Library 20 8 0 10 #fcfcfc #000000 #000000;
#X obj 747 183 text get \$0-library, f 22;
#X obj 748 122 text define -k \$0-library;
#A set 1loop0 3.36147e+06 \; 1loop1 685775 \; 2loop2 44100 \; 1loop3 325757 \; 1loop4 2.49035e+06 \; tzf 1;
#X f 27;
#X obj 536 723 text set \$0-library, f 22;
#X msg 509 533 loop\$1;
#X obj 1185 528 r patch-path;
#X msg 1148 637 write /Volumes/MODFORMER/patch2/loops/1loop0.wav 1-sample-editor;
#X obj 1168 457 s update-path;
#X obj 1147 529 f;
#X obj 1147 550 t b f;
#X obj 148 518 t b b;
#X obj 148 537 openpanel;
#X obj 149 500 bng 16 250 50 0 empty empty empty 0 -8 0 10 #fcfcfc #000000 #000000;
#X obj 146 594 soundfiler;
#X obj 148 557 pack s f;
#X msg 146 576 read -resize \$1 \$2-sample-editor;
#X obj 1148 677 soundfiler;
#X floatatom 1148 695 31 0 0 0 - - - 0;
#X obj 1158 596 pack f s f;
#X msg 324 525 \; \$1-sample-editor normalize;
#X obj 748 293 f \$0;
#X msg 748 313 \; \$1-sample-editor edit 0;
#X obj 781 506 r patch-path;
#X msg 744 615 read /Users/johannklug/Documents/Bass\ Dieter/2025/Diet/MODULAR_LIVE_\ PERFORMER/patch1/loops/2loop3.wav 2-sample-editor;
#X obj 764 485 s update-path;
#X obj 743 507 f;
#X obj 743 528 t b f;
#X obj 1214 500 soundfiler;
#X msg 1214 481 write sample-library/loop\$1.wav \$0-sample-editor;
#X obj 744 655 soundfiler;
#X floatatom 744 673 31 0 0 0 - - - 0;
#X obj 754 574 pack f s f;
#X text 728 437 This reads the wav from the project folder:;
#X text 1128 401 This writes the wav to the project folder:;
#X floatatom 1073 563 5 0 0 0 - - - 0;
#X obj 1129 424 t b b b b;
#X obj 725 465 t b b b b;
#X obj 237 395 s reload-sample-ram;
#X msg 754 593 set read \$2/loops/\$3loop\$1.wav \$3-sample-editor;
#X msg 1158 615 set write \$2/loops/\$3loop\$1.wav \$3-sample-editor;
#X floatatom 618 539 5 0 0 0 - - - 0;
#X msg 419 711;
#X obj 618 556 pack f f f;
#X msg 543 663 list 1loop0 3.36147e+06;
#X msg 618 577 set list \$1loop\$2 \$3;
#X obj 618 482 t b b f;
#X obj 618 521 f \$1;
#X obj 816 537 f \$1;
#X obj 208 537 f \$1;
#X obj 1220 559 f \$1;
#X obj 324 432 f \$1;
#X msg 1048 135 click;
#X obj 1048 157 text define -k \$1-library;
#A set test1;
#X f 27;
#X connect 1 0 68 0;
#X connect 2 0 30 0;
#X connect 3 0 38 0;
#X connect 4 0 19 0;
#X connect 5 0 20 0;
#X connect 6 0 21 1;
#X connect 8 0 19 2;
#X connect 9 0 10 0;
#X connect 9 0 4 0;
#X connect 9 0 14 1;
#X connect 9 0 21 1;
#X connect 9 0 26 1;
#X connect 9 0 43 1;
#X connect 11 0 54 0;
#X connect 12 0 14 0;
#X connect 12 0 53 0;
#X connect 13 0 59 0;
#X connect 14 0 22 0;
#X connect 14 0 63 0;
#X connect 16 0 17 0;
#X connect 16 1 15 0;
#X connect 18 0 55 0;
#X connect 19 0 16 0;
#X connect 19 1 7 0;
#X connect 23 0 36 1;
#X connect 24 0 34 0;
#X connect 26 0 27 0;
#X connect 26 0 52 0;
#X connect 27 0 24 0;
#X connect 27 1 36 0;
#X connect 28 0 29 0;
#X connect 28 1 66 0;
#X connect 29 0 32 0;
#X connect 30 0 28 0;
#X connect 31 0 13 1;
#X connect 31 0 60 2;
#X connect 32 0 33 0;
#X connect 33 0 31 0;
#X connect 34 0 35 0;
#X connect 36 0 57 0;
#X connect 38 0 39 0;
#X connect 40 0 49 1;
#X connect 41 0 47 0;
#X connect 43 0 44 0;
#X connect 44 0 41 0;
#X connect 44 1 49 0;
#X connect 46 0 45 0;
#X connect 47 0 48 0;
#X connect 49 0 56 0;
#X connect 53 1 26 0;
#X connect 53 2 25 0;
#X connect 53 3 67 0;
#X connect 54 1 43 0;
#X connect 54 2 42 0;
#X connect 54 3 65 0;
#X connect 56 0 41 0;
#X connect 57 0 24 0;
#X connect 58 0 60 0;
#X connect 60 0 62 0;
#X connect 61 0 21 0;
#X connect 62 0 13 0;
#X connect 62 0 61 0;
#X connect 63 0 61 0;
#X connect 63 1 64 0;
#X connect 63 2 60 1;
#X connect 64 0 58 0;
#X connect 65 0 49 2;
#X connect 66 0 32 1;
#X connect 67 0 36 2;
#X connect 68 0 37 0;
#X connect 69 0 70 0;
#X coords 0 -1 1 1 600 280 1 100 100;
#X restore 5 8 pd sample-editor;
#X restore 1650 400 pd \$0-editor;
#X msg 1438 189 \; pd-\$1-editor vis \$2;
#X obj 228 378 bng 10 250 50 0 empty empty EDITOR-> -50 5 0 10 #fcfcfc #000000 #000000;
#X obj 1111 333 text get \$0-library, f 22;
#X obj 1461 71 hradio 16 1 0 8 empty empty empty 0 -8 0 10 #fcfcfc #000000 #000000 0;
#X obj 1126 117 cnv 5 5 5 empty empty LOOP-PLAYER 0 0 0 12 #fcfcfc #404040 0;
#X obj 1210 117 cnv 5 5 5 empty \$0-instance-num 1 0 0 0 12 #fcfcfc #404040 0;
#X obj 1242 231 bng 10 250 50 0 \$0-options-button \$0-options-button-r OPTIONS -45 5 0 10 #fcfcfc #000000 #000000;
#X obj 934 60 bng 16 250 50 0 empty empty empty 0 -8 0 10 #fcfcfc #000000 #000000;
#X obj 1652 16 loop-loader \$1loop0;
#X obj 1652 36 loop-loader \$1loop1;
#X obj 1652 56 loop-loader \$1loop2;
#X obj 1652 76 loop-loader \$1loop3;
#X obj 1652 96 loop-loader \$1loop4;
#X obj 1652 116 loop-loader \$1loop5;
#X obj 1652 136 loop-loader \$1loop6;
#X obj 1652 156 loop-loader \$1loop7;
#X obj 1586 507 s \$0-loop-bars;
#X obj 1111 301 f;
#X msg 995 612 1loop0;
#X msg 990 683 0 1 \, 1 5 5;
#X msg 821 674 1 5 5;
#X obj 808 280 t b b b b b b;
#X msg 849 696 0 1;
#X obj 824 402 del 1;
#X obj 808 348 del 1;
#X obj 1124 143 hsl 128 15 0 127 0 1 \$0-1-s \$0-1-r LOOP 133 7 0 10 #fcfcfc #000000 #000000 99 1;
#X floatatom 235 154 5 0 0 0 - - - 0;
#X floatatom 1334 84 5 0 0 0 - - - 0;
#X obj 1334 104 i;
#X obj 1334 41 * 7;
#X obj 1334 62 + 0;
#X obj 1562 281 * 64;
#X obj 1438 315 r global-bpm;
#X obj 2065 7 r global-reset;
#X obj 103 109 cnv 5 5 5 empty empty IN 0 0 0 8 #ffffff #ff8300 0;
#X obj 134 127 cnv 5 5 5 empty \$0-modul-name LOOPER 0 0 0 12 #fcfcfc #404040 0;
#X obj 186 127 cnv 5 5 5 empty \$0-instance-num 1 0 0 0 12 #fcfcfc #404040 0;
#X obj 103 382 cnv 5 5 5 empty empty OUT 0 0 0 8 #fcfcfc #000000 0;
#X obj 199 109 cnv 5 5 5 empty empty MOD1 0 0 0 8 #fcfcfc #404040 0;
#X obj 308 378 bng 10 250 50 0 \$0-options-button \$0-options-button-r OPTIONS -45 5 0 10 #fcfcfc #000000 #000000;
#X text 487 248 <--rename labels here;
#X text 487 268 <--modules values are saved here;
#X obj 337 118 text define -k \$0-modul-settings;
#A set LOOPER \; LOOP \; BARS \; - \; - \; - \; - \; - \; - \; SRC \; 7 \; #e6ebc8 \; #d1d9a3 \; #b9c37c \; #a1ad56 \; #88983f \; #6f7f32 \; #556628 \; #3d4d1f \;;
#N canvas 324 349 425 350 info 0;
#X text 23 12 This textfile contains all necessery names of the module and the names of the gui (faders etc.). This way its much easier to change the names of all elements simply by editing the text object.;
#X text 25 93 The Order of the file \; 0=Modul-Name \; 1=Name Param1 - write non if unused \; 2=Name Param2 \; 3=Name Param3 \; 4=Name Param4 \; 5=Name Param5 \; 6=Name Param6 \; 7=Name Param7 \; 8=Name Param8 \; 9=Type of Module (SRC \, MOD \, LFO \, EFX etc) \; 10=Number of used Parameters (1-8) \; 11=Color of Param1-Circle 12=Color of Param2-Circle \; 13=Color of Param3-Circle \; 14=Color of Param4-Circle \; 15=Color of Param5-Circle \; 16=Color of Param6-Circle \; 17=Color of Param7-Circle \; 18=Color of Param8-Circle \; ....;
#X restore 559 119 pd info;
#X text 537 118 ->;
#X text 335 98 Parameter-Values + Names + Colors:;
#X text 438 286 <--Opens the Options-Subpatch;
#X text 99 82 DESKTOP-GUI-INTERFACE:;
#X obj 339 562 s \$0-param-1-t;
#X obj 337 354 s \$0-a;
#X obj 391 354 s \$0-b;
#X obj 445 354 s \$0-c;
#X obj 500 354 s \$0-d;
#X obj 554 353 s \$0-e;
#X obj 609 353 s \$0-f;
#X obj 663 352 s \$0-g;
#X obj 718 352 s \$0-h;
#X text 763 352 <--these go to the dsp-object;
#X text 437 206 <--receives encoder messages from mother.pd;
#X text 437 186 <--sends display info to mother.pd;
#X text 447 226 <--checks menu and if module is "active";
#X text 734 325 <--receives audio + message for mod;
#X obj 339 424 r \$0-param-1-s;
#X obj 435 424 r \$0-param-2-s;
#X obj 435 562 s \$0-param-2-t;
#X msg 533 542 symbol \$1%;
#X obj 533 444 / 1.27;
#X floatatom 533 503 5 0 0 0 - - - 0;
#X obj 533 523 i;
#X obj 533 423 r \$0-param-3-s;
#X obj 533 561 s \$0-param-3-t;
#X msg 633 542 symbol \$1%;
#X obj 633 444 / 1.27;
#X floatatom 633 503 5 0 0 0 - - - 0;
#X obj 633 523 i;
#X obj 633 423 r \$0-param-4-s;
#X obj 633 561 s \$0-param-4-t;
#X msg 339 693 symbol \$1%;
#X obj 339 635 / 1.27;
#X floatatom 339 654 5 0 0 0 - - - 0;
#X obj 339 674 i;
#X msg 435 693 symbol \$1%;
#X obj 435 635 / 1.27;
#X floatatom 435 654 5 0 0 0 - - - 0;
#X obj 435 674 i;
#X msg 533 692 symbol \$1%;
#X obj 533 634 / 1.27;
#X floatatom 533 653 5 0 0 0 - - - 0;
#X obj 533 673 i;
#X msg 633 692 symbol \$1%;
#X obj 633 634 / 1.27;
#X floatatom 633 653 5 0 0 0 - - - 0;
#X obj 633 673 i;
#X obj 339 614 r \$0-param-5-s;
#X obj 339 712 s \$0-param-5-t;
#X obj 435 614 r \$0-param-6-s;
#X obj 435 712 s \$0-param-6-t;
#X obj 533 613 r \$0-param-7-s;
#X obj 533 711 s \$0-param-7-t;
#X obj 633 613 r \$0-param-8-s;
#X obj 633 711 s \$0-param-8-t;
#X obj 298 108 cnv 5 5 5 empty empty MOD2 0 0 0 8 #fcfcfc #404040 0;
#X obj 337 186 core_display \$0;
#X obj 337 206 core_encoder \$0;
#X obj 337 227 core_main_menu \$0;
#X obj 337 248 core_module_settings \$0;
#X obj 337 326 core_modulation_receiver \$0, f 64;
#X obj 337 268 core_state_saving \$0 \$1;
#X obj 337 287 core_options \$0;
#X text 336 165 Modul Core:;
#X text 337 400 Value Display Representation:;
#X obj 137 292 hsl 128 15 0 127 0 1 \$0-param-4-s \$0-param-4-r - 133 7 0 10 #a1ad56 #000000 #000000 0 1;
#X obj 137 230 hsl 128 15 0 127 0 1 \$0-param-2-s \$0-param-2-r BARS 133 7 0 10 #d1d9a3 #000000 #000000 0 1;
#X obj 137 323 hsl 128 15 0 127 0 1 \$0-param-5-s \$0-param-5-r - 133 7 0 10 #88983f #000000 #000000 0 1;
#X obj 137 169 hsl 128 15 0 127 0 1 \$0-param-1-s \$0-param-1-r LOOP 133 7 0 10 #e6ebc8 #000000 #000000 12700 1;
#X obj 137 414 hsl 128 15 0 127 0 1 \$0-param-6-s \$0-param-6-r - 133 7 0 10 #6f7f32 #000000 #000000 0 1;
#X obj 137 445 hsl 128 15 0 127 0 1 \$0-param-7-s \$0-param-7-r - 133 7 0 10 #556628 #000000 #000000 0 1;
#X obj 137 261 hsl 128 15 0 127 0 1 \$0-param-3-s \$0-param-3-r - 133 7 0 10 #b9c37c #000000 #000000 0 1;
#X obj 137 184 hsl 61 8 0 127 0 1 \$0-param-9-s \$0-param-9-r empty 133 7 0 10 #606060 #000000 #000000 0 1;
#X obj 204 184 hsl 61 8 0 127 0 1 \$0-param-17-s \$0-param-17-r empty 133 7 0 10 #7c7c7c #000000 #000000 0 1;
#X obj 137 245 hsl 61 8 0 127 0 1 \$0-param-10-s \$0-param-10-r empty 133 7 0 10 #606060 #000000 #000000 0 1;
#X obj 204 245 hsl 61 8 0 127 0 1 \$0-param-18-s \$0-param-18-r empty 133 7 0 10 #7c7c7c #000000 #000000 0 1;
#X obj 137 276 hsl 61 8 0 127 0 1 \$0-param-11-s \$0-param-11-r empty 133 7 0 10 #606060 #000000 #000000 0 1;
#X obj 204 276 hsl 61 8 0 127 0 1 \$0-param-19-s \$0-param-19-r empty 133 7 0 10 #7c7c7c #000000 #000000 0 1;
#X obj 137 307 hsl 61 8 0 127 0 1 \$0-param-12-s \$0-param-12-r empty 133 7 0 10 #606060 #000000 #000000 0 1;
#X obj 204 307 hsl 61 8 0 127 0 1 \$0-param-20-s \$0-param-20-r empty 133 7 0 10 #7c7c7c #000000 #000000 0 1;
#X obj 137 338 hsl 61 8 0 127 0 1 \$0-param-13-s \$0-param-13-r empty 133 7 0 10 #606060 #000000 #000000 0 1;
#X obj 204 338 hsl 61 8 0 127 0 1 \$0-param-21-s \$0-param-21-r empty 133 7 0 10 #7c7c7c #000000 #000000 0 1;
#X obj 137 429 hsl 61 8 0 127 0 1 \$0-param-14-s \$0-param-14-r empty 133 7 0 10 #606060 #000000 #000000 0 1;
#X obj 204 429 hsl 61 8 0 127 0 1 \$0-param-22-s \$0-param-22-r empty 133 7 0 10 #7c7c7c #000000 #000000 0 1;
#X obj 137 460 hsl 61 8 0 127 0 1 \$0-param-15-s \$0-param-15-r empty 133 7 0 10 #606060 #000000 #000000 0 1;
#X obj 204 460 hsl 61 8 0 127 0 1 \$0-param-23-s \$0-param-23-r empty 133 7 0 10 #7c7c7c #000000 #000000 0 1;
#X obj 137 475 hsl 128 15 0 127 0 1 \$0-param-8-s \$0-param-8-r - 133 7 0 10 #3d4d1f #000000 #000000 0 1;
#X obj 337 307 core_mod_display \$0;
#X obj 1101 27 r \$0-a;
#X floatatom 182 653 5 0 0 0 - - - 0;
#X obj 182 673 i;
#X obj 182 610 * 7;
#X obj 182 631 + 0;
#X floatatom 339 445 5 0 0 0 - - - 0;
#X obj 187 563 / 127;
#X floatatom 261 661 5 0 0 0 - - - 0;
#X msg 339 543 symbol \$1/;
#X obj 1101 48 * 127;
#X obj 1101 69 / 127;
#X obj 761 460 / 127;
#X floatatom 761 523 5 0 0 0 - - - 0;
#X obj 761 543 i;
#X obj 761 501 + 1;
#X obj 761 480 * 64;
#X msg 435 543 symbol \$1/;
#X obj 1027 243 r \$0-b;
#X obj 1027 264 * 127;
#X connect 0 0 2 0;
#X connect 2 0 3 0;
#X connect 3 0 1 0;
#X connect 4 0 3 1;
#X connect 5 0 6 0;
#X connect 6 0 65 0;
#X connect 7 0 10 0;
#X connect 8 0 9 0;
#X connect 8 1 7 0;
#X connect 9 0 14 0;
#X connect 11 0 0 0;
#X connect 11 0 62 0;
#X connect 13 0 11 0;
#X connect 14 0 12 0;
#X connect 15 0 0 0;
#X connect 16 0 25 0;
#X connect 17 0 19 0;
#X connect 18 0 15 0;
#X connect 19 0 18 0;
#X connect 20 0 17 0;
#X connect 21 0 16 0;
#X connect 22 0 17 2;
#X connect 23 0 24 1;
#X connect 24 0 17 1;
#X connect 25 0 22 0;
#X connect 26 0 27 0;
#X connect 27 0 75 0;
#X connect 28 0 29 0;
#X connect 29 0 30 0;
#X connect 30 0 32 0;
#X connect 30 0 34 0;
#X connect 31 0 28 0;
#X connect 33 0 25 0;
#X connect 33 1 25 1;
#X connect 33 1 60 0;
#X connect 34 0 33 0;
#X connect 36 0 37 0;
#X connect 37 0 4 0;
#X connect 38 0 40 1;
#X connect 39 0 40 0;
#X connect 40 0 44 0;
#X connect 41 0 39 0;
#X connect 41 1 38 0;
#X connect 42 0 41 0;
#X connect 45 0 41 0;
#X connect 46 0 8 0;
#X connect 51 0 65 0;
#X connect 61 0 46 0;
#X connect 64 0 4 0;
#X connect 65 0 68 0;
#X connect 65 1 67 0;
#X connect 65 2 24 0;
#X connect 65 3 14 0;
#X connect 65 4 61 0;
#X connect 65 5 66 0;
#X connect 66 0 4 0;
#X connect 67 0 64 0;
#X connect 68 0 20 0;
#X connect 71 0 72 0;
#X connect 72 0 70 0;
#X connect 72 0 61 1;
#X connect 72 0 47 0;
#X connect 73 0 74 0;
#X connect 74 0 71 0;
#X connect 75 0 31 0;
#X connect 76 0 21 0;
#X connect 77 0 36 0;
#X connect 106 0 183 0;
#X connect 107 0 189 0;
#X connect 109 0 114 0;
#X connect 110 0 111 0;
#X connect 111 0 112 0;
#X connect 112 0 109 0;
#X connect 113 0 110 0;
#X connect 115 0 120 0;
#X connect 116 0 117 0;
#X connect 117 0 118 0;
#X connect 118 0 115 0;
#X connect 119 0 116 0;
#X connect 121 0 138 0;
#X connect 122 0 123 0;
#X connect 123 0 124 0;
#X connect 124 0 121 0;
#X connect 125 0 140 0;
#X connect 126 0 127 0;
#X connect 127 0 128 0;
#X connect 128 0 125 0;
#X connect 129 0 142 0;
#X connect 130 0 131 0;
#X connect 131 0 132 0;
#X connect 132 0 129 0;
#X connect 133 0 144 0;
#X connect 134 0 135 0;
#X connect 135 0 136 0;
#X connect 136 0 133 0;
#X connect 137 0 122 0;
#X connect 139 0 126 0;
#X connect 141 0 130 0;
#X connect 143 0 134 0;
#X connect 150 0 93 0;
#X connect 150 1 94 0;
#X connect 150 2 95 0;
#X connect 150 3 96 0;
#X connect 150 4 97 0;
#X connect 150 5 98 0;
#X connect 150 6 99 0;
#X connect 150 7 100 0;
#X connect 178 0 187 0;
#X connect 179 0 180 0;
#X connect 180 0 186 0;
#X connect 180 0 185 0;
#X connect 181 0 182 0;
#X connect 182 0 179 0;
#X connect 183 0 184 0;
#X connect 184 0 181 0;
#X connect 186 0 92 0;
#X connect 187 0 188 0;
#X connect 188 0 73 0;
#X connect 189 0 193 0;
#X connect 190 0 191 0;
#X connect 191 0 194 0;
#X connect 192 0 190 0;
#X connect 193 0 192 0;
#X connect 194 0 108 0;
#X connect 195 0 196 0;
#X connect 196 0 26 0;
#X coords 0 -1 1 1 220 290 2 100 100;
