#N canvas 0 25 1440 847 10;
#X obj 103 287 +;
#X obj 398 209 t b;
#X obj 365 265 spigot;
#X msg 398 228 0;
#X obj 434 210 del 5;
#X msg 434 229 1;
#X text 95 146 reading param from array to gui;
#X obj 113 -127 inlet;
#X obj 103 647 outlet;
#X obj 348 -122 inlet;
#X obj 345 642 outlet;
#X obj 475 238 +;
#X obj 103 197 t f b;
#X obj 115 256 t b f b;
#X obj 482 217 t b f;
#X obj 133 220 s \$0-wait;
#X obj 398 189 r \$0-wait;
#X obj 474 70 r \$1-modul-id;
#X obj 103 170 r \$1-modul-id;
#X floatatom 51 515 5 0 0 0 - - - 0;
#X obj 153 276 s \$0-wait;
#X obj 501 272 r scene-tester;
#X obj 501 293 * 1600;
#X obj 454 319 +;
#X obj 501 314 t b f;
#X obj 364 372 tabwrite scene1;
#X obj 103 537 tabread scene1;
#X floatatom 484 383 5 0 0 0 - - - 0;
#X floatatom 136 389 5 0 0 0 - - - 0;
#X text 345 145 writing param to global saving array;
#X connect 0 0 26 0;
#X connect 0 0 28 0;
#X connect 1 0 3 0;
#X connect 1 0 4 0;
#X connect 2 0 25 0;
#X connect 3 0 2 1;
#X connect 4 0 5 0;
#X connect 5 0 2 1;
#X connect 7 0 13 0;
#X connect 7 0 14 0;
#X connect 9 0 2 0;
#X connect 9 0 10 0;
#X connect 11 0 23 0;
#X connect 12 0 0 0;
#X connect 12 1 15 0;
#X connect 13 0 0 0;
#X connect 13 1 0 1;
#X connect 13 2 20 0;
#X connect 14 0 11 0;
#X connect 14 1 11 1;
#X connect 16 0 1 0;
#X connect 17 0 11 0;
#X connect 18 0 12 0;
#X connect 21 0 22 0;
#X connect 22 0 24 0;
#X connect 23 0 25 1;
#X connect 23 0 27 0;
#X connect 24 0 23 0;
#X connect 24 1 23 1;
#X connect 26 0 19 0;
#X connect 26 0 8 0;
#X coords 0 847 1 846 220 120 0;
