#N canvas 100 25 1340 769 10;
#X obj 35 202 soundfiler;
#X obj 35 26 loadbang;
#X listbox 35 146 13 0 0 0 FOLDER: - - 0;
#X obj 35 126 symbol \$1;
#X obj 35 164 pack s s f;
#X msg 35 183 read -resize \$1.wav \$1, f 61;
#X obj 414 183 array define \$1;
#X obj 55 92 bng 16 250 50 0 empty empty empty 0 -8 0 10 #fcfcfc #000000 #000000;
#X obj 55 68 r reload-sample-ram;
#X obj 78 242 f \$2;
#X obj 35 260 text set simple-hats, f 22;
#X obj 78 224 loadbang;
#X obj 193 373 bng 16 250 50 0 empty empty empty 0 -8 0 10 #fcfcfc #000000 #000000;
#X connect 0 0 10 0;
#X connect 1 0 3 0;
#X connect 2 0 4 0;
#X connect 3 0 2 0;
#X connect 4 0 5 0;
#X connect 5 0 0 0;
#X connect 7 0 3 0;
#X connect 8 0 7 0;
#X connect 9 0 10 1;
#X connect 11 0 9 0;
#X connect 12 0 9 0;
#X coords 0 769 1 768 280 80 0;
