#N canvas 544 68 756 440 10;
#X declare -path patch_editor_abs/controller;
#X declare -path patch_editor_abs;
#X declare -path patch_editor_abs/test;
#X declare -path sample-library;
#N canvas 447 25 869 631 patch-editor-do-not-delete 0;
#N canvas 0 25 1073 713 upper-left-menu+manual 0;
#X msg 36 85 \; pd-quick-guide vis \$1;
#X obj 36 41 r open-quick-guide!;
#X msg 36 63 1;
#N canvas 0 25 915 719 quick-guide 0;
#X obj 450 532 cnv 15 375 125 empty empty empty 20 12 0 14 #dc4c90 #404040 0;
#X obj 454 400 cnv 15 375 125 empty empty empty 20 12 0 14 #90d4b0 #404040 0;
#X obj 17 17 cnv 15 750 60 empty empty Welcome_to_AUTOMATONISM:_Making_Music_with_Self-playing_Machines 20 12 0 14 #90d4b0 #fcfcfc 0;
#X text 19 86 FOLLOW THESE SIMPLE STEPS TO GET STARTED:;
#X text 19 127 1 When starting the AUTOMATONISM you'll see a list of all current available modules to the right. Click the button to the left of the module you want to load and it will appear to the left in the parent window. The module list will then disappear. To call back the module list you can click the grey link in the upper left called "MODULES(esc) or simply upress "esc" on your keyboard;
#X text 19 246 2 Create a BASIC-OSC from the module list.;
#X text 20 422 4 Pure Data has an EDIT MODE and a PERFORMANCE MODE. To make patch connections between objects we need to be in EDIT MODE and to interact with the GUI we need to be in PERFORMANCE MODE. Toggle between the two modes with cmd+e.;
#X text 19 312 3 Open the module list and create the module in the lower right corner called MAESTRO4(dac~). This is the digital-to-analog-converter and is one of the modules that passes on sound to your speakers. Now you can soon make a sound.;
#X text 19 519 5 All inputs are at the top of the modules and all outputs are at the bottom. In EDIT MODE \, connect the BASIC-OSC's output CH1 on the MAESTRO4. Now \, you should have sound. Switch to PERFORMANCE MODE and use the mouse to move the PITCH slider on the BASIC-OSC module.;
#X text 20 622 6 Right click on any module and choose HELP to read more about a module's functions.;
#X text 464 125 7 To save parameter states on each module \, you have to save the pd file \, like you normally would do from the FILE menu or cmd+s \, and then click the grey SAVE! canvas in the left bottom corner(or simply press ENTER on your keyboard) and you'll see the canvas change color from grey to green for a brief moment. All parameter values are now written to textfiles and can be loaded to the equivalent module and instance number next time the patch is loaded.;
#X text 464 245 8 You can call modules without using the module list simply by creating a new object in pd and type the module's name. For the state saving mechanism to work properly you do need to give the module a unique numerical argument. Type "basic-osc 1" for an oscillator and "basic-osc 2" if you need another one. By using the MODULES list this unique numbering is done automatically for you. Use the RESET link in the upper left corner when starting a new patch as this will reset the counter of unique numbers for modules.;
#X text 457 403 9 IMPORTANT!!! In order for Automatonism to work properly \, each patch needs to contain the correct folder structure. A folder--that you can name freely--must contain the folder "patch_editor_abs" and the pd-file "main.pd". Copy the entire main parent folder to start a new project. Please do not add the abstractions to your PD Search path \, because the state svaing system will be writing textfiles in your external folders.;
#X text 451 534 ABOUT RESET BUTTON: Only use the RESET button when your canvas is empty. If you click it in the middle of a patch \, modules will start getting identical state saving numbers to already existing modules. In other words \, if you click it in the middle of a patch \, state saving WILL NOT WORK! The RESET button is there for when you start over \, and perhaps do not want to create "BASIC-OSC 99" \, but start from zero for a clearer view of the patch.;
#X text 33 42 RIGHT+CLICK & CHOOSE 'HELP' ON ANY MODULE!;
#X restore 36 18 pd quick-guide;
#X msg 38 178 1;
#X obj 38 156 r open-signal-flow!;
#X msg 38 203 \; pd-signal-flow vis \$1;
#N canvas 416 25 852 668 signal-flow 0;
#X obj 22 10 cnv 15 365 30 empty empty SIGNAL-FLOW 20 12 0 14 #dc4c90 #fcfcfc 0;
#X obj 26 161 hsl 128 15 0 127 0 0 empty empty empty -2 -8 0 10 #9898dc #fcfcfc #000000 0 1;
#X obj 24 214 hsl 128 15 0 127 0 0 empty empty empty -2 -8 0 10 #90d4b0 #000000 #000000 0 1;
#X obj 21 281 cnv 5 5 5 empty empty CLOCK-IN 0 0 0 8 #fcfcfc #dc4c90 0;
#X text 17 328 All inputs and outputs in the editor are at signal rate within the range of -1 to 1 In contrast to normal pd-programming there is no distinction between control rate and signal rate messages. Everything is converted to signal rate.;
#X msg 20 439 bang;
#X msg 20 461 1 0 \, 0 1 1;
#X obj 20 483 vline~;
#X msg 23 535 bang;
#X msg 23 557 1 0 \, 0 1 1;
#X obj 23 579 vline~;
#X msg 23 623 bang;
#X text 19 404 How to convert a simple bang to a trigger/gate signal in the patch editor:;
#X obj 23 601 threshold~ 0.99 0 1 0;
#X text 21 518 How to convert back to a control rate bang:;
#X obj 404 569 hsl 128 15 0 127 0 0 empty empty empty -2 -8 0 10 #fcfcfc #000000 #000000 0 1;
#X obj 401 589 / 127;
#X obj 401 611 sig~;
#X text 398 534 How convert control numbers to the patch editor's signal flow:;
#X text 541 568 0-127;
#X text 21 178 Purple sliders and inlets means the slider will function as an attenuator for incoming CV.;
#X text 21 48 There are three types of signals in the patch editor: audio \, cv and trigger/gate/pulse/clock. The latter are marked with PINK inlets and outlets. General rule in the patch editor is that all connections are possible. Or \, at least \, just like in any hardware modular system - all connections might not work but there's no harm in trying. ! ! The patch-editor uses color-coding to clarify the signal flow as much as possible.;
#X text 18 287 And pink inlets means the input is expecting a trigger/gate signal to function properly.;
#X text 19 230 Green sliders and inlets tells you that the parameter is bi-polar \, most oftenly working as an attenueverter for incoming CV.;
#X connect 5 0 6 0;
#X connect 6 0 7 0;
#X connect 8 0 9 0;
#X connect 9 0 10 0;
#X connect 10 0 13 0;
#X connect 13 0 11 0;
#X connect 15 0 16 0;
#X connect 16 0 17 0;
#X restore 39 134 pd signal-flow;
#X msg 36 288 1;
#N canvas 138 156 591 276 color-code 0;
#X obj 140 39 hsl 128 15 0 127 0 0 empty empty empty -2 -8 0 10 #9898dc #fcfcfc #000000 0 1;
#X obj 140 100 hsl 128 15 0 127 0 0 empty empty empty -2 -8 0 10 #90d4b0 #000000 #000000 0 1;
#X obj 137 175 cnv 5 5 5 empty empty CLOCK-IN 0 0 0 8 #fcfcfc #dc4c90 0;
#X text 134 56 Purple sliders and inlets means the slider will function as an attenuator for incoming CV.;
#X text 133 117 Green sliders and inlets tells you that the parameter is bi-polar \, most oftenly working as an attenueverter for incoming CV.;
#X text 135 181 And pink inlets means the input is expecting a trigger/gate signal or short impulse(square-wave) to function properly.;
#X restore 37 244 pd color-code;
#X obj 36 266 r open-color-code!;
#X msg 36 313 \; pd-color-code vis \$1;
#X msg 37 404 1;
#N canvas 7 25 355 439 manual 0;
#X obj 28 82 bng 30 250 50 0 open-signal-flow! empty empty 10 7 0 10 #9898dc #000000 #fcfcfc;
#X obj 49 82 bng 30 250 50 0 open-signal-flow! empty empty 17 7 0 10 #fcfcfc #000000 #000000;
#X obj 78 82 bng 30 250 50 0 open-signal-flow! empty empty 17 7 0 10 #fcfcfc #000000 #000000;
#X obj 109 82 bng 30 250 50 0 open-signal-flow! empty empty 17 7 0 10 #fcfcfc #000000 #000000;
#X obj 79 82 cnv 15 60 30 empty empty FLOW 6 12 0 14 #e0e0e0 #404040 0;
#X obj 18 82 cnv 15 60 30 empty empty SIGNAL 18 12 0 14 #e0e0e0 #404040 0;
#X obj 17 12 cnv 15 320 60 empty empty WELCOME-TO-THE-AUTOMATONISM-MANUAL! 20 12 0 14 #90d4b0 #fcfcfc 0;
#X obj 19 119 bng 30 250 50 0 open-color-code! empty empty 17 7 0 10 #fcfcfc #000000 #000000;
#X obj 49 119 bng 30 250 50 0 open-color-code! empty empty 17 7 0 10 #fcfcfc #000000 #000000;
#X obj 79 119 bng 30 250 50 0 open-color-code! empty empty 17 7 0 10 #fcfcfc #000000 #000000;
#X obj 109 119 bng 30 250 50 0 open-color-code! empty empty 17 7 0 10 #fcfcfc #000000 #000000;
#X obj 79 119 cnv 15 60 30 empty empty CODE 6 12 0 14 #e0e0e0 #404040 0;
#X obj 18 119 cnv 15 60 30 empty empty COLOR 18 12 0 14 #e0e0e0 #404040 0;
#X obj 19 196 bng 30 250 50 0 open-help-files! empty empty 17 7 0 10 #fcfcfc #000000 #000000;
#X obj 18 157 bng 30 250 50 0 open-state-saving! empty empty 17 7 0 10 #fcfcfc #000000 #000000;
#X obj 48 157 bng 30 250 50 0 open-state-saving! empty empty 17 7 0 10 #fcfcfc #000000 #000000;
#X obj 78 157 bng 30 250 50 0 open-state-saving! empty empty 17 7 0 10 #fcfcfc #000000 #000000;
#X obj 108 157 bng 30 250 50 0 open-state-saving! empty empty 17 7 0 10 #fcfcfc #000000 #000000;
#X obj 79 157 cnv 15 60 30 empty empty SAVING 6 12 0 14 #e0e0e0 #404040 0;
#X obj 18 157 cnv 15 60 30 empty empty STATE 18 12 0 14 #e0e0e0 #404040 0;
#X obj 49 196 bng 30 250 50 0 open-help-files! empty empty 17 7 0 10 #fcfcfc #000000 #000000;
#X obj 94 196 bng 30 250 50 0 open-help-files! empty empty 17 7 0 10 #fcfcfc #000000 #000000;
#X obj 109 196 bng 30 250 50 0 open-help-files! empty empty 17 7 0 10 #fcfcfc #000000 #000000;
#X obj 79 196 cnv 15 60 30 empty empty FILES 6 12 0 14 #e0e0e0 #404040 0;
#X obj 18 196 cnv 15 60 30 empty empty HELP 18 12 0 14 #e0e0e0 #404040 0;
#X obj 19 232 bng 30 250 50 0 open-folder-hierarchy! empty empty 17 7 0 10 #fcfcfc #000000 #000000;
#X obj 49 232 bng 30 250 50 0 open-folder-hierarchy! empty empty 17 7 0 10 #fcfcfc #000000 #000000;
#X obj 79 232 bng 30 250 50 0 open-folder-hierarchy! empty empty 17 7 0 10 #fcfcfc #000000 #000000;
#X obj 139 232 bng 30 250 50 0 open-folder-hierarchy! empty empty 17 7 0 10 #fcfcfc #000000 #000000;
#X obj 109 232 bng 30 250 50 0 open-folder-hierarchy! empty empty 17 7 0 10 #fcfcfc #000000 #000000;
#X obj 78 232 cnv 15 100 30 empty empty HIERARCHY 20 12 0 14 #e0e0e0 #404040 0;
#X obj 17 232 cnv 15 60 30 empty empty FOLDER 18 12 0 14 #e0e0e0 #404040 0;
#X obj 46 268 bng 30 250 50 0 open-feedback-loops! empty empty 17 7 0 10 #fcfcfc #000000 #000000;
#X obj 46 304 bng 30 250 50 0 open-license! empty empty 17 7 0 10 #fcfcfc #000000 #000000;
#X obj 16 268 bng 30 250 50 0 open-feedback-loops! empty empty 17 7 0 10 #fcfcfc #000000 #000000;
#X obj 106 268 bng 30 250 50 0 open-feedback-loops! empty empty 17 7 0 10 #fcfcfc #000000 #000000;
#X obj 76 268 bng 30 250 50 0 open-feedback-loops! empty empty 17 7 0 10 #fcfcfc #000000 #000000;
#X obj 166 268 bng 30 250 50 0 open-feedback-loops! empty empty 17 7 0 10 #fcfcfc #000000 #000000;
#X obj 136 268 bng 30 250 50 0 open-feedback-loops! empty empty 17 7 0 10 #fcfcfc #000000 #000000;
#X obj 16 268 cnv 15 180 30 empty empty FEEDBACK-&-DSP-LOOPS 18 12 0 14 #e0e0e0 #404040 0;
#X obj 16 304 bng 30 250 50 0 open-license! empty empty 17 7 0 10 #fcfcfc #000000 #000000;
#X obj 106 304 bng 30 250 50 0 open-license! empty empty 17 7 0 10 #fcfcfc #000000 #000000;
#X obj 76 304 bng 30 250 50 0 open-license! empty empty 17 7 0 10 #fcfcfc #000000 #000000;
#X obj 16 304 cnv 15 120 30 empty empty LICENSE 18 12 0 14 #e0e0e0 #404040 0;
#X obj 154 81 bng 30 250 50 0 open-external-msg! empty empty 10 7 0 10 #9898dc #000000 #fcfcfc;
#X obj 184 81 bng 30 250 50 0 open-external-msg! empty empty 17 7 0 10 #fcfcfc #000000 #000000;
#X obj 213 81 bng 30 250 50 0 open-external-msg! empty empty 17 7 0 10 #fcfcfc #000000 #000000;
#X obj 273 81 bng 30 250 50 0 open-external-msg! empty empty 17 7 0 10 #fcfcfc #000000 #000000;
#X obj 243 81 bng 30 250 50 0 open-external-msg! empty empty 17 7 0 10 #fcfcfc #000000 #000000;
#X obj 152 81 cnv 15 120 30 empty empty EXTERNAL 18 12 0 14 #e0e0e0 #404040 0;
#X obj 237 81 cnv 15 80 30 empty empty MESSAGES 6 12 0 14 #e0e0e0 #404040 0;
#X restore 37 358 pd manual;
#X msg 37 429 \; pd-manual vis \$1;
#X obj 37 382 r open-manual!;
#X msg 34 547 1;
#X obj 34 526 r open-state-saving!;
#X msg 34 571 \; pd-state-saving vis \$1;
#N canvas 236 34 420 357 state-saving 0;
#X obj 17 12 cnv 15 400 60 empty empty STATE_SAVING 20 12 0 14 #dc4c90 #fcfcfc 0;
#X text 20 82 The state saving system works by writing parameter values to textfiles in the folder "statesave" inside the "patch_editor_abs" folder. When you load a module form the module list it is automatically being given a unique creation argument which creates a textfile unique for that instance of the module. To save your patch \, simply save as you normally would from the FILE menu and the press ENTER on your keyboard or click the SAVE button in the upper left corner of the main window.;
#X text 20 216 IMPORTANT!!! To start a new project \, the entire folder structure needs to be copied since the abstractions and textfiles are unique to every project. Click the RESET button in the upper left corner to reset the counter that gives unique creation arguments for the modules.;
#X restore 35 504 pd state-saving;
#X msg 203 62 1;
#N canvas 23 25 438 191 help-files 0;
#X obj 17 12 cnv 15 400 60 empty empty HELP-FILES 20 12 0 14 #dc4c90 #fcfcfc 0;
#X text 20 84 Right + click on individual modules and choose "HELP" to access detailed help-files on each modules inlets \, outlets and functionalities.;
#X restore 203 15 pd help-files;
#X obj 203 36 r open-help-files!;
#X msg 203 88 \; pd-help-files vis \$1;
#X msg 204 173 1;
#N canvas 0 22 434 295 organelle-map 0;
#X obj 17 12 cnv 15 400 60 empty empty MAPPING-ORGANELLE-KNOBS/KEYS 20 12 0 14 #dc4c90 #fcfcfc 0;
#X text 20 84 There are specific modules for integrating the Organelle knobs and keyboard into your patches. Use "organelle-keyboard and "organelle-knobs" to connect the keyboard or knobs to parameter values in your patch. Remember that the parameter slider on the module acts as an offset when external cv is connected so set the slider to zero to access the entire range of the parameter with the organelle keyboard or knobs. See the"organelle-keyboard" and "organelle-knobs" help-files for more info. There are many ways to use PD with the Organelle. The "organelle-keyboard" and "organelle-knobs" modules use a simplistic approach. Use your own more elaborate pd-code for deeper control.;
#X restore 204 130 pd organelle-map;
#X obj 204 151 r open-organelle-map!;
#X msg 204 198 \; pd-organelle-map vis \$1;
#X msg 202 416 1;
#X obj 202 394 r open-folder-hierarchy!;
#N canvas 0 25 420 254 folder-hierarchy 0;
#X obj 17 12 cnv 15 400 60 empty empty FOLDER-HIEARCHY 20 12 0 14 #dc4c90 #fcfcfc 0;
#X text 20 84 Inside your project folder you'll find a file called "main.pd" and a folder called "patch_editor_abs". The "main.pd" must stay named the same for Automatonism to function properly. Also \, each of your projects/patches needs tp be in a separet folder with its own "main.pd" and "patch_editor_abs" folder. Copy & paste the project folder \, which you can give any name \, when you want to start a new project/patch.;
#X restore 203 371 pd folder-hierarchy;
#X msg 202 446 \; pd-folder-hierarchy vis \$1;
#X msg 198 543 1;
#N canvas 0 25 432 503 export-patches 0;
#X obj 17 12 cnv 15 400 60 empty empty EXPORT-PATCH 20 12 0 14 #e0e0e0 #404040 0;
#X text 20 84 So \, how do you export patces made in the editor to the Organelle?;
#X text 26 131 LOREM IPSUM.;
#X restore 199 498 pd export-patches;
#X obj 198 521 r open-export-patches!;
#X msg 198 572 \; pd-export-patches vis \$1;
#X msg 387 57 1;
#N canvas 445 294 435 328 tips-&-tricks 0;
#X obj 17 12 cnv 15 400 60 empty empty TIPS&TRICKS 20 12 0 14 #dc4c90 #fcfcfc 0;
#X text 20 110 Hide portions of a complex patch in a subpatch to gain more space.;
#X text 20 175 Don't forget to use utility modules;
#X text 20 201 Existing modular synthesis tutorials ond patches can be translated to the XOUDLAR playGROUND \; like nord modular patches \, sound on sound synthesis secrets \, allen strange's book \, make noise shared system patches \, buchla patches etc;
#X text 20 84 Useful tips and tricks:;
#X text 20 149 Use [switch~] in subpatches in large projects too free CPU;
#X text 20 266 If you want two same modules to share exact parameters copy&paste the module instead of loading a new from the module list.;
#X restore 389 12 pd tips-&-tricks;
#X obj 387 35 r open-tips-&-tricks!;
#X msg 387 88 \; pd-tips-&-tricks vis \$1;
#X msg 384 187 1;
#N canvas 0 25 432 503 advanced-pd-users 0;
#X obj 17 12 cnv 15 400 60 empty empty ADVANCED-PD-USERS 20 12 0 14 #e0e0e0 #404040 0;
#X text 20 84 Some useful information for advanced pd users who want to change \, interact or expand on the XODULAR PLAYGROUND code:;
#X text 21 141 LOREM IPSUM;
#X restore 386 142 pd advanced-pd-users;
#X obj 384 165 r open-advanced-pd-users!;
#X msg 384 218 \; pd-advanced-pd-users vis \$1;
#X msg 382 309 1;
#X obj 382 287 r open-make-your-own-module!;
#N canvas 498 100 673 716 make-your-own-module 0;
#X obj 17 12 cnv 15 400 60 empty empty MAKE-YOUR-OWN-MODULE 20 12 0 14 #dc4c90 #fcfcfc 0;
#X msg 24 128 bang;
#X msg 24 150 1 0 \, 0 1 1;
#X obj 24 172 vline~;
#X msg 23 222 bang;
#X msg 23 244 1 0 \, 0 1 1;
#X obj 23 266 vline~;
#X msg 23 310 bang;
#X text 23 93 How to convert a simple bang to a trigger/gate signal in the patch editor:;
#X obj 23 288 threshold~ 0.99 0 1 0;
#X text 21 205 How to convert back to a control rate bang:;
#X obj 28 389 hsl 128 15 0 127 0 0 empty empty empty -2 -8 0 10 #fcfcfc #000000 #000000 0 1;
#X obj 25 409 / 127;
#X obj 25 431 sig~;
#X text 22 354 How convert control numbers to the patch editor's signal flow:;
#X text 165 388 0-127;
#X text 21 509 GRAPH ON PARENT;
#X text 22 539 MODULE TITLE;
#X text 24 575 INLET/OUTLET LABELS;
#X text 33 614 STATE-SAVING;
#X text 20 477 CV INPUTS:;
#X connect 1 0 2 0;
#X connect 2 0 3 0;
#X connect 4 0 5 0;
#X connect 5 0 6 0;
#X connect 6 0 9 0;
#X connect 9 0 7 0;
#X connect 11 0 12 0;
#X connect 12 0 13 0;
#X restore 384 264 pd make-your-own-module;
#X msg 382 340 \; pd-make-your-own-module vis \$1;
#X msg 381 429 1;
#X obj 381 407 r open-feedback-loops!;
#N canvas 0 25 420 323 feedback-loops 0;
#X obj 17 12 cnv 15 400 60 empty empty FEEDBACK-&-DSP-LOOPS 20 12 0 14 #dc4c90 #fcfcfc 0;
#X text 23 83 Feedback patching is very much possible in the AUTOMATONISM \, just a little bit differently from physical modular systems. If you try to patch a module into itself or any kind of feedback routing \, Pure Data will become silent and you'll get a "DSP loop detected" message in the Pd window. To avoid this you need to delay the signal a tiny tiny bit. Normal [send~) and [receive~] objects automatically does this in Pd. Send the signal to be feedbacked into a [send~ MyFeedback] and pick it up using [receive~ MyFeedback] and then patch into the input to close the feedback loop. Obviously "MyFeedback" could be anything and the abbreviation for send and receive [s~] and [r~] work equally as well.;
#X restore 383 384 pd feedback-loops;
#X msg 381 460 \; pd-feedback-loops vis \$1;
#X msg 380 543 1;
#N canvas 0 25 439 625 license 0;
#X obj 17 12 cnv 15 400 60 empty empty LICENSE 20 12 0 14 #e0e0e0 #404040 0;
#X text 23 83 Copyright ©  2017 \, Johan Eriksson Automatonism is free software: you can redistribute it and/or modify it under the terms of the GNU General Public License as published by the Free Software Foundation \, either version 3 of the License \, or any later version. This program is distributed in the hope that it will be useful \, but WITHOUT ANY WARRANTY \; without even the implied warranty of MERCHANTABILITY or FITNESS FOR A PARTICULAR PURPOSE. See the GNU General Public License for more details.;
#X text 23 213 ADD ON: This is a modification of the fantastic Automatism modular synth. Its adds modules and a sample library. Its was made as a foundation of the live performances of the group "diet". For more information check: www.wueste.info;
#X restore 382 498 pd license;
#X obj 380 521 r open-license!;
#X msg 380 574 \; pd-license vis \$1;
#N canvas 293 25 419 217 reset-warning 0;
#X obj 21 143 bng 15 250 50 0 \$0-reset! empty <--RESET! 17 7 0 10 #fcfcfc #000000 #000000;
#X text 18 49 WARNING!;
#X text 19 68 Never press the RESET! button in the middle of working of a patch since it can cause the state saving mechanism to malfunction. Only use it when starting a new patch and you want the module counters to start over at zero. PRESS THE BUTTON BELOW TO RESET:;
#X restore 600 15 pd reset-warning;
#X msg 601 62 1;
#X obj 601 40 r open-reset-warning!;
#X msg 601 84 \; pd-reset-warning vis \$1;
#X obj 601 117 r \$0-reset!;
#X msg 601 193 \; pd-reset-warning vis 0;
#X obj 601 139 delay 500;
#X msg 604 289 1;
#N canvas 472 160 457 575 external-msg 0;
#X obj 17 12 cnv 15 400 60 empty empty EXTERNAL_MESSAGES 20 12 0 14 #dc4c90 #fcfcfc 0;
#X text 27 86 You can send external control messages into Automatonism modules since Automatonsim 3.0. This makes it easier to map midi controllers to specific parameters and integrate your patches with other Pure Data patches. External Messages routing in Automatonism works like this:;
#X obj 41 181 hsl 128 15 0 127 0 0 empty empty 0-127 -2 -8 0 10 #fcfcfc #000000 #000000 0 1;
#X floatatom 38 201 5 0 0 0 - - - 0;
#X msg 38 221 PITCH \$1 1;
#X obj 38 242 s basic-osc;
#X text 36 276 Send a value between 0-127;
#X text 38 395 To control the P-WIDTH slider of the BASIC-OSC with instance number 3 \, do this instead:;
#X obj 41 451 hsl 128 15 0 127 0 0 empty empty 0-127 -2 -8 0 10 #fcfcfc #000000 #000000 0 1;
#X floatatom 38 471 5 0 0 0 - - - 0;
#X msg 38 491 P-WIDTH \$1 3;
#X obj 38 512 s basic-osc;
#X text 37 296 Write a message where the first word is the name of the slider you are trying to externally control \, type "\$1" to pass on your value to the module and finally type the instance number of the specific module you want to control. The instance number is always showcased to the right of the module's title. Then create a send object and send to the name of the module \, for example [s basic-osc];
#X connect 2 0 3 0;
#X connect 3 0 4 0;
#X connect 4 0 5 0;
#X connect 8 0 9 0;
#X connect 9 0 10 0;
#X connect 10 0 11 0;
#X restore 606 244 pd external-msg;
#X obj 604 267 r open-external-msg!;
#X msg 604 320 \; pd-external-msg vis \$1;
#X msg 612 533 1;
#X text 611 465 DIET-Modification:;
#N canvas 535 199 672 298 sample-library 0;
#N canvas 0 25 1440 789 sample-editor 0;
#X obj 55 458 openpanel;
#X obj 55 494 soundfiler;
#X floatatom 55 512 31 0 0 0 - - - 0;
#X msg 55 476 read -resize \$1 sample-editor;
#N canvas 0 22 450 278 (subpatch) 0;
#X array sample-editor 4608 float 2;
#X coords 0 1 4608 -1 500 140 2 0 0;
#X restore 109 134 graph;
#X msg 55 587 \; sample-editor normalize;
#X obj 217 592 bng 16 250 50 0 empty empty Normalize 20 8 0 10 #fcfcfc #000000 #000000;
#X obj 109 349 bng 16 250 50 0 \$0-load-comp empty Load\ from\ Computer 20 8 0 10 #fcfcfc #000000 #000000;
#X msg 271 460 \; sample-editor edit 0;
#X obj 271 439 loadbang;
#X obj 691 753 text set library, f 22;
#X obj 975 218 text get library, f 22;
#X msg 734 735 1e+15;
#X floatatom 1104 240 5 0 0 0 - - - 0;
#X floatatom 1061 198 5 0 0 0 - - - 0;
#X obj 447 298 hradio 16 1 0 10 empty empty empty 0 -8 0 10 #fcfcfc #000000 #000000 0;
#X floatatom 575 283 5 0 0 0 - - - 0;
#X obj 450 515 soundfiler;
#X floatatom 450 533 31 0 0 0 - - - 0;
#X obj 450 453 f;
#X obj 866 495 soundfiler;
#X floatatom 866 513 31 0 0 0 - - - 0;
#X obj 866 440 f;
#X obj 691 717 pack s f;
#X obj 691 612 f;
#X floatatom 1062 258 5 0 0 0 - - - 0;
#X obj 975 240 unpack symbol f;
#X listbox 975 275 19 0 0 0 - - - 0;
#X obj 108 296 bng 16 250 50 0 reload-library empty Reload\ Library 20 8 0 10 #fcfcfc #000000 #000000;
#X obj 628 136 vradio 16 1 0 6 empty empty BANKS 0 -8 0 10 #fcfcfc #000000 #000000 0;
#X obj 648 144 cnv 5 5 5 empty empty KICK 0 0 0 8 #fcfcfc #000000 0;
#X obj 648 159 cnv 5 5 5 empty empty SNARE 0 0 0 8 #fcfcfc #000000 0;
#X obj 648 176 cnv 5 5 5 empty empty CLAP 0 0 0 8 #fcfcfc #000000 0;
#X obj 648 192 cnv 5 5 5 empty empty HAT 0 0 0 8 #fcfcfc #000000 0;
#X obj 648 208 cnv 5 5 5 empty empty SHAKER 0 0 0 8 #fcfcfc #000000 0;
#X obj 648 225 cnv 5 5 5 empty empty PERCS 0 0 0 8 #fcfcfc #000000 0;
#X obj 769 232 sel 0 1 2 3 4 5;
#X obj 450 472 pack f s;
#X msg 450 496 write sample-library/\$2\$1.wav sample-editor;
#X msg 769 261 symbol kick;
#X msg 784 279 symbol snare;
#X msg 797 299 symbol clap;
#X msg 812 317 symbol hat;
#X msg 824 336 symbol shaker;
#X msg 839 354 symbol percs;
#X msg 866 476 read -resize sample-library/\$2\$1.wav sample-editor;
#X obj 866 458 pack f s;
#X obj 443 342 cnv 16 300 30 empty empty empty 20 12 0 10 #ffcefa #404040 0;
#X obj 55 440 r \$0-load-comp;
#X obj 55 550 t b;
#X obj 55 568 del 5;
#X obj 62 531 s \$0-sample-length;
#X obj 736 698 r \$0-sample-length;
#X obj 866 541 s \$0-sample-length;
#X obj 691 593 r \$0-save-lib;
#X obj 450 434 r \$0-save-lib;
#X obj 866 421 r \$0-load-lib;
#X obj 605 348 bng 16 250 50 0 \$0-load-lib empty LOAD\ FROM\ LIBRARY 20 8 0 10 #fcfcfc #000000 #000000;
#X obj 454 349 bng 16 250 50 0 \$0-save-lib empty SAVE\ TO\ LIBRARY 20 8 0 10 #fcfcfc #000000 #000000;
#X obj 769 383 s \$0-banks;
#X obj 495 453 r \$0-banks;
#X obj 911 440 r \$0-banks;
#X obj 820 735 r \$0-banks;
#X obj 357 647 tabplay~ sample-editor;
#X obj 259 349 bng 16 250 50 0 \$0-play empty Play 20 8 0 10 #fcfcfc #000000 #000000;
#X obj 357 626 r \$0-play;
#X obj 357 669 dac~;
#X msg 1260 141 \; pd dsp 0;
#X obj 1260 47 loadbang;
#X obj 1260 116 delay 1;
#X obj 1260 69 t b b;
#X msg 1322 141 \; pd dsp 1;
#X obj 1322 86 delay 1000;
#X obj 1007 575 ==;
#X msg 1027 557 0;
#X obj 988 539 t b f b;
#X obj 1007 611 sel 1;
#X obj 1007 593 tgl 16 0 empty empty empty 0 -8 0 10 #fcfcfc #000000 #000000 0 1;
#X msg 1007 632 \; sample-editor const 0;
#X obj 1077 146 r \$0-banks;
#X obj 810 52 text define -k kick;
#A set kick0 4608 \; kick1 23088 \; kick2 11245 \; kick3 23088 \; kick4 7936 \; kick5 7263 \; kick6 6687 \; kick7 5631 \; kick8 11695 \; kick9 24447 \;;
#X f 27;
#X obj 810 72 text define -k snare;
#A set snare0 5774 \; snare1 13440 \; snare2 12800 \; snare3 29808 \; snare4 10943 \; snare5 4458 \; snare6 12800 \; snare7 35683 \;;
#X f 27;
#X obj 810 92 text define -k clap;
#A set clap0 5928 \; clap1 9088 \; clap2 5888 \; clap3 8464 \; clap4 6560 \; clap5 4744 \; clap7 29312 \; clap9 7104 \; clap8 5216 \;;
#X f 27;
#X obj 810 112 text define -k hat;
#A set hat0 21177 \; hat1 30432 \; hat3 11040 \;;
#X f 27;
#X obj 810 132 text define -k shaker;
#A set;
#X f 27;
#X obj 810 152 text define -k percs;
#A set;
#X f 27;
#X obj 108 113 cnv 16 106 20 empty empty empty 20 12 0 10 #ffffff #404040 0;
#X obj 574 42 loadbang;
#X msg 574 63 0;
#X msg 691 698 \$2\$1;
#X obj 691 652 pack f s;
#X obj 736 634 r \$0-banks;
#X obj 1077 164 t b s;
#X obj 975 195 i;
#X connect 0 0 3 0;
#X connect 1 0 2 0;
#X connect 2 0 49 0;
#X connect 2 0 51 0;
#X connect 3 0 1 0;
#X connect 9 0 8 0;
#X connect 11 0 26 0;
#X connect 11 1 13 0;
#X connect 12 0 10 1;
#X connect 14 0 11 2;
#X connect 15 0 16 0;
#X connect 15 0 19 1;
#X connect 15 0 22 1;
#X connect 15 0 10 1;
#X connect 15 0 24 1;
#X connect 15 0 93 0;
#X connect 17 0 18 0;
#X connect 19 0 37 0;
#X connect 20 0 21 0;
#X connect 21 0 53 0;
#X connect 21 0 75 0;
#X connect 22 0 46 0;
#X connect 23 0 10 0;
#X connect 24 0 90 0;
#X connect 26 0 27 0;
#X connect 26 1 25 0;
#X connect 29 0 36 0;
#X connect 36 0 39 0;
#X connect 36 1 40 0;
#X connect 36 2 41 0;
#X connect 36 3 42 0;
#X connect 36 4 43 0;
#X connect 36 5 44 0;
#X connect 37 0 38 0;
#X connect 38 0 17 0;
#X connect 39 0 59 0;
#X connect 40 0 59 0;
#X connect 41 0 59 0;
#X connect 42 0 59 0;
#X connect 43 0 59 0;
#X connect 44 0 59 0;
#X connect 45 0 20 0;
#X connect 46 0 45 0;
#X connect 48 0 0 0;
#X connect 49 0 50 0;
#X connect 50 0 5 0;
#X connect 52 0 23 1;
#X connect 54 0 24 0;
#X connect 55 0 19 0;
#X connect 56 0 22 0;
#X connect 60 0 37 1;
#X connect 61 0 46 1;
#X connect 62 0 10 3;
#X connect 63 0 66 0;
#X connect 63 0 66 1;
#X connect 65 0 63 0;
#X connect 68 0 70 0;
#X connect 69 0 67 0;
#X connect 70 0 69 0;
#X connect 70 1 72 0;
#X connect 72 0 71 0;
#X connect 73 0 77 0;
#X connect 74 0 73 1;
#X connect 75 1 73 0;
#X connect 75 2 74 0;
#X connect 76 0 78 0;
#X connect 77 0 76 0;
#X connect 79 0 92 0;
#X connect 87 0 88 0;
#X connect 88 0 29 0;
#X connect 88 0 15 0;
#X connect 89 0 23 0;
#X connect 90 0 89 0;
#X connect 91 0 90 1;
#X connect 92 0 93 0;
#X connect 92 1 11 3;
#X connect 93 0 11 0;
#X coords 0 -1 1 1 650 280 2 100 100;
#X restore 6 5 pd sample-editor;
#X restore 612 486 pd sample-library;
#X msg 612 555 \; pd-sample-library vis \$1;
#X obj 612 511 r open-sample-library!;
#X connect 1 0 2 0;
#X connect 2 0 0 0;
#X connect 4 0 6 0;
#X connect 5 0 4 0;
#X connect 8 0 11 0;
#X connect 10 0 8 0;
#X connect 12 0 14 0;
#X connect 15 0 12 0;
#X connect 16 0 18 0;
#X connect 17 0 16 0;
#X connect 20 0 23 0;
#X connect 22 0 20 0;
#X connect 24 0 27 0;
#X connect 26 0 24 0;
#X connect 28 0 31 0;
#X connect 29 0 28 0;
#X connect 32 0 35 0;
#X connect 34 0 32 0;
#X connect 36 0 39 0;
#X connect 38 0 36 0;
#X connect 40 0 43 0;
#X connect 42 0 40 0;
#X connect 44 0 47 0;
#X connect 45 0 44 0;
#X connect 48 0 51 0;
#X connect 49 0 48 0;
#X connect 52 0 55 0;
#X connect 54 0 52 0;
#X connect 57 0 59 0;
#X connect 58 0 57 0;
#X connect 60 0 62 0;
#X connect 62 0 61 0;
#X connect 63 0 66 0;
#X connect 65 0 63 0;
#X connect 67 0 70 0;
#X connect 71 0 67 0;
#X restore 28 32 pd upper-left-menu+manual;
#N canvas 63 88 450 300 CPU-load 0;
#X floatatom 118 256 0 0 0 0 - - - 0;
#X obj 118 168 cputime;
#X obj 118 28 loadbang;
#X obj 118 112 metro 1000;
#X msg 118 56 1;
#X floatatom 118 84 0 0 0 0 - - - 0;
#X obj 118 140 t b b;
#X obj 118 228 * 0.1;
#X obj 118 197 int;
#X text 163 84 <-- on/off;
#X obj 235 255 s CPU;
#X connect 0 0 10 0;
#X connect 1 0 8 0;
#X connect 2 0 4 0;
#X connect 3 0 6 0;
#X connect 4 0 5 0;
#X connect 5 0 3 0;
#X connect 6 0 1 0;
#X connect 6 1 1 1;
#X connect 7 0 0 0;
#X connect 8 0 7 0;
#X restore 28 52 pd CPU-load;
#X obj 28 87 declare -path patch_editor_abs/controller;
#X obj 28 105 declare -path patch_editor_abs;
#X obj 28 123 declare -path patch_editor_abs/test;
#X obj 28 142 declare -path sample-library;
#X obj 283 32 sample-library;
#X obj 384 69 pdcontrol;
#X msg 384 51 dir;
#X obj 384 87 pack s;
#X obj 384 30 r update-path;
#X obj 384 146 s patch-path-mother;
#X connect 7 0 9 0;
#X connect 8 0 7 0;
#X connect 9 0 11 0;
#X connect 10 0 8 0;
#X restore 7 283 pd patch-editor-do-not-delete;
#X text 7 264 DO NOT DELETE THIS OBJECT:;
#X floatatom 9 71 5 0 0 1 CPU% CPU - 24;
#X obj 8 8 cnv 5 5 5 empty empty PERFORMATISM\ MODULAR: 0 12 0 25 #fcfcfc #404040 0;
#X obj 9 128 bng 15 250 50 0 open-quick-guide! empty <--QUICK-GUIDE 17 7 0 10 #fcfcfc #000000 #000000;
#X obj 9 148 bng 15 250 50 0 open-manual! empty <--MANUAL 17 7 0 10 #fcfcfc #000000 #000000;
#X obj 5 37 cnv 5 5 5 empty empty (AUTOMATONISM\ MOD.) 0 12 0 12 #fcfcfc #404040 0;
#N canvas 0 64 1440 567 TO-DO 0;
#X obj 727 10 cnv 16 350 25 empty empty IN-PROGRESS 20 12 0 25 #ff8300 #404040 0;
#X obj 1086 9 cnv 16 350 25 empty empty DONE 20 12 0 25 #bbbbbb #404040 0;
#X obj 10 9 cnv 16 350 25 empty empty NICE-TO-HAVE 20 12 0 25 #ffc7c6 #404040 0;
#X obj 370 9 cnv 16 350 25 empty empty BACKLOG 20 12 0 25 #00ff04 #404040 0;
#X text 15 42 CROSSOVER-MODULE-------------------------;
#X text 10 102 DIET-DRUM-SEQ-------------------------;
#X text 15 62 - EXTRACT IT FROM THE FORUM-POST;
#X text 4 200 LIVE-MODE-------------------------;
#X text 4 220 - LIVE-MODE-FUNKTION hinzufügen - bei der bestimmte Tastenkombinationen erlaubt oder nicht erlaubt sind: Bsp: das Öffnen des Sampling Managers (verboten in LIVE-MODE) \, öffnen des MIXERS über TASTE M - (nur in LIVE-MODE);
#X text 1091 120 ORGAN-ORGANELLE-------------------------;
#X text 1093 362 - FIXING - DIET-AUDIO-MIX - SAVING PROBLEM;
#X text 1093 248 MIDI-TO-MIDI-OUT-------------------------;
#X text 1094 268 - ADD-DEVICE-FADER;
#X text 1093 285 CHORD-MODUL-------------------------;
#X text 1094 305 - MAKE ENDLESS-CHORDS that end with the next trigger in;
#X text 1093 345 AUDIO-TO-MIXER-------------------------;
#X text 1094 318 - Make a reset button;
#X text 1091 178 CHORD-MODUL-------------------------;
#X text 1092 228 - replace TRIGGER-IN WITH GATE-IN;
#X text 1092 203 - Create a launchpad-concept for the module;
#X text 1091 140 - Combonelle-Patch als Modul einfügen \; --> CV-IN-MODIFICATION beenden;
#X text 1 286 DIET-DRUM-SEQ-------------------------;
#X text 373 46 Saturation needs load-fix;
#X text 373 139 NOISE-MODULE-------------------------;
#X text 373 159 - MODULE that creates NOISE from samples \, trigger through input volume \; - choose noise sample \; - Hipass + Lopass-Filter \; - Hold-Option (how long to hold after volumte Trigger has ended) \;;
#X text 1093 74 PUSH MK1 integration;
#X text 1090 90 - SCREEN-MODULE \; - ENCODER-READER \;;
#X text 377 249 CPU-REDUCTION;
#X text 374 265 - SWITCH FROM AUDIO to controll communication \;;
#X text 373 74 OSC-CLOCK-COMMUNICATION;
#X text 3 354 PERFORMANCE PAGE;
#X text 0 370 - mit allen wichtigen Parametern \, um eine solo-show hinzulegen: \; - next pattern \, before pattern \, stutter effekte \, wichtige Klangparamter (FILTER!!) etc.;
#X text 1090 40 Develop-Different-Saving Approach------------------------- \; - saving in folder autside abs.;
#X text 370 90 - test communication between macbook and rpi through network \; --> needs its own module in the mother patch!;
#X text 1 306 - PATTERN-LENGTH über langen DRUCK der Step-Taste erzeugen \; will be replaced by encoder-display menu \; ---> nice idea but right now not needed.;
#X text 10 122 - PATTERN-MANAGER erstellen - still necessary?;
#X text 1 430 Other old ideas: \; -GRößerer MIXER mit Hipass und EFX out erstellen \; -DIET-SAMPLER erweitern -> Banks und Samples. \; -organelle-organ-patch als osc einfügen \; -BEAT-SYNCED-LOOP-PLAYER-MODUL entwickeln \; -Multi-FX-Modul entwickeln \; -Paul-Stretch-Sampler-Modul bauen \; -Multi-Oszilator-Modul bauen- \; viele OSZIS in einem Modul \;;
#X text 737 45 MIDI-CLOCK-FOLLOWER-MODULE;
#X text 734 61 - create a module to follow an external midi clock \; - test it with the behringer crave \;;
#X text 734 131 - create a module to follow an external midi clock \; - test it with the behringer crave \;;
#X text 737 115 CREATE AN IMAGE OF THE RPI_SD-cARD;
#X text 737 185 Create an Desktop-Editor for the patches;
#X text 734 201 - why? in this way the audio out can be treated differently. Possiblities: Integration of Airwindows-Plugins. Special scripts etc. \;;
#X text 735 251 Copying-Drumpattern to other pattern slots;
#X text 735 291 Recorder needs counter across patches.;
#X restore 8 208 pd TO-DO;
#N canvas 209 175 1099 553 patchloader 0;
#X obj 118 358 pdcontrol;
#X msg 118 335 dir;
#X obj 118 405 pack s s s;
#X msg 118 428 set \$1/\$2;
#X obj 98 491 pack s;
#X msg 98 515 \; pd open main.pd \$1;
#X msg 188 345 \; pd-main.pd menuclose \;;
#X msg 151 381 symbol patch\$1;
#X obj 98 288 f;
#X obj 110 156 hradio 19 1 0 5 \$0-patch-number-s \$0-patch-number-r PATCH-NUMBER 0 -10 0 10 #fcfcfc #000000 #000000 0;
#X obj 266 156 bng 19 250 50 0 empty empty LOAD> -33 9 0 10 #fcfcfc #000000 #000000;
#X obj 126 263 + 1;
#X floatatom 126 289 5 0 0 0 - - - 0;
#X msg 98 454 /Users/johannklug/Documents/Bass\ Dieter/2025/Diet/MODULAR_LIVE_\ PERFORMER/patch5, f 78;
#N canvas 0 25 1440 789 push-controll 0;
#N canvas 208 233 1232 580 push-encoder 0;
#X obj 53 117 push-encoder-reader;
#X obj 53 13 ctlin 71;
#X obj 54 68 main-menu;
#X obj 105 50 r \$0-mm;
#N canvas 150 175 450 300 sm1 0;
#X obj 109 64 r \$0-sm;
#X obj 109 102 sel;
#X obj 75 170 outlet;
#X msg 108 123 1;
#X msg 135 123 0;
#X obj 75 149 spigot;
#X obj 75 37 inlet;
#X obj 124 83 r \$0-sm1;
#X connect 0 0 1 0;
#X connect 1 0 3 0;
#X connect 1 1 4 0;
#X connect 3 0 5 1;
#X connect 4 0 5 1;
#X connect 5 0 2 0;
#X connect 6 0 5 0;
#X connect 7 0 1 1;
#X restore 54 94 pd sm1;
#X text 37 -47 Encoder to volume (submenu1);
#X obj 183 92 r \$0-patch-number-s;
#X obj 54 143 s \$0-patch-number-r;
#X connect 0 0 7 0;
#X connect 1 0 2 0;
#X connect 2 0 4 0;
#X connect 3 0 2 1;
#X connect 4 0 0 0;
#X connect 6 0 0 1;
#X restore 41 291 pd push-encoder;
#N canvas 0 25 1440 789 push-display 0;
#X obj 146 -245 t b;
#X obj 387 -254 t b;
#X obj 147 -162 push-mk1-display 24;
#X obj 388 -41 push-mk1-display 27;
#X obj 146 -328 r main-menu;
#X obj 146 -273 main-menu;
#X obj 206 -302 r \$0-mm;
#X obj 387 -323 r main-menu;
#X obj 387 -270 main-menu;
#X obj 447 -297 r \$0-mm;
#X msg 147 -215 symbol MOTHER;
#X msg 167 -193 symbol PATCH;
#X msg 388 -234 symbol;
#X msg 408 -212 symbol LOAD!;
#X msg 418 -184 symbol;
#X msg 438 -162 symbol;
#X msg 458 -134 symbol;
#X msg 478 -112 symbol;
#X msg 488 -84 symbol;
#X msg 508 -62 symbol;
#X connect 0 0 10 0;
#X connect 0 0 11 0;
#X connect 1 0 12 0;
#X connect 1 0 13 0;
#X connect 1 0 14 0;
#X connect 1 0 15 0;
#X connect 1 0 16 0;
#X connect 1 0 17 0;
#X connect 1 0 18 0;
#X connect 1 0 19 0;
#X connect 4 0 5 0;
#X connect 5 0 0 0;
#X connect 6 0 5 1;
#X connect 7 0 8 0;
#X connect 8 0 1 0;
#X connect 9 0 8 1;
#X connect 10 0 2 0;
#X connect 11 0 2 1;
#X connect 12 0 3 0;
#X connect 13 0 3 1;
#X connect 14 0 3 2;
#X connect 15 0 3 3;
#X connect 16 0 3 4;
#X connect 17 0 3 5;
#X connect 18 0 3 6;
#X connect 19 0 3 7;
#X restore 42 258 pd push-display;
#X msg 463 302 13;
#X msg 495 302 0;
#X obj 464 231 hradio 16 1 0 8 empty empty empty 0 -8 0 10 #fcfcfc #000000 #000000 0;
#X obj 464 270 sel 0;
#X msg 545 302 13;
#X msg 577 302 0;
#X obj 546 270 sel 1;
#X obj 1127 252 s \$0-mm;
#X obj 465 66 main-menu;
#X obj 471 43 r \$0-mm;
#X obj 544 63 main-menu;
#X obj 550 40 r \$0-mm;
#X obj 465 87 sel 127;
#X msg 465 108 0;
#X obj 545 88 sel 127;
#X msg 545 109 1;
#X obj 439 405 s \$0-sm;
#X obj 1127 161 loadbang;
#X obj 1126 57 s \$0-sm1;
#X text 1190 58 The Submenu number of the subpatch;
#X obj 1126 18 loadbang;
#X obj 1126 92 loadbang;
#X msg 1126 112 1;
#X obj 1126 131 s \$0-sm2;
#X obj 361 43 loadbang;
#X msg 361 64 0;
#X obj 465 19 ctlin 20;
#X obj 543 19 ctlin 21;
#X obj 464 384 ctlout 20;
#X obj 546 384 ctlout 21;
#X obj 614 63 main-menu;
#X obj 620 40 r \$0-mm;
#X obj 615 88 sel 127;
#X obj 613 19 ctlin 22;
#X obj 684 63 main-menu;
#X obj 690 40 r \$0-mm;
#X obj 685 88 sel 127;
#X obj 683 19 ctlin 23;
#X obj 745 65 main-menu;
#X obj 751 42 r \$0-mm;
#X obj 824 62 main-menu;
#X obj 830 39 r \$0-mm;
#X obj 745 86 sel 127;
#X obj 825 87 sel 127;
#X obj 894 62 main-menu;
#X obj 900 39 r \$0-mm;
#X obj 895 87 sel 127;
#X obj 964 62 main-menu;
#X obj 970 39 r \$0-mm;
#X obj 965 87 sel 127;
#X obj 745 18 ctlin 24;
#X obj 823 18 ctlin 25;
#X obj 893 18 ctlin 26;
#X obj 963 18 ctlin 27;
#X msg 615 109 2;
#X msg 685 109 3;
#X msg 745 107 4;
#X msg 825 108 5;
#X msg 895 108 6;
#X msg 965 108 7;
#X msg 615 301 13;
#X msg 647 301 0;
#X msg 697 301 13;
#X msg 729 301 0;
#X msg 768 301 13;
#X msg 800 301 0;
#X msg 850 301 13;
#X msg 882 301 0;
#X msg 920 300 13;
#X msg 952 300 0;
#X msg 1002 300 13;
#X msg 1034 300 0;
#X obj 616 269 sel 2;
#X obj 698 269 sel 3;
#X obj 769 269 sel 4;
#X obj 851 269 sel 5;
#X obj 921 268 sel 6;
#X obj 1003 268 sel 7;
#X obj 616 383 ctlout 22;
#X obj 698 383 ctlout 23;
#X obj 769 383 ctlout 24;
#X obj 851 383 ctlout 25;
#X obj 921 382 ctlout 26;
#X obj 1003 382 ctlout 27;
#X obj 418 428 s \$0-diet-drum-seq-set-instrument-r;
#X msg 1127 200 6;
#X msg 1126 38 1;
#X obj 255 201 ctlin;
#X floatatom 260 235 5 0 0 0 - - - 0;
#X obj 329 528 notein;
#X obj 329 566 sel 92;
#X obj 329 587 bng 16 250 50 0 empty empty empty 0 -8 0 10 #fcfcfc #000000 #000000;
#X obj 329 548 stripnote;
#X obj 391 528 notein;
#X obj 391 587 bng 16 250 50 0 empty empty empty 0 -8 0 10 #fcfcfc #000000 #000000;
#X obj 391 548 stripnote;
#X obj 391 566 sel 93;
#X obj 459 528 notein;
#X obj 459 587 bng 16 250 50 0 empty empty empty 0 -8 0 10 #fcfcfc #000000 #000000;
#X obj 459 548 stripnote;
#X obj 521 528 notein;
#X obj 521 587 bng 16 250 50 0 empty empty empty 0 -8 0 10 #fcfcfc #000000 #000000;
#X obj 521 548 stripnote;
#X obj 589 528 notein;
#X obj 589 587 bng 16 250 50 0 empty empty empty 0 -8 0 10 #fcfcfc #000000 #000000;
#X obj 589 548 stripnote;
#X obj 651 528 notein;
#X obj 651 587 bng 16 250 50 0 empty empty empty 0 -8 0 10 #fcfcfc #000000 #000000;
#X obj 651 548 stripnote;
#X obj 719 528 notein;
#X obj 719 587 bng 16 250 50 0 empty empty empty 0 -8 0 10 #fcfcfc #000000 #000000;
#X obj 719 548 stripnote;
#X obj 781 528 notein;
#X obj 781 587 bng 16 250 50 0 empty empty empty 0 -8 0 10 #fcfcfc #000000 #000000;
#X obj 781 548 stripnote;
#X obj 459 566 sel 94;
#X obj 521 566 sel 95;
#X obj 589 566 sel 96;
#X obj 651 566 sel 97;
#X obj 719 566 sel 98;
#X obj 781 566 sel 99;
#X msg 329 608 0;
#X msg 391 608 1;
#X msg 459 608 2;
#X msg 521 608 3;
#X msg 589 608 4;
#X msg 651 608 5;
#X msg 719 608 6;
#X msg 781 608 7;
#X obj 878 605 r \$0-patchnr;
#X obj 878 683 noteout;
#X msg 878 662 92 60;
#X msg 911 642 92 0;
#X obj 878 623 sel 0;
#X obj 959 604 r \$0-patchnr;
#X obj 959 682 noteout;
#X obj 959 622 sel 1;
#X msg 959 661 93 60;
#X msg 992 641 93 0;
#X obj 1038 604 r \$0-patchnr;
#X obj 1038 682 noteout;
#X obj 1038 622 sel 2;
#X msg 1038 661 94 60;
#X msg 1071 641 94 0;
#X obj 1118 604 r \$0-patchnr;
#X obj 1118 682 noteout;
#X obj 1199 603 r \$0-patchnr;
#X obj 1199 681 noteout;
#X obj 1278 603 r \$0-patchnr;
#X obj 1278 681 noteout;
#X obj 1118 622 sel 3;
#X obj 1199 621 sel 4;
#X obj 1278 621 sel 5;
#X msg 1118 661 95 60;
#X msg 1151 641 95 0;
#X msg 1199 660 96 60;
#X msg 1232 640 96 0;
#X msg 1278 660 97 60;
#X msg 1311 640 97 0;
#X obj 1357 603 r \$0-patchnr;
#X obj 1357 681 noteout;
#X obj 1436 603 r \$0-patchnr;
#X obj 1436 681 noteout;
#X obj 1357 621 sel 6;
#X obj 1436 621 sel 7;
#X msg 1357 660 98 60;
#X msg 1390 640 98 0;
#X msg 1436 660 99 60;
#X msg 1469 640 99 0;
#X obj 1056 485 r main-menu;
#X obj 1056 512 sel 1;
#X obj 1098 446 r \$0-mm;
#X obj 1056 547 bng 16 250 50 0 empty empty empty 0 -8 0 10 #fcfcfc #000000 #000000;
#X floatatom 1005 514 5 0 0 0 - - - 0;
#X connect 2 0 30 0;
#X connect 3 0 30 0;
#X connect 4 0 5 0;
#X connect 4 0 8 0;
#X connect 4 0 18 0;
#X connect 4 0 74 0;
#X connect 4 0 75 0;
#X connect 4 0 76 0;
#X connect 4 0 77 0;
#X connect 4 0 78 0;
#X connect 4 0 79 0;
#X connect 4 0 86 0;
#X connect 5 0 2 0;
#X connect 5 1 3 0;
#X connect 6 0 31 0;
#X connect 7 0 31 0;
#X connect 8 0 6 0;
#X connect 8 1 7 0;
#X connect 10 0 14 0;
#X connect 11 0 10 1;
#X connect 12 0 16 0;
#X connect 13 0 12 1;
#X connect 14 0 15 0;
#X connect 15 0 4 0;
#X connect 16 0 17 0;
#X connect 17 0 4 0;
#X connect 19 0 87 0;
#X connect 22 0 88 0;
#X connect 23 0 24 0;
#X connect 24 0 25 0;
#X connect 26 0 27 0;
#X connect 27 0 4 0;
#X connect 28 0 10 0;
#X connect 29 0 12 0;
#X connect 32 0 34 0;
#X connect 33 0 32 1;
#X connect 34 0 56 0;
#X connect 35 0 32 0;
#X connect 36 0 38 0;
#X connect 37 0 36 1;
#X connect 38 0 57 0;
#X connect 39 0 36 0;
#X connect 40 0 44 0;
#X connect 41 0 40 1;
#X connect 42 0 45 0;
#X connect 43 0 42 1;
#X connect 44 0 58 0;
#X connect 45 0 59 0;
#X connect 46 0 48 0;
#X connect 47 0 46 1;
#X connect 48 0 60 0;
#X connect 49 0 51 0;
#X connect 50 0 49 1;
#X connect 51 0 61 0;
#X connect 52 0 40 0;
#X connect 53 0 42 0;
#X connect 54 0 46 0;
#X connect 55 0 49 0;
#X connect 56 0 4 0;
#X connect 57 0 4 0;
#X connect 58 0 4 0;
#X connect 59 0 4 0;
#X connect 60 0 4 0;
#X connect 61 0 4 0;
#X connect 62 0 80 0;
#X connect 63 0 80 0;
#X connect 64 0 81 0;
#X connect 65 0 81 0;
#X connect 66 0 82 0;
#X connect 67 0 82 0;
#X connect 68 0 83 0;
#X connect 69 0 83 0;
#X connect 70 0 84 0;
#X connect 71 0 84 0;
#X connect 72 0 85 0;
#X connect 73 0 85 0;
#X connect 74 0 62 0;
#X connect 74 1 63 0;
#X connect 75 0 64 0;
#X connect 75 1 65 0;
#X connect 76 0 66 0;
#X connect 76 1 67 0;
#X connect 77 0 68 0;
#X connect 77 1 69 0;
#X connect 78 0 70 0;
#X connect 78 1 71 0;
#X connect 79 0 72 0;
#X connect 79 1 73 0;
#X connect 87 0 9 0;
#X connect 88 0 20 0;
#X connect 89 1 90 0;
#X connect 91 0 94 0;
#X connect 91 1 94 1;
#X connect 92 0 93 0;
#X connect 93 0 123 0;
#X connect 94 0 92 0;
#X connect 95 0 97 0;
#X connect 95 1 97 1;
#X connect 96 0 124 0;
#X connect 97 0 98 0;
#X connect 98 0 96 0;
#X connect 99 0 101 0;
#X connect 99 1 101 1;
#X connect 100 0 125 0;
#X connect 101 0 117 0;
#X connect 102 0 104 0;
#X connect 102 1 104 1;
#X connect 103 0 126 0;
#X connect 104 0 118 0;
#X connect 105 0 107 0;
#X connect 105 1 107 1;
#X connect 106 0 127 0;
#X connect 107 0 119 0;
#X connect 108 0 110 0;
#X connect 108 1 110 1;
#X connect 109 0 128 0;
#X connect 110 0 120 0;
#X connect 111 0 113 0;
#X connect 111 1 113 1;
#X connect 112 0 129 0;
#X connect 113 0 121 0;
#X connect 114 0 116 0;
#X connect 114 1 116 1;
#X connect 115 0 130 0;
#X connect 116 0 122 0;
#X connect 117 0 100 0;
#X connect 118 0 103 0;
#X connect 119 0 106 0;
#X connect 120 0 109 0;
#X connect 121 0 112 0;
#X connect 122 0 115 0;
#X connect 131 0 135 0;
#X connect 133 0 132 0;
#X connect 134 0 132 0;
#X connect 135 0 133 0;
#X connect 135 1 134 0;
#X connect 136 0 138 0;
#X connect 138 0 139 0;
#X connect 138 1 140 0;
#X connect 139 0 137 0;
#X connect 140 0 137 0;
#X connect 141 0 143 0;
#X connect 143 0 144 0;
#X connect 143 1 145 0;
#X connect 144 0 142 0;
#X connect 145 0 142 0;
#X connect 146 0 152 0;
#X connect 148 0 153 0;
#X connect 150 0 154 0;
#X connect 152 0 155 0;
#X connect 152 1 156 0;
#X connect 153 0 157 0;
#X connect 153 1 158 0;
#X connect 154 0 159 0;
#X connect 154 1 160 0;
#X connect 155 0 147 0;
#X connect 156 0 147 0;
#X connect 157 0 149 0;
#X connect 158 0 149 0;
#X connect 159 0 151 0;
#X connect 160 0 151 0;
#X connect 161 0 165 0;
#X connect 163 0 166 0;
#X connect 165 0 167 0;
#X connect 165 1 168 0;
#X connect 166 0 169 0;
#X connect 166 1 170 0;
#X connect 167 0 162 0;
#X connect 168 0 162 0;
#X connect 169 0 164 0;
#X connect 170 0 164 0;
#X connect 171 0 172 0;
#X connect 171 0 175 0;
#X connect 172 0 174 0;
#X connect 173 0 172 1;
#X restore 402 107 pd push-controll;
#X obj 110 100 cnv 5 5 5 empty empty OPEN/CLOSE\ PATCHES: 0 12 0 10 #fcfcfc #404040 0;
#X msg 420 316 \; pd dsp 0;
#X obj 420 291 delay 1;
#X obj 98 310 t b b f b b;
#X obj 98 381 del 200;
#X obj 30 15 loadbang;
#X msg 30 36 0;
#X obj 250 22 r \$0-patchnr;
#X floatatom 126 58 5 0 0 0 - - - 0;
#X obj 250 47 t b f;
#X connect 0 0 2 0;
#X connect 1 0 0 0;
#X connect 2 0 3 0;
#X connect 3 0 13 0;
#X connect 4 0 5 0;
#X connect 7 0 2 1;
#X connect 8 0 18 0;
#X connect 9 0 11 0;
#X connect 10 0 8 0;
#X connect 11 0 8 1;
#X connect 11 0 12 0;
#X connect 13 0 4 0;
#X connect 17 0 16 0;
#X connect 18 0 19 0;
#X connect 18 1 1 0;
#X connect 18 2 7 0;
#X connect 18 3 6 0;
#X connect 19 0 13 0;
#X connect 20 0 21 0;
#X connect 21 0 9 0;
#X connect 22 0 24 0;
#X connect 23 0 9 0;
#X connect 24 0 10 0;
#X connect 24 1 23 0;
#X coords 0 -1 1 1 200 120 2 100 100;
#X restore 201 190 pd patchloader;
#X text 200 51 PERFORMATISM MODULAR is a collection of patches that can be combined like a modular synth. It is based on the incredible AUTOMATISM MODULAR but also has some significant differences.;
#N canvas 121 146 462 311 network-communicator 0;
#X floatatom 330 127 5 0 0 0 BPM - - 0;
#X floatatom 331 196 5 0 0 0 IP-ADRESS....\  - - 0;
#X coords 0 -1 1 1 280 120 1 100 100;
#X restore 407 190 pd network-communicator;
#X obj 9 168 bng 15 250 50 0 open-sample-library! empty <--SAMPLE-EDITOR 17 7 0 10 #fcfcfc #000000 #000000;
#X obj 331 8 cnv 5 5 5 empty empty >>>KEEP\ THIS\ PATCH\ OPEN!<<< 0 12 0 25 #ffffff #ff0400 0;
#X text 199 103 THIS PATCH:;
#X text 199 122 1 Opens and closes performance patches \; 2 Loads and keeps the sample library \; 3 Establishes sync over network (not yet) \;;
#X obj 201 317 push-mk1;
#N canvas 63 88 1343 504 audio-to-hw 0;
#X text 393 98 This pd should adress the connection to the soundcard;
#X text 393 138 For RPI: Load vsts + 8 audio outs \; For desktop: Stereoausgang ohne vst \, da kompatibilität nicht klar ist.;
#X coords 0 -1 1 1 280 60 1 100 100;
#X restore 407 317 pd audio-to-hw;
