#N canvas 69 61 1237 714 10;
#X obj 111 128 i;
#X obj 207 128 i;
#X obj 305 127 i;
#X obj 405 127 i;
#X obj 111 398 i;
#X obj 207 398 i;
#X obj 305 397 i;
#X obj 405 397 i;
#X obj 111 68 r \$1-param-9-s;
#X obj 111 166 s \$1-param-9-t;
#X obj 111 338 r \$1-param-17-s;
#X obj 111 436 s \$1-param-17-t;
#X obj 207 68 r \$1-param-10-s;
#X obj 207 166 s \$1-param-10-t;
#X obj 305 67 r \$1-param-11-s;
#X obj 305 165 s \$1-param-11-t;
#X obj 405 67 r \$1-param-12-s;
#X obj 405 165 s \$1-param-12-t;
#X obj 111 248 i;
#X obj 207 248 i;
#X obj 305 247 i;
#X obj 405 247 i;
#X obj 111 188 r \$1-param-13-s;
#X obj 111 286 s \$1-param-13-t;
#X obj 207 188 r \$1-param-14-s;
#X obj 207 286 s \$1-param-14-t;
#X obj 305 187 r \$1-param-15-s;
#X obj 305 285 s \$1-param-15-t;
#X obj 405 187 r \$1-param-16-s;
#X obj 405 285 s \$1-param-16-t;
#X text 114 47 mod 1;
#X text 111 319 mod 1;
#X obj 111 528 i;
#X obj 207 528 i;
#X obj 305 527 i;
#X obj 405 527 i;
#X obj 207 338 r \$1-param-18-s;
#X obj 207 436 s \$1-param-18-t;
#X obj 305 337 r \$1-param-19-s;
#X obj 305 435 s \$1-param-19-t;
#X obj 405 337 r \$1-param-20-s;
#X obj 405 435 s \$1-param-20-t;
#X obj 111 468 r \$1-param-21-s;
#X obj 111 566 s \$1-param-21-t;
#X obj 207 468 r \$1-param-22-s;
#X obj 207 566 s \$1-param-22-t;
#X obj 305 467 r \$1-param-23-s;
#X obj 305 565 s \$1-param-23-t;
#X obj 405 467 r \$1-param-24-s;
#X obj 405 565 s \$1-param-24-t;
#X connect 0 0 9 0;
#X connect 1 0 13 0;
#X connect 2 0 15 0;
#X connect 3 0 17 0;
#X connect 4 0 11 0;
#X connect 5 0 37 0;
#X connect 6 0 39 0;
#X connect 7 0 41 0;
#X connect 8 0 0 0;
#X connect 10 0 4 0;
#X connect 12 0 1 0;
#X connect 14 0 2 0;
#X connect 16 0 3 0;
#X connect 18 0 23 0;
#X connect 19 0 25 0;
#X connect 20 0 27 0;
#X connect 21 0 29 0;
#X connect 22 0 18 0;
#X connect 24 0 19 0;
#X connect 26 0 20 0;
#X connect 28 0 21 0;
#X connect 32 0 43 0;
#X connect 33 0 45 0;
#X connect 34 0 47 0;
#X connect 35 0 49 0;
#X connect 36 0 5 0;
#X connect 38 0 6 0;
#X connect 40 0 7 0;
#X connect 42 0 32 0;
#X connect 44 0 33 0;
#X connect 46 0 34 0;
#X connect 48 0 35 0;
#X coords 0 714 1 713 220 120 0;
