#N canvas 6 67 1293 763 10;
#X obj 53 419 push-encoder-reader;
#X obj 298 414 push-encoder-reader;
#X obj 536 413 push-encoder-reader;
#X obj 781 412 push-encoder-reader;
#X obj 56 628 push-encoder-reader;
#X obj 300 622 push-encoder-reader;
#X obj 538 622 push-encoder-reader;
#X text 37 257 Encoder to volume (submenu1);
#X obj 95 401 r \$1-param-1-s;
#X obj 53 437 s \$1-param-1-r;
#X obj 86 310 r \$1-modul-active;
#X obj 53 329 spigot;
#X obj 331 305 r \$1-modul-active;
#X obj 298 324 spigot;
#X obj 569 304 r \$1-modul-active;
#X obj 536 323 spigot;
#X obj 814 302 r \$1-modul-active;
#X obj 781 321 spigot;
#X obj 89 517 r \$1-modul-active;
#X obj 56 536 spigot;
#X obj 333 509 r \$1-modul-active;
#X obj 300 528 spigot;
#X obj 571 512 r \$1-modul-active;
#X obj 538 531 spigot;
#X obj 53 290 r enc1;
#X obj 298 287 r enc2;
#X obj 536 283 r enc3;
#X obj 781 283 r enc4;
#X obj 56 497 r enc5;
#X obj 300 492 r enc6;
#X obj 538 495 r enc7;
#X obj 782 501 r enc8;
#X obj 298 432 s \$1-param-2-r;
#X obj 536 431 s \$1-param-3-r;
#X obj 781 430 s \$1-param-4-r;
#X obj 56 646 s \$1-param-5-r;
#X obj 300 640 s \$1-param-6-r;
#X obj 538 640 s \$1-param-7-r;
#X obj 409 392 r \$1-param-2-s;
#X obj 647 391 r \$1-param-3-s;
#X obj 892 394 r \$1-param-4-s;
#X obj 167 606 r \$1-param-5-s;
#X obj 411 600 r \$1-param-6-s;
#X obj 649 600 r \$1-param-7-s;
#X obj 782 634 push-encoder-reader;
#X obj 815 519 r \$1-modul-active;
#X obj 782 538 spigot;
#X obj 893 612 r \$1-param-8-s;
#X obj 782 652 s \$1-param-8-r;
#X obj 53 904 push-encoder-reader;
#X obj 86 790 r \$1-modul-active;
#X obj 53 809 spigot;
#X obj 53 770 r enc1;
#X obj 164 882 r \$1-param-9-s;
#X obj 53 925 s \$1-param-9-r;
#X obj 86 847 route 1;
#X obj 86 829 r mod-menu;
#X obj 86 865 tgl 16 0 empty empty empty 0 -8 0 10 #fcfcfc #000000 #000000 0 1;
#X obj 53 886 spigot;
#X text 48 747 Encoder to mod 1;
#X obj 85 347 r mod-menu;
#X obj 85 365 unpack;
#X obj 118 383 - 1;
#X obj 86 383 * -1;
#X obj 53 401 spigot;
#X obj 330 342 r mod-menu;
#X obj 330 360 unpack;
#X obj 363 378 - 1;
#X obj 331 378 * -1;
#X obj 298 396 spigot;
#X obj 568 341 r mod-menu;
#X obj 568 359 unpack;
#X obj 601 377 - 1;
#X obj 569 377 * -1;
#X obj 536 395 spigot;
#X obj 813 339 r mod-menu;
#X obj 813 357 unpack;
#X obj 846 375 - 1;
#X obj 814 375 * -1;
#X obj 781 393 spigot;
#X obj 88 554 r mod-menu;
#X obj 88 572 unpack;
#X obj 121 590 - 1;
#X obj 89 590 * -1;
#X obj 56 608 spigot;
#X obj 332 546 r mod-menu;
#X obj 332 564 unpack;
#X obj 365 582 - 1;
#X obj 333 582 * -1;
#X obj 300 600 spigot;
#X obj 570 549 r mod-menu;
#X obj 570 567 unpack;
#X obj 603 585 - 1;
#X obj 571 585 * -1;
#X obj 538 603 spigot;
#X obj 814 556 r mod-menu;
#X obj 814 574 unpack;
#X obj 847 592 - 1;
#X obj 815 592 * -1;
#X obj 782 610 spigot;
#X obj 303 904 push-encoder-reader;
#X obj 336 790 r \$1-modul-active;
#X obj 303 809 spigot;
#X obj 336 847 route 1;
#X obj 336 829 r mod-menu;
#X obj 336 865 tgl 16 0 empty empty empty 0 -8 0 10 #fcfcfc #000000 #000000 0 1;
#X obj 303 886 spigot;
#X obj 303 770 r enc2;
#X obj 303 925 s \$1-param-10-r;
#X obj 414 882 r \$1-param-10-s;
#X obj 53 1374 push-encoder-reader;
#X obj 86 1260 r \$1-modul-active;
#X obj 53 1279 spigot;
#X obj 53 1240 r enc1;
#X obj 86 1299 r mod-menu;
#X obj 86 1335 tgl 16 0 empty empty empty 0 -8 0 10 #fcfcfc #000000 #000000 0 1;
#X obj 53 1356 spigot;
#X obj 86 1317 route 2;
#X obj 164 1352 r \$1-param-17-s;
#X obj 53 1395 s \$1-param-17-r;
#X obj 533 904 push-encoder-reader;
#X obj 566 790 r \$1-modul-active;
#X obj 533 809 spigot;
#X obj 566 847 route 1;
#X obj 566 829 r mod-menu;
#X obj 566 865 tgl 16 0 empty empty empty 0 -8 0 10 #fcfcfc #000000 #000000 0 1;
#X obj 533 886 spigot;
#X obj 533 770 r enc3;
#X obj 644 882 r \$1-param-11-s;
#X obj 533 925 s \$1-param-11-r;
#X obj 783 904 push-encoder-reader;
#X obj 816 790 r \$1-modul-active;
#X obj 783 809 spigot;
#X obj 816 847 route 1;
#X obj 816 829 r mod-menu;
#X obj 816 865 tgl 16 0 empty empty empty 0 -8 0 10 #fcfcfc #000000 #000000 0 1;
#X obj 783 886 spigot;
#X obj 783 770 r enc4;
#X obj 894 882 r \$1-param-12-s;
#X obj 783 925 s \$1-param-12-r;
#X text 48 1217 Encoder to mod 2;
#X obj 53 1104 push-encoder-reader;
#X obj 86 990 r \$1-modul-active;
#X obj 53 1009 spigot;
#X obj 86 1047 route 1;
#X obj 86 1029 r mod-menu;
#X obj 86 1065 tgl 16 0 empty empty empty 0 -8 0 10 #fcfcfc #000000 #000000 0 1;
#X obj 53 1086 spigot;
#X obj 303 1104 push-encoder-reader;
#X obj 336 990 r \$1-modul-active;
#X obj 303 1009 spigot;
#X obj 336 1047 route 1;
#X obj 336 1029 r mod-menu;
#X obj 336 1065 tgl 16 0 empty empty empty 0 -8 0 10 #fcfcfc #000000 #000000 0 1;
#X obj 303 1086 spigot;
#X obj 533 1104 push-encoder-reader;
#X obj 566 990 r \$1-modul-active;
#X obj 533 1009 spigot;
#X obj 566 1047 route 1;
#X obj 566 1029 r mod-menu;
#X obj 566 1065 tgl 16 0 empty empty empty 0 -8 0 10 #fcfcfc #000000 #000000 0 1;
#X obj 533 1086 spigot;
#X obj 783 1104 push-encoder-reader;
#X obj 816 990 r \$1-modul-active;
#X obj 783 1009 spigot;
#X obj 816 1047 route 1;
#X obj 816 1029 r mod-menu;
#X obj 816 1065 tgl 16 0 empty empty empty 0 -8 0 10 #fcfcfc #000000 #000000 0 1;
#X obj 783 1086 spigot;
#X obj 164 1082 r \$1-param-13-s;
#X obj 53 1125 s \$1-param-13-r;
#X obj 413 1082 r \$1-param-14-s;
#X obj 303 1125 s \$1-param-14-r;
#X obj 644 1082 r \$1-param-15-s;
#X obj 533 1125 s \$1-param-15-r;
#X obj 894 1082 r \$1-param-16-s;
#X obj 783 1125 s \$1-param-16-r;
#X obj 303 1374 push-encoder-reader;
#X obj 336 1260 r \$1-modul-active;
#X obj 303 1279 spigot;
#X obj 336 1299 r mod-menu;
#X obj 336 1335 tgl 16 0 empty empty empty 0 -8 0 10 #fcfcfc #000000 #000000 0 1;
#X obj 303 1356 spigot;
#X obj 336 1317 route 2;
#X obj 414 1352 r \$1-param-18-s;
#X obj 303 1395 s \$1-param-18-r;
#X obj 53 970 r enc5;
#X obj 303 970 r enc6;
#X obj 533 970 r enc7;
#X obj 783 970 r enc8;
#X obj 303 1240 r enc2;
#X obj 533 1374 push-encoder-reader;
#X obj 566 1260 r \$1-modul-active;
#X obj 533 1279 spigot;
#X obj 566 1299 r mod-menu;
#X obj 566 1335 tgl 16 0 empty empty empty 0 -8 0 10 #fcfcfc #000000 #000000 0 1;
#X obj 533 1356 spigot;
#X obj 566 1317 route 2;
#X obj 783 1374 push-encoder-reader;
#X obj 816 1260 r \$1-modul-active;
#X obj 783 1279 spigot;
#X obj 816 1299 r mod-menu;
#X obj 816 1335 tgl 16 0 empty empty empty 0 -8 0 10 #fcfcfc #000000 #000000 0 1;
#X obj 783 1356 spigot;
#X obj 816 1317 route 2;
#X obj 533 1240 r enc3;
#X obj 783 1240 r enc4;
#X obj 644 1352 r \$1-param-19-s;
#X obj 533 1395 s \$1-param-19-r;
#X obj 894 1352 r \$1-param-20-s;
#X obj 783 1395 s \$1-param-20-r;
#X obj 53 1564 push-encoder-reader;
#X obj 86 1450 r \$1-modul-active;
#X obj 53 1469 spigot;
#X obj 86 1489 r mod-menu;
#X obj 86 1525 tgl 16 0 empty empty empty 0 -8 0 10 #fcfcfc #000000 #000000 0 1;
#X obj 53 1546 spigot;
#X obj 86 1507 route 2;
#X obj 303 1564 push-encoder-reader;
#X obj 336 1450 r \$1-modul-active;
#X obj 303 1469 spigot;
#X obj 336 1489 r mod-menu;
#X obj 336 1525 tgl 16 0 empty empty empty 0 -8 0 10 #fcfcfc #000000 #000000 0 1;
#X obj 303 1546 spigot;
#X obj 336 1507 route 2;
#X obj 533 1564 push-encoder-reader;
#X obj 566 1450 r \$1-modul-active;
#X obj 533 1469 spigot;
#X obj 566 1489 r mod-menu;
#X obj 566 1525 tgl 16 0 empty empty empty 0 -8 0 10 #fcfcfc #000000 #000000 0 1;
#X obj 533 1546 spigot;
#X obj 566 1507 route 2;
#X obj 783 1564 push-encoder-reader;
#X obj 816 1450 r \$1-modul-active;
#X obj 783 1469 spigot;
#X obj 816 1489 r mod-menu;
#X obj 816 1525 tgl 16 0 empty empty empty 0 -8 0 10 #fcfcfc #000000 #000000 0 1;
#X obj 783 1546 spigot;
#X obj 816 1507 route 2;
#X obj 53 1430 r enc5;
#X obj 303 1430 r enc6;
#X obj 533 1430 r enc7;
#X obj 783 1430 r enc8;
#X obj 164 1542 r \$1-param-21-s;
#X obj 53 1585 s \$1-param-21-r;
#X obj 414 1542 r \$1-param-22-s;
#X obj 303 1585 s \$1-param-22-r;
#X obj 644 1542 r \$1-param-23-s;
#X obj 533 1585 s \$1-param-23-r;
#X obj 894 1542 r \$1-param-24-s;
#X obj 783 1585 s \$1-param-24-r;
#X obj 151 347 loadbang;
#X msg 151 368 1;
#X obj 398 342 loadbang;
#X msg 398 363 1;
#X obj 636 342 loadbang;
#X msg 636 363 1;
#X obj 881 342 loadbang;
#X msg 881 363 1;
#X obj 155 554 loadbang;
#X msg 155 575 1;
#X obj 401 547 loadbang;
#X msg 401 568 1;
#X obj 637 549 loadbang;
#X msg 637 570 1;
#X obj 881 556 loadbang;
#X msg 881 577 1;
#X connect 0 0 9 0;
#X connect 1 0 32 0;
#X connect 2 0 33 0;
#X connect 3 0 34 0;
#X connect 4 0 35 0;
#X connect 5 0 36 0;
#X connect 6 0 37 0;
#X connect 8 0 0 1;
#X connect 10 0 11 1;
#X connect 11 0 64 0;
#X connect 12 0 13 1;
#X connect 13 0 69 0;
#X connect 14 0 15 1;
#X connect 15 0 74 0;
#X connect 16 0 17 1;
#X connect 17 0 79 0;
#X connect 18 0 19 1;
#X connect 19 0 84 0;
#X connect 20 0 21 1;
#X connect 21 0 89 0;
#X connect 22 0 23 1;
#X connect 23 0 94 0;
#X connect 24 0 11 0;
#X connect 25 0 13 0;
#X connect 26 0 15 0;
#X connect 27 0 17 0;
#X connect 28 0 19 0;
#X connect 29 0 21 0;
#X connect 30 0 23 0;
#X connect 31 0 46 0;
#X connect 38 0 1 1;
#X connect 39 0 2 1;
#X connect 40 0 3 1;
#X connect 41 0 4 1;
#X connect 42 0 5 1;
#X connect 43 0 6 1;
#X connect 44 0 48 0;
#X connect 45 0 46 1;
#X connect 46 0 99 0;
#X connect 47 0 44 1;
#X connect 49 0 54 0;
#X connect 50 0 51 1;
#X connect 51 0 58 0;
#X connect 52 0 51 0;
#X connect 53 0 49 1;
#X connect 55 0 57 0;
#X connect 56 0 55 0;
#X connect 57 0 58 1;
#X connect 58 0 49 0;
#X connect 60 0 61 0;
#X connect 61 1 62 0;
#X connect 62 0 63 0;
#X connect 63 0 64 1;
#X connect 64 0 0 0;
#X connect 65 0 66 0;
#X connect 66 1 67 0;
#X connect 67 0 68 0;
#X connect 68 0 69 1;
#X connect 69 0 1 0;
#X connect 70 0 71 0;
#X connect 71 1 72 0;
#X connect 72 0 73 0;
#X connect 73 0 74 1;
#X connect 74 0 2 0;
#X connect 75 0 76 0;
#X connect 76 1 77 0;
#X connect 77 0 78 0;
#X connect 78 0 79 1;
#X connect 79 0 3 0;
#X connect 80 0 81 0;
#X connect 81 1 82 0;
#X connect 82 0 83 0;
#X connect 83 0 84 1;
#X connect 84 0 4 0;
#X connect 85 0 86 0;
#X connect 86 1 87 0;
#X connect 87 0 88 0;
#X connect 88 0 89 1;
#X connect 89 0 5 0;
#X connect 90 0 91 0;
#X connect 91 1 92 0;
#X connect 92 0 93 0;
#X connect 93 0 94 1;
#X connect 94 0 6 0;
#X connect 95 0 96 0;
#X connect 96 1 97 0;
#X connect 97 0 98 0;
#X connect 98 0 99 1;
#X connect 99 0 44 0;
#X connect 100 0 108 0;
#X connect 101 0 102 1;
#X connect 102 0 106 0;
#X connect 103 0 105 0;
#X connect 104 0 103 0;
#X connect 105 0 106 1;
#X connect 106 0 100 0;
#X connect 107 0 102 0;
#X connect 109 0 100 1;
#X connect 110 0 119 0;
#X connect 111 0 112 1;
#X connect 112 0 116 0;
#X connect 113 0 112 0;
#X connect 114 0 117 0;
#X connect 115 0 116 1;
#X connect 116 0 110 0;
#X connect 117 0 115 0;
#X connect 118 0 110 1;
#X connect 120 0 129 0;
#X connect 121 0 122 1;
#X connect 122 0 126 0;
#X connect 123 0 125 0;
#X connect 124 0 123 0;
#X connect 125 0 126 1;
#X connect 126 0 120 0;
#X connect 127 0 122 0;
#X connect 128 0 120 1;
#X connect 130 0 139 0;
#X connect 131 0 132 1;
#X connect 132 0 136 0;
#X connect 133 0 135 0;
#X connect 134 0 133 0;
#X connect 135 0 136 1;
#X connect 136 0 130 0;
#X connect 137 0 132 0;
#X connect 138 0 130 1;
#X connect 141 0 170 0;
#X connect 142 0 143 1;
#X connect 143 0 147 0;
#X connect 144 0 146 0;
#X connect 145 0 144 0;
#X connect 146 0 147 1;
#X connect 147 0 141 0;
#X connect 148 0 172 0;
#X connect 149 0 150 1;
#X connect 150 0 154 0;
#X connect 151 0 153 0;
#X connect 152 0 151 0;
#X connect 153 0 154 1;
#X connect 154 0 148 0;
#X connect 155 0 174 0;
#X connect 156 0 157 1;
#X connect 157 0 161 0;
#X connect 158 0 160 0;
#X connect 159 0 158 0;
#X connect 160 0 161 1;
#X connect 161 0 155 0;
#X connect 162 0 176 0;
#X connect 163 0 164 1;
#X connect 164 0 168 0;
#X connect 165 0 167 0;
#X connect 166 0 165 0;
#X connect 167 0 168 1;
#X connect 168 0 162 0;
#X connect 169 0 141 1;
#X connect 171 0 148 1;
#X connect 173 0 155 1;
#X connect 175 0 162 1;
#X connect 177 0 185 0;
#X connect 178 0 179 1;
#X connect 179 0 182 0;
#X connect 180 0 183 0;
#X connect 181 0 182 1;
#X connect 182 0 177 0;
#X connect 183 0 181 0;
#X connect 184 0 177 1;
#X connect 186 0 143 0;
#X connect 187 0 150 0;
#X connect 188 0 157 0;
#X connect 189 0 164 0;
#X connect 190 0 179 0;
#X connect 191 0 208 0;
#X connect 192 0 193 1;
#X connect 193 0 196 0;
#X connect 194 0 197 0;
#X connect 195 0 196 1;
#X connect 196 0 191 0;
#X connect 197 0 195 0;
#X connect 198 0 210 0;
#X connect 199 0 200 1;
#X connect 200 0 203 0;
#X connect 201 0 204 0;
#X connect 202 0 203 1;
#X connect 203 0 198 0;
#X connect 204 0 202 0;
#X connect 205 0 193 0;
#X connect 206 0 200 0;
#X connect 207 0 191 1;
#X connect 209 0 198 1;
#X connect 211 0 244 0;
#X connect 212 0 213 1;
#X connect 213 0 216 0;
#X connect 214 0 217 0;
#X connect 215 0 216 1;
#X connect 216 0 211 0;
#X connect 217 0 215 0;
#X connect 218 0 246 0;
#X connect 219 0 220 1;
#X connect 220 0 223 0;
#X connect 221 0 224 0;
#X connect 222 0 223 1;
#X connect 223 0 218 0;
#X connect 224 0 222 0;
#X connect 225 0 248 0;
#X connect 226 0 227 1;
#X connect 227 0 230 0;
#X connect 228 0 231 0;
#X connect 229 0 230 1;
#X connect 230 0 225 0;
#X connect 231 0 229 0;
#X connect 232 0 250 0;
#X connect 233 0 234 1;
#X connect 234 0 237 0;
#X connect 235 0 238 0;
#X connect 236 0 237 1;
#X connect 237 0 232 0;
#X connect 238 0 236 0;
#X connect 239 0 213 0;
#X connect 240 0 220 0;
#X connect 241 0 227 0;
#X connect 242 0 234 0;
#X connect 243 0 211 1;
#X connect 245 0 218 1;
#X connect 247 0 225 1;
#X connect 249 0 232 1;
#X connect 251 0 252 0;
#X connect 252 0 64 1;
#X connect 253 0 254 0;
#X connect 254 0 69 1;
#X connect 255 0 256 0;
#X connect 256 0 74 1;
#X connect 257 0 258 0;
#X connect 258 0 79 1;
#X connect 259 0 260 0;
#X connect 260 0 84 1;
#X connect 261 0 262 0;
#X connect 262 0 89 1;
#X connect 263 0 264 0;
#X connect 264 0 94 1;
#X connect 265 0 266 0;
#X connect 266 0 99 1;
#X coords 0 763 1 762 220 120 0;
