#N canvas 162 29 1278 747 10;
#X obj 103 126 cnv 5 5 5 empty empty REPEATER-GROUP 0 0 0 12 #fcfcfc #404040 0;
#X obj 207 126 cnv 5 5 5 empty \$0-instance-num 1 0 0 0 12 #fcfcfc #404040 0;
#X obj 113 269 inlet;
#X obj 380 269 inlet;
#X obj 374 518 outlet;
#X obj 510 269 inlet;
#X obj 510 495 outlet;
#X obj 640 269 inlet;
#X obj 640 495 outlet;
#X obj 770 269 inlet;
#X obj 770 495 outlet;
#X obj 910 269 inlet;
#X obj 910 495 outlet;
#X obj 1040 269 inlet;
#X obj 1040 495 outlet;
#X obj 103 108 cnv 5 5 5 empty empty TR01 0 0 0 8 #ffffff #ff8300 0;
#X obj 198 108 cnv 5 5 5 empty empty TR02 0 0 0 8 #fcfcfc #ff8300 0;
#X obj 303 108 cnv 5 5 5 empty empty TR03 0 0 0 8 #fcfcfc #ff8300 0;
#X obj 409 108 cnv 5 5 5 empty empty TR04 0 0 0 8 #fcfcfc #ff8300 0;
#X obj 520 108 cnv 5 5 5 empty empty TR05 0 0 0 8 #fcfcfc #ff8300 0;
#X obj 627 108 cnv 5 5 5 empty empty TR06 0 0 0 8 #fcfcfc #ff8300 0;
#X obj 726 108 cnv 5 5 5 empty empty TR07 0 0 0 8 #fcfcfc #ff8300 0;
#X obj 828 108 cnv 5 5 5 empty empty TR08 0 0 0 8 #fcfcfc #ff8300 0;
#X obj 447 179 tgl 15 0 \$0-1-note-repeat \$0-1-note-repeat-r empty 0 -8 0 10 #fcfcfc #000000 #000000 0 1;
#X obj 571 186 cnv 5 5 5 empty empty <REPEAT 0 0 0 8 #fcfcfc #000000 0;
#X obj 447 119 vradio 15 1 0 4 \$0-1-diet-drum-seq-note-repeat-s \$0-1-diet-drum-seq-note-repeat-r empty 0 -8 0 10 #fcfcfc #000000 #000000 0;
#X obj 571 172 cnv 5 5 5 empty empty <16th 0 0 0 8 #fcfcfc #000000 0;
#X obj 571 156 cnv 5 5 5 empty empty <8th/TR 0 0 0 8 #fcfcfc #000000 0;
#X obj 571 141 cnv 5 5 5 empty empty <32th 0 0 0 8 #fcfcfc #000000 0;
#X obj 571 126 cnv 5 5 5 empty empty <64th 0 0 0 8 #fcfcfc #000000 0;
#X obj 462 179 tgl 15 0 \$0-2-note-repeat \$0-2-note-repeat-r empty 0 -8 0 10 #fcfcfc #000000 #000000 0 1;
#X obj 462 119 vradio 15 1 0 4 \$0-2-diet-drum-seq-note-repeat-s \$0-2-diet-drum-seq-note-repeat-r empty 0 -8 0 10 #fcfcfc #000000 #000000 0;
#X obj 477 179 tgl 15 0 \$0-3-note-repeat \$0-3-note-repeat-r empty 0 -8 0 10 #fcfcfc #000000 #000000 0 1;
#X obj 477 119 vradio 15 1 0 4 \$0-3-diet-drum-seq-note-repeat-s \$0-3-diet-drum-seq-note-repeat-r empty 0 -8 0 10 #fcfcfc #000000 #000000 0;
#X obj 492 179 tgl 15 0 \$0-4-note-repeat \$0-4-note-repeat-r empty 0 -8 0 10 #fcfcfc #000000 #000000 0 1;
#X obj 492 119 vradio 15 1 0 4 \$0-4-diet-drum-seq-note-repeat-s \$0-4-diet-drum-seq-note-repeat-r empty 0 -8 0 10 #fcfcfc #000000 #000000 0;
#X obj 507 179 tgl 15 0 \$0-5-note-repeat \$0-5-note-repeat-r empty 0 -8 0 10 #fcfcfc #000000 #000000 0 1;
#X obj 507 119 vradio 15 1 0 4 \$0-5-diet-drum-seq-note-repeat-s \$0-5-diet-drum-seq-note-repeat-r empty 0 -8 0 10 #fcfcfc #000000 #000000 0;
#X obj 522 179 tgl 15 0 \$0-6-note-repeat \$0-6-note-repeat-r empty 0 -8 0 10 #fcfcfc #000000 #000000 0 1;
#X obj 522 119 vradio 15 1 0 4 \$0-6-diet-drum-seq-note-repeat-s \$0-6-diet-drum-seq-note-repeat-r empty 0 -8 0 10 #fcfcfc #000000 #000000 0;
#X obj 537 179 tgl 15 0 \$0-7-note-repeat \$0-7-note-repeat-r empty 0 -8 0 10 #fcfcfc #000000 #000000 0 1;
#X obj 537 119 vradio 15 1 0 4 \$0-7-diet-drum-seq-note-repeat-s \$0-7-diet-drum-seq-note-repeat-r empty 0 -8 0 10 #fcfcfc #000000 #000000 0;
#X obj 552 179 tgl 15 0 \$0-8-note-repeat \$0-8-note-repeat-r empty 0 -8 0 10 #fcfcfc #000000 #000000 0 1;
#X obj 552 119 vradio 15 1 0 4 \$0-8-diet-drum-seq-note-repeat-s \$0-8-diet-drum-seq-note-repeat-r empty 0 -8 0 10 #fcfcfc #000000 #000000 0;
#X obj 112 523 outlet;
#X obj 233 269 inlet;
#X obj 233 522 outlet;
#X obj 640 146 hsl 136 16 0 127 0 0 empty empty REPEAT-LOUDNESS -2 -8 0 10 #fcfcfc #000000 #000000 0 1;
#N canvas 0 25 1440 847 repeater 0;
#X obj 195 48 inlet;
#X obj 51 785 outlet;
#X obj 195 645 spigot;
#X msg 228 616 0;
#X msg 259 616 1;
#X obj 259 596 loadbang;
#X obj 62 247 sel 1;
#X msg 63 287 1;
#X msg 92 287 0;
#X obj 50 345 spigot;
#X text 171 33 Normal Clock in;
#X obj 50 411 f;
#X obj 79 411 + 1;
#X obj 51 567 sel 0;
#X obj 63 267 t b b;
#X msg 65 384 0;
#X obj 77 475 sel 0 1 2 3;
#X text 90 541 <-- this number is kick specific;
#X text 168 504 <-- these numbers are kick specific - slower then the rest;
#X obj 324 51 r clock4x;
#X obj 578 371 f;
#X obj 607 371 + 1;
#X msg 593 344 0;
#X obj 578 412 sel 0;
#X text 651 387 <-- rhythm quantize;
#X obj 602 300 r clock-reset;
#X obj 578 433 bng 16 250 50 0 empty empty empty 0 -8 0 10 #fcfcfc #000000 #000000;
#X obj 62 194 f;
#X obj 50 546 mod 2;
#X msg 77 496 1;
#X msg 92 515 2;
#X msg 51 676 60;
#X obj 51 714 pack f f;
#X obj 51 695 makenote 60 2;
#X obj 473 44 inlet;
#X obj 62 215 change;
#X obj 51 588 t b b;
#X obj 94 666 +;
#X obj 94 611 random 80;
#X obj 94 632 - 40;
#X obj 513 566 line;
#X floatatom 513 587 5 0 0 0 - - - 0;
#X obj 470 613 t b f;
#X obj 471 641 *;
#X msg 513 545 1 \, 0.5 2000;
#X msg 361 620 2;
#X msg 396 618 10;
#X obj 355 711 line;
#X obj 355 691 pack f 50;
#X obj 88 168 r \$0-1-note-repeat;
#X obj 77 448 r \$0-1-diet-drum-seq-note-repeat-s;
#X obj 333 11 inlet;
#X obj 578 392 mod 4;
#X msg 108 495 4;
#X msg 124 516 8;
#X connect 0 0 2 0;
#X connect 2 0 1 0;
#X connect 3 0 2 1;
#X connect 4 0 2 1;
#X connect 5 0 4 0;
#X connect 6 0 3 0;
#X connect 6 0 14 0;
#X connect 6 0 44 0;
#X connect 6 1 8 0;
#X connect 6 1 4 0;
#X connect 7 0 9 1;
#X connect 8 0 9 1;
#X connect 9 0 11 0;
#X connect 11 0 12 0;
#X connect 11 0 28 0;
#X connect 12 0 11 1;
#X connect 13 0 36 0;
#X connect 14 0 7 0;
#X connect 14 0 15 0;
#X connect 15 0 11 1;
#X connect 16 0 29 0;
#X connect 16 1 30 0;
#X connect 16 2 53 0;
#X connect 16 3 54 0;
#X connect 20 0 21 0;
#X connect 20 0 52 0;
#X connect 21 0 20 1;
#X connect 22 0 20 1;
#X connect 23 0 26 0;
#X connect 25 0 22 0;
#X connect 26 0 27 0;
#X connect 27 0 35 0;
#X connect 28 0 13 0;
#X connect 29 0 28 1;
#X connect 30 0 28 1;
#X connect 31 0 33 0;
#X connect 32 0 1 0;
#X connect 33 0 32 0;
#X connect 33 1 32 1;
#X connect 34 0 43 0;
#X connect 35 0 6 0;
#X connect 36 0 31 0;
#X connect 36 1 38 0;
#X connect 37 0 33 1;
#X connect 38 0 39 0;
#X connect 39 0 37 0;
#X connect 40 0 41 0;
#X connect 41 0 42 0;
#X connect 42 0 43 0;
#X connect 42 1 43 1;
#X connect 43 0 37 1;
#X connect 44 0 40 0;
#X connect 45 0 48 0;
#X connect 46 0 48 0;
#X connect 48 0 47 0;
#X connect 49 0 27 1;
#X connect 50 0 16 0;
#X connect 51 0 9 0;
#X connect 51 0 20 0;
#X connect 52 0 23 0;
#X connect 53 0 28 1;
#X connect 54 0 28 1;
#X restore 114 391 pd repeater;
#X obj 150 269 inlet;
#N canvas 0 25 1440 847 repeater 0;
#X obj 195 48 inlet;
#X obj 51 785 outlet;
#X obj 195 645 spigot;
#X msg 228 616 0;
#X msg 259 616 1;
#X obj 259 596 loadbang;
#X obj 62 247 sel 1;
#X msg 63 287 1;
#X msg 92 287 0;
#X obj 50 345 spigot;
#X text 171 33 Normal Clock in;
#X obj 50 411 f;
#X obj 79 411 + 1;
#X obj 51 567 sel 0;
#X obj 63 267 t b b;
#X msg 65 384 0;
#X obj 77 475 sel 0 1 2 3;
#X text 90 541 <-- this number is kick specific;
#X text 168 504 <-- these numbers are kick specific - slower then the rest;
#X obj 324 51 r clock4x;
#X obj 578 371 f;
#X obj 607 371 + 1;
#X msg 593 344 0;
#X obj 578 412 sel 0;
#X text 651 387 <-- rhythm quantize;
#X obj 602 300 r clock-reset;
#X obj 578 433 bng 16 250 50 0 empty empty empty 0 -8 0 10 #fcfcfc #000000 #000000;
#X obj 62 194 f;
#X obj 50 546 mod 2;
#X msg 77 496 1;
#X msg 92 515 2;
#X msg 51 676 60;
#X obj 51 714 pack f f;
#X obj 51 695 makenote 60 2;
#X obj 473 44 inlet;
#X obj 62 215 change;
#X obj 51 588 t b b;
#X obj 94 666 +;
#X obj 94 611 random 80;
#X obj 94 632 - 40;
#X obj 513 566 line;
#X floatatom 513 587 5 0 0 0 - - - 0;
#X obj 470 613 t b f;
#X obj 471 641 *;
#X msg 513 545 1 \, 0.5 2000;
#X msg 361 620 2;
#X msg 396 618 10;
#X obj 355 711 line;
#X obj 355 691 pack f 50;
#X obj 333 11 inlet;
#X obj 88 168 r \$0-2-note-repeat;
#X obj 77 448 r \$0-2-diet-drum-seq-note-repeat-s;
#X obj 578 392 mod 2;
#X msg 108 495 4;
#X msg 124 516 8;
#X connect 0 0 2 0;
#X connect 2 0 1 0;
#X connect 3 0 2 1;
#X connect 4 0 2 1;
#X connect 5 0 4 0;
#X connect 6 0 3 0;
#X connect 6 0 14 0;
#X connect 6 0 44 0;
#X connect 6 1 8 0;
#X connect 6 1 4 0;
#X connect 7 0 9 1;
#X connect 8 0 9 1;
#X connect 9 0 11 0;
#X connect 11 0 12 0;
#X connect 11 0 28 0;
#X connect 12 0 11 1;
#X connect 13 0 36 0;
#X connect 14 0 7 0;
#X connect 14 0 15 0;
#X connect 15 0 11 1;
#X connect 16 0 29 0;
#X connect 16 1 30 0;
#X connect 16 2 53 0;
#X connect 16 3 54 0;
#X connect 20 0 21 0;
#X connect 20 0 52 0;
#X connect 21 0 20 1;
#X connect 22 0 20 1;
#X connect 23 0 26 0;
#X connect 25 0 22 0;
#X connect 26 0 27 0;
#X connect 27 0 35 0;
#X connect 28 0 13 0;
#X connect 29 0 28 1;
#X connect 30 0 28 1;
#X connect 31 0 33 0;
#X connect 32 0 1 0;
#X connect 33 0 32 0;
#X connect 33 1 32 1;
#X connect 34 0 43 0;
#X connect 35 0 6 0;
#X connect 36 0 31 0;
#X connect 36 1 38 0;
#X connect 37 0 33 1;
#X connect 38 0 39 0;
#X connect 39 0 37 0;
#X connect 40 0 41 0;
#X connect 41 0 42 0;
#X connect 42 0 43 0;
#X connect 42 1 43 1;
#X connect 43 0 37 1;
#X connect 44 0 40 0;
#X connect 45 0 48 0;
#X connect 46 0 48 0;
#X connect 48 0 47 0;
#X connect 49 0 9 0;
#X connect 49 0 20 0;
#X connect 50 0 27 1;
#X connect 51 0 16 0;
#X connect 52 0 23 0;
#X connect 53 0 28 1;
#X connect 54 0 28 1;
#X restore 234 391 pd repeater;
#X obj 278 267 inlet;
#N canvas 0 25 1440 847 repeater 0;
#X obj 195 48 inlet;
#X obj 51 785 outlet;
#X obj 195 645 spigot;
#X msg 228 616 0;
#X msg 259 616 1;
#X obj 259 596 loadbang;
#X obj 62 247 sel 1;
#X msg 63 287 1;
#X msg 92 287 0;
#X obj 50 345 spigot;
#X text 171 33 Normal Clock in;
#X obj 50 411 f;
#X obj 79 411 + 1;
#X obj 51 567 sel 0;
#X obj 63 267 t b b;
#X msg 65 384 0;
#X obj 77 475 sel 0 1 2 3;
#X text 90 541 <-- this number is kick specific;
#X text 168 504 <-- these numbers are kick specific - slower then the rest;
#X obj 324 51 r clock4x;
#X obj 578 371 f;
#X obj 607 371 + 1;
#X msg 593 344 0;
#X obj 578 412 sel 0;
#X text 651 387 <-- rhythm quantize;
#X obj 602 300 r clock-reset;
#X obj 578 433 bng 16 250 50 0 empty empty empty 0 -8 0 10 #fcfcfc #000000 #000000;
#X obj 62 194 f;
#X obj 50 546 mod 2;
#X msg 77 496 1;
#X msg 92 515 2;
#X msg 108 495 3;
#X msg 51 676 60;
#X obj 51 714 pack f f;
#X obj 51 695 makenote 60 2;
#X obj 473 44 inlet;
#X obj 62 215 change;
#X msg 124 516 6;
#X obj 51 588 t b b;
#X obj 94 666 +;
#X obj 94 611 random 80;
#X obj 94 632 - 40;
#X obj 513 566 line;
#X floatatom 513 587 5 0 0 0 - - - 0;
#X obj 470 613 t b f;
#X obj 471 641 *;
#X msg 513 545 1 \, 0.5 2000;
#X msg 361 620 2;
#X msg 396 618 10;
#X obj 355 711 line;
#X obj 355 691 pack f 50;
#X obj 333 11 inlet;
#X obj 88 168 r \$0-3-note-repeat;
#X obj 77 448 r \$0-3-diet-drum-seq-note-repeat-s;
#X obj 578 392 mod 2;
#X connect 0 0 2 0;
#X connect 2 0 1 0;
#X connect 3 0 2 1;
#X connect 4 0 2 1;
#X connect 5 0 4 0;
#X connect 6 0 3 0;
#X connect 6 0 14 0;
#X connect 6 0 46 0;
#X connect 6 1 8 0;
#X connect 6 1 4 0;
#X connect 7 0 9 1;
#X connect 8 0 9 1;
#X connect 9 0 11 0;
#X connect 11 0 12 0;
#X connect 11 0 28 0;
#X connect 12 0 11 1;
#X connect 13 0 38 0;
#X connect 14 0 7 0;
#X connect 14 0 15 0;
#X connect 15 0 11 1;
#X connect 16 0 29 0;
#X connect 16 1 30 0;
#X connect 16 2 31 0;
#X connect 16 3 37 0;
#X connect 20 0 21 0;
#X connect 20 0 54 0;
#X connect 21 0 20 1;
#X connect 22 0 20 1;
#X connect 23 0 26 0;
#X connect 25 0 22 0;
#X connect 26 0 27 0;
#X connect 27 0 36 0;
#X connect 28 0 13 0;
#X connect 29 0 28 1;
#X connect 30 0 28 1;
#X connect 31 0 28 1;
#X connect 32 0 34 0;
#X connect 33 0 1 0;
#X connect 34 0 33 0;
#X connect 34 1 33 1;
#X connect 35 0 45 0;
#X connect 36 0 6 0;
#X connect 37 0 28 1;
#X connect 38 0 32 0;
#X connect 38 1 40 0;
#X connect 39 0 34 1;
#X connect 40 0 41 0;
#X connect 41 0 39 0;
#X connect 42 0 43 0;
#X connect 43 0 44 0;
#X connect 44 0 45 0;
#X connect 44 1 45 1;
#X connect 45 0 39 1;
#X connect 46 0 42 0;
#X connect 47 0 50 0;
#X connect 48 0 50 0;
#X connect 50 0 49 0;
#X connect 51 0 9 0;
#X connect 51 0 20 0;
#X connect 52 0 27 1;
#X connect 53 0 16 0;
#X connect 54 0 23 0;
#X restore 371 388 pd repeater;
#X obj 439 271 inlet;
#N canvas 0 25 1440 847 repeater 0;
#X obj 195 48 inlet;
#X obj 51 785 outlet;
#X obj 195 645 spigot;
#X msg 228 616 0;
#X msg 259 616 1;
#X obj 259 596 loadbang;
#X obj 62 247 sel 1;
#X msg 63 287 1;
#X msg 92 287 0;
#X obj 50 345 spigot;
#X text 171 33 Normal Clock in;
#X obj 50 411 f;
#X obj 79 411 + 1;
#X obj 51 567 sel 0;
#X obj 63 267 t b b;
#X msg 65 384 0;
#X obj 77 475 sel 0 1 2 3;
#X text 90 541 <-- this number is kick specific;
#X text 168 504 <-- these numbers are kick specific - slower then the rest;
#X obj 324 51 r clock4x;
#X obj 578 371 f;
#X obj 607 371 + 1;
#X msg 593 344 0;
#X obj 578 412 sel 0;
#X text 651 387 <-- rhythm quantize;
#X obj 602 300 r clock-reset;
#X obj 578 433 bng 16 250 50 0 empty empty empty 0 -8 0 10 #fcfcfc #000000 #000000;
#X obj 578 392 mod 8;
#X obj 62 194 f;
#X obj 50 546 mod 2;
#X msg 77 496 1;
#X msg 92 515 2;
#X msg 108 495 3;
#X msg 51 676 60;
#X obj 51 714 pack f f;
#X obj 51 695 makenote 60 2;
#X obj 473 44 inlet;
#X obj 62 215 change;
#X msg 124 516 6;
#X obj 51 588 t b b;
#X obj 94 666 +;
#X obj 94 611 random 80;
#X obj 94 632 - 40;
#X obj 513 566 line;
#X floatatom 513 587 5 0 0 0 - - - 0;
#X obj 470 613 t b f;
#X obj 471 641 *;
#X msg 513 545 1 \, 0.5 2000;
#X msg 361 620 2;
#X msg 396 618 10;
#X obj 355 711 line;
#X obj 355 691 pack f 50;
#X obj 333 11 inlet;
#X obj 88 168 r \$0-4-note-repeat;
#X obj 77 448 r \$0-4-diet-drum-seq-note-repeat-s;
#X connect 0 0 2 0;
#X connect 2 0 1 0;
#X connect 3 0 2 1;
#X connect 4 0 2 1;
#X connect 5 0 4 0;
#X connect 6 0 3 0;
#X connect 6 0 14 0;
#X connect 6 0 47 0;
#X connect 6 1 8 0;
#X connect 6 1 4 0;
#X connect 7 0 9 1;
#X connect 8 0 9 1;
#X connect 9 0 11 0;
#X connect 11 0 12 0;
#X connect 11 0 29 0;
#X connect 12 0 11 1;
#X connect 13 0 39 0;
#X connect 14 0 7 0;
#X connect 14 0 15 0;
#X connect 15 0 11 1;
#X connect 16 0 30 0;
#X connect 16 1 31 0;
#X connect 16 2 32 0;
#X connect 16 3 38 0;
#X connect 20 0 21 0;
#X connect 20 0 27 0;
#X connect 21 0 20 1;
#X connect 22 0 20 1;
#X connect 23 0 26 0;
#X connect 25 0 22 0;
#X connect 26 0 28 0;
#X connect 27 0 23 0;
#X connect 28 0 37 0;
#X connect 29 0 13 0;
#X connect 30 0 29 1;
#X connect 31 0 29 1;
#X connect 32 0 29 1;
#X connect 33 0 35 0;
#X connect 34 0 1 0;
#X connect 35 0 34 0;
#X connect 35 1 34 1;
#X connect 36 0 46 0;
#X connect 37 0 6 0;
#X connect 38 0 29 1;
#X connect 39 0 33 0;
#X connect 39 1 41 0;
#X connect 40 0 35 1;
#X connect 41 0 42 0;
#X connect 42 0 40 0;
#X connect 43 0 44 0;
#X connect 44 0 45 0;
#X connect 45 0 46 0;
#X connect 45 1 46 1;
#X connect 46 0 40 1;
#X connect 47 0 43 0;
#X connect 48 0 51 0;
#X connect 49 0 51 0;
#X connect 51 0 50 0;
#X connect 52 0 9 0;
#X connect 52 0 20 0;
#X connect 53 0 28 1;
#X connect 54 0 16 0;
#X restore 510 391 pd repeater;
#X obj 562 268 inlet;
#N canvas 0 25 1440 847 repeater 0;
#X obj 195 48 inlet;
#X obj 51 785 outlet;
#X obj 195 645 spigot;
#X msg 228 616 0;
#X msg 259 616 1;
#X obj 259 596 loadbang;
#X obj 62 247 sel 1;
#X msg 63 287 1;
#X msg 92 287 0;
#X obj 50 345 spigot;
#X text 171 33 Normal Clock in;
#X obj 50 411 f;
#X obj 79 411 + 1;
#X obj 51 567 sel 0;
#X obj 63 267 t b b;
#X msg 65 384 0;
#X obj 77 475 sel 0 1 2 3;
#X text 90 541 <-- this number is kick specific;
#X text 168 504 <-- these numbers are kick specific - slower then the rest;
#X obj 324 51 r clock4x;
#X obj 578 371 f;
#X obj 607 371 + 1;
#X msg 593 344 0;
#X obj 578 412 sel 0;
#X text 651 387 <-- rhythm quantize;
#X obj 602 300 r clock-reset;
#X obj 578 433 bng 16 250 50 0 empty empty empty 0 -8 0 10 #fcfcfc #000000 #000000;
#X obj 578 392 mod 8;
#X obj 62 194 f;
#X obj 50 546 mod 2;
#X msg 77 496 1;
#X msg 92 515 2;
#X msg 108 495 3;
#X msg 51 676 60;
#X obj 51 714 pack f f;
#X obj 51 695 makenote 60 2;
#X obj 473 44 inlet;
#X obj 62 215 change;
#X msg 124 516 6;
#X obj 51 588 t b b;
#X obj 94 666 +;
#X obj 94 611 random 80;
#X obj 94 632 - 40;
#X obj 513 566 line;
#X floatatom 513 587 5 0 0 0 - - - 0;
#X obj 470 613 t b f;
#X obj 471 641 *;
#X msg 513 545 1 \, 0.5 2000;
#X msg 361 620 2;
#X msg 396 618 10;
#X obj 355 711 line;
#X obj 355 691 pack f 50;
#X obj 333 11 inlet;
#X obj 88 168 r \$0-5-note-repeat;
#X obj 77 448 r \$0-5-diet-drum-seq-note-repeat-s;
#X connect 0 0 2 0;
#X connect 2 0 1 0;
#X connect 3 0 2 1;
#X connect 4 0 2 1;
#X connect 5 0 4 0;
#X connect 6 0 3 0;
#X connect 6 0 14 0;
#X connect 6 0 47 0;
#X connect 6 1 8 0;
#X connect 6 1 4 0;
#X connect 7 0 9 1;
#X connect 8 0 9 1;
#X connect 9 0 11 0;
#X connect 11 0 12 0;
#X connect 11 0 29 0;
#X connect 12 0 11 1;
#X connect 13 0 39 0;
#X connect 14 0 7 0;
#X connect 14 0 15 0;
#X connect 15 0 11 1;
#X connect 16 0 30 0;
#X connect 16 1 31 0;
#X connect 16 2 32 0;
#X connect 16 3 38 0;
#X connect 20 0 21 0;
#X connect 20 0 27 0;
#X connect 21 0 20 1;
#X connect 22 0 20 1;
#X connect 23 0 26 0;
#X connect 25 0 22 0;
#X connect 26 0 28 0;
#X connect 27 0 23 0;
#X connect 28 0 37 0;
#X connect 29 0 13 0;
#X connect 30 0 29 1;
#X connect 31 0 29 1;
#X connect 32 0 29 1;
#X connect 33 0 35 0;
#X connect 34 0 1 0;
#X connect 35 0 34 0;
#X connect 35 1 34 1;
#X connect 36 0 46 0;
#X connect 37 0 6 0;
#X connect 38 0 29 1;
#X connect 39 0 33 0;
#X connect 39 1 41 0;
#X connect 40 0 35 1;
#X connect 41 0 42 0;
#X connect 42 0 40 0;
#X connect 43 0 44 0;
#X connect 44 0 45 0;
#X connect 45 0 46 0;
#X connect 45 1 46 1;
#X connect 46 0 40 1;
#X connect 47 0 43 0;
#X connect 48 0 51 0;
#X connect 49 0 51 0;
#X connect 51 0 50 0;
#X connect 52 0 9 0;
#X connect 52 0 20 0;
#X connect 53 0 28 1;
#X connect 54 0 16 0;
#X restore 640 392 pd repeater;
#X obj 683 269 inlet;
#N canvas 0 25 1440 847 repeater 0;
#X obj 195 48 inlet;
#X obj 51 785 outlet;
#X obj 195 645 spigot;
#X msg 228 616 0;
#X msg 259 616 1;
#X obj 259 596 loadbang;
#X obj 62 247 sel 1;
#X msg 63 287 1;
#X msg 92 287 0;
#X obj 50 345 spigot;
#X text 171 33 Normal Clock in;
#X obj 50 411 f;
#X obj 79 411 + 1;
#X obj 51 567 sel 0;
#X obj 63 267 t b b;
#X msg 65 384 0;
#X obj 77 475 sel 0 1 2 3;
#X text 90 541 <-- this number is kick specific;
#X text 168 504 <-- these numbers are kick specific - slower then the rest;
#X obj 324 51 r clock4x;
#X obj 578 371 f;
#X obj 607 371 + 1;
#X msg 593 344 0;
#X obj 578 412 sel 0;
#X text 651 387 <-- rhythm quantize;
#X obj 602 300 r clock-reset;
#X obj 578 433 bng 16 250 50 0 empty empty empty 0 -8 0 10 #fcfcfc #000000 #000000;
#X obj 578 392 mod 8;
#X obj 62 194 f;
#X obj 50 546 mod 2;
#X msg 77 496 1;
#X msg 92 515 2;
#X msg 108 495 3;
#X msg 51 676 60;
#X obj 51 714 pack f f;
#X obj 51 695 makenote 60 2;
#X obj 473 44 inlet;
#X obj 62 215 change;
#X msg 124 516 6;
#X obj 51 588 t b b;
#X obj 94 666 +;
#X obj 94 611 random 80;
#X obj 94 632 - 40;
#X obj 513 566 line;
#X floatatom 513 587 5 0 0 0 - - - 0;
#X obj 470 613 t b f;
#X obj 471 641 *;
#X msg 513 545 1 \, 0.5 2000;
#X msg 361 620 2;
#X msg 396 618 10;
#X obj 355 711 line;
#X obj 355 691 pack f 50;
#X obj 333 11 inlet;
#X obj 88 168 r \$0-6-note-repeat;
#X obj 77 448 r \$0-6-diet-drum-seq-note-repeat-s;
#X connect 0 0 2 0;
#X connect 2 0 1 0;
#X connect 3 0 2 1;
#X connect 4 0 2 1;
#X connect 5 0 4 0;
#X connect 6 0 3 0;
#X connect 6 0 14 0;
#X connect 6 0 47 0;
#X connect 6 1 8 0;
#X connect 6 1 4 0;
#X connect 7 0 9 1;
#X connect 8 0 9 1;
#X connect 9 0 11 0;
#X connect 11 0 12 0;
#X connect 11 0 29 0;
#X connect 12 0 11 1;
#X connect 13 0 39 0;
#X connect 14 0 7 0;
#X connect 14 0 15 0;
#X connect 15 0 11 1;
#X connect 16 0 30 0;
#X connect 16 1 31 0;
#X connect 16 2 32 0;
#X connect 16 3 38 0;
#X connect 20 0 21 0;
#X connect 20 0 27 0;
#X connect 21 0 20 1;
#X connect 22 0 20 1;
#X connect 23 0 26 0;
#X connect 25 0 22 0;
#X connect 26 0 28 0;
#X connect 27 0 23 0;
#X connect 28 0 37 0;
#X connect 29 0 13 0;
#X connect 30 0 29 1;
#X connect 31 0 29 1;
#X connect 32 0 29 1;
#X connect 33 0 35 0;
#X connect 34 0 1 0;
#X connect 35 0 34 0;
#X connect 35 1 34 1;
#X connect 36 0 46 0;
#X connect 37 0 6 0;
#X connect 38 0 29 1;
#X connect 39 0 33 0;
#X connect 39 1 41 0;
#X connect 40 0 35 1;
#X connect 41 0 42 0;
#X connect 42 0 40 0;
#X connect 43 0 44 0;
#X connect 44 0 45 0;
#X connect 45 0 46 0;
#X connect 45 1 46 1;
#X connect 46 0 40 1;
#X connect 47 0 43 0;
#X connect 48 0 51 0;
#X connect 49 0 51 0;
#X connect 51 0 50 0;
#X connect 52 0 9 0;
#X connect 52 0 20 0;
#X connect 53 0 28 1;
#X connect 54 0 16 0;
#X restore 769 390 pd repeater;
#X obj 820 267 inlet;
#N canvas 0 25 1440 847 repeater 0;
#X obj 195 48 inlet;
#X obj 51 785 outlet;
#X obj 195 645 spigot;
#X msg 228 616 0;
#X msg 259 616 1;
#X obj 259 596 loadbang;
#X obj 62 247 sel 1;
#X msg 63 287 1;
#X msg 92 287 0;
#X obj 50 345 spigot;
#X text 171 33 Normal Clock in;
#X obj 50 411 f;
#X obj 79 411 + 1;
#X obj 51 567 sel 0;
#X obj 63 267 t b b;
#X msg 65 384 0;
#X obj 77 475 sel 0 1 2 3;
#X text 90 541 <-- this number is kick specific;
#X text 168 504 <-- these numbers are kick specific - slower then the rest;
#X obj 324 51 r clock4x;
#X obj 578 371 f;
#X obj 607 371 + 1;
#X msg 593 344 0;
#X obj 578 412 sel 0;
#X text 651 387 <-- rhythm quantize;
#X obj 602 300 r clock-reset;
#X obj 578 433 bng 16 250 50 0 empty empty empty 0 -8 0 10 #fcfcfc #000000 #000000;
#X obj 578 392 mod 8;
#X obj 62 194 f;
#X obj 50 546 mod 2;
#X msg 77 496 1;
#X msg 92 515 2;
#X msg 108 495 3;
#X msg 51 676 60;
#X obj 51 714 pack f f;
#X obj 51 695 makenote 60 2;
#X obj 473 44 inlet;
#X obj 62 215 change;
#X msg 124 516 6;
#X obj 51 588 t b b;
#X obj 94 666 +;
#X obj 94 611 random 80;
#X obj 94 632 - 40;
#X obj 513 566 line;
#X floatatom 513 587 5 0 0 0 - - - 0;
#X obj 470 613 t b f;
#X obj 471 641 *;
#X msg 513 545 1 \, 0.5 2000;
#X msg 361 620 2;
#X msg 396 618 10;
#X obj 355 711 line;
#X obj 355 691 pack f 50;
#X obj 333 11 inlet;
#X obj 88 168 r \$0-7-note-repeat;
#X obj 77 448 r \$0-7-diet-drum-seq-note-repeat-s;
#X connect 0 0 2 0;
#X connect 2 0 1 0;
#X connect 3 0 2 1;
#X connect 4 0 2 1;
#X connect 5 0 4 0;
#X connect 6 0 3 0;
#X connect 6 0 14 0;
#X connect 6 0 47 0;
#X connect 6 1 8 0;
#X connect 6 1 4 0;
#X connect 7 0 9 1;
#X connect 8 0 9 1;
#X connect 9 0 11 0;
#X connect 11 0 12 0;
#X connect 11 0 29 0;
#X connect 12 0 11 1;
#X connect 13 0 39 0;
#X connect 14 0 7 0;
#X connect 14 0 15 0;
#X connect 15 0 11 1;
#X connect 16 0 30 0;
#X connect 16 1 31 0;
#X connect 16 2 32 0;
#X connect 16 3 38 0;
#X connect 20 0 21 0;
#X connect 20 0 27 0;
#X connect 21 0 20 1;
#X connect 22 0 20 1;
#X connect 23 0 26 0;
#X connect 25 0 22 0;
#X connect 26 0 28 0;
#X connect 27 0 23 0;
#X connect 28 0 37 0;
#X connect 29 0 13 0;
#X connect 30 0 29 1;
#X connect 31 0 29 1;
#X connect 32 0 29 1;
#X connect 33 0 35 0;
#X connect 34 0 1 0;
#X connect 35 0 34 0;
#X connect 35 1 34 1;
#X connect 36 0 46 0;
#X connect 37 0 6 0;
#X connect 38 0 29 1;
#X connect 39 0 33 0;
#X connect 39 1 41 0;
#X connect 40 0 35 1;
#X connect 41 0 42 0;
#X connect 42 0 40 0;
#X connect 43 0 44 0;
#X connect 44 0 45 0;
#X connect 45 0 46 0;
#X connect 45 1 46 1;
#X connect 46 0 40 1;
#X connect 47 0 43 0;
#X connect 48 0 51 0;
#X connect 49 0 51 0;
#X connect 51 0 50 0;
#X connect 52 0 9 0;
#X connect 52 0 20 0;
#X connect 53 0 28 1;
#X connect 54 0 16 0;
#X restore 909 390 pd repeater;
#X obj 950 269 inlet;
#N canvas 0 25 1440 847 repeater 0;
#X obj 195 48 inlet;
#X obj 51 785 outlet;
#X obj 195 645 spigot;
#X msg 228 616 0;
#X msg 259 616 1;
#X obj 259 596 loadbang;
#X obj 62 247 sel 1;
#X msg 63 287 1;
#X msg 92 287 0;
#X obj 50 345 spigot;
#X text 171 33 Normal Clock in;
#X obj 50 411 f;
#X obj 79 411 + 1;
#X obj 51 567 sel 0;
#X obj 63 267 t b b;
#X msg 65 384 0;
#X obj 77 475 sel 0 1 2 3;
#X text 90 541 <-- this number is kick specific;
#X text 168 504 <-- these numbers are kick specific - slower then the rest;
#X obj 324 51 r clock4x;
#X obj 578 371 f;
#X obj 607 371 + 1;
#X msg 593 344 0;
#X obj 578 412 sel 0;
#X text 651 387 <-- rhythm quantize;
#X obj 602 300 r clock-reset;
#X obj 578 433 bng 16 250 50 0 empty empty empty 0 -8 0 10 #fcfcfc #000000 #000000;
#X obj 578 392 mod 8;
#X obj 62 194 f;
#X obj 50 546 mod 2;
#X msg 77 496 1;
#X msg 92 515 2;
#X msg 108 495 3;
#X msg 51 676 60;
#X obj 51 714 pack f f;
#X obj 51 695 makenote 60 2;
#X obj 473 44 inlet;
#X obj 62 215 change;
#X msg 124 516 6;
#X obj 51 588 t b b;
#X obj 94 666 +;
#X obj 94 611 random 80;
#X obj 94 632 - 40;
#X obj 513 566 line;
#X floatatom 513 587 5 0 0 0 - - - 0;
#X obj 470 613 t b f;
#X obj 471 641 *;
#X msg 513 545 1 \, 0.5 2000;
#X msg 361 620 2;
#X msg 396 618 10;
#X obj 355 711 line;
#X obj 355 691 pack f 50;
#X obj 333 11 inlet;
#X obj 88 168 r \$0-8-note-repeat;
#X obj 77 448 r \$0-8-diet-drum-seq-note-repeat-s;
#X connect 0 0 2 0;
#X connect 2 0 1 0;
#X connect 3 0 2 1;
#X connect 4 0 2 1;
#X connect 5 0 4 0;
#X connect 6 0 3 0;
#X connect 6 0 14 0;
#X connect 6 0 47 0;
#X connect 6 1 8 0;
#X connect 6 1 4 0;
#X connect 7 0 9 1;
#X connect 8 0 9 1;
#X connect 9 0 11 0;
#X connect 11 0 12 0;
#X connect 11 0 29 0;
#X connect 12 0 11 1;
#X connect 13 0 39 0;
#X connect 14 0 7 0;
#X connect 14 0 15 0;
#X connect 15 0 11 1;
#X connect 16 0 30 0;
#X connect 16 1 31 0;
#X connect 16 2 32 0;
#X connect 16 3 38 0;
#X connect 20 0 21 0;
#X connect 20 0 27 0;
#X connect 21 0 20 1;
#X connect 22 0 20 1;
#X connect 23 0 26 0;
#X connect 25 0 22 0;
#X connect 26 0 28 0;
#X connect 27 0 23 0;
#X connect 28 0 37 0;
#X connect 29 0 13 0;
#X connect 30 0 29 1;
#X connect 31 0 29 1;
#X connect 32 0 29 1;
#X connect 33 0 35 0;
#X connect 34 0 1 0;
#X connect 35 0 34 0;
#X connect 35 1 34 1;
#X connect 36 0 46 0;
#X connect 37 0 6 0;
#X connect 38 0 29 1;
#X connect 39 0 33 0;
#X connect 39 1 41 0;
#X connect 40 0 35 1;
#X connect 41 0 42 0;
#X connect 42 0 40 0;
#X connect 43 0 44 0;
#X connect 44 0 45 0;
#X connect 45 0 46 0;
#X connect 45 1 46 1;
#X connect 46 0 40 1;
#X connect 47 0 43 0;
#X connect 48 0 51 0;
#X connect 49 0 51 0;
#X connect 51 0 50 0;
#X connect 52 0 9 0;
#X connect 52 0 20 0;
#X connect 53 0 28 1;
#X connect 54 0 16 0;
#X restore 1029 390 pd repeater;
#X obj 1080 269 inlet;
#N canvas 63 88 779 535 increase 0;
#X obj 302 84 r global-bpm;
#X floatatom 302 109 5 0 0 0 - - - 0;
#X obj 302 131 t b f;
#X obj 302 176 / \$1;
#X msg 302 152 60000;
#X floatatom 301 233 5 0 0 0 - - - 0;
#X obj 298 336 del;
#X obj 156 86 inlet;
#X obj 152 486 outlet;
#X obj 389 129 r global-bpm;
#X floatatom 389 154 5 0 0 0 - - - 0;
#X obj 389 176 t b f;
#X obj 389 221 / \$1;
#X msg 389 197 60000;
#X floatatom 388 278 5 0 0 0 - - - 0;
#X obj 388 251 / 16;
#X obj 311 372 del;
#X obj 301 206 / 16;
#X obj 337 403 del;
#X obj 366 436 del;
#X connect 0 0 1 0;
#X connect 1 0 2 0;
#X connect 2 0 4 0;
#X connect 2 1 3 1;
#X connect 3 0 17 0;
#X connect 4 0 3 0;
#X connect 5 0 6 1;
#X connect 5 0 16 1;
#X connect 5 0 18 1;
#X connect 5 0 19 1;
#X connect 6 0 8 0;
#X connect 6 0 16 0;
#X connect 7 0 8 0;
#X connect 7 0 6 0;
#X connect 9 0 10 0;
#X connect 10 0 11 0;
#X connect 11 0 13 0;
#X connect 11 1 12 1;
#X connect 12 0 15 0;
#X connect 13 0 12 0;
#X connect 15 0 14 0;
#X connect 16 0 8 0;
#X connect 16 0 18 0;
#X connect 17 0 5 0;
#X connect 18 0 8 0;
#X connect 18 0 19 0;
#X connect 19 0 8 0;
#X restore 276 317 pd increase;
#N canvas 63 88 779 535 increase 0;
#X obj 432 107 r global-bpm;
#X floatatom 432 132 5 0 0 0 - - - 0;
#X obj 432 154 t b f;
#X obj 432 199 / \$1;
#X msg 432 175 60000;
#X floatatom 431 256 5 0 0 0 - - - 0;
#X obj 431 229 / 8;
#X obj 298 336 del;
#X obj 156 86 inlet;
#X obj 152 486 outlet;
#X connect 0 0 1 0;
#X connect 1 0 2 0;
#X connect 2 0 4 0;
#X connect 2 1 3 1;
#X connect 3 0 6 0;
#X connect 4 0 3 0;
#X connect 5 0 7 1;
#X connect 6 0 5 0;
#X connect 7 0 9 0;
#X connect 8 0 9 0;
#X connect 8 0 7 0;
#X restore 551 320 pd increase;
#N canvas 63 88 779 535 increase 0;
#X obj 432 107 r global-bpm;
#X floatatom 432 132 5 0 0 0 - - - 0;
#X obj 432 154 t b f;
#X obj 432 199 / \$1;
#X msg 432 175 60000;
#X floatatom 431 256 5 0 0 0 - - - 0;
#X obj 431 229 / 8;
#X obj 298 336 del;
#X obj 156 86 inlet;
#X obj 152 486 outlet;
#X connect 0 0 1 0;
#X connect 1 0 2 0;
#X connect 2 0 4 0;
#X connect 2 1 3 1;
#X connect 3 0 6 0;
#X connect 4 0 3 0;
#X connect 5 0 7 1;
#X connect 6 0 5 0;
#X connect 7 0 9 0;
#X connect 8 0 9 0;
#X connect 8 0 7 0;
#X restore 676 319 pd increase;
#N canvas 63 88 779 535 increase 0;
#X obj 432 107 r global-bpm;
#X floatatom 432 132 5 0 0 0 - - - 0;
#X obj 432 154 t b f;
#X obj 432 199 / \$1;
#X msg 432 175 60000;
#X floatatom 431 256 5 0 0 0 - - - 0;
#X obj 431 229 / 8;
#X obj 298 336 del;
#X obj 156 86 inlet;
#X obj 152 486 outlet;
#X connect 0 0 1 0;
#X connect 1 0 2 0;
#X connect 2 0 4 0;
#X connect 2 1 3 1;
#X connect 3 0 6 0;
#X connect 4 0 3 0;
#X connect 5 0 7 1;
#X connect 6 0 5 0;
#X connect 7 0 9 0;
#X connect 8 0 9 0;
#X connect 8 0 7 0;
#X restore 813 324 pd increase;
#N canvas 63 88 779 535 increase 0;
#X obj 432 107 r global-bpm;
#X floatatom 432 132 5 0 0 0 - - - 0;
#X obj 432 154 t b f;
#X obj 432 199 / \$1;
#X msg 432 175 60000;
#X floatatom 431 256 5 0 0 0 - - - 0;
#X obj 431 229 / 8;
#X obj 298 336 del;
#X obj 156 86 inlet;
#X obj 152 486 outlet;
#X connect 0 0 1 0;
#X connect 1 0 2 0;
#X connect 2 0 4 0;
#X connect 2 1 3 1;
#X connect 3 0 6 0;
#X connect 4 0 3 0;
#X connect 5 0 7 1;
#X connect 6 0 5 0;
#X connect 7 0 9 0;
#X connect 8 0 9 0;
#X connect 8 0 7 0;
#X restore 953 330 pd increase;
#N canvas 63 88 779 535 increase 0;
#X obj 432 107 r global-bpm;
#X floatatom 432 132 5 0 0 0 - - - 0;
#X obj 432 154 t b f;
#X obj 432 199 / \$1;
#X msg 432 175 60000;
#X floatatom 431 256 5 0 0 0 - - - 0;
#X obj 431 229 / 8;
#X obj 298 336 del;
#X obj 156 86 inlet;
#X obj 152 486 outlet;
#X connect 0 0 1 0;
#X connect 1 0 2 0;
#X connect 2 0 4 0;
#X connect 2 1 3 1;
#X connect 3 0 6 0;
#X connect 4 0 3 0;
#X connect 5 0 7 1;
#X connect 6 0 5 0;
#X connect 7 0 9 0;
#X connect 8 0 9 0;
#X connect 8 0 7 0;
#X restore 1070 329 pd increase;
#X obj 619 24 loadbang;
#X msg 619 45 100;
#N canvas 63 88 779 535 increase 0;
#X obj 302 84 r global-bpm;
#X floatatom 302 109 5 0 0 0 - - - 0;
#X obj 302 131 t b f;
#X obj 302 176 / \$1;
#X msg 302 152 60000;
#X floatatom 301 233 5 0 0 0 - - - 0;
#X obj 298 336 del;
#X obj 156 86 inlet;
#X obj 152 486 outlet;
#X obj 389 129 r global-bpm;
#X floatatom 389 154 5 0 0 0 - - - 0;
#X obj 389 176 t b f;
#X obj 389 221 / \$1;
#X msg 389 197 60000;
#X floatatom 388 278 5 0 0 0 - - - 0;
#X obj 388 251 / 16;
#X obj 346 398 del;
#X obj 301 206 / 16;
#X obj 372 450 del;
#X connect 0 0 1 0;
#X connect 1 0 2 0;
#X connect 2 0 4 0;
#X connect 2 1 3 1;
#X connect 3 0 17 0;
#X connect 4 0 3 0;
#X connect 5 0 6 1;
#X connect 5 0 16 1;
#X connect 5 0 18 1;
#X connect 6 0 8 0;
#X connect 6 0 16 0;
#X connect 7 0 8 0;
#X connect 7 0 6 0;
#X connect 9 0 10 0;
#X connect 10 0 11 0;
#X connect 11 0 13 0;
#X connect 11 1 12 1;
#X connect 12 0 15 0;
#X connect 13 0 12 0;
#X connect 15 0 14 0;
#X connect 16 0 8 0;
#X connect 16 0 18 0;
#X connect 17 0 5 0;
#X connect 18 0 8 0;
#X restore 420 328 pd increase;
#N canvas 63 88 779 535 increase 0;
#X obj 302 84 r global-bpm;
#X floatatom 302 109 5 0 0 0 - - - 0;
#X obj 302 131 t b f;
#X obj 302 176 / \$1;
#X msg 302 152 60000;
#X floatatom 301 233 5 0 0 0 - - - 0;
#X obj 298 336 del;
#X obj 156 86 inlet;
#X obj 152 486 outlet;
#X obj 311 372 del;
#X obj 301 206 / 16;
#X obj 337 403 del;
#X floatatom 342 201 5 0 0 0 - - - 0;
#X connect 0 0 1 0;
#X connect 1 0 2 0;
#X connect 2 0 4 0;
#X connect 2 1 3 1;
#X connect 3 0 10 0;
#X connect 3 0 12 0;
#X connect 4 0 3 0;
#X connect 5 0 6 1;
#X connect 5 0 9 1;
#X connect 5 0 11 1;
#X connect 6 0 8 0;
#X connect 6 0 9 0;
#X connect 7 0 8 0;
#X connect 7 0 6 0;
#X connect 9 0 8 0;
#X connect 9 0 11 0;
#X connect 10 0 5 0;
#X connect 11 0 8 0;
#X restore 149 329 pd increase;
#X connect 2 0 48 0;
#X connect 3 0 52 0;
#X connect 5 0 54 0;
#X connect 7 0 56 0;
#X connect 9 0 58 0;
#X connect 11 0 60 0;
#X connect 13 0 62 0;
#X connect 45 0 50 0;
#X connect 47 0 48 2;
#X connect 47 0 50 2;
#X connect 47 0 52 2;
#X connect 47 0 54 2;
#X connect 47 0 56 2;
#X connect 47 0 58 2;
#X connect 47 0 60 2;
#X connect 47 0 62 2;
#X connect 48 0 44 0;
#X connect 49 0 73 0;
#X connect 50 0 46 0;
#X connect 51 0 64 0;
#X connect 52 0 4 0;
#X connect 53 0 72 0;
#X connect 54 0 6 0;
#X connect 55 0 65 0;
#X connect 56 0 8 0;
#X connect 57 0 66 0;
#X connect 58 0 10 0;
#X connect 59 0 67 0;
#X connect 60 0 12 0;
#X connect 61 0 68 0;
#X connect 62 0 14 0;
#X connect 63 0 69 0;
#X connect 64 0 50 1;
#X connect 65 0 54 1;
#X connect 66 0 56 1;
#X connect 67 0 58 1;
#X connect 68 0 60 1;
#X connect 69 0 62 1;
#X connect 70 0 71 0;
#X connect 71 0 47 0;
#X connect 72 0 52 1;
#X connect 73 0 48 1;
#X coords 0 -1 1 1 1780 100 2 100 100;
