#N canvas 0 25 1280 747 10;
#X obj 77 423 line~;
#X obj 77 478 mtof~;
#X floatatom 204 114 5 0 0 1 Hz - - 0;
#X obj 77 450 +~;
#X obj 217 433 *~ 127;
#X obj 106 128 hsl 128 15 0 127 0 1 \$0-param-1-s \$0-param-1-r FREQ 135 7 0 10 #fcfcfc #000000 #000000 6200 1;
#X obj 269 109 cnv 5 5 5 empty empty SYNC 0 0 0 8 #fcfcfc #dc4c90 0;
#X obj 77 502 +~;
#X obj 103 121 cnv 5 5 5 empty empty BASIC-LFO 0 0 0 12 #fcfcfc #404040 0;
#X obj 77 400 pack 0 50;
#X obj 106 143 hsl 128 15 0 127 0 1 \$0-param-2-s \$0-param-2-r P-WIDTH 135 7 0 10 #fcfcfc #000000 #000000 0 1;
#X obj 268 198 cnv 5 5 5 empty empty TRIG 0 0 0 8 #fcfcfc #dc4c90 0;
#N canvas 63 88 833 418 sinewave 0;
#X obj 231 28 r \$0-basic-lfo-sync!;
#X obj 209 58 inlet~;
#X obj 209 136 osc~;
#X obj 450 235 switch~;
#X obj 209 241 *~;
#X obj 450 62 t f f;
#X obj 477 136 line~;
#X obj 477 114 pack 0 100;
#X obj 450 158 sel 0;
#X obj 450 180 del 100;
#X msg 450 202 0;
#X obj 450 40 r \$0-basic-lfo-sine-on/off;
#X obj 377 220 *~ 0.5;
#X obj 379 245 +~ 0.5;
#X obj 209 286 outlet~ BI;
#X obj 376 278 outlet~ UNI;
#X connect 0 0 2 1;
#X connect 1 0 2 0;
#X connect 2 0 4 0;
#X connect 2 0 12 0;
#X connect 4 0 14 0;
#X connect 5 0 8 0;
#X connect 5 1 7 0;
#X connect 6 0 4 1;
#X connect 7 0 6 0;
#X connect 8 0 9 0;
#X connect 8 1 3 0;
#X connect 9 0 10 0;
#X connect 10 0 3 0;
#X connect 11 0 5 0;
#X connect 12 0 13 0;
#X connect 13 0 15 0;
#X restore 77 531 pd sinewave;
#X obj 174 121 cnv 5 5 5 empty \$0-instance-num 22 0 0 0 12 #fcfcfc #404040 0;
#N canvas 92 117 732 465 triangle 0;
#X obj 428 75 r \$0-basic-lfo-sync!;
#X obj 340 53 inlet~;
#X obj 388 335 switch~;
#X obj 340 326 *~;
#X obj 388 74 t f f;
#X obj 415 309 line~;
#X obj 340 125 phasor~;
#X obj 340 213 min~;
#X obj 361 167 *~ -1;
#X obj 361 189 +~ 1;
#X obj 340 235 *~ 4;
#X obj 340 257 -~ 1;
#X obj 415 287 pack 0 100;
#X obj 388 225 sel 0;
#X obj 388 247 del 100;
#X msg 388 269 0;
#X obj 388 52 r \$0-basic-lfo-triangle-on/off;
#X obj 547 231 *~ 2;
#X obj 547 360 outlet~ UNI;
#X obj 340 371 outlet~ BI;
#X connect 0 0 6 1;
#X connect 1 0 6 0;
#X connect 3 0 19 0;
#X connect 4 0 13 0;
#X connect 4 1 12 0;
#X connect 5 0 3 1;
#X connect 6 0 7 0;
#X connect 6 0 8 0;
#X connect 7 0 10 0;
#X connect 7 0 17 0;
#X connect 8 0 9 0;
#X connect 9 0 7 1;
#X connect 10 0 11 0;
#X connect 11 0 3 0;
#X connect 12 0 5 0;
#X connect 13 0 14 0;
#X connect 13 1 2 0;
#X connect 14 0 15 0;
#X connect 15 0 2 0;
#X connect 16 0 4 0;
#X connect 17 0 18 0;
#X restore 179 520 pd triangle;
#N canvas 0 22 652 481 saw 0;
#X obj 404 116 r \$0-basic-lfo-sync!;
#X obj 365 68 inlet~;
#X obj 413 350 switch~;
#X obj 365 341 *~;
#X obj 413 89 t f f;
#X obj 440 324 line~;
#X obj 365 140 phasor~;
#X obj 365 272 -~ 1;
#X obj 365 215 *~ 2;
#X obj 440 302 pack 0 100;
#X obj 413 177 sel 0;
#X obj 413 199 del 100;
#X msg 413 221 0;
#X obj 413 67 r \$0-basic-lfo-saw-on/off;
#X obj 535 385 outlet~ UNI;
#X obj 365 386 outlet~ BI;
#X connect 0 0 6 1;
#X connect 1 0 6 0;
#X connect 3 0 15 0;
#X connect 4 0 10 0;
#X connect 4 1 9 0;
#X connect 5 0 3 1;
#X connect 6 0 8 0;
#X connect 6 0 14 0;
#X connect 7 0 3 0;
#X connect 8 0 7 0;
#X connect 9 0 5 0;
#X connect 10 0 11 0;
#X connect 10 1 2 0;
#X connect 11 0 12 0;
#X connect 12 0 2 0;
#X connect 13 0 4 0;
#X restore 278 519 pd saw;
#N canvas 312 129 813 603 pulse 0;
#X obj 129 108 r \$0-basic-lfo-sync!;
#X obj 324 53 inlet~;
#X obj 324 501 outlet~;
#X obj 324 125 phasor~;
#X obj 324 425 -~ 1;
#X obj 324 323 cos~;
#X obj 324 350 expr~ $v1 < $v2;
#X obj 411 275 pack 0 50;
#X obj 411 297 line~;
#X obj 411 321 +~;
#X obj 411 200 * 0.00787402;
#X obj 324 404 *~ 2;
#X obj 411 244 + 0.01;
#X obj 411 222 * 0.98;
#X obj 411 178 r \$0-param-3-s;
#X connect 0 0 3 1;
#X connect 1 0 3 0;
#X connect 3 0 5 0;
#X connect 4 0 2 0;
#X connect 5 0 6 0;
#X connect 6 0 11 0;
#X connect 7 0 8 0;
#X connect 8 0 9 0;
#X connect 9 0 6 1;
#X connect 10 0 13 0;
#X connect 11 0 4 0;
#X connect 12 0 7 0;
#X connect 13 0 12 0;
#X connect 14 0 10 0;
#X restore 350 519 pd pulse;
#N canvas 315 35 982 739 state-saving-multiple-instances 0;
#X obj 137 29 loadbang;
#X obj 184 452 textfile;
#X msg 466 435 rewind;
#X msg 423 435 bang;
#X obj 42 691 textfile;
#X obj 423 396 t b b;
#X obj 43 357 f;
#X obj 56 580 f;
#X obj -16 401 t b b b;
#X msg 119 580 clear;
#X obj 204 217 outlet;
#X text 246 221 INSTANCE NUMBER;
#X obj 165 153 f \$1;
#X obj 165 189 t f f f;
#X obj 138 62 t b b;
#X obj -16 378 bng 15 250 50 0 empty empty empty 17 7 0 10 #fcfcfc #000000 #000000;
#X obj -16 234 r SAVE-S;
#X msg 43 438 set \$1 \$2 \$3 \$4;
#X obj 43 400 pack f f f f;
#X obj 184 474 unpack f f f f;
#X msg 184 427 read statesave/\$1-basic-lfo-ss.txt;
#X msg 55 651 write statesave/\$1-basic-lfo-ss.txt;
#X obj 58 254 r \$0-basic-lfo-freq-s;
#X obj 184 627 s \$0-basic-lfo-freq-r;
#X obj 66 277 r \$0-basic-lfo-pwidth-s;
#X obj 205 603 s \$0-basic-lfo-pwidth-r;
#X obj 80 298 r \$0-basic-lfo-depth-s;
#X obj 226 579 s \$0-basic-lfo-depth-r;
#X obj 247 554 s \$0-basic-lfo-wform-r;
#X obj 98 323 r \$0-basic-lfo-wform-s;
#X obj 654 161 array;
#X obj 36 126 r \$0-param-1;
#X connect 0 0 14 0;
#X connect 1 0 19 0;
#X connect 2 0 1 0;
#X connect 3 0 1 0;
#X connect 5 0 3 0;
#X connect 5 1 2 0;
#X connect 6 0 18 0;
#X connect 7 0 21 0;
#X connect 8 0 7 0;
#X connect 8 1 6 0;
#X connect 8 2 9 0;
#X connect 9 0 4 0;
#X connect 12 0 13 0;
#X connect 13 0 7 1;
#X connect 13 1 20 0;
#X connect 13 2 10 0;
#X connect 14 0 5 0;
#X connect 14 1 12 0;
#X connect 15 0 8 0;
#X connect 17 0 4 0;
#X connect 18 0 17 0;
#X connect 19 0 23 0;
#X connect 19 1 25 0;
#X connect 19 2 27 0;
#X connect 19 3 28 0;
#X connect 20 0 1 0;
#X connect 21 0 4 0;
#X connect 22 0 6 1;
#X connect 24 0 18 1;
#X connect 26 0 18 2;
#X connect 29 0 18 3;
#X restore 316 122 pd state-saving-multiple-instances;
#X obj 316 197 s \$0-instance-num;
#X obj 316 149 makefilename %d;
#X msg 316 174 label \$1;
#N canvas 81 22 1117 745 state-saving-via-preset-manager-module 0;
#X obj 340 227 textfile;
#X msg 719 210 rewind;
#X msg 676 210 bang;
#X obj 106 568 textfile;
#X obj 676 171 t b b;
#X obj 107 234 f;
#X obj 120 457 f;
#X obj 53 352 t b b b;
#X msg 236 499 clear;
#X obj 107 56 delay 5;
#X obj 53 407 delay 10;
#X msg 53 192 bang;
#X obj 53 26 r STORE-S!;
#X obj 340 128 f;
#X obj 313 85 t b b;
#X obj 328 49 t b f;
#X obj 385 146 f \$1;
#X obj 340 173 pack f f;
#X obj 385 96 loadbang;
#X obj 120 487 pack f f;
#X obj 165 440 loadbang;
#X obj 165 462 f \$1;
#X obj 328 26 r preset-manager-scan;
#X obj 135 418 r preset-manager-store-slot;
#X msg 106 368 set \$1 \$2 \$3 \$4;
#X obj 107 301 pack f f f f;
#X obj 340 249 unpack f f f f;
#X msg 119 528 write statesave/\$1-\$2-basic-lfo-ss.txt;
#X msg 340 202 read statesave/\$1-\$2-basic-lfo-ss.txt;
#X obj 123 78 r \$0-basic-lfo-freq-s;
#X obj 345 714 s \$0-basic-lfo-freq-r;
#X obj 136 107 r \$0-basic-lfo-pwidth-s;
#X obj 366 616 s \$0-basic-lfo-pwidth-r;
#X obj 146 146 r \$0-basic-lfo-depth-s;
#X obj 384 517 s \$0-basic-lfo-depth-r;
#X obj 169 173 r \$0-basic-lfo-wform-s;
#X obj 417 394 s \$0-basic-lfo-wform-r;
#N canvas 0 22 1069 747 morph-frequencies 0;
#X obj 176 94 inlet;
#X obj 176 236 pack f f;
#X obj 176 261 line;
#X obj 209 117 r preset-manager-morph-s;
#X msg 72 244 stop;
#X obj 72 214 r STOP-MORPH!;
#X obj 398 102 r frequencies-s;
#X obj 209 206 spigot;
#X obj 398 137 t f f;
#X obj 455 154 == 0;
#X obj 221 176 f;
#X floatatom 455 222 5 0 0 0 - - - 0;
#X obj 398 159 t b f;
#X floatatom 425 192 5 0 0 0 - - - 0;
#X obj 209 139 t f f;
#X obj 176 283 outlet;
#X connect 0 0 1 0;
#X connect 1 0 2 0;
#X connect 2 0 15 0;
#X connect 3 0 14 0;
#X connect 4 0 2 0;
#X connect 5 0 4 0;
#X connect 6 0 8 0;
#X connect 7 0 1 1;
#X connect 8 0 12 0;
#X connect 8 1 9 0;
#X connect 9 0 11 0;
#X connect 10 0 7 0;
#X connect 11 0 1 1;
#X connect 12 0 10 0;
#X connect 12 1 13 0;
#X connect 13 0 7 1;
#X connect 14 0 7 0;
#X connect 14 1 10 1;
#X restore 344 685 pd morph-frequencies;
#N canvas 0 22 1069 747 morph-parameters 0;
#X obj 176 94 inlet;
#X obj 176 236 pack f f;
#X obj 176 261 line;
#X obj 209 117 r preset-manager-morph-s;
#X msg 72 244 stop;
#X obj 72 214 r STOP-MORPH!;
#X obj 209 206 spigot;
#X obj 398 137 t f f;
#X obj 455 154 == 0;
#X obj 221 176 f;
#X floatatom 455 222 5 0 0 0 - - - 0;
#X obj 398 159 t b f;
#X floatatom 425 192 5 0 0 0 - - - 0;
#X obj 209 139 t f f;
#X obj 398 102 r parameters-s;
#X obj 176 288 outlet;
#X connect 0 0 1 0;
#X connect 1 0 2 0;
#X connect 2 0 15 0;
#X connect 3 0 13 0;
#X connect 4 0 2 0;
#X connect 5 0 4 0;
#X connect 6 0 1 1;
#X connect 7 0 11 0;
#X connect 7 1 8 0;
#X connect 8 0 10 0;
#X connect 9 0 6 0;
#X connect 10 0 1 1;
#X connect 11 0 9 0;
#X connect 11 1 12 0;
#X connect 12 0 6 1;
#X connect 13 0 6 0;
#X connect 13 1 9 1;
#X connect 14 0 7 0;
#X restore 367 587 pd morph-parameters;
#N canvas 0 22 1069 747 morph-attenuators 0;
#X obj 176 94 inlet;
#X obj 176 236 pack f f;
#X obj 176 261 line;
#X obj 209 117 r preset-manager-morph-s;
#X msg 72 244 stop;
#X obj 72 214 r STOP-MORPH!;
#X obj 209 206 spigot;
#X obj 398 137 t f f;
#X obj 455 154 == 0;
#X obj 221 176 f;
#X floatatom 455 222 5 0 0 0 - - - 0;
#X obj 398 159 t b f;
#X floatatom 425 192 5 0 0 0 - - - 0;
#X obj 209 139 t f f;
#X obj 398 102 r attenuators-s;
#X obj 176 288 outlet;
#X connect 0 0 1 0;
#X connect 1 0 2 0;
#X connect 2 0 15 0;
#X connect 3 0 13 0;
#X connect 4 0 2 0;
#X connect 5 0 4 0;
#X connect 6 0 1 1;
#X connect 7 0 11 0;
#X connect 7 1 8 0;
#X connect 8 0 10 0;
#X connect 9 0 6 0;
#X connect 10 0 1 1;
#X connect 11 0 9 0;
#X connect 11 1 12 0;
#X connect 12 0 6 1;
#X connect 13 0 6 0;
#X connect 13 1 9 1;
#X connect 14 0 7 0;
#X restore 384 490 pd morph-attenuators;
#X connect 0 0 26 0;
#X connect 1 0 0 0;
#X connect 2 0 0 0;
#X connect 4 0 2 0;
#X connect 4 1 1 0;
#X connect 5 0 25 0;
#X connect 6 0 19 0;
#X connect 7 0 10 0;
#X connect 7 1 9 0;
#X connect 7 2 8 0;
#X connect 8 0 3 0;
#X connect 9 0 5 0;
#X connect 10 0 6 0;
#X connect 11 0 7 0;
#X connect 12 0 11 0;
#X connect 13 0 17 0;
#X connect 14 0 4 0;
#X connect 14 1 13 0;
#X connect 15 0 14 0;
#X connect 15 1 13 1;
#X connect 16 0 17 1;
#X connect 17 0 28 0;
#X connect 18 0 16 0;
#X connect 19 0 27 0;
#X connect 20 0 21 0;
#X connect 21 0 19 1;
#X connect 22 0 15 0;
#X connect 23 0 6 1;
#X connect 24 0 3 0;
#X connect 25 0 24 0;
#X connect 26 0 37 0;
#X connect 26 1 38 0;
#X connect 26 2 39 0;
#X connect 26 3 36 0;
#X connect 27 0 3 0;
#X connect 28 0 0 0;
#X connect 29 0 5 1;
#X connect 31 0 25 1;
#X connect 33 0 25 2;
#X connect 35 0 25 3;
#X connect 37 0 30 0;
#X connect 38 0 32 0;
#X connect 39 0 34 0;
#X restore 316 100 pd state-saving-via-preset-manager-module;
#X obj 106 158 hsl 128 15 0 127 0 1 \$0-param-3-s \$0-param-3-r DEPTH 135 7 0 10 #8480d4 #000000 #000000 7700 1;
#X obj 104 109 cnv 5 5 5 empty empty FREQ 0 0 0 8 #fcfcfc #404040 0;
#X obj 77 374 t f f;
#X obj 76 682 *~;
#X obj 350 603 *~;
#X obj 478 477 * 0.00787402;
#X obj 478 510 pack 0 50;
#X obj 478 546 line~;
#X obj 103 198 cnv 5 5 5 empty empty BI-P 0 0 0 8 #fcfcfc #404040 0;
#X obj 140 198 cnv 5 5 5 empty empty UNI-P 0 0 0 8 #fcfcfc #404040 0;
#X obj 183 198 cnv 5 5 5 empty empty PULSE 0 0 0 8 #fcfcfc #000000 0;
#X obj 463 591 *~;
#X obj 641 485 noise~;
#X obj 641 575 samphold~;
#X obj 217 246 inlet~ FREQ;
#X obj 328 243 inlet~;
#X obj 328 265 threshold~ 0.9 0 0.9 0;
#X obj 328 312 s \$0-basic-lfo-sync!;
#X msg 328 288 0;
#X obj 77 292 * 1.5;
#X obj 77 314 - 127;
#X obj 718 536 threshold~ 0.9 0 0.9 0;
#X msg 718 558 reset;
#X obj 601 271 loadbang;
#X obj 77 712 outlet~ BI-POLAR;
#X obj 208 713 outlet~ UNI-POLAR;
#X obj 350 715 outlet~ PULSE;
#X obj 463 716 outlet~ S&H;
#X obj 803 672 vline~;
#X obj 803 697 outlet~ TRIG;
#X obj 233 198 cnv 5 5 5 empty empty S&H 0 0 0 8 #fcfcfc #404040 0;
#X msg 803 650 1 0 \, 0 10 1;
#N canvas 297 27 539 173 parameter-nudging-system 0;
#X obj 324 66 clip 0 127;
#X obj 23 67 clip 0 127;
#X obj 168 69 clip 0 127;
#X obj 23 22 r \$0-basic-lfo-freq-s;
#X obj 23 95 s \$0-basic-lfo-freq-r;
#X obj 168 22 r \$0-basic-lfo-pwidth-s;
#X obj 168 95 s \$0-basic-lfo-pwidth-r;
#X obj 324 21 r \$0-basic-lfo-depth-s;
#X obj 324 93 s \$0-basic-lfo-depth-r;
#N canvas 0 22 484 497 nudge-freq 0;
#X obj 124 234 random;
#X obj 232 335 f;
#X obj 232 368 +;
#X obj 257 166 random 2;
#X obj 124 275 t f f;
#X obj 124 351 t b f;
#X obj 124 297 *;
#X obj 257 188 sel 0 1;
#X msg 257 280 -1;
#X msg 335 280 1;
#X obj 124 149 t b b b;
#X obj 124 51 r NUDGE!;
#X obj 157 193 r NUDGE-RANGE;
#X obj 247 308 inlet;
#X obj 232 397 outlet;
#X obj 124 73 spigot;
#X obj 185 56 r frequencies2-s;
#X connect 0 0 4 0;
#X connect 1 0 2 0;
#X connect 2 0 14 0;
#X connect 3 0 7 0;
#X connect 4 0 6 0;
#X connect 5 0 2 0;
#X connect 5 1 2 1;
#X connect 6 0 5 0;
#X connect 7 0 8 0;
#X connect 7 1 9 0;
#X connect 8 0 6 1;
#X connect 9 0 6 1;
#X connect 10 0 0 0;
#X connect 10 1 1 0;
#X connect 10 2 3 0;
#X connect 11 0 15 0;
#X connect 12 0 0 1;
#X connect 13 0 1 1;
#X connect 15 0 10 0;
#X connect 16 0 15 1;
#X restore 23 44 pd nudge-freq;
#N canvas 0 22 484 497 nudge-parameters 0;
#X obj 124 234 random;
#X obj 232 335 f;
#X obj 232 368 +;
#X obj 257 166 random 2;
#X obj 124 275 t f f;
#X obj 124 351 t b f;
#X obj 124 297 *;
#X obj 257 188 sel 0 1;
#X msg 257 280 -1;
#X msg 335 280 1;
#X obj 124 149 t b b b;
#X obj 124 74 r NUDGE!;
#X obj 157 193 r NUDGE-RANGE;
#X obj 247 308 inlet;
#X obj 232 397 outlet;
#X obj 124 96 spigot;
#X obj 185 79 r parameters2-s;
#X connect 0 0 4 0;
#X connect 1 0 2 0;
#X connect 2 0 14 0;
#X connect 3 0 7 0;
#X connect 4 0 6 0;
#X connect 5 0 2 0;
#X connect 5 1 2 1;
#X connect 6 0 5 0;
#X connect 7 0 8 0;
#X connect 7 1 9 0;
#X connect 8 0 6 1;
#X connect 9 0 6 1;
#X connect 10 0 0 0;
#X connect 10 1 1 0;
#X connect 10 2 3 0;
#X connect 11 0 15 0;
#X connect 12 0 0 1;
#X connect 13 0 1 1;
#X connect 15 0 10 0;
#X connect 16 0 15 1;
#X restore 171 44 pd nudge-parameters;
#N canvas 0 22 484 497 nudge-attenuators 0;
#X obj 124 234 random;
#X obj 232 335 f;
#X obj 232 368 +;
#X obj 257 166 random 2;
#X obj 124 275 t f f;
#X obj 124 351 t b f;
#X obj 124 297 *;
#X obj 257 188 sel 0 1;
#X msg 257 280 -1;
#X msg 335 280 1;
#X obj 124 149 t b b b;
#X obj 124 71 r NUDGE!;
#X obj 157 193 r NUDGE-RANGE;
#X obj 247 308 inlet;
#X obj 232 397 outlet;
#X obj 124 93 spigot;
#X obj 201 76 r attenuators2-s;
#X connect 0 0 4 0;
#X connect 1 0 2 0;
#X connect 2 0 14 0;
#X connect 3 0 7 0;
#X connect 4 0 6 0;
#X connect 5 0 2 0;
#X connect 5 1 2 1;
#X connect 6 0 5 0;
#X connect 7 0 8 0;
#X connect 7 1 9 0;
#X connect 8 0 6 1;
#X connect 9 0 6 1;
#X connect 10 0 0 0;
#X connect 10 1 1 0;
#X connect 10 2 3 0;
#X connect 11 0 15 0;
#X connect 12 0 0 1;
#X connect 13 0 1 1;
#X connect 15 0 10 0;
#X connect 16 0 15 1;
#X restore 324 43 pd nudge-attenuators;
#X connect 0 0 8 0;
#X connect 1 0 4 0;
#X connect 2 0 6 0;
#X connect 3 0 9 0;
#X connect 5 0 10 0;
#X connect 7 0 11 0;
#X connect 9 0 1 0;
#X connect 10 0 2 0;
#X connect 11 0 0 0;
#X restore 316 78 pd parameter-nudging-system;
#X obj 164 391 mtof;
#X obj 103 173 hradio 15 1 1 3 \$0-param-4-s \$0-param-4-r empty 65 7 0 10 #fcfcfc #000000 #000000 2;
#X obj 154 181 cnv 5 5 5 empty \$0-lfo-waveform-gui-r SAW 0 0 0 10 #fcfcfc #404040 0;
#N canvas 197 146 1132 690 choose-wform 0;
#X obj 80 498 t b b;
#X obj 339 541 makefilename %s;
#X msg 339 565 label \$1;
#X msg 339 515 symbol SINE;
#X obj 95 329 t b b;
#X msg 339 493 symbol TRIANGLE;
#X obj 111 161 t b b;
#X msg 340 471 symbol SAW;
#X obj 80 35 sel 0 1 2;
#X msg 111 183 0 0 1;
#X msg 95 351 0 1 0;
#X msg 80 522 1 0 0;
#X obj 80 544 unpack f f f;
#X obj 95 374 unpack f f f;
#X obj 111 206 unpack f f f;
#X obj 339 588 s \$0-lfo-waveform-gui-r;
#X obj 80 643 s \$0-basic-lfo-sine-on/off;
#X obj 107 618 s \$0-basic-lfo-triangle-on/off;
#X obj 134 592 s \$0-basic-lfo-saw-on/off;
#X obj 95 473 s \$0-basic-lfo-sine-on/off;
#X obj 122 448 s \$0-basic-lfo-triangle-on/off;
#X obj 149 422 s \$0-basic-lfo-saw-on/off;
#X obj 111 305 s \$0-basic-lfo-sine-on/off;
#X obj 138 280 s \$0-basic-lfo-triangle-on/off;
#X obj 165 254 s \$0-basic-lfo-saw-on/off;
#X obj 80 14 r \$0-param-4-s;
#X connect 0 0 11 0;
#X connect 0 1 3 0;
#X connect 1 0 2 0;
#X connect 2 0 15 0;
#X connect 3 0 1 0;
#X connect 4 0 10 0;
#X connect 4 1 5 0;
#X connect 5 0 1 0;
#X connect 6 0 9 0;
#X connect 6 1 7 0;
#X connect 7 0 1 0;
#X connect 8 0 0 0;
#X connect 8 1 4 0;
#X connect 8 2 6 0;
#X connect 9 0 14 0;
#X connect 10 0 13 0;
#X connect 11 0 12 0;
#X connect 12 0 16 0;
#X connect 12 1 17 0;
#X connect 12 2 18 0;
#X connect 13 0 19 0;
#X connect 13 1 20 0;
#X connect 13 2 21 0;
#X connect 14 0 22 0;
#X connect 14 1 23 0;
#X connect 14 2 24 0;
#X connect 25 0 8 0;
#X restore 326 340 pd choose-wform;
#X obj 207 662 *~;
#N canvas 632 73 751 781 external-messages 0;
#X floatatom 186 706 5 0 0 0 - - - 0;
#X obj 185 328 spigot;
#X obj 218 288 tgl 15 0 empty empty empty 17 7 0 10 #fcfcfc #000000 #000000 0 1;
#X obj 254 272 ==;
#X obj 269 248 f \$1;
#X obj 269 224 loadbang;
#X msg 185 202 \$1 \$2;
#X msg 185 156 symbol \$1;
#X obj 185 180 pack s f;
#X obj 186 685 f;
#X obj 186 633 t b f;
#X obj 186 656 spigot;
#X obj 185 62 unpack s f f;
#X symbolatom 185 94 10 0 0 0 - - - 0;
#X obj 218 308 t f f;
#X obj 245 332 s \$0-msg-spigot;
#X obj 234 640 r \$0-msg-spigot;
#X floatatom 223 594 5 0 0 0 - - - 0;
#X obj 223 573 f;
#X obj 223 521 t b f;
#X obj 223 544 spigot;
#X obj 271 528 r \$0-msg-spigot;
#X floatatom 387 639 5 0 0 0 - - - 0;
#X obj 387 618 f;
#X obj 387 566 t b f;
#X obj 387 589 spigot;
#X obj 435 573 r \$0-msg-spigot;
#X floatatom 424 527 5 0 0 0 - - - 0;
#X obj 424 506 f;
#X obj 424 454 t b f;
#X obj 424 477 spigot;
#X obj 472 461 r \$0-msg-spigot;
#X obj 185 14 r basic-lfo;
#X obj 186 726 s \$0-basic-lfo-freq-r;
#X obj 223 614 s \$0-basic-lfo-pwidth-r;
#X obj 387 659 s \$0-basic-lfo-depth-r;
#X obj 424 547 s \$0-basic-lfo-wform-r;
#X obj 185 380 route FREQ P-WIDTH DEPTH RADIO;
#X connect 0 0 33 0;
#X connect 1 0 37 0;
#X connect 2 0 14 0;
#X connect 3 0 2 0;
#X connect 4 0 3 1;
#X connect 5 0 4 0;
#X connect 6 0 1 0;
#X connect 7 0 8 0;
#X connect 8 0 6 0;
#X connect 9 0 0 0;
#X connect 10 0 11 0;
#X connect 10 1 9 1;
#X connect 11 0 9 0;
#X connect 12 0 13 0;
#X connect 12 1 8 1;
#X connect 12 2 3 0;
#X connect 13 0 7 0;
#X connect 14 0 1 1;
#X connect 14 1 15 0;
#X connect 16 0 11 1;
#X connect 17 0 34 0;
#X connect 18 0 17 0;
#X connect 19 0 20 0;
#X connect 19 1 18 1;
#X connect 20 0 18 0;
#X connect 21 0 20 1;
#X connect 22 0 35 0;
#X connect 23 0 22 0;
#X connect 24 0 25 0;
#X connect 24 1 23 1;
#X connect 25 0 23 0;
#X connect 26 0 25 1;
#X connect 27 0 36 0;
#X connect 28 0 27 0;
#X connect 29 0 30 0;
#X connect 29 1 28 1;
#X connect 30 0 28 0;
#X connect 31 0 30 1;
#X connect 32 0 12 0;
#X connect 37 0 10 0;
#X connect 37 1 19 0;
#X connect 37 2 24 0;
#X connect 37 3 29 0;
#X restore 316 54 pd external-messages;
#N canvas 0 25 1440 847 state-saving-multiple-instances 0;
#X obj 223 18 loadbang;
#X obj 230 247 f;
#X obj 230 226 t b b b;
#X obj 281 206 outlet;
#X text 277 226 INSTANCE NUMBER;
#X obj 242 92 f \$1;
#X obj 242 128 t f f f;
#X obj 230 202 bng 15 250 50 0 empty empty empty 17 7 0 10 #fcfcfc #000000 #000000;
#X obj 230 179 r SAVE-S;
#X obj 631 291 r patch-path;
#X msg 575 350 read /Users/johannklug/Documents/Bass\ Dieter/2025/Diet/MODULAR_LIVE_\ PERFORMER/patch1/statesave/22-basic-lfo-ss.txt;
#X obj 272 92 s update-path;
#X obj 223 51 t b b b;
#X msg 230 350 write /Users/johannklug/Documents/Bass\ Dieter/2025/Diet/MODULAR_LIVE_\ PERFORMER/patch1/statesave/22-basic-lfo-ss.txt;
#X obj 586 310 pack f s;
#X obj 285 289 r patch-path;
#X obj 240 309 pack f s;
#X obj 230 268 t b f;
#X obj 575 269 f;
#X obj 575 290 t b f;
#X msg 586 329 set read \$2/statesave/\$1-basic-lfo-ss.txt;
#X msg 240 329 set write \$2/statesave/\$1-basic-lfo-ss.txt;
#X obj 229 448 array define \$0-presets 256;
#X obj 225 853 tabwrite \$0-presets;
#X obj 351 796 loadbang;
#X obj 336 760 r gui-scene;
#X obj 336 778 * 16;
#X obj 336 833 +;
#X obj 225 649 tabread \$0-presets;
#X obj 240 595 loadbang;
#X obj 225 533 r gui-scene;
#X obj 225 576 * 16;
#X obj 225 631 +;
#X obj 258 795 t b;
#X obj 225 831 spigot;
#X msg 258 814 0;
#X obj 294 796 del 5;
#X msg 294 815 1;
#X obj 225 553 t f b;
#X obj 255 576 s \$0-wait;
#X obj 258 775 r \$0-wait;
#X obj 225 667 s \$0-param-1-r;
#X obj 225 754 r \$0-param-1-s;
#X msg 351 814 1;
#X msg 240 613 1;
#X obj 445 853 tabwrite \$0-presets;
#X obj 571 796 loadbang;
#X obj 556 760 r gui-scene;
#X obj 556 778 * 16;
#X obj 556 833 +;
#X obj 445 649 tabread \$0-presets;
#X obj 460 595 loadbang;
#X obj 445 533 r gui-scene;
#X obj 445 576 * 16;
#X obj 445 631 +;
#X obj 478 795 t b;
#X obj 445 831 spigot;
#X msg 478 814 0;
#X obj 514 796 del 5;
#X msg 514 815 1;
#X obj 445 553 t f b;
#X obj 475 576 s \$0-wait;
#X obj 478 775 r \$0-wait;
#X obj 445 667 s \$0-param-2-r;
#X obj 445 754 r \$0-param-2-s;
#X msg 460 613 2;
#X msg 571 814 2;
#X obj 665 853 tabwrite \$0-presets;
#X obj 791 796 loadbang;
#X obj 776 760 r gui-scene;
#X obj 776 778 * 16;
#X obj 776 833 +;
#X obj 665 649 tabread \$0-presets;
#X obj 680 595 loadbang;
#X obj 665 533 r gui-scene;
#X obj 665 576 * 16;
#X obj 665 631 +;
#X obj 698 795 t b;
#X obj 665 831 spigot;
#X msg 698 814 0;
#X obj 734 796 del 5;
#X msg 734 815 1;
#X obj 665 553 t f b;
#X obj 695 576 s \$0-wait;
#X obj 698 775 r \$0-wait;
#X obj 885 853 tabwrite \$0-presets;
#X obj 1011 796 loadbang;
#X obj 996 760 r gui-scene;
#X obj 996 778 * 16;
#X obj 996 833 +;
#X obj 885 649 tabread \$0-presets;
#X obj 900 595 loadbang;
#X obj 885 533 r gui-scene;
#X obj 885 576 * 16;
#X obj 885 631 +;
#X obj 918 795 t b;
#X obj 885 831 spigot;
#X msg 918 814 0;
#X obj 954 796 del 5;
#X msg 954 815 1;
#X obj 885 553 t f b;
#X obj 915 576 s \$0-wait;
#X obj 918 775 r \$0-wait;
#X obj 665 667 s \$0-param-3-r;
#X obj 665 754 r \$0-param-3-s;
#X obj 885 667 s \$0-param-4-r;
#X obj 885 754 r \$0-param-4-s;
#X msg 680 613 3;
#X msg 900 613 4;
#X msg 791 814 3;
#X msg 1011 814 4;
#X obj 225 1043 tabwrite \$0-presets;
#X obj 351 986 loadbang;
#X obj 336 968 * 16;
#X obj 336 1023 +;
#X obj 225 914 r \$0-param-1-s;
#X msg 351 1004 1;
#X text 221 889 copy scene;
#X obj 336 912 r copy-scene;
#X obj 336 933 t b f;
#X obj 225 975 f;
#X obj 445 1043 tabwrite \$0-presets;
#X obj 571 986 loadbang;
#X obj 556 968 * 16;
#X obj 556 1023 +;
#X obj 556 912 r copy-scene;
#X obj 556 933 t b f;
#X obj 445 975 f;
#X msg 571 1004 2;
#X obj 445 914 r \$0-param-2-s;
#X obj 665 1043 tabwrite \$0-presets;
#X obj 791 986 loadbang;
#X obj 776 968 * 16;
#X obj 776 1023 +;
#X obj 776 912 r copy-scene;
#X obj 776 933 t b f;
#X obj 665 975 f;
#X obj 885 1043 tabwrite \$0-presets;
#X obj 1011 986 loadbang;
#X obj 996 968 * 16;
#X obj 996 1023 +;
#X obj 996 912 r copy-scene;
#X obj 996 933 t b f;
#X obj 885 975 f;
#X msg 791 1004 3;
#X msg 1011 1004 4;
#X obj 665 914 r \$0-param-3-s;
#X obj 885 914 r \$0-param-4-s;
#X text 221 725 writing param to scene;
#X text 221 510 reading param from array;
#X text 885 39 Array - Saving Rules \; -Slot 1-16 for non-scene values \; -Each Scene has 16 slots -There are 4 Scene-Slots;
#X obj 1105 853 tabwrite \$0-presets;
#X obj 1231 796 loadbang;
#X obj 1216 760 r gui-scene;
#X obj 1216 778 * 16;
#X obj 1216 833 +;
#X obj 1105 649 tabread \$0-presets;
#X obj 1120 595 loadbang;
#X obj 1105 533 r gui-scene;
#X obj 1105 576 * 16;
#X obj 1105 631 +;
#X obj 1138 795 t b;
#X obj 1105 831 spigot;
#X msg 1138 814 0;
#X obj 1174 796 del 5;
#X obj 1105 553 t f b;
#X obj 1135 576 s \$0-wait;
#X obj 1138 775 r \$0-wait;
#X obj 1325 853 tabwrite \$0-presets;
#X obj 1451 796 loadbang;
#X obj 1436 760 r gui-scene;
#X obj 1436 778 * 16;
#X obj 1436 833 +;
#X obj 1325 649 tabread \$0-presets;
#X obj 1340 595 loadbang;
#X obj 1325 533 r gui-scene;
#X obj 1325 576 * 16;
#X obj 1325 631 +;
#X obj 1358 795 t b;
#X obj 1325 831 spigot;
#X msg 1358 814 0;
#X obj 1394 796 del 5;
#X msg 1394 815 1;
#X obj 1325 553 t f b;
#X obj 1355 576 s \$0-wait;
#X obj 1358 775 r \$0-wait;
#X obj 1545 853 tabwrite \$0-presets;
#X obj 1671 796 loadbang;
#X obj 1656 760 r gui-scene;
#X obj 1656 778 * 16;
#X obj 1656 833 +;
#X obj 1545 649 tabread \$0-presets;
#X obj 1560 595 loadbang;
#X obj 1545 533 r gui-scene;
#X obj 1545 576 * 16;
#X obj 1545 631 +;
#X obj 1578 795 t b;
#X obj 1545 831 spigot;
#X msg 1578 814 0;
#X obj 1614 796 del 5;
#X obj 1545 553 t f b;
#X obj 1575 576 s \$0-wait;
#X obj 1578 775 r \$0-wait;
#X obj 1765 853 tabwrite \$0-presets;
#X obj 1891 796 loadbang;
#X obj 1876 760 r gui-scene;
#X obj 1876 778 * 16;
#X obj 1876 833 +;
#X obj 1765 649 tabread \$0-presets;
#X obj 1780 595 loadbang;
#X obj 1765 533 r gui-scene;
#X obj 1765 576 * 16;
#X obj 1765 631 +;
#X obj 1798 795 t b;
#X obj 1765 831 spigot;
#X msg 1798 814 0;
#X obj 1834 796 del 5;
#X msg 1834 815 1;
#X obj 1765 553 t f b;
#X obj 1795 576 s \$0-wait;
#X obj 1798 775 r \$0-wait;
#X obj 1105 1043 tabwrite \$0-presets;
#X obj 1231 986 loadbang;
#X obj 1216 968 * 16;
#X obj 1216 1023 +;
#X text 1101 889 copy scene;
#X obj 1216 912 r copy-scene;
#X obj 1216 933 t b f;
#X obj 1105 975 f;
#X obj 1325 1043 tabwrite \$0-presets;
#X obj 1451 986 loadbang;
#X obj 1436 968 * 16;
#X obj 1436 1023 +;
#X obj 1436 912 r copy-scene;
#X obj 1436 933 t b f;
#X obj 1325 975 f;
#X obj 1545 1043 tabwrite \$0-presets;
#X obj 1671 986 loadbang;
#X obj 1656 968 * 16;
#X obj 1656 1023 +;
#X obj 1656 912 r copy-scene;
#X obj 1656 933 t b f;
#X obj 1545 975 f;
#X obj 1765 1043 tabwrite \$0-presets;
#X obj 1891 986 loadbang;
#X obj 1876 968 * 16;
#X obj 1876 1023 +;
#X obj 1876 912 r copy-scene;
#X obj 1876 933 t b f;
#X obj 1765 975 f;
#X text 1101 725 writing param to scene;
#X msg 1120 613 5;
#X msg 1340 613 6;
#X msg 1560 613 7;
#X msg 1780 613 8;
#X obj 1105 667 s \$0-param-5-r;
#X obj 1325 667 s \$0-param-6-r;
#X obj 1545 667 s \$0-param-7-r;
#X obj 1765 667 s \$0-param-8-r;
#X msg 1451 814 6;
#X msg 1174 815 1;
#X msg 1231 814 5;
#X msg 1614 815 1;
#X msg 1671 814 7;
#X msg 1891 814 8;
#X obj 1105 754 r \$0-param-5-s;
#X obj 1325 754 r \$0-param-6-s;
#X obj 1545 754 r \$0-param-7-s;
#X obj 1765 754 r \$0-param-8-s;
#X obj 1105 914 r \$0-param-5-s;
#X msg 1231 1004 5;
#X obj 1325 914 r \$0-param-6-s;
#X msg 1451 1004 6;
#X obj 1545 914 r \$0-param-7-s;
#X msg 1671 1004 7;
#X obj 1765 914 r \$0-param-8-s;
#X msg 1891 1004 8;
#X connect 0 0 12 0;
#X connect 1 0 17 0;
#X connect 2 0 1 0;
#X connect 5 0 6 0;
#X connect 6 0 1 1;
#X connect 6 1 18 0;
#X connect 6 2 3 0;
#X connect 7 0 2 0;
#X connect 8 0 7 0;
#X connect 9 0 14 1;
#X connect 10 0 22 0;
#X connect 12 1 5 0;
#X connect 12 2 11 0;
#X connect 13 0 22 0;
#X connect 14 0 20 0;
#X connect 15 0 16 1;
#X connect 16 0 21 0;
#X connect 17 0 13 0;
#X connect 17 1 16 0;
#X connect 18 0 19 0;
#X connect 19 0 10 0;
#X connect 19 1 14 0;
#X connect 20 0 10 0;
#X connect 21 0 13 0;
#X connect 24 0 43 0;
#X connect 25 0 26 0;
#X connect 26 0 27 0;
#X connect 27 0 23 1;
#X connect 28 0 41 0;
#X connect 29 0 44 0;
#X connect 30 0 38 0;
#X connect 31 0 32 0;
#X connect 32 0 28 0;
#X connect 33 0 35 0;
#X connect 33 0 36 0;
#X connect 34 0 23 0;
#X connect 35 0 34 1;
#X connect 36 0 37 0;
#X connect 37 0 34 1;
#X connect 38 0 31 0;
#X connect 38 1 39 0;
#X connect 40 0 33 0;
#X connect 42 0 34 0;
#X connect 43 0 27 1;
#X connect 44 0 32 1;
#X connect 46 0 66 0;
#X connect 47 0 48 0;
#X connect 48 0 49 0;
#X connect 49 0 45 1;
#X connect 50 0 63 0;
#X connect 51 0 65 0;
#X connect 52 0 60 0;
#X connect 53 0 54 0;
#X connect 54 0 50 0;
#X connect 55 0 57 0;
#X connect 55 0 58 0;
#X connect 56 0 45 0;
#X connect 57 0 56 1;
#X connect 58 0 59 0;
#X connect 59 0 56 1;
#X connect 60 0 53 0;
#X connect 60 1 61 0;
#X connect 62 0 55 0;
#X connect 64 0 56 0;
#X connect 65 0 54 1;
#X connect 66 0 49 1;
#X connect 68 0 109 0;
#X connect 69 0 70 0;
#X connect 70 0 71 0;
#X connect 71 0 67 1;
#X connect 72 0 103 0;
#X connect 73 0 107 0;
#X connect 74 0 82 0;
#X connect 75 0 76 0;
#X connect 76 0 72 0;
#X connect 77 0 79 0;
#X connect 77 0 80 0;
#X connect 78 0 67 0;
#X connect 79 0 78 1;
#X connect 80 0 81 0;
#X connect 81 0 78 1;
#X connect 82 0 75 0;
#X connect 82 1 83 0;
#X connect 84 0 77 0;
#X connect 86 0 110 0;
#X connect 87 0 88 0;
#X connect 88 0 89 0;
#X connect 89 0 85 1;
#X connect 90 0 105 0;
#X connect 91 0 108 0;
#X connect 92 0 100 0;
#X connect 93 0 94 0;
#X connect 94 0 90 0;
#X connect 95 0 97 0;
#X connect 95 0 98 0;
#X connect 96 0 85 0;
#X connect 97 0 96 1;
#X connect 98 0 99 0;
#X connect 99 0 96 1;
#X connect 100 0 93 0;
#X connect 100 1 101 0;
#X connect 102 0 95 0;
#X connect 104 0 78 0;
#X connect 106 0 96 0;
#X connect 107 0 76 1;
#X connect 108 0 94 1;
#X connect 109 0 71 1;
#X connect 110 0 89 1;
#X connect 112 0 116 0;
#X connect 113 0 114 0;
#X connect 114 0 111 1;
#X connect 115 0 120 1;
#X connect 116 0 114 1;
#X connect 118 0 119 0;
#X connect 119 0 120 0;
#X connect 119 1 113 0;
#X connect 120 0 111 0;
#X connect 122 0 128 0;
#X connect 123 0 124 0;
#X connect 124 0 121 1;
#X connect 125 0 126 0;
#X connect 126 0 127 0;
#X connect 126 1 123 0;
#X connect 127 0 121 0;
#X connect 128 0 124 1;
#X connect 129 0 127 1;
#X connect 131 0 144 0;
#X connect 132 0 133 0;
#X connect 133 0 130 1;
#X connect 134 0 135 0;
#X connect 135 0 136 0;
#X connect 135 1 132 0;
#X connect 136 0 130 0;
#X connect 138 0 145 0;
#X connect 139 0 140 0;
#X connect 140 0 137 1;
#X connect 141 0 142 0;
#X connect 142 0 143 0;
#X connect 142 1 139 0;
#X connect 143 0 137 0;
#X connect 144 0 133 1;
#X connect 145 0 140 1;
#X connect 146 0 136 1;
#X connect 147 0 143 1;
#X connect 152 0 261 0;
#X connect 153 0 154 0;
#X connect 154 0 155 0;
#X connect 155 0 151 1;
#X connect 156 0 255 0;
#X connect 157 0 251 0;
#X connect 158 0 165 0;
#X connect 159 0 160 0;
#X connect 160 0 156 0;
#X connect 161 0 163 0;
#X connect 161 0 164 0;
#X connect 162 0 151 0;
#X connect 163 0 162 1;
#X connect 164 0 260 0;
#X connect 165 0 159 0;
#X connect 165 1 166 0;
#X connect 167 0 161 0;
#X connect 169 0 259 0;
#X connect 170 0 171 0;
#X connect 171 0 172 0;
#X connect 172 0 168 1;
#X connect 173 0 256 0;
#X connect 174 0 252 0;
#X connect 175 0 183 0;
#X connect 176 0 177 0;
#X connect 177 0 173 0;
#X connect 178 0 180 0;
#X connect 178 0 181 0;
#X connect 179 0 168 0;
#X connect 180 0 179 1;
#X connect 181 0 182 0;
#X connect 182 0 179 1;
#X connect 183 0 176 0;
#X connect 183 1 184 0;
#X connect 185 0 178 0;
#X connect 187 0 263 0;
#X connect 188 0 189 0;
#X connect 189 0 190 0;
#X connect 190 0 186 1;
#X connect 191 0 257 0;
#X connect 192 0 253 0;
#X connect 193 0 200 0;
#X connect 194 0 195 0;
#X connect 195 0 191 0;
#X connect 196 0 198 0;
#X connect 196 0 199 0;
#X connect 197 0 186 0;
#X connect 198 0 197 1;
#X connect 199 0 262 0;
#X connect 200 0 194 0;
#X connect 200 1 201 0;
#X connect 202 0 196 0;
#X connect 204 0 264 0;
#X connect 205 0 206 0;
#X connect 206 0 207 0;
#X connect 207 0 203 1;
#X connect 208 0 258 0;
#X connect 209 0 254 0;
#X connect 210 0 218 0;
#X connect 211 0 212 0;
#X connect 212 0 208 0;
#X connect 213 0 215 0;
#X connect 213 0 216 0;
#X connect 214 0 203 0;
#X connect 215 0 214 1;
#X connect 216 0 217 0;
#X connect 217 0 214 1;
#X connect 218 0 211 0;
#X connect 218 1 219 0;
#X connect 220 0 213 0;
#X connect 222 0 270 0;
#X connect 223 0 224 0;
#X connect 224 0 221 1;
#X connect 226 0 227 0;
#X connect 227 0 228 0;
#X connect 227 1 223 0;
#X connect 228 0 221 0;
#X connect 230 0 272 0;
#X connect 231 0 232 0;
#X connect 232 0 229 1;
#X connect 233 0 234 0;
#X connect 234 0 235 0;
#X connect 234 1 231 0;
#X connect 235 0 229 0;
#X connect 237 0 274 0;
#X connect 238 0 239 0;
#X connect 239 0 236 1;
#X connect 240 0 241 0;
#X connect 241 0 242 0;
#X connect 241 1 238 0;
#X connect 242 0 236 0;
#X connect 244 0 276 0;
#X connect 245 0 246 0;
#X connect 246 0 243 1;
#X connect 247 0 248 0;
#X connect 248 0 249 0;
#X connect 248 1 245 0;
#X connect 249 0 243 0;
#X connect 251 0 160 1;
#X connect 252 0 177 1;
#X connect 253 0 195 1;
#X connect 254 0 212 1;
#X connect 259 0 172 1;
#X connect 260 0 162 1;
#X connect 261 0 155 1;
#X connect 262 0 197 1;
#X connect 263 0 190 1;
#X connect 264 0 207 1;
#X connect 265 0 162 0;
#X connect 266 0 179 0;
#X connect 267 0 197 0;
#X connect 268 0 214 0;
#X connect 269 0 228 1;
#X connect 270 0 224 1;
#X connect 271 0 235 1;
#X connect 272 0 232 1;
#X connect 273 0 242 1;
#X connect 274 0 239 1;
#X connect 275 0 249 1;
#X connect 276 0 246 1;
#X restore 617 131 pd state-saving-multiple-instances;
#X obj 617 188 s \$0-instance-num;
#X obj 617 150 makefilename %d;
#X msg 617 169 label \$1;
#X obj 77 270 r \$0-param-1-s;
#X obj 478 448 r \$0-param-3-s;
#X connect 0 0 3 0;
#X connect 1 0 7 0;
#X connect 3 0 1 0;
#X connect 4 0 3 1;
#X connect 7 0 16 0;
#X connect 7 0 12 0;
#X connect 7 0 14 0;
#X connect 7 0 15 0;
#X connect 9 0 0 0;
#X connect 12 0 25 0;
#X connect 12 1 59 0;
#X connect 14 0 25 0;
#X connect 14 1 59 0;
#X connect 15 0 25 0;
#X connect 15 1 59 0;
#X connect 16 0 26 0;
#X connect 16 0 43 0;
#X connect 19 0 20 0;
#X connect 20 0 18 0;
#X connect 24 0 9 0;
#X connect 24 1 55 0;
#X connect 25 0 46 0;
#X connect 26 0 48 0;
#X connect 27 0 28 0;
#X connect 28 0 29 0;
#X connect 29 0 26 1;
#X connect 29 0 25 1;
#X connect 29 0 33 1;
#X connect 29 0 59 1;
#X connect 33 0 49 0;
#X connect 34 0 35 0;
#X connect 35 0 33 0;
#X connect 36 0 4 0;
#X connect 37 0 38 0;
#X connect 38 0 40 0;
#X connect 40 0 39 0;
#X connect 41 0 42 0;
#X connect 42 0 24 0;
#X connect 43 0 44 0;
#X connect 43 0 53 0;
#X connect 44 0 35 0;
#X connect 45 0 40 0;
#X connect 50 0 51 0;
#X connect 53 0 50 0;
#X connect 55 0 2 0;
#X connect 59 0 47 0;
#X connect 61 0 63 0;
#X connect 63 0 64 0;
#X connect 64 0 62 0;
#X connect 65 0 41 0;
#X connect 66 0 27 0;
#X coords 0 -1 1 1 190 105 1 100 100;
