#N canvas 0 25 1440 789 12;
#X obj 81 25 inlet;
#X obj 293 26 inlet;
#X obj 230 338 f;
#X obj 175 340 +;
#X msg 234 259 -1;
#X msg 273 258 1;
#X msg 204 259 -2;
#X msg 303 258 2;
#X msg 333 258 3;
#X msg 174 259 -3;
#X msg 144 259 -4;
#X msg 363 258 4;
#X obj 175 394 max 0;
#X obj 175 373 min 127;
#X msg 397 258 5;
#X msg 106 258 -5;
#X obj 156 144 sel 122 123 124 125 126 127 1 2 3 4 5 6;
#X msg 70 258 -6;
#X msg 431 258 6;
#X obj 175 495 outlet;
#X connect 0 0 16 0;
#X connect 1 0 2 0;
#X connect 2 0 3 1;
#X connect 3 0 13 0;
#X connect 4 0 3 0;
#X connect 5 0 3 0;
#X connect 6 0 3 0;
#X connect 7 0 3 0;
#X connect 8 0 3 0;
#X connect 9 0 3 0;
#X connect 10 0 3 0;
#X connect 11 0 3 0;
#X connect 12 0 2 0;
#X connect 12 0 19 0;
#X connect 13 0 12 0;
#X connect 14 0 3 0;
#X connect 15 0 3 0;
#X connect 16 0 17 0;
#X connect 16 1 15 0;
#X connect 16 2 10 0;
#X connect 16 3 9 0;
#X connect 16 4 6 0;
#X connect 16 5 4 0;
#X connect 16 6 5 0;
#X connect 16 7 7 0;
#X connect 16 8 8 0;
#X connect 16 9 11 0;
#X connect 16 10 14 0;
#X connect 16 11 18 0;
#X connect 17 0 3 0;
#X connect 18 0 3 0;
