#N canvas 100 100 800 500 10;
#X obj 50 100 *~;
#X obj 50 150 lop~ 18000;
#X obj 50 200 *~;
#X obj 121 126 hsl 128 15 0 1 0 0 empty empty Gain -2 -6 0 10 #fcfcfc #000000 #000000 0 1;
#X obj 300 80 t f f;
#X obj 300 110 * 1.272;
#X obj 300 140 pack f 50;
#X msg 300 170 \$1 \$2;
#X obj 300 200 line~;
#X obj 377 134 expr 1 / $f1;
#X obj 377 164 pack f 50;
#X msg 377 194 \$1 \$2;
#X obj 377 224 line~;
#X obj 50 26 inlet~;
#X obj 49 331 outlet~;
#X connect 0 0 1 0;
#X connect 1 0 2 0;
#X connect 2 0 14 0;
#X connect 3 0 4 0;
#X connect 4 0 5 0;
#X connect 4 1 9 0;
#X connect 5 0 6 0;
#X connect 6 0 7 0;
#X connect 7 0 8 0;
#X connect 8 0 0 1;
#X connect 9 0 10 0;
#X connect 10 0 11 0;
#X connect 11 0 12 0;
#X connect 12 0 2 1;
#X connect 13 0 0 0;
#X coords 0 -1 1 1 180 60 1 100 100;
