#N canvas 217 99 800 500 10;
#X obj 50 343 *~ 0.8;
#X obj 150 293 expr~ sin($v1);
#X obj 88 403 +~;
#X obj 48 25 inlet~;
#X obj 49 454 outlet~;
#X obj 150 343 *~ 0.2;
#X obj 45 224 expr~ sin($v1 * abs($v1)) / (abs($v1) + 0.0001);
#X obj 245 439 clip~ -1 1;
#X obj 49 103 lop~ 18000;
#X connect 0 0 2 0;
#X connect 1 0 5 0;
#X connect 2 0 7 0;
#X connect 3 0 8 0;
#X connect 5 0 2 1;
#X connect 6 0 0 0;
#X connect 7 0 4 0;
#X connect 8 0 6 0;
#X connect 8 0 1 0;
