#N canvas 619 83 450 300 10;
#X obj 58 49 inlet~;
#X obj 38 254 outlet~;
#X obj 38 160 -~;
#X obj 57 134 *~ \$2;
#X obj 176 220 *~ \$2;
#X obj 175 254 delwrite~ \$0-del 200;
#X obj 208 16 inlet;
#X obj 208 47 * \$1;
#X obj 37 16 vd~ \$0-del \$1;
#X obj 207 98 lop~ 3;
#X obj 208 70 sig~ \$1;
#X connect 0 0 3 0;
#X connect 0 0 5 0;
#X connect 2 0 1 0;
#X connect 2 0 4 0;
#X connect 3 0 2 1;
#X connect 4 0 5 0;
#X connect 6 0 7 0;
#X connect 7 0 10 0;
#X connect 8 0 2 0;
#X connect 9 0 8 0;
#X connect 10 0 9 0;
