#N canvas 0 50 450 300 10;
#X obj 50 57 inlet~;
#X obj 44 210 outlet~;
#X obj 254 59 inlet;
#X obj 254 86 * \$1;
#X obj 254 113 sig~ \$1;
#X obj 254 139 lop~ 3;
#X obj 43 179 vd~ \$0-del;
#X obj 49 105 delwrite~ \$0-del 200;
#X connect 0 0 7 0;
#X connect 2 0 3 0;
#X connect 3 0 4 0;
#X connect 4 0 5 0;
#X connect 5 0 6 0;
#X connect 6 0 1 0;
