#N canvas 129 78 660 668 10;
#X obj 30 170 *~;
#X obj 120 172 *~;
#X obj 100 471 *~;
#X obj 29 17 inlet~;
#X obj 119 255 r \$0-damping;
#X obj 175 293 r \$0-roomsize;
#X obj 119 395 r \$0-mix;
#X obj 119 448 line~;
#X msg 119 424 \$1 10;
#X obj 30 520 outlet~;
#X obj 119 333 + 0.05;
#X obj 119 282 pow 3;
#X obj 30 256 +~;
#X obj 175 319 pow 2;
#X obj 29 105 lop~ 500;
#X obj 119 107 hip~ 500;
#N canvas 519 50 450 480 lfo 0;
#X obj 39 70 + 0.1;
#X obj 39 40 * 9.9;
#X obj 40 151 phasor~;
#X obj 40 235 cos~;
#X obj 135 209 wrap~;
#X obj 136 234 cos~;
#X obj 42 300 *~;
#X obj 137 258 +~ 1;
#X obj 24 356 -~;
#X obj 137 300 *~;
#X obj 119 356 -~;
#X obj 41 260 +~ 1;
#X obj 24 413 +~ 0.1;
#X obj 120 414 +~ 0.1;
#X obj 118 323 sig~ 1.5;
#X obj 23 323 sig~ 1.5;
#X obj 39 127 line~;
#X msg 39 102 \$1 10;
#N canvas 261 235 450 300 hypertan 0;
#X obj 109 39 inlet~;
#X obj 108 233 /~;
#X obj 142 105 abs~;
#X obj 144 162 +~ 1;
#X obj 109 260 outlet~;
#X obj 144 202 pow~ 0.4;
#X obj 230 56 loadbang;
#X msg 230 162 0.4;
#X obj 143 135 pow~ 2.5;
#X msg 196 105 2.5;
#X connect 0 0 2 0;
#X connect 0 0 1 0;
#X connect 1 0 4 0;
#X connect 2 0 8 0;
#X connect 3 0 5 0;
#X connect 5 0 1 1;
#X connect 6 0 7 0;
#X connect 6 0 9 0;
#X connect 7 0 5 1;
#X connect 8 0 3 0;
#X connect 9 0 8 1;
#X restore 23 382 pd hypertan;
#N canvas 261 235 450 300 hypertan 0;
#X obj 109 39 inlet~;
#X obj 108 233 /~;
#X obj 142 105 abs~;
#X obj 144 162 +~ 1;
#X obj 109 260 outlet~;
#X obj 144 202 pow~ 0.4;
#X obj 230 56 loadbang;
#X msg 230 162 0.4;
#X obj 143 135 pow~ 2.5;
#X msg 196 105 2.5;
#X connect 0 0 2 0;
#X connect 0 0 1 0;
#X connect 1 0 4 0;
#X connect 2 0 8 0;
#X connect 3 0 5 0;
#X connect 5 0 1 1;
#X connect 6 0 7 0;
#X connect 6 0 9 0;
#X connect 7 0 5 1;
#X connect 8 0 3 0;
#X connect 9 0 8 1;
#X restore 119 385 pd hypertan;
#X obj 39 17 r \$0-rate;
#X obj 135 184 +~ 0.5;
#X obj 217 149 r \$0-depth;
#X obj 217 209 * 0.8;
#X obj 217 258 line~;
#X msg 217 233 \$1 10;
#X obj 23 443 outlet~;
#X obj 119 445 outlet~;
#X obj 217 179 sqrt;
#X connect 0 0 17 0;
#X connect 1 0 0 0;
#X connect 2 0 3 0;
#X connect 2 0 21 0;
#X connect 3 0 11 0;
#X connect 4 0 5 0;
#X connect 5 0 7 0;
#X connect 6 0 8 1;
#X connect 7 0 9 0;
#X connect 8 0 18 0;
#X connect 9 0 10 1;
#X connect 10 0 19 0;
#X connect 11 0 6 0;
#X connect 12 0 26 0;
#X connect 13 0 27 0;
#X connect 14 0 10 0;
#X connect 15 0 8 0;
#X connect 16 0 2 0;
#X connect 17 0 16 0;
#X connect 18 0 12 0;
#X connect 19 0 13 0;
#X connect 20 0 1 0;
#X connect 21 0 4 0;
#X connect 22 0 28 0;
#X connect 23 0 25 0;
#X connect 24 0 6 1;
#X connect 24 0 9 1;
#X connect 25 0 24 0;
#X connect 28 0 23 0;
#X restore 47 138 pd lfo;
#X obj 305 15 cnv 15 160 140 empty empty tremolo 20 12 0 14 #e0e0e0 #404040 0;
#X obj 320 53 hsl 128 15 0 1 0 0 \$0-rate \$0-rate rate -2 -8 0 10 #fcfcfc #000000 #000000 0 1;
#X obj 320 87 hsl 128 15 0 1 0 0 \$0-depth \$0-depth depth -2 -8 0 10 #fcfcfc #000000 #000000 0 1;
#X obj 471 15 cnv 15 160 140 empty empty reverb 20 12 0 14 #e0e0e0 #404040 0;
#X obj 485 53 hsl 128 15 0 1 0 0 \$0-damping \$0-damping damping -2 -8 0 10 #fcfcfc #000000 #000000 0 1;
#X obj 485 87 hsl 128 15 0 1 0 0 \$0-roomsize \$0-roomsize roomsize -2 -8 0 10 #fcfcfc #000000 #000000 0 1;
#X obj 485 121 hsl 128 15 0 1 0 0 \$0-mix \$0-mix mix -2 -8 0 10 #fcfcfc #000000 #000000 0 1;
#N canvas 0 50 864 684 reverb 0;
#N canvas 338 145 450 399 simple_nested 0;
#X obj 58 173 inlet~;
#X obj 38 347 outlet~;
#X obj 38 255 -~;
#X obj 57 215 *~ 0.5;
#X obj 176 313 *~ 0.5;
#X obj 111 15 r \$0-decay;
#X obj 39 57 * 25;
#X obj 37 140 apf 62 0.25;
#X obj 39 86 lop~ 3;
#X obj 38 111 vd~ \$0-del1;
#X obj 175 347 delwrite~ \$0-del1 200;
#X connect 0 0 3 0;
#X connect 0 0 10 0;
#X connect 2 0 1 0;
#X connect 2 0 4 0;
#X connect 3 0 2 1;
#X connect 4 0 10 0;
#X connect 5 0 6 0;
#X connect 5 0 7 1;
#X connect 6 0 8 0;
#X connect 7 0 2 0;
#X connect 8 0 9 0;
#X connect 9 0 7 0;
#X restore 89 243 pd simple_nested;
#N canvas 825 287 450 425 double_nested 0;
#X obj 56 207 inlet~;
#X obj 38 359 outlet~;
#X obj 38 281 -~;
#X obj 57 241 *~ 0.5;
#X obj 176 325 *~ 0.5;
#X obj 37 20 r \$0-decay;
#X obj 37 51 * 14;
#X obj 37 150 apf 76 0.25;
#X obj 37 179 apf 30 0.25;
#X obj 37 85 lop~ 3;
#X obj 175 359 delwrite~ \$0-del2 200;
#X obj 37 112 vd~ \$0-del2;
#X connect 0 0 3 0;
#X connect 0 0 10 0;
#X connect 2 0 1 0;
#X connect 2 0 4 0;
#X connect 3 0 2 1;
#X connect 4 0 10 0;
#X connect 5 0 6 0;
#X connect 5 0 7 1;
#X connect 5 0 8 1;
#X connect 6 0 9 0;
#X connect 7 0 8 0;
#X connect 8 0 2 0;
#X connect 9 0 11 0;
#X connect 11 0 7 0;
#X restore 90 367 pd double_nested;
#X obj 21 458 +~;
#X obj 45 105 r~ \$0-fb;
#X obj 220 528 s~ \$0-fb;
#X obj 21 6 inlet~;
#X obj 20 554 outlet~;
#X obj 220 440 lop~ 1000;
#X obj 20 77 lop~ 4000;
#X obj 20 135 apf 8 0.3;
#X obj 20 301 *~ 1.5;
#X obj 88 300 *~ 0.8;
#X obj 89 420 *~ 0.8;
#X obj 280 13 inlet;
#X obj 336 13 inlet;
#X obj 212 36 * 4000;
#X obj 307 409 * 1000;
#X obj 336 75 s \$0-decay;
#X obj 165 90 r \$0-decay;
#X obj 221 409 *~ 0.5;
#X obj 20 164 apf 12 0.3;
#X obj 19 215 delsig 4;
#X obj 88 273 delsig 31;
#X obj 89 215 delsig 17;
#X obj 89 337 delsig 3;
#X obj 220 501 *~ 2;
#X obj 220 471 hip~ 300;
#X obj 21 42 hip~ 300;
#X obj 21 521 hip~ 300;
#X connect 0 0 22 0;
#X connect 1 0 12 0;
#X connect 1 0 19 0;
#X connect 2 0 28 0;
#X connect 3 0 9 0;
#X connect 5 0 27 0;
#X connect 7 0 26 0;
#X connect 8 0 9 0;
#X connect 9 0 20 0;
#X connect 10 0 2 0;
#X connect 11 0 24 0;
#X connect 11 0 2 1;
#X connect 12 0 2 1;
#X connect 13 0 15 0;
#X connect 13 0 16 0;
#X connect 14 0 17 0;
#X connect 15 0 8 1;
#X connect 16 0 7 1;
#X connect 18 0 9 1;
#X connect 18 0 20 1;
#X connect 19 0 7 0;
#X connect 20 0 21 0;
#X connect 20 0 23 0;
#X connect 21 0 10 0;
#X connect 22 0 11 0;
#X connect 23 0 0 0;
#X connect 24 0 1 0;
#X connect 25 0 4 0;
#X connect 26 0 25 0;
#X connect 27 0 8 0;
#X connect 28 0 6 0;
#X restore 100 368 pd reverb;
#X obj 119 310 * 1.75;
#X obj 175 342 * 4;
#X connect 0 0 12 0;
#X connect 1 0 12 1;
#X connect 2 0 9 0;
#X connect 3 0 14 0;
#X connect 3 0 15 0;
#X connect 4 0 11 0;
#X connect 5 0 13 0;
#X connect 6 0 8 0;
#X connect 7 0 2 1;
#X connect 8 0 7 0;
#X connect 10 0 24 1;
#X connect 11 0 25 0;
#X connect 12 0 9 0;
#X connect 12 0 24 0;
#X connect 13 0 26 0;
#X connect 14 0 0 0;
#X connect 15 0 1 0;
#X connect 16 0 0 1;
#X connect 16 1 1 1;
#X connect 24 0 2 0;
#X connect 25 0 10 0;
#X connect 26 0 24 2;
#X coords 0 -1 1 1 336 150 1 300 10;
