#N canvas 614 72 836 390 10;
#N canvas 0 50 508 430 test 0;
#X floatatom 48 19 5 0 0 0 freq - -, f 5;
#X obj 48 217 osc~;
#X obj 132 221 osc~;
#X obj 221 217 osc~;
#X obj 88 220 osc~;
#X obj 177 220 osc~;
#X obj 88 141 + 7;
#X obj 132 143 + 12;
#X obj 177 141 + 15;
#X obj 221 142 + 22;
#X obj 88 173 mtof;
#X obj 132 182 mtof;
#X obj 177 175 mtof;
#X obj 221 184 mtof;
#X obj 47 375 outlet~;
#X obj 330 14 loadbang;
#X msg 330 36 120;
#X obj 88 112 ftom;
#X obj 132 112 ftom;
#X obj 178 111 ftom;
#X obj 221 111 ftom;
#X obj 118 20 tgl 15 0 empty empty test 17 7 0 10 -262144 -1 -1 0 1
;
#X obj 48 333 *~ 0;
#X obj 117 51 * 0.2;
#X connect 0 0 1 0;
#X connect 0 0 17 0;
#X connect 0 0 18 0;
#X connect 0 0 19 0;
#X connect 0 0 20 0;
#X connect 1 0 22 0;
#X connect 2 0 22 0;
#X connect 3 0 22 0;
#X connect 4 0 22 0;
#X connect 5 0 22 0;
#X connect 6 0 10 0;
#X connect 7 0 11 0;
#X connect 8 0 12 0;
#X connect 9 0 13 0;
#X connect 10 0 4 0;
#X connect 11 0 2 0;
#X connect 12 0 5 0;
#X connect 13 0 3 0;
#X connect 15 0 16 0;
#X connect 16 0 0 0;
#X connect 17 0 6 0;
#X connect 18 0 7 0;
#X connect 19 0 8 0;
#X connect 20 0 9 0;
#X connect 21 0 23 0;
#X connect 22 0 14 0;
#X connect 23 0 22 1;
#X coords 0 -1 1 1 160 30 2 10 10;
#X restore 18 13 pd test;
#X obj 16 346 dac~;
#X obj 38 287 hsl 128 15 0 1 0 0 empty empty empty -2 -8 0 10 -262144
-1 -1 6350 1;
#X obj 17 316 *~;
#X obj 36 244 loadbang;
#X msg 35 264 0.5;
#N canvas 792 583 450 300 midi 0;
#X text 31 39 setting are mapped as follow :;
#X text 28 232 these values can be set in [pd init_and_midi];
#X text 29 85 CH1 CC1 rate;
#X text 29 105 CH1 CC2 depth;
#X text 29 125 CH1 CC3 damping;
#X text 29 145 CH1 CC4 roomsize;
#X text 29 165 CH1 CC5 mix;
#X restore 218 246 pd midi controls;
#X obj 18 64 la_choucroute;
#X text 365 194 contact : jnoe@hotmail.fr;
#X text 419 41 ==tremolo/reverb effect==;
#X text 365 112 reverb derived from the one developed by Bill Gardner
;
#X text 365 153 mono input and output;
#X text 365 71 "harmonic tremolo" found in certain early 1960s amps
;
#X connect 0 0 7 0;
#X connect 2 0 3 1;
#X connect 3 0 1 0;
#X connect 3 0 1 1;
#X connect 4 0 5 0;
#X connect 5 0 2 0;
#X connect 7 0 3 0;
