#N canvas 44 122 856 658 12;
#X floatatom 87 495 5 0 0 0 - - - 0;
#X msg 194 362 set pattern\$1;
#X obj 129 192 * 100;
#X obj 129 218 + 400;
#X obj 129 168 + 1;
#X obj 129 282 +;
#X obj 129 242 t b f;
#X floatatom 394 251 5 0 0 0 - - - 0;
#X obj 161 158 s wait-after-load;
#X obj 133 69 s wait-after-load;
#X obj 433 273 r wait-after-load;
#X obj 433 297 t b;
#X obj 394 374 spigot;
#X msg 433 321 0;
#X obj 87 43 t b f b;
#X obj 129 128 t f b;
#X obj 469 320 del 5;
#X msg 469 344 1;
#X obj 394 453 tabwrite;
#X floatatom 488 431 5 0 0 0 - - - 0;
#X obj 193 221 r set-pattern-pos;
#X obj 193 291 * 16;
#X floatatom 193 315 5 0 0 0 - - - 0;
#X obj 232 286 s wait-after-load;
#X obj 124 365 +;
#X obj 193 243 t b f b;
#X floatatom 301 484 5 0 0 0 - - - 0;
#X obj 87 520 s r-step-edit\$1;
#X obj 394 224 r step-edit\$1;
#X obj 86 174 \$1;
#X obj 87 -32 r load-pattern;
#X obj 87 462 tabread;
#X obj 88 11 f;
#X obj 38 17 bng 19 250 50 0 empty empty empty 0 -10 0 12 #fcfcfc #000000 #000000;
#X obj 129 104 r diet-drum-seq-set-instrument-s;
#X obj 34 -64 r diet-drum-seq-update-gui;
#X floatatom 49 75 5 0 0 0 - - - 0;
#X connect 0 0 27 0;
#X connect 1 0 18 0;
#X connect 1 0 31 0;
#X connect 2 0 3 0;
#X connect 3 0 6 0;
#X connect 4 0 2 0;
#X connect 5 0 24 0;
#X connect 6 0 5 0;
#X connect 6 1 5 1;
#X connect 7 0 12 0;
#X connect 10 0 11 0;
#X connect 11 0 13 0;
#X connect 11 0 16 0;
#X connect 12 0 18 0;
#X connect 12 0 19 0;
#X connect 13 0 12 1;
#X connect 14 0 29 0;
#X connect 14 1 1 0;
#X connect 14 2 9 0;
#X connect 15 0 4 0;
#X connect 15 1 8 0;
#X connect 16 0 17 0;
#X connect 17 0 12 1;
#X connect 20 0 25 0;
#X connect 21 0 22 0;
#X connect 22 0 24 1;
#X connect 24 0 18 1;
#X connect 24 0 26 0;
#X connect 24 0 31 0;
#X connect 25 0 24 0;
#X connect 25 1 21 0;
#X connect 25 2 23 0;
#X connect 28 0 7 0;
#X connect 29 0 5 0;
#X connect 30 0 32 0;
#X connect 31 0 0 0;
#X connect 32 0 14 0;
#X connect 32 0 36 0;
#X connect 34 0 15 0;
#X connect 35 0 32 0;
#X connect 35 0 33 0;
