#N canvas 15 25 1076 789 10;
#X obj 28 26 inlet~;
#X obj 28 979 outlet~;
#X obj 43 222 env~ 256;
#X obj 28 899 *~;
#X obj 43 839 pack f 40;
#X obj 43 869 line~;
#X obj 53 286 r \$0-graph-input;
#X obj 88 244 r \$0-switch;
#X obj 43 264 spigot 1;
#X text 112 839 40 ms attack/release;
#X obj 43 814 min 1;
#X text 412 932 RjDj 2012;
#X obj 143 619 t b f;
#X obj 88 679 f;
#X obj 88 709 /;
#X obj 88 649 -;
#X obj 43 573 f;
#X obj 103 502 t b f f;
#X obj 88 739 +;
#X obj 187 401 r \$0-load;
#X obj 103 408 \$1;
#X obj 276 407 \$2;
#X obj 103 430 t f f;
#X msg 159 563 threshold \$1;
#X obj 159 585 s \$0-to-gui;
#X obj 103 316 loadbang;
#X obj 103 338 t b b;
#X obj 276 429 t f f;
#X msg 288 561 ratio \$1;
#X obj 288 583 s \$0-to-gui;
#X obj 159 540 f;
#X obj 187 423 t b b;
#X obj 288 541 f;
#X obj 276 377 r \$0-ratio;
#X obj 111 377 r \$0-threshold;
#X obj 43 316 t f f;
#X text 120 709 Gain reduction;
#X obj 43 619 moses 70;
#X obj 103 619 t f f;
#N canvas 639 436 354 265 gainreduc 0;
#X obj 32 94 -;
#X obj 32 114 / 20;
#X obj 32 134 t b f;
#X msg 32 154 10;
#X obj 32 174 pow;
#X obj 32 34 inlet output;
#X obj 47 64 inlet input;
#X obj 32 206 outlet gain-reduction;
#X text 70 172 gr = 20*log10(output - input);
#X obj 141 64 r \$0-switch;
#X obj 141 86 sel 0;
#X msg 141 108 1;
#X text 174 109 If switched off \, no gr;
#X connect 0 0 1 0;
#X connect 1 0 2 0;
#X connect 2 0 3 0;
#X connect 2 1 4 1;
#X connect 3 0 4 0;
#X connect 4 0 7 0;
#X connect 5 0 0 0;
#X connect 6 0 0 1;
#X connect 9 0 10 0;
#X connect 10 0 11 0;
#X connect 11 0 7 0;
#X restore 43 789 pd gainreduc;
#X obj 128 136 hsl 128 15 0 127 0 1 \$0-sample-player-file-s \$0-sample-player-file-r THRESH 133 7 0 10 #fcfcfc #000000 #000000 8700 1;
#X obj 128 172 hsl 128 15 0 127 0 1 empty empty RATIO 133 7 0 10 #fcfcfc #000000 #000000 6400 1;
#X obj 50 164 / 127;
#X obj 274 219 / 127;
#X msg 318 342;
#X floatatom 226 157 5 0 0 0 - - - 0;
#X floatatom 226 121 5 0 0 0 - - - 0;
#X obj 50 185 * 100;
#X obj 274 261 + 1;
#X obj 274 240 * 3;
#X obj 191 476 bng 16 250 50 0 empty empty empty 0 -8 0 10 #fcfcfc #000000 #000000;
#X obj 369 726 snapshot~;
#X obj 377 681 tgl 15 0 empty empty empty 17 7 0 10 #fcfcfc #000000 #000000 0 1;
#X obj 377 607 env~;
#X obj 377 629 > 0;
#X obj 377 651 change;
#X floatatom 371 749 5 0 0 0 - - - 0;
#X obj 377 699 metro 100;
#X floatatom 370 795 5 0 0 0 - - - 0;
#X obj 370 774 * -1;
#X obj 370 815 + 1;
#X obj 370 836 pack f 2;
#X obj 370 857 line~;
#X obj 28 938 +~;
#X floatatom 291 845 5 0 0 0 - - - 0;
#X obj 136 927 *~;
#X obj 588 26 inlet~;
#X obj 588 979 outlet~;
#X obj 603 222 env~ 256;
#X obj 588 899 *~;
#X obj 603 839 pack f 40;
#X obj 603 869 line~;
#X obj 613 286 r \$0-graph-input;
#X obj 648 244 r \$0-switch;
#X obj 603 264 spigot 1;
#X text 672 839 40 ms attack/release;
#X obj 603 814 min 1;
#X text 972 932 RjDj 2012;
#X obj 703 619 t b f;
#X obj 648 679 f;
#X obj 648 709 /;
#X obj 648 649 -;
#X obj 603 573 f;
#X obj 663 502 t b f f;
#X obj 648 739 +;
#X obj 747 401 r \$0-load;
#X obj 663 408 \$1;
#X obj 836 407 \$2;
#X obj 663 430 t f f;
#X msg 719 563 threshold \$1;
#X obj 719 585 s \$0-to-gui;
#X obj 663 316 loadbang;
#X obj 663 338 t b b;
#X obj 836 429 t f f;
#X msg 848 561 ratio \$1;
#X obj 848 583 s \$0-to-gui;
#X obj 719 540 f;
#X obj 747 423 t b b;
#X obj 848 541 f;
#X obj 836 377 r \$0-ratio;
#X obj 671 377 r \$0-threshold;
#X obj 603 316 t f f;
#X text 680 709 Gain reduction;
#X obj 603 619 moses 70;
#X obj 663 619 t f f;
#N canvas 639 436 354 265 gainreduc 0;
#X obj 32 94 -;
#X obj 32 114 / 20;
#X obj 32 134 t b f;
#X msg 32 154 10;
#X obj 32 174 pow;
#X obj 32 34 inlet output;
#X obj 47 64 inlet input;
#X obj 32 206 outlet gain-reduction;
#X text 70 172 gr = 20*log10(output - input);
#X obj 141 64 r \$0-switch;
#X obj 141 86 sel 0;
#X msg 141 108 1;
#X text 174 109 If switched off \, no gr;
#X connect 0 0 1 0;
#X connect 1 0 2 0;
#X connect 2 0 3 0;
#X connect 2 1 4 1;
#X connect 3 0 4 0;
#X connect 4 0 7 0;
#X connect 5 0 0 0;
#X connect 6 0 0 1;
#X connect 9 0 10 0;
#X connect 10 0 11 0;
#X connect 11 0 7 0;
#X restore 603 789 pd gainreduc;
#X obj 610 164 / 127;
#X obj 834 219 / 127;
#X msg 878 342;
#X obj 610 185 * 100;
#X obj 834 261 + 1;
#X obj 834 240 * 3;
#X obj 751 476 bng 16 250 50 0 empty empty empty 0 -8 0 10 #fcfcfc #000000 #000000;
#X obj 929 726 snapshot~;
#X obj 937 681 tgl 15 0 empty empty empty 17 7 0 10 #fcfcfc #000000 #000000 0 1;
#X obj 937 607 env~;
#X obj 937 629 > 0;
#X obj 937 651 change;
#X floatatom 931 749 5 0 0 0 - - - 0;
#X obj 937 699 metro 100;
#X floatatom 930 795 5 0 0 0 - - - 0;
#X obj 930 774 * -1;
#X obj 930 815 + 1;
#X obj 930 836 pack f 2;
#X obj 930 857 line~;
#X obj 588 938 +~;
#X floatatom 851 845 5 0 0 0 - - - 0;
#X obj 696 927 *~;
#X connect 0 0 2 0;
#X connect 0 0 3 0;
#X connect 2 0 8 0;
#X connect 3 0 63 0;
#X connect 3 0 65 0;
#X connect 4 0 5 0;
#X connect 5 0 3 1;
#X connect 5 0 53 0;
#X connect 5 0 51 0;
#X connect 6 0 35 0;
#X connect 7 0 8 1;
#X connect 8 0 35 0;
#X connect 10 0 4 0;
#X connect 12 0 13 0;
#X connect 12 1 14 1;
#X connect 13 0 14 0;
#X connect 14 0 18 0;
#X connect 15 0 13 0;
#X connect 16 0 37 0;
#X connect 17 0 16 0;
#X connect 17 1 37 1;
#X connect 17 2 38 0;
#X connect 18 0 39 0;
#X connect 19 0 31 0;
#X connect 20 0 22 0;
#X connect 21 0 27 0;
#X connect 22 0 17 0;
#X connect 22 1 30 1;
#X connect 23 0 24 0;
#X connect 25 0 26 0;
#X connect 26 0 20 0;
#X connect 26 1 21 0;
#X connect 27 0 12 0;
#X connect 27 1 32 1;
#X connect 28 0 29 0;
#X connect 30 0 23 0;
#X connect 31 0 30 0;
#X connect 31 1 32 0;
#X connect 32 0 28 0;
#X connect 33 0 21 0;
#X connect 34 0 20 0;
#X connect 35 0 16 0;
#X connect 35 1 39 1;
#X connect 37 0 39 0;
#X connect 37 1 15 0;
#X connect 38 0 15 1;
#X connect 38 1 18 1;
#X connect 39 0 10 0;
#X connect 40 0 42 0;
#X connect 40 0 106 0;
#X connect 41 0 43 0;
#X connect 41 0 107 0;
#X connect 42 0 47 0;
#X connect 43 0 49 0;
#X connect 44 0 21 0;
#X connect 47 0 20 0;
#X connect 47 0 46 0;
#X connect 48 0 21 0;
#X connect 48 0 45 0;
#X connect 49 0 48 0;
#X connect 50 0 30 0;
#X connect 51 0 56 0;
#X connect 52 0 57 0;
#X connect 53 0 54 0;
#X connect 54 0 55 0;
#X connect 55 0 52 0;
#X connect 56 0 59 0;
#X connect 57 0 51 0;
#X connect 58 0 60 0;
#X connect 59 0 58 0;
#X connect 60 0 61 0;
#X connect 60 0 64 0;
#X connect 61 0 62 0;
#X connect 62 0 65 1;
#X connect 63 0 1 0;
#X connect 65 0 63 1;
#X connect 66 0 68 0;
#X connect 66 0 69 0;
#X connect 68 0 74 0;
#X connect 69 0 125 0;
#X connect 69 0 127 0;
#X connect 70 0 71 0;
#X connect 71 0 69 1;
#X connect 71 0 115 0;
#X connect 71 0 113 0;
#X connect 72 0 101 0;
#X connect 73 0 74 1;
#X connect 74 0 101 0;
#X connect 76 0 70 0;
#X connect 78 0 79 0;
#X connect 78 1 80 1;
#X connect 79 0 80 0;
#X connect 80 0 84 0;
#X connect 81 0 79 0;
#X connect 82 0 103 0;
#X connect 83 0 82 0;
#X connect 83 1 103 1;
#X connect 83 2 104 0;
#X connect 84 0 105 0;
#X connect 85 0 97 0;
#X connect 86 0 88 0;
#X connect 87 0 93 0;
#X connect 88 0 83 0;
#X connect 88 1 96 1;
#X connect 89 0 90 0;
#X connect 91 0 92 0;
#X connect 92 0 86 0;
#X connect 92 1 87 0;
#X connect 93 0 78 0;
#X connect 93 1 98 1;
#X connect 94 0 95 0;
#X connect 96 0 89 0;
#X connect 97 0 96 0;
#X connect 97 1 98 0;
#X connect 98 0 94 0;
#X connect 99 0 87 0;
#X connect 100 0 86 0;
#X connect 101 0 82 0;
#X connect 101 1 105 1;
#X connect 103 0 105 0;
#X connect 103 1 81 0;
#X connect 104 0 81 1;
#X connect 104 1 84 1;
#X connect 105 0 76 0;
#X connect 106 0 109 0;
#X connect 107 0 111 0;
#X connect 108 0 87 0;
#X connect 109 0 86 0;
#X connect 110 0 87 0;
#X connect 111 0 110 0;
#X connect 112 0 96 0;
#X connect 113 0 118 0;
#X connect 114 0 119 0;
#X connect 115 0 116 0;
#X connect 116 0 117 0;
#X connect 117 0 114 0;
#X connect 118 0 121 0;
#X connect 119 0 113 0;
#X connect 120 0 122 0;
#X connect 121 0 120 0;
#X connect 122 0 123 0;
#X connect 122 0 126 0;
#X connect 123 0 124 0;
#X connect 124 0 127 1;
#X connect 125 0 67 0;
#X connect 127 0 125 1;
#X coords 0 -1 1 1 200 100 1 100 100;
