#N canvas 73 68 1121 641 12;
#N canvas 0 25 450 300 (subpatch) 0;
#X array \$0-gain 128 float 3;
#A 0 0 0.818898 0.661417 0.566929 0.645669 0.133858 0.637795 0.275591 0.204724 0.496063 0.133858 0.614173 0.228346 0.480315 0.0866142 0.88189 0.811024 0.0787401 0.472441 0.692913 0.850394 0.220472 0.314961 0.771654 0.275591 0.433071 0.322835 0.968504 0.748031 0.76378 0.677165 0.181102 0.692913 0.811024 0.425197 0.425197 0.472441 0.15748 0.535433 0.84252 0.448819 0.818898 0.614173 0.897638 0.275591 0.708661 0.787402 0.0866142 0.905512 0.212598 0.472441 0.598425 0.653543 0.173228 0.976378 0.204724 0.244094 0.149606 0.653543 0.19685 0.92126 0.716535 0.346457 0.267717 0.527559 0.488189 0.653543 0.110236 0.267717 0.685039 0.401575 0.755906 0.015748 0.0787402 0.393701 0.708661 0.944882 0.228346 0.385827 0.251969 0.574803 0.133858 0 0.598425 0.968504 0.00787401 0.0472441 0.165354 0.826772 0.204724 0.102362 0.133858 0.204724 0.850394 0.204724 0.0866142 0.708661 0.984252 0.653543 0.031496 0.251969 0.913386 0.944882 0.96063 0.866142 0.0629921 0.15748 0.023622 0.433071 0.0472441 0.724409 0.307087 0.212598 0.913386 0.141732 0.716535 0.173228 0.629921 0.84252 0.779528 0.598425 0.023622 0.984252 0.19685 0.606299 0.370079 0.937008 1;
#X coords 0 1 128 -0.01 128 60 1 0 0;
#X restore 107 126 graph;
#N canvas 919 162 396 652 fft-analyse 0;
#X obj 15 164 *~;
#X obj 14 99 inlet~;
#X obj 15 218 rfft~;
#X obj 14 353 *~;
#X obj 56 353 *~;
#X obj 15 8 block~ 512 4;
#X obj 77 225 *~;
#X obj 16 506 *~;
#X obj 77 283 /~ 768;
#X obj 78 251 *~;
#X obj 15 399 rifft~;
#X obj 16 566 outlet~;
#X text 112 237 amplification of;
#X text 119 255 array values;
#X text 140 285 Normalization;
#X obj 36 140 tabreceive~ \$0-hanning;
#X obj 37 481 tabreceive~ \$0-hanning;
#X obj 76 196 tabreceive~ \$0-gain;
#X connect 0 0 2 0;
#X connect 1 0 0 0;
#X connect 2 0 3 0;
#X connect 2 1 4 0;
#X connect 3 0 10 0;
#X connect 4 0 10 1;
#X connect 6 0 9 0;
#X connect 6 0 9 1;
#X connect 7 0 11 0;
#X connect 8 0 3 1;
#X connect 8 0 4 1;
#X connect 9 0 8 0;
#X connect 10 0 7 0;
#X connect 15 0 0 1;
#X connect 16 0 7 1;
#X connect 17 0 6 0;
#X connect 17 0 6 1;
#X restore 30 236 pd fft-analyse;
#X text 133 34 draw filtering process:;
#X text 33 5 3.8.2.1. fft Filter;
#X text 793 28 www.pd-tutorial.com;
#X text 793 3 Johannes Kreidler;
#X obj 29 37 inlet~;
#X obj 28 583 outlet~;
#X obj 400 45 tgl 19 0 empty empty empty 0 -10 0 12 #fcfcfc #000000 #000000 0 1;
#X floatatom 140 104 5 0 0 0 - - - 0;
#X floatatom 283 76 5 0 0 0 - - - 0;
#X obj 400 -13 loadbang;
#X msg 400 11 1;
#X obj 138 50 loadbang;
#X msg 634 56 \; \$1-gain const 1;
#X obj 634 33 f \$0;
#X obj 634 7 t b;
#X obj 81 37 inlet~;
#N canvas 92 117 888 556 hann 0;
#N canvas 0 0 450 300 (subpatch) 0;
#X array \$0-hanning 512 float 0;
#X coords 0 1 511 0 200 120 1 0 0;
#X restore 288 132 graph;
#X msg 166 146 0;
#X obj 60 195 osc~;
#X obj 60 147 samplerate~;
#X obj 60 218 *~ -0.5;
#X obj 60 241 +~ 0.5;
#X text 274 124 1;
#X text 267 242 0;
#X text 283 255 0;
#X obj 60 171 / 512;
#X obj 52 124 bng 15 250 50 0 empty empty empty 0 -6 0 8 #fcfcfc #000000 #000000;
#X text 469 258 511;
#X obj 52 102 loadbang;
#X obj 52 266 tabwrite~ \$0-hanning;
#X connect 1 0 2 1;
#X connect 2 0 4 0;
#X connect 3 0 9 0;
#X connect 4 0 5 0;
#X connect 5 0 13 0;
#X connect 9 0 2 0;
#X connect 10 0 3 0;
#X connect 10 0 1 0;
#X connect 10 0 13 0;
#X connect 12 0 10 0;
#X restore 959 -1 pd hann;
#N canvas 729 100 711 390 changer 0;
#X floatatom 106 230 5 0 0 0 - - - 0;
#X obj 106 187 random 127;
#X obj 106 164 metro 5;
#X obj 106 209 / 127;
#X obj 215 77 random;
#X obj 215 174 +;
#X floatatom 215 199 5 0 0 0 - - - 0;
#X obj 233 103 - 127;
#X obj 233 127 * -1;
#X floatatom 233 151 5 0 0 0 - - - 0;
#X floatatom 215 222 5 0 0 0 - - - 0;
#X obj 106 350 tabwrite \$0-gain;
#X obj 106 295 line;
#X msg 106 270 \$1 100;
#X obj 106 4 r \$0-clock-on;
#X obj 239 14 r \$0-border;
#X obj 115 27 r \$0-clock-speed;
#X connect 0 0 13 0;
#X connect 1 0 3 0;
#X connect 2 0 1 0;
#X connect 2 0 4 0;
#X connect 3 0 0 0;
#X connect 4 0 5 0;
#X connect 5 0 6 0;
#X connect 6 0 10 0;
#X connect 7 0 8 0;
#X connect 8 0 9 0;
#X connect 9 0 5 1;
#X connect 10 0 11 1;
#X connect 12 0 11 0;
#X connect 13 0 12 0;
#X connect 14 0 2 0;
#X connect 15 0 4 1;
#X connect 15 0 7 0;
#X connect 16 0 2 1;
#X restore 627 179 pd changer;
#X obj 400 77 s \$0-clock-on;
#X obj 146 307 s \$0-clock-speed;
#X msg 138 74 100;
#X obj 284 140 s \$0-border;
#N canvas 729 100 711 390 changer 1;
#X floatatom 106 230 5 0 0 0 - - - 0;
#X obj 106 187 random 127;
#X obj 106 164 metro 5;
#X obj 106 209 / 127;
#X obj 215 77 random;
#X obj 215 174 +;
#X floatatom 215 199 5 0 0 0 - - - 0;
#X obj 233 103 - 127;
#X obj 233 127 * -1;
#X floatatom 233 151 5 0 0 0 - - - 0;
#X floatatom 215 222 5 0 0 0 - - - 0;
#X obj 106 350 tabwrite \$0-gain;
#X obj 106 295 line;
#X msg 106 270 \$1 100;
#X obj 106 4 r \$0-clock-on;
#X obj 239 14 r \$0-border;
#X obj 115 27 r \$0-clock-speed;
#X connect 0 0 13 0;
#X connect 1 0 3 0;
#X connect 2 0 1 0;
#X connect 2 0 4 0;
#X connect 3 0 0 0;
#X connect 4 0 5 0;
#X connect 5 0 6 0;
#X connect 6 0 10 0;
#X connect 7 0 8 0;
#X connect 8 0 9 0;
#X connect 9 0 5 1;
#X connect 10 0 11 1;
#X connect 12 0 11 0;
#X connect 13 0 12 0;
#X connect 14 0 2 0;
#X connect 15 0 4 1;
#X connect 15 0 7 0;
#X connect 16 0 2 1;
#X restore 627 199 pd changer;
#X obj 296 2 loadbang;
#X msg 296 26 127;
#X connect 1 0 7 0;
#X connect 6 0 1 0;
#X connect 8 0 20 0;
#X connect 9 0 21 0;
#X connect 10 0 16 0;
#X connect 10 0 23 0;
#X connect 11 0 12 0;
#X connect 12 0 8 0;
#X connect 13 0 22 0;
#X connect 15 0 14 0;
#X connect 16 0 15 0;
#X connect 22 0 9 0;
#X connect 25 0 26 0;
#X connect 26 0 10 0;
#X coords 0 -1 1 1 140 90 1 100 100;
