#N canvas 220 297 490 396 12;
#X floatatom 143 118 0 0 500 0 - squelch-set - 0;
#X obj 232 142 s squelch;
#N canvas 685 134 568 680 fft-analys2 0;
#X obj 111 451 *~;
#X obj 76 450 *~;
#X obj 76 114 *~;
#X obj 75 55 inlet~;
#X obj 76 137 rfft~;
#X obj 76 570 *~;
#X obj 166 175 *~;
#X obj 76 514 rifft~;
#X obj 76 593 outlet~;
#X obj 132 175 *~;
#X obj 132 198 +~;
#X obj 70 21 block~ 1024 4;
#X obj 132 349 clip~;
#X obj 168 292 r squelch;
#X obj 167 315 expr 0.01*$f1*$f1;
#X obj 133 411 *~ 0.00065;
#X obj 132 223 +~ 1e-20;
#X obj 131 260 q8_rsqrt~;
#X text 230 209 Magnitude calculation;
#X text 278 284 proper calculation of;
#X text 342 302 the threshold;
#X text 185 348 everything above the threshold is now clipped;
#X text 228 413 normalization;
#X text 148 450 multiplication of the clipped magnitudes with the original FFT values \, as with a filter;
#X obj 94 86 tabreceive~ \$0-hanning;
#X obj 94 542 tabreceive~ \$0-hanning;
#X connect 0 0 7 1;
#X connect 1 0 7 0;
#X connect 2 0 4 0;
#X connect 3 0 2 0;
#X connect 4 0 9 0;
#X connect 4 0 9 1;
#X connect 4 0 1 0;
#X connect 4 1 6 0;
#X connect 4 1 6 1;
#X connect 4 1 0 0;
#X connect 5 0 8 0;
#X connect 6 0 10 1;
#X connect 7 0 5 0;
#X connect 9 0 10 0;
#X connect 10 0 16 0;
#X connect 12 0 15 0;
#X connect 13 0 14 0;
#X connect 14 0 12 2;
#X connect 15 0 0 1;
#X connect 15 0 1 1;
#X connect 16 0 17 0;
#X connect 17 0 12 0;
#X connect 24 0 2 1;
#X connect 25 0 5 1;
#X restore 18 171 pd fft-analys2;
#X text 267 117 squelch;
#X text 28 14 3.8.2.3. compressor;
#X text 22 70 try it with a piece;
#X text 20 90 of music;
#X text 230 90 compression level;
#N canvas 0 0 450 300 (subpatch) 0;
#X array \$0-hanning 512 float 0;
#X coords 0 1 511 0 200 120 1 0 0;
#X restore 667 126 graph;
#X msg 545 140 0;
#X obj 439 189 osc~;
#X obj 439 141 samplerate~;
#X obj 439 212 *~ -0.5;
#X obj 439 235 +~ 0.5;
#X text 653 118 1;
#X text 646 236 0;
#X text 662 249 0;
#X obj 439 165 / 512;
#X obj 431 118 bng 15 250 50 0 empty empty empty 0 -6 0 8 #fcfcfc #000000 #000000;
#X obj 431 68 loadbang;
#X obj 431 260 tabwrite~ \$0-hanning;
#X obj 24 41 inlet~;
#X obj 17 247 outlet~;
#X connect 0 0 1 0;
#X connect 2 0 22 0;
#X connect 9 0 10 1;
#X connect 10 0 12 0;
#X connect 11 0 17 0;
#X connect 12 0 13 0;
#X connect 13 0 20 0;
#X connect 17 0 10 0;
#X connect 18 0 11 0;
#X connect 18 0 9 0;
#X connect 18 0 20 0;
#X connect 19 0 18 0;
#X connect 21 0 2 0;
#X coords 0 -1 1 1 85 60 1 100 100;
