#N canvas 549 63 882 540 12;
#N canvas 121 146 661 550 env-energizer 0;
#X obj 99 137 f;
#X obj 99 161 t b f;
#X obj 99 269 vline~;
#X obj 99 293 *~ 1;
#X obj 99 317 expr~ 1 - cos($v1);
#X text 148 295 phase;
#X text 182 341 energizer;
#X msg 102 96 0.5;
#X obj 99 341 *~, f 5;
#X text 285 48 motion ms;
#X msg 99 243 0 \, 6.28319 \$1;
#X floatatom 160 176 5 0 0 0 - - - 0;
#X obj 99 215 f;
#X obj 100 375 outlet~;
#X obj 110 31 inlet;
#X obj 235 49 inlet;
#X connect 0 0 1 0;
#X connect 1 0 12 0;
#X connect 1 1 8 1;
#X connect 2 0 3 0;
#X connect 3 0 4 0;
#X connect 4 0 8 0;
#X connect 7 0 0 0;
#X connect 8 0 13 0;
#X connect 10 0 2 0;
#X connect 11 0 12 1;
#X connect 12 0 10 0;
#X connect 14 0 7 0;
#X connect 15 0 11 0;
#X restore 422 183 pd env-energizer;
#X msg 597 160 0.999;
#X msg 481 394 0.95;
#X msg 218 37 25;
#X text 647 169 systemDecay;
#X text 535 412 soundDecay;
#X text 269 60 numObjects;
#X text 511 274 gain;
#X obj 431 220 fexpr~ ($y1 + $x1) * $x2;
#X text 615 219 shakeEnergy;
#X obj 116 54 noise~;
#X obj 116 78 +~ 1;
#X obj 218 87 / 1024;
#X obj 218 111 sig~;
#X obj 218 13 loadbang;
#X obj 596 132 loadbang;
#X text 234 141 thresh~;
#X obj 119 439 fexpr~ $y1 * $x3 + $x1 * $x2;
#X text 326 440 soundLevel;
#X obj 598 190 sig~;
#X obj 424 107 bng 19 250 50 0 empty empty empty 0 -10 0 12 #fcfcfc #000000 #000000;
#X obj 121 604 dac~;
#X msg 462 277 0.5;
#X obj 116 140 expr~ $v1 < $v2;
#X obj 455 56 hsl 162 19 0 127 0 0 empty empty empty -2 -10 0 12 #fcfcfc #000000 #000000 0 1;
#X obj 333 -8 hsl 162 19 0 127 0 0 empty empty empty -2 -10 0 12 #fcfcfc #000000 #000000 0 1;
#X obj 330 16 / 2;
#X obj 125 489 hip~ 20;
#X obj 481 418 sig~;
#X obj 537 364 hsl 162 19 0 127 0 0 empty empty empty -2 -10 0 12 #fcfcfc #000000 #000000 0 1;
#X obj 129 567 hip~ 250;
#X obj 313 297 *~ 0.2;
#X obj 116 102 *~ 0.3;
#X obj 144 531 biquad~ 1 0 0 -1.72388 0.9216;
#X floatatom 346 68 5 0 0 0 - - - 0;
#X obj 534 388 / 127;
#X obj 198 269 *~;
#X obj 728 56 hsl 162 19 0 127 0 0 empty empty empty -2 -10 0 12 #fcfcfc #000000 #000000 0 1;
#X obj 725 80 / 127;
#X obj 191 189 *~ 0.1;
#X obj 452 80 / 1;
#X obj 97 302 rpole~;
#X connect 0 0 8 0;
#X connect 2 0 28 0;
#X connect 3 0 12 0;
#X connect 8 0 31 0;
#X connect 10 0 11 0;
#X connect 11 0 32 0;
#X connect 12 0 13 0;
#X connect 13 0 23 1;
#X connect 14 0 3 0;
#X connect 15 0 1 0;
#X connect 19 0 8 1;
#X connect 20 0 0 0;
#X connect 22 0 31 1;
#X connect 23 0 39 0;
#X connect 24 0 40 0;
#X connect 25 0 26 0;
#X connect 26 0 12 0;
#X connect 26 0 34 0;
#X connect 27 0 33 0;
#X connect 28 0 17 2;
#X connect 29 0 35 0;
#X connect 30 0 21 0;
#X connect 30 0 21 1;
#X connect 31 0 36 1;
#X connect 32 0 23 0;
#X connect 33 0 30 0;
#X connect 35 0 28 0;
#X connect 36 0 27 0;
#X connect 37 0 38 0;
#X connect 38 0 19 0;
#X connect 39 0 36 0;
#X connect 40 0 0 1;
#X connect 40 0 38 0;
