#N canvas 87 204 1253 719 12;
#X obj 156 19 inlet;
#X obj 156 358 sawsolo;
#X obj 289 680 outlet~;
#X obj 156 43 unpack f f;
#X obj 156 207 mtof;
#X floatatom 115 234 5 0 0 0 - - - 0;
#X floatatom 113 70 5 0 0 0 - - - 0;
#X floatatom 115 207 5 0 0 0 - - - 0;
#X obj 156 175 +;
#X floatatom 223 147 5 0 0 0 - - - 0;
#X text 22 207 midi shifted;
#X text 216 167 shift amt;
#X obj 428 244 sawsolo;
#X floatatom 389 245 5 0 0 0 - - - 0;
#X obj 428 291 sawsolo;
#X floatatom 389 292 5 0 0 0 - - - 0;
#X obj 428 338 sawsolo;
#X floatatom 389 339 5 0 0 0 - - - 0;
#X obj 620 335 sawsolo;
#X floatatom 581 336 5 0 0 0 - - - 0;
#X obj 620 288 sawsolo;
#X floatatom 581 289 5 0 0 0 - - - 0;
#X obj 620 241 sawsolo;
#X floatatom 581 242 5 0 0 0 - - - 0;
#X text 89 358 main saw;
#X floatatom 560 547 5 0 0 0 - - - 0;
#X obj 157 592 *~ 1;
#X obj 289 652 *~ 1;
#X obj 522 568 *~ 1;
#X floatatom 198 569 5 0 0 0 - - - 0;
#N canvas 508 75 682 515 detuneSub 0;
#X obj 188 34 expr (10028.7312891634*pow($f1 \, 11) -50818.8652045924*pow($f1 \, 10) +111363.4808729368*pow($f1 \, 9) -138150.6761080548*pow($f1 \, 8) +106649.6679158292*pow($f1 \, 7) -53046.9642751875*pow($f1 \, 6) +17019.9518580080*pow($f1 \, 5) -3425.0836591318*pow($f1 \, 4) +404.2703938388*pow($f1 \, 3) -24.1878824391*pow($f1 \, 2) +0.6717417634*$f1 +0.0030115596), f 66;
#X obj 170 250 *;
#X obj 188 162 expr 1-$f1*0.11002313;
#X obj 233 291 *;
#X obj 289 325 *;
#X obj 348 364 *;
#X obj 407 403 *;
#X obj 466 442 *;
#X obj 251 203 expr 1-$f1*0.06288439;
#X obj 307 237 expr 1-$f1*0.01952356;
#X obj 366 276 expr 1+$f1*0.01991221;
#X obj 425 315 expr 1+$f1*0.06216538;
#X obj 484 354 expr 1+$f1*0.10745242;
#X obj 132 124 b;
#X text 461 125 Actual detuning formula A. Szabo - How to emulate the super saw (2010), f 27;
#X text 51 103 this bang is needed for live detuning, f 10;
#X obj 59 194 r \$0-freqOG;
#X obj 170 274 s \$0-freq1;
#X obj 233 315 s \$0-freq2;
#X obj 289 349 s \$0-freq3;
#X obj 348 388 s \$0-freq4;
#X obj 407 427 s \$0-freq5;
#X obj 466 466 s \$0-freq6;
#X obj 188 7 r \$0-detune;
#X connect 0 0 2 0;
#X connect 0 0 8 0;
#X connect 0 0 9 0;
#X connect 0 0 10 0;
#X connect 0 0 11 0;
#X connect 0 0 12 0;
#X connect 1 0 17 0;
#X connect 2 0 1 1;
#X connect 3 0 18 0;
#X connect 4 0 19 0;
#X connect 5 0 20 0;
#X connect 6 0 21 0;
#X connect 7 0 22 0;
#X connect 8 0 3 1;
#X connect 9 0 4 1;
#X connect 10 0 5 1;
#X connect 11 0 6 1;
#X connect 12 0 7 1;
#X connect 13 0 1 0;
#X connect 13 0 3 0;
#X connect 13 0 4 0;
#X connect 13 0 5 0;
#X connect 13 0 6 0;
#X connect 13 0 7 0;
#X connect 16 0 1 0;
#X connect 16 0 3 0;
#X connect 16 0 4 0;
#X connect 16 0 5 0;
#X connect 16 0 6 0;
#X connect 16 0 7 0;
#X connect 23 0 0 0;
#X connect 23 0 13 0;
#X restore 505 146 pd detuneSub;
#X obj 182 539 expr -0.55366*$f1+0.99785;
#X obj 547 522 expr -0.73764*pow($f1 \, 2)+1.2841*$f1+0.044372;
#X text 499 124 detuning math, f 14;
#X text 54 70 midi OG;
#X text 43 235 main freq;
#X obj 522 592 /~ 6;
#X obj 192 146 b;
#X text 558 593 for prevent clipping;
#X text 238 487 Actual mixing formula A. Szabo - How to emulate the super saw (2010), f 25;
#X text 655 464 Actual mixing formula A. Szabo - How to emulate the super saw (2010), f 25;
#X obj 192 116 r \$0-transpose;
#X obj 182 515 r \$0-mix;
#X obj 547 498 r \$0-mix;
#X obj 428 213 r \$0-freq1;
#X obj 428 266 r \$0-freq2;
#X obj 428 313 r \$0-freq3;
#X obj 620 216 r \$0-freq6;
#X obj 620 263 r \$0-freq5;
#X obj 620 310 r \$0-freq4;
#X obj 191 233 s \$0-freqOG;
#X floatatom 256 205 5 0 0 0 - - - 0;
#X connect 0 0 3 0;
#X connect 1 0 26 0;
#X connect 3 0 6 0;
#X connect 3 0 8 0;
#X connect 3 1 12 1;
#X connect 3 1 14 1;
#X connect 3 1 1 1;
#X connect 3 1 16 1;
#X connect 3 1 18 1;
#X connect 3 1 20 1;
#X connect 3 1 22 1;
#X connect 4 0 5 0;
#X connect 4 0 1 0;
#X connect 4 0 50 0;
#X connect 8 0 4 0;
#X connect 8 0 7 0;
#X connect 12 0 28 0;
#X connect 14 0 28 0;
#X connect 16 0 28 0;
#X connect 18 0 28 0;
#X connect 20 0 28 0;
#X connect 22 0 28 0;
#X connect 26 0 27 0;
#X connect 27 0 2 0;
#X connect 28 0 36 0;
#X connect 31 0 26 1;
#X connect 31 0 29 0;
#X connect 32 0 25 0;
#X connect 32 0 28 1;
#X connect 36 0 27 0;
#X connect 37 0 8 0;
#X connect 41 0 8 1;
#X connect 41 0 9 0;
#X connect 41 0 37 0;
#X connect 42 0 31 0;
#X connect 43 0 32 0;
#X connect 44 0 13 0;
#X connect 44 0 12 0;
#X connect 45 0 15 0;
#X connect 45 0 14 0;
#X connect 46 0 17 0;
#X connect 46 0 16 0;
#X connect 47 0 23 0;
#X connect 47 0 22 0;
#X connect 48 0 21 0;
#X connect 48 0 20 0;
#X connect 49 0 19 0;
#X connect 49 0 18 0;
