#N canvas 382 95 639 634 12;
#X obj 34 50 inlet;
#X obj 34 579 outlet~;
#X obj 34 556 *~;
#X obj 223 280 inlet;
#X text 23 28 freq note;
#X text 206 260 velocity;
#X obj 34 329 phasor~;
#X obj 223 304 / 100;
#X obj 92 329 osc~;
#X text 37 272 shaping wave;
#X obj 308 320 * 1000;
#X obj 308 344 + 5;
#X obj 505 320 * 1000;
#X obj 505 344 + 5;
#X obj 255 472 vline~;
#X floatatom 308 368 5 0 0 0 - - -;
#X msg 255 449 1 \$1 \, \$3 \$2 \$1;
#X obj 308 403 pack 0 0 0, f 19;
#X obj 373 320 * 1000;
#X obj 373 344 + 5;
#X floatatom 373 368 5 0 0 0 - - -;
#X obj 438 320 + 0.01;
#X floatatom 438 344 5 0 0 0 - - -;
#X floatatom 505 368 5 0 0 0 - - -;
#X msg 487 446 0 \$1;
#X obj 255 407 bng 15 250 50 0 empty empty empty 17 7 0 10 -262144
-1 -1;
#X obj 487 405 bng 15 250 50 0 empty empty empty 17 7 0 10 -262144
-1 -1;
#X obj 255 426 \$1 \$2 \$3;
#X obj 487 423 \$1;
#X obj 223 328 sel 0;
#X obj 308 185 vsl 15 128 0 1 0 0 empty empty empty 0 -9 0 10 -262144
-1 -1 0 1;
#X obj 373 185 vsl 15 128 0 1 0 0 empty empty empty 0 -9 0 10 -262144
-1 -1 10795 1;
#X obj 438 185 vsl 15 128 0 1 0 0 empty empty empty 0 -9 0 10 -262144
-1 -1 6350 1;
#X obj 505 185 vsl 15 128 0 1 0 0 empty empty empty 0 -9 0 10 -262144
-1 -1 1524 1;
#X text 295 182 A;
#X text 360 182 D;
#X text 425 182 S;
#X text 492 183 R;
#X obj 308 88 loadbang;
#X obj 308 112 delay 150;
#X msg 308 148 0;
#X msg 373 148 0.85;
#X msg 438 147 0.5;
#X msg 505 148 0.12;
#X obj 265 187 bng 15 250 50 0 empty empty empty 17 7 0 10 -262144
-1 -1;
#X obj 196 148 delay 500;
#X msg 117 305 0.6;
#X obj 92 353 *~ 0.8;
#X text 346 370 ms;
#X text 411 371 ms;
#X text 543 369 ms;
#X text 394 114 ADSR preset;
#X text 531 235 ADSR module (manual edit);
#X connect 0 0 6 0;
#X connect 0 0 8 0;
#X connect 2 0 1 0;
#X connect 3 0 7 0;
#X connect 6 0 2 0;
#X connect 7 0 29 0;
#X connect 8 0 47 0;
#X connect 10 0 11 0;
#X connect 11 0 15 0;
#X connect 12 0 13 0;
#X connect 13 0 23 0;
#X connect 14 0 2 1;
#X connect 15 0 17 0;
#X connect 16 0 14 0;
#X connect 17 0 27 1;
#X connect 18 0 19 0;
#X connect 19 0 20 0;
#X connect 20 0 17 1;
#X connect 21 0 22 0;
#X connect 22 0 17 2;
#X connect 23 0 28 1;
#X connect 24 0 14 0;
#X connect 25 0 27 0;
#X connect 26 0 28 0;
#X connect 27 0 16 0;
#X connect 28 0 24 0;
#X connect 29 0 26 0;
#X connect 29 1 25 0;
#X connect 30 0 10 0;
#X connect 31 0 18 0;
#X connect 32 0 21 0;
#X connect 33 0 12 0;
#X connect 38 0 39 0;
#X connect 39 0 40 0;
#X connect 39 0 41 0;
#X connect 39 0 42 0;
#X connect 39 0 43 0;
#X connect 39 0 45 0;
#X connect 40 0 30 0;
#X connect 41 0 31 0;
#X connect 42 0 32 0;
#X connect 43 0 33 0;
#X connect 44 0 17 0;
#X connect 45 0 44 0;
#X connect 45 0 46 0;
#X connect 46 0 8 1;
#X connect 47 0 2 0;
