#N canvas 203 221 1237 459 10;
#X msg 50 254 0, f 6;
#X obj 50 235 loadbang;
#X text 40 103 This textfile contains all necessery names of the module and the names of the gui (faders etc.). This way its much easier to change the names of all elements simply by editing the text object.;
#X msg 50 314 label \$1;
#X obj 50 293 pack symbol;
#X obj 50 333 s \$1-modul-name;
#X msg 226 309 label \$1;
#X obj 226 288 pack symbol;
#X obj 226 328 s \$1-param-1-r;
#X obj 226 233 loadbang;
#X msg 226 251 1, f 6;
#X text 50 213 Module-Name:;
#X text 224 213 PARAM 1:;
#X msg 396 309 label \$1;
#X obj 396 288 pack symbol;
#X obj 396 233 loadbang;
#X text 394 213 PARAM 2:;
#X msg 396 251 2, f 6;
#X obj 396 328 s \$1-param-2-r;
#X msg 566 309 label \$1;
#X obj 566 288 pack symbol;
#X obj 566 233 loadbang;
#X msg 736 309 label \$1;
#X obj 736 288 pack symbol;
#X obj 736 233 loadbang;
#X text 564 213 PARAM 3:;
#X text 734 213 PARAM 4:;
#X msg 566 251 3, f 6;
#X msg 736 251 4, f 6;
#X obj 566 328 s \$1-param-3-r;
#X obj 736 328 s \$1-param-4-r;
#X msg 226 479 label \$1;
#X obj 226 458 pack symbol;
#X obj 226 403 loadbang;
#X msg 396 479 label \$1;
#X obj 396 458 pack symbol;
#X obj 396 403 loadbang;
#X msg 566 479 label \$1;
#X obj 566 458 pack symbol;
#X obj 566 403 loadbang;
#X msg 736 479 label \$1;
#X obj 736 458 pack symbol;
#X obj 736 403 loadbang;
#X text 224 383 PARAM 5:;
#X msg 226 421 5, f 6;
#X msg 396 421 6, f 6;
#X msg 566 421 7, f 6;
#X msg 736 421 8, f 6;
#X obj 226 498 s \$1-param-5-r;
#X obj 396 498 s \$1-param-6-r;
#X obj 566 498 s \$1-param-7-r;
#X obj 736 498 s \$1-param-8-r;
#X obj 50 271 text get \$1-modul-settings;
#X obj 226 269 text get \$1-modul-settings;
#X obj 396 269 text get \$1-modul-settings;
#X obj 566 269 text get \$1-modul-settings;
#X obj 736 269 text get \$1-modul-settings;
#X obj 226 439 text get \$1-modul-settings;
#X obj 396 439 text get \$1-modul-settings;
#X obj 566 439 text get \$1-modul-settings;
#X obj 736 439 text get \$1-modul-settings;
#X text 924 48 The Order of the file \; 0=Modul-Name \; 1=Name Param1 - write non if unused \; 2=Name Param2 \; 3=Name Param3 \; 4=Name Param4 \; 5=Name Param5 \; 6=Name Param6 \; 7=Name Param7 \; 8=Name Param8 \; 9=Type of Module (SRC \, MOD \, LFO \, EFX etc) \; 10=Number of used Parameters \; 11=Color of Param1-Circle 12=Color of Param2-Circle \; 13=Color of Param3-Circle \; 14=Color of Param4-Circle \; 15=Color of Param5-Circle \; 16=Color of Param6-Circle \; 17=Color of Param7-Circle \; 18=Color of Param8-Circle \; ....;
#X obj 225 694 pack symbol symbol symbol;
#X obj 225 622 loadbang;
#X obj 225 658 text get \$1-modul-settings;
#X listbox 225 676 20 0 0 0 - - - 0;
#X msg 225 640 11, f 6;
#X obj 225 733 s \$1-param-1-r;
#X msg 225 713 color \$1 #000000 #000000;
#X text 223 593 PARAM 1:;
#X text 393 593 PARAM 2:;
#X text 563 593 PARAM 3:;
#X text 733 593 PARAM 4:;
#X text 224 567 Slider-Colors:;
#X obj 395 694 pack symbol symbol symbol;
#X obj 395 622 loadbang;
#X obj 395 658 text get \$1-modul-settings;
#X listbox 395 676 20 0 0 0 - - - 0;
#X msg 395 713 color \$1 #000000 #000000;
#X msg 395 640 12, f 6;
#X obj 395 733 s \$1-param-2-r;
#X obj 565 694 pack symbol symbol symbol;
#X obj 565 622 loadbang;
#X obj 565 658 text get \$1-modul-settings;
#X listbox 565 676 20 0 0 0 - - - 0;
#X msg 565 713 color \$1 #000000 #000000;
#X msg 565 640 13, f 6;
#X obj 565 733 s \$1-param-3-r;
#X obj 735 694 pack symbol symbol symbol;
#X obj 735 622 loadbang;
#X obj 735 658 text get \$1-modul-settings;
#X listbox 735 676 20 0 0 0 - - - 0;
#X msg 735 713 color \$1 #000000 #000000;
#X msg 735 640 14, f 6;
#X obj 735 733 s \$1-param-4-r;
#X text 394 383 PARAM 6:;
#X text 564 383 PARAM 7:;
#X text 734 383 PARAM 8:;
#X text 224 783 PARAM 5:;
#X text 394 783 PARAM 6:;
#X text 564 783 PARAM 7:;
#X text 734 783 PARAM 8:;
#X obj 225 880 pack symbol symbol symbol;
#X obj 225 808 loadbang;
#X obj 225 844 text get \$1-modul-settings;
#X listbox 225 862 20 0 0 0 - - - 0;
#X msg 225 899 color \$1 #000000 #000000;
#X obj 395 880 pack symbol symbol symbol;
#X obj 395 808 loadbang;
#X obj 395 844 text get \$1-modul-settings;
#X listbox 395 862 20 0 0 0 - - - 0;
#X msg 395 899 color \$1 #000000 #000000;
#X obj 565 880 pack symbol symbol symbol;
#X obj 565 808 loadbang;
#X obj 565 844 text get \$1-modul-settings;
#X listbox 565 862 20 0 0 0 - - - 0;
#X msg 565 899 color \$1 #000000 #000000;
#X obj 735 880 pack symbol symbol symbol;
#X obj 735 808 loadbang;
#X obj 735 844 text get \$1-modul-settings;
#X listbox 735 862 20 0 0 0 - - - 0;
#X msg 735 899 color \$1 #000000 #000000;
#X msg 225 826 15, f 6;
#X msg 395 826 16, f 6;
#X msg 565 826 17, f 6;
#X msg 735 826 18, f 6;
#X obj 225 919 s \$1-param-5-r;
#X obj 395 919 s \$1-param-6-r;
#X obj 565 919 s \$1-param-7-r;
#X obj 735 919 s \$1-param-8-r;
#X connect 0 0 52 0;
#X connect 1 0 0 0;
#X connect 3 0 5 0;
#X connect 4 0 3 0;
#X connect 6 0 8 0;
#X connect 7 0 6 0;
#X connect 9 0 10 0;
#X connect 10 0 53 0;
#X connect 13 0 18 0;
#X connect 14 0 13 0;
#X connect 15 0 17 0;
#X connect 17 0 54 0;
#X connect 19 0 29 0;
#X connect 20 0 19 0;
#X connect 21 0 27 0;
#X connect 22 0 30 0;
#X connect 23 0 22 0;
#X connect 24 0 28 0;
#X connect 27 0 55 0;
#X connect 28 0 56 0;
#X connect 31 0 48 0;
#X connect 32 0 31 0;
#X connect 33 0 44 0;
#X connect 34 0 49 0;
#X connect 35 0 34 0;
#X connect 36 0 45 0;
#X connect 37 0 50 0;
#X connect 38 0 37 0;
#X connect 39 0 46 0;
#X connect 40 0 51 0;
#X connect 41 0 40 0;
#X connect 42 0 47 0;
#X connect 44 0 57 0;
#X connect 45 0 58 0;
#X connect 46 0 59 0;
#X connect 47 0 60 0;
#X connect 52 0 4 0;
#X connect 53 0 7 0;
#X connect 54 0 14 0;
#X connect 55 0 20 0;
#X connect 56 0 23 0;
#X connect 57 0 32 0;
#X connect 58 0 35 0;
#X connect 59 0 38 0;
#X connect 60 0 41 0;
#X connect 62 0 68 0;
#X connect 63 0 66 0;
#X connect 64 0 65 0;
#X connect 65 0 62 0;
#X connect 66 0 64 0;
#X connect 68 0 67 0;
#X connect 74 0 78 0;
#X connect 75 0 79 0;
#X connect 76 0 77 0;
#X connect 77 0 74 0;
#X connect 78 0 80 0;
#X connect 79 0 76 0;
#X connect 81 0 85 0;
#X connect 82 0 86 0;
#X connect 83 0 84 0;
#X connect 84 0 81 0;
#X connect 85 0 87 0;
#X connect 86 0 83 0;
#X connect 88 0 92 0;
#X connect 89 0 93 0;
#X connect 90 0 91 0;
#X connect 91 0 88 0;
#X connect 92 0 94 0;
#X connect 93 0 90 0;
#X connect 102 0 106 0;
#X connect 103 0 122 0;
#X connect 104 0 105 0;
#X connect 105 0 102 0;
#X connect 106 0 126 0;
#X connect 107 0 111 0;
#X connect 108 0 123 0;
#X connect 109 0 110 0;
#X connect 110 0 107 0;
#X connect 111 0 127 0;
#X connect 112 0 116 0;
#X connect 113 0 124 0;
#X connect 114 0 115 0;
#X connect 115 0 112 0;
#X connect 116 0 128 0;
#X connect 117 0 121 0;
#X connect 118 0 125 0;
#X connect 119 0 120 0;
#X connect 120 0 117 0;
#X connect 121 0 129 0;
#X connect 122 0 104 0;
#X connect 123 0 109 0;
#X connect 124 0 114 0;
#X connect 125 0 119 0;
#X coords 0 459 1 458 220 120 0;
