#N canvas 0 25 1440 847 10;
#X obj 166 406 loadbang;
#X obj 173 635 f;
#X obj 173 614 t b b b;
#X text 273 582 INSTANCE NUMBER;
#X obj 185 516 t f f f;
#X obj 173 590 bng 15 250 50 0 empty empty empty 17 7 0 10 #fcfcfc #000000 #000000;
#X obj 173 567 r SAVE-S;
#X obj 597 671 r patch-path;
#X msg 558 736 read /Users/johannklug/Documents/Bass\ Dieter/2025/Diet/MODULAR_LIVE_\ PERFORMER/preset_projects/MOLIPE_DRUMS/statesave/1-SYKCK-ss.txt;
#X obj 215 480 s update-path;
#X msg 173 738 write /Users/johannklug/Documents/Bass\ Dieter/2025/Diet/MODULAR_LIVE_\ PERFORMER/projects/patch1/projects/statesave/2-LFO-ss.txt;
#X obj 211 656 r patch-path;
#X obj 173 656 t b f;
#X obj 558 655 f;
#X obj 558 676 t b f;
#X obj 173 832 array define \$1-presets 256;
#X text 885 427 Array - Saving Rules \; -Slot 1-16 for non-scene values \; -Each Scene has 16 slots -There are 4 Scene-Slots;
#X obj 946 652 tabread \$1-presets;
#X obj 946 595 loadbang;
#X msg 946 633 1;
#X obj 945 840 tabwrite \$1-presets;
#X obj 1056 802 loadbang;
#X obj 978 784 t b;
#X obj 945 820 spigot;
#X msg 978 803 0;
#X obj 1014 785 del 5;
#X msg 1014 804 1;
#X obj 978 764 r \$1-wait;
#X msg 1056 820 1;
#X text 946 556 Reading and writing - non scene values;
#X obj 1146 674 tabread \$1-presets;
#X obj 1146 597 loadbang;
#X obj 1145 840 tabwrite \$1-presets;
#X obj 1256 802 loadbang;
#X obj 1178 784 t b;
#X obj 1145 820 spigot;
#X msg 1178 803 0;
#X obj 1214 785 del 5;
#X msg 1214 804 1;
#X obj 1178 764 r \$1-wait;
#X msg 1146 655 2;
#X msg 1256 819 2;
#X obj 1336 674 tabread \$1-presets;
#X obj 1336 597 loadbang;
#X obj 1335 840 tabwrite \$1-presets;
#X obj 1446 802 loadbang;
#X obj 1368 784 t b;
#X obj 1335 820 spigot;
#X msg 1368 803 0;
#X obj 1404 785 del 5;
#X msg 1404 804 1;
#X obj 1368 764 r \$1-wait;
#X msg 1336 655 3;
#X msg 1446 818 3;
#X obj 946 613 t b b;
#X obj 973 633 s \$1-wait;
#X obj 1146 625 t b b;
#X obj 1173 645 s \$1-wait;
#X obj 1336 625 t b b;
#X obj 1363 645 s \$1-wait;
#X obj 945 745 r \$1-main-menu-s;
#X obj 946 670 s \$1-main-menu-r;
#X obj 1145 745 r \$1-sub-menu-s;
#X obj 1146 692 s \$1-sub-menu-r;
#X obj 1336 692 s \$1-sub2-menu-r;
#X obj 1335 745 r \$1-sub2-menu-s;
#X msg 508 471 0, f 6;
#X obj 508 489 text get \$1-modul-settings;
#X obj 183 697 pack f s s;
#X obj 569 696 pack f s s;
#X obj 276 564 s \$1-instance-num;
#X obj 276 528 makefilename %d;
#X msg 276 546 label \$1;
#X obj 166 439 t b b b b;
#X obj 281 975 r \$1-param-1-s;
#X obj 230 958 loadbang;
#X msg 230 976 1;
#X obj 230 1057 s \$1-param-1-r;
#X obj 255 1038 s \$1-param-1-r-a;
#X obj 281 1018 s \$1-param-1-r-b;
#X obj 410 958 loadbang;
#N canvas 105 70 1335 536 param 1;
#X obj 850 286 tabwrite \$1-presets;
#X obj 961 193 r gui-scene;
#X obj 961 211 * 16;
#X obj 961 266 +;
#X obj 99 285 tabread \$1-presets;
#X obj 99 169 r gui-scene;
#X obj 99 212 * 16;
#X obj 99 267 +;
#X obj 883 208 t b;
#X obj 850 264 spigot;
#X msg 883 227 0;
#X obj 919 209 del 5;
#X msg 919 228 1;
#X obj 99 189 t f b;
#X obj 129 212 s \$1-wait;
#X obj 883 188 r \$1-wait;
#X obj 1072 289 tabwrite \$1-presets;
#X obj 1183 214 * 16;
#X obj 1183 269 +;
#X text 1060 141 copy scene;
#X obj 1104 165 r copy-scene;
#X obj 1104 186 t b f;
#X obj 1072 221 f;
#X text 830 144 writing param to scene;
#X text 95 146 reading param from array to gui;
#X obj 327 305 tabread \$1-presets;
#X obj 327 210 * 16;
#X obj 327 265 +;
#X obj 327 187 t f b;
#X obj 357 210 s \$1-wait;
#X text 323 144 reading param from array to scene A;
#X obj 327 167 r a-scene;
#X obj 573 305 tabread \$1-presets;
#X obj 573 210 * 16;
#X obj 573 265 +;
#X obj 573 187 t f b;
#X obj 603 210 s \$1-wait;
#X text 567 144 reading param from array to scene B;
#X obj 573 167 r b-scene;
#X obj 327 286 f;
#X obj 353 286 t b;
#X obj 573 286 f;
#X obj 599 286 t b;
#X obj 113 -127 inlet;
#X obj 103 507 outlet;
#X obj 348 -122 inlet;
#X obj 328 502 outlet;
#X obj 574 500 outlet;
#X connect 1 0 2 0;
#X connect 2 0 3 0;
#X connect 3 0 0 1;
#X connect 4 0 44 0;
#X connect 5 0 13 0;
#X connect 6 0 7 0;
#X connect 7 0 4 0;
#X connect 8 0 10 0;
#X connect 8 0 11 0;
#X connect 9 0 0 0;
#X connect 10 0 9 1;
#X connect 11 0 12 0;
#X connect 12 0 9 1;
#X connect 13 0 6 0;
#X connect 13 1 14 0;
#X connect 15 0 8 0;
#X connect 17 0 18 0;
#X connect 18 0 16 1;
#X connect 20 0 21 0;
#X connect 21 0 22 0;
#X connect 21 1 17 0;
#X connect 22 0 16 0;
#X connect 25 0 46 0;
#X connect 26 0 27 0;
#X connect 27 0 39 0;
#X connect 28 0 26 0;
#X connect 28 1 29 0;
#X connect 31 0 28 0;
#X connect 32 0 47 0;
#X connect 33 0 34 0;
#X connect 34 0 41 0;
#X connect 35 0 33 0;
#X connect 35 1 36 0;
#X connect 38 0 35 0;
#X connect 39 0 25 0;
#X connect 40 0 39 0;
#X connect 41 0 32 0;
#X connect 42 0 41 0;
#X connect 43 0 7 1;
#X connect 43 0 27 1;
#X connect 43 0 34 1;
#X connect 43 0 3 1;
#X connect 43 0 18 1;
#X connect 45 0 40 0;
#X connect 45 0 42 0;
#X connect 45 0 9 0;
#X connect 45 0 22 1;
#X restore 230 994 pd param;
#N canvas 105 70 1335 536 param 0;
#X obj 850 286 tabwrite \$1-presets;
#X obj 961 193 r gui-scene;
#X obj 961 211 * 16;
#X obj 961 266 +;
#X obj 99 285 tabread \$1-presets;
#X obj 99 169 r gui-scene;
#X obj 99 212 * 16;
#X obj 99 267 +;
#X obj 883 208 t b;
#X obj 850 264 spigot;
#X msg 883 227 0;
#X obj 919 209 del 5;
#X msg 919 228 1;
#X obj 99 189 t f b;
#X obj 129 212 s \$1-wait;
#X obj 883 188 r \$1-wait;
#X obj 1072 289 tabwrite \$1-presets;
#X obj 1183 214 * 16;
#X obj 1183 269 +;
#X text 1060 141 copy scene;
#X obj 1104 165 r copy-scene;
#X obj 1104 186 t b f;
#X obj 1072 221 f;
#X text 830 144 writing param to scene;
#X text 95 146 reading param from array to gui;
#X obj 327 305 tabread \$1-presets;
#X obj 327 210 * 16;
#X obj 327 265 +;
#X obj 327 187 t f b;
#X obj 357 210 s \$1-wait;
#X text 323 144 reading param from array to scene A;
#X obj 327 167 r a-scene;
#X obj 573 305 tabread \$1-presets;
#X obj 573 210 * 16;
#X obj 573 265 +;
#X obj 573 187 t f b;
#X obj 603 210 s \$1-wait;
#X text 567 144 reading param from array to scene B;
#X obj 573 167 r b-scene;
#X obj 327 286 f;
#X obj 353 286 t b;
#X obj 573 286 f;
#X obj 599 286 t b;
#X obj 113 -127 inlet;
#X obj 103 507 outlet;
#X obj 348 -122 inlet;
#X obj 328 502 outlet;
#X obj 574 500 outlet;
#X connect 1 0 2 0;
#X connect 2 0 3 0;
#X connect 3 0 0 1;
#X connect 4 0 44 0;
#X connect 5 0 13 0;
#X connect 6 0 7 0;
#X connect 7 0 4 0;
#X connect 8 0 10 0;
#X connect 8 0 11 0;
#X connect 9 0 0 0;
#X connect 10 0 9 1;
#X connect 11 0 12 0;
#X connect 12 0 9 1;
#X connect 13 0 6 0;
#X connect 13 1 14 0;
#X connect 15 0 8 0;
#X connect 17 0 18 0;
#X connect 18 0 16 1;
#X connect 20 0 21 0;
#X connect 21 0 22 0;
#X connect 21 1 17 0;
#X connect 22 0 16 0;
#X connect 25 0 46 0;
#X connect 26 0 27 0;
#X connect 27 0 39 0;
#X connect 28 0 26 0;
#X connect 28 1 29 0;
#X connect 31 0 28 0;
#X connect 32 0 47 0;
#X connect 33 0 34 0;
#X connect 34 0 41 0;
#X connect 35 0 33 0;
#X connect 35 1 36 0;
#X connect 38 0 35 0;
#X connect 39 0 25 0;
#X connect 40 0 39 0;
#X connect 41 0 32 0;
#X connect 42 0 41 0;
#X connect 43 0 7 1;
#X connect 43 0 27 1;
#X connect 43 0 34 1;
#X connect 43 0 3 1;
#X connect 43 0 18 1;
#X connect 45 0 40 0;
#X connect 45 0 42 0;
#X connect 45 0 9 0;
#X connect 45 0 22 1;
#X restore 410 994 pd param;
#X msg 410 976 2;
#X obj 461 975 r \$1-param-2-s;
#X obj 461 1018 s \$1-param-2-r-b;
#X obj 435 1038 s \$1-param-2-r-a;
#X obj 410 1057 s \$1-param-2-r;
#X obj 600 958 loadbang;
#X obj 780 958 loadbang;
#N canvas 105 70 1335 536 param 0;
#X obj 850 286 tabwrite \$1-presets;
#X obj 961 193 r gui-scene;
#X obj 961 211 * 16;
#X obj 961 266 +;
#X obj 99 285 tabread \$1-presets;
#X obj 99 169 r gui-scene;
#X obj 99 212 * 16;
#X obj 99 267 +;
#X obj 883 208 t b;
#X obj 850 264 spigot;
#X msg 883 227 0;
#X obj 919 209 del 5;
#X msg 919 228 1;
#X obj 99 189 t f b;
#X obj 129 212 s \$1-wait;
#X obj 883 188 r \$1-wait;
#X obj 1072 289 tabwrite \$1-presets;
#X obj 1183 214 * 16;
#X obj 1183 269 +;
#X text 1060 141 copy scene;
#X obj 1104 165 r copy-scene;
#X obj 1104 186 t b f;
#X obj 1072 221 f;
#X text 830 144 writing param to scene;
#X text 95 146 reading param from array to gui;
#X obj 327 305 tabread \$1-presets;
#X obj 327 210 * 16;
#X obj 327 265 +;
#X obj 327 187 t f b;
#X obj 357 210 s \$1-wait;
#X text 323 144 reading param from array to scene A;
#X obj 327 167 r a-scene;
#X obj 573 305 tabread \$1-presets;
#X obj 573 210 * 16;
#X obj 573 265 +;
#X obj 573 187 t f b;
#X obj 603 210 s \$1-wait;
#X text 567 144 reading param from array to scene B;
#X obj 573 167 r b-scene;
#X obj 327 286 f;
#X obj 353 286 t b;
#X obj 573 286 f;
#X obj 599 286 t b;
#X obj 113 -127 inlet;
#X obj 103 507 outlet;
#X obj 348 -122 inlet;
#X obj 328 502 outlet;
#X obj 574 500 outlet;
#X connect 1 0 2 0;
#X connect 2 0 3 0;
#X connect 3 0 0 1;
#X connect 4 0 44 0;
#X connect 5 0 13 0;
#X connect 6 0 7 0;
#X connect 7 0 4 0;
#X connect 8 0 10 0;
#X connect 8 0 11 0;
#X connect 9 0 0 0;
#X connect 10 0 9 1;
#X connect 11 0 12 0;
#X connect 12 0 9 1;
#X connect 13 0 6 0;
#X connect 13 1 14 0;
#X connect 15 0 8 0;
#X connect 17 0 18 0;
#X connect 18 0 16 1;
#X connect 20 0 21 0;
#X connect 21 0 22 0;
#X connect 21 1 17 0;
#X connect 22 0 16 0;
#X connect 25 0 46 0;
#X connect 26 0 27 0;
#X connect 27 0 39 0;
#X connect 28 0 26 0;
#X connect 28 1 29 0;
#X connect 31 0 28 0;
#X connect 32 0 47 0;
#X connect 33 0 34 0;
#X connect 34 0 41 0;
#X connect 35 0 33 0;
#X connect 35 1 36 0;
#X connect 38 0 35 0;
#X connect 39 0 25 0;
#X connect 40 0 39 0;
#X connect 41 0 32 0;
#X connect 42 0 41 0;
#X connect 43 0 7 1;
#X connect 43 0 27 1;
#X connect 43 0 34 1;
#X connect 43 0 3 1;
#X connect 43 0 18 1;
#X connect 45 0 40 0;
#X connect 45 0 42 0;
#X connect 45 0 9 0;
#X connect 45 0 22 1;
#X restore 600 994 pd param;
#N canvas 105 70 1335 536 param 0;
#X obj 850 286 tabwrite \$1-presets;
#X obj 961 193 r gui-scene;
#X obj 961 211 * 16;
#X obj 961 266 +;
#X obj 99 285 tabread \$1-presets;
#X obj 99 169 r gui-scene;
#X obj 99 212 * 16;
#X obj 99 267 +;
#X obj 883 208 t b;
#X obj 850 264 spigot;
#X msg 883 227 0;
#X obj 919 209 del 5;
#X msg 919 228 1;
#X obj 99 189 t f b;
#X obj 129 212 s \$1-wait;
#X obj 883 188 r \$1-wait;
#X obj 1072 289 tabwrite \$1-presets;
#X obj 1183 214 * 16;
#X obj 1183 269 +;
#X text 1060 141 copy scene;
#X obj 1104 165 r copy-scene;
#X obj 1104 186 t b f;
#X obj 1072 221 f;
#X text 830 144 writing param to scene;
#X text 95 146 reading param from array to gui;
#X obj 327 305 tabread \$1-presets;
#X obj 327 210 * 16;
#X obj 327 265 +;
#X obj 327 187 t f b;
#X obj 357 210 s \$1-wait;
#X text 323 144 reading param from array to scene A;
#X obj 327 167 r a-scene;
#X obj 573 305 tabread \$1-presets;
#X obj 573 210 * 16;
#X obj 573 265 +;
#X obj 573 187 t f b;
#X obj 603 210 s \$1-wait;
#X text 567 144 reading param from array to scene B;
#X obj 573 167 r b-scene;
#X obj 327 286 f;
#X obj 353 286 t b;
#X obj 573 286 f;
#X obj 599 286 t b;
#X obj 113 -127 inlet;
#X obj 103 507 outlet;
#X obj 348 -122 inlet;
#X obj 328 502 outlet;
#X obj 574 500 outlet;
#X connect 1 0 2 0;
#X connect 2 0 3 0;
#X connect 3 0 0 1;
#X connect 4 0 44 0;
#X connect 5 0 13 0;
#X connect 6 0 7 0;
#X connect 7 0 4 0;
#X connect 8 0 10 0;
#X connect 8 0 11 0;
#X connect 9 0 0 0;
#X connect 10 0 9 1;
#X connect 11 0 12 0;
#X connect 12 0 9 1;
#X connect 13 0 6 0;
#X connect 13 1 14 0;
#X connect 15 0 8 0;
#X connect 17 0 18 0;
#X connect 18 0 16 1;
#X connect 20 0 21 0;
#X connect 21 0 22 0;
#X connect 21 1 17 0;
#X connect 22 0 16 0;
#X connect 25 0 46 0;
#X connect 26 0 27 0;
#X connect 27 0 39 0;
#X connect 28 0 26 0;
#X connect 28 1 29 0;
#X connect 31 0 28 0;
#X connect 32 0 47 0;
#X connect 33 0 34 0;
#X connect 34 0 41 0;
#X connect 35 0 33 0;
#X connect 35 1 36 0;
#X connect 38 0 35 0;
#X connect 39 0 25 0;
#X connect 40 0 39 0;
#X connect 41 0 32 0;
#X connect 42 0 41 0;
#X connect 43 0 7 1;
#X connect 43 0 27 1;
#X connect 43 0 34 1;
#X connect 43 0 3 1;
#X connect 43 0 18 1;
#X connect 45 0 40 0;
#X connect 45 0 42 0;
#X connect 45 0 9 0;
#X connect 45 0 22 1;
#X restore 780 994 pd param;
#X msg 600 976 3;
#X msg 780 976 4;
#X obj 651 975 r \$1-param-3-s;
#X obj 651 1018 s \$1-param-3-r-b;
#X obj 625 1038 s \$1-param-3-r-a;
#X obj 600 1057 s \$1-param-3-r;
#X obj 831 975 r \$1-param-4-s;
#X obj 831 1018 s \$1-param-4-r-b;
#X obj 805 1038 s \$1-param-4-r-a;
#X obj 780 1057 s \$1-param-4-r;
#X obj 230 1098 loadbang;
#X obj 410 1098 loadbang;
#N canvas 105 70 1335 536 param 0;
#X obj 850 286 tabwrite \$1-presets;
#X obj 961 193 r gui-scene;
#X obj 961 211 * 16;
#X obj 961 266 +;
#X obj 99 285 tabread \$1-presets;
#X obj 99 169 r gui-scene;
#X obj 99 212 * 16;
#X obj 99 267 +;
#X obj 883 208 t b;
#X obj 850 264 spigot;
#X msg 883 227 0;
#X obj 919 209 del 5;
#X msg 919 228 1;
#X obj 99 189 t f b;
#X obj 129 212 s \$1-wait;
#X obj 883 188 r \$1-wait;
#X obj 1072 289 tabwrite \$1-presets;
#X obj 1183 214 * 16;
#X obj 1183 269 +;
#X text 1060 141 copy scene;
#X obj 1104 165 r copy-scene;
#X obj 1104 186 t b f;
#X obj 1072 221 f;
#X text 830 144 writing param to scene;
#X text 95 146 reading param from array to gui;
#X obj 327 305 tabread \$1-presets;
#X obj 327 210 * 16;
#X obj 327 265 +;
#X obj 327 187 t f b;
#X obj 357 210 s \$1-wait;
#X text 323 144 reading param from array to scene A;
#X obj 327 167 r a-scene;
#X obj 573 305 tabread \$1-presets;
#X obj 573 210 * 16;
#X obj 573 265 +;
#X obj 573 187 t f b;
#X obj 603 210 s \$1-wait;
#X text 567 144 reading param from array to scene B;
#X obj 573 167 r b-scene;
#X obj 327 286 f;
#X obj 353 286 t b;
#X obj 573 286 f;
#X obj 599 286 t b;
#X obj 113 -127 inlet;
#X obj 103 507 outlet;
#X obj 348 -122 inlet;
#X obj 328 502 outlet;
#X obj 574 500 outlet;
#X connect 1 0 2 0;
#X connect 2 0 3 0;
#X connect 3 0 0 1;
#X connect 4 0 44 0;
#X connect 5 0 13 0;
#X connect 6 0 7 0;
#X connect 7 0 4 0;
#X connect 8 0 10 0;
#X connect 8 0 11 0;
#X connect 9 0 0 0;
#X connect 10 0 9 1;
#X connect 11 0 12 0;
#X connect 12 0 9 1;
#X connect 13 0 6 0;
#X connect 13 1 14 0;
#X connect 15 0 8 0;
#X connect 17 0 18 0;
#X connect 18 0 16 1;
#X connect 20 0 21 0;
#X connect 21 0 22 0;
#X connect 21 1 17 0;
#X connect 22 0 16 0;
#X connect 25 0 46 0;
#X connect 26 0 27 0;
#X connect 27 0 39 0;
#X connect 28 0 26 0;
#X connect 28 1 29 0;
#X connect 31 0 28 0;
#X connect 32 0 47 0;
#X connect 33 0 34 0;
#X connect 34 0 41 0;
#X connect 35 0 33 0;
#X connect 35 1 36 0;
#X connect 38 0 35 0;
#X connect 39 0 25 0;
#X connect 40 0 39 0;
#X connect 41 0 32 0;
#X connect 42 0 41 0;
#X connect 43 0 7 1;
#X connect 43 0 27 1;
#X connect 43 0 34 1;
#X connect 43 0 3 1;
#X connect 43 0 18 1;
#X connect 45 0 40 0;
#X connect 45 0 42 0;
#X connect 45 0 9 0;
#X connect 45 0 22 1;
#X restore 230 1134 pd param;
#N canvas 105 70 1335 536 param 0;
#X obj 850 286 tabwrite \$1-presets;
#X obj 961 193 r gui-scene;
#X obj 961 211 * 16;
#X obj 961 266 +;
#X obj 99 285 tabread \$1-presets;
#X obj 99 169 r gui-scene;
#X obj 99 212 * 16;
#X obj 99 267 +;
#X obj 883 208 t b;
#X obj 850 264 spigot;
#X msg 883 227 0;
#X obj 919 209 del 5;
#X msg 919 228 1;
#X obj 99 189 t f b;
#X obj 129 212 s \$1-wait;
#X obj 883 188 r \$1-wait;
#X obj 1072 289 tabwrite \$1-presets;
#X obj 1183 214 * 16;
#X obj 1183 269 +;
#X text 1060 141 copy scene;
#X obj 1104 165 r copy-scene;
#X obj 1104 186 t b f;
#X obj 1072 221 f;
#X text 830 144 writing param to scene;
#X text 95 146 reading param from array to gui;
#X obj 327 305 tabread \$1-presets;
#X obj 327 210 * 16;
#X obj 327 265 +;
#X obj 327 187 t f b;
#X obj 357 210 s \$1-wait;
#X text 323 144 reading param from array to scene A;
#X obj 327 167 r a-scene;
#X obj 573 305 tabread \$1-presets;
#X obj 573 210 * 16;
#X obj 573 265 +;
#X obj 573 187 t f b;
#X obj 603 210 s \$1-wait;
#X text 567 144 reading param from array to scene B;
#X obj 573 167 r b-scene;
#X obj 327 286 f;
#X obj 353 286 t b;
#X obj 573 286 f;
#X obj 599 286 t b;
#X obj 113 -127 inlet;
#X obj 103 507 outlet;
#X obj 348 -122 inlet;
#X obj 328 502 outlet;
#X obj 574 500 outlet;
#X connect 1 0 2 0;
#X connect 2 0 3 0;
#X connect 3 0 0 1;
#X connect 4 0 44 0;
#X connect 5 0 13 0;
#X connect 6 0 7 0;
#X connect 7 0 4 0;
#X connect 8 0 10 0;
#X connect 8 0 11 0;
#X connect 9 0 0 0;
#X connect 10 0 9 1;
#X connect 11 0 12 0;
#X connect 12 0 9 1;
#X connect 13 0 6 0;
#X connect 13 1 14 0;
#X connect 15 0 8 0;
#X connect 17 0 18 0;
#X connect 18 0 16 1;
#X connect 20 0 21 0;
#X connect 21 0 22 0;
#X connect 21 1 17 0;
#X connect 22 0 16 0;
#X connect 25 0 46 0;
#X connect 26 0 27 0;
#X connect 27 0 39 0;
#X connect 28 0 26 0;
#X connect 28 1 29 0;
#X connect 31 0 28 0;
#X connect 32 0 47 0;
#X connect 33 0 34 0;
#X connect 34 0 41 0;
#X connect 35 0 33 0;
#X connect 35 1 36 0;
#X connect 38 0 35 0;
#X connect 39 0 25 0;
#X connect 40 0 39 0;
#X connect 41 0 32 0;
#X connect 42 0 41 0;
#X connect 43 0 7 1;
#X connect 43 0 27 1;
#X connect 43 0 34 1;
#X connect 43 0 3 1;
#X connect 43 0 18 1;
#X connect 45 0 40 0;
#X connect 45 0 42 0;
#X connect 45 0 9 0;
#X connect 45 0 22 1;
#X restore 410 1134 pd param;
#X obj 600 1098 loadbang;
#X obj 780 1098 loadbang;
#N canvas 105 70 1335 536 param 0;
#X obj 850 286 tabwrite \$1-presets;
#X obj 961 193 r gui-scene;
#X obj 961 211 * 16;
#X obj 961 266 +;
#X obj 99 285 tabread \$1-presets;
#X obj 99 169 r gui-scene;
#X obj 99 212 * 16;
#X obj 99 267 +;
#X obj 883 208 t b;
#X obj 850 264 spigot;
#X msg 883 227 0;
#X obj 919 209 del 5;
#X msg 919 228 1;
#X obj 99 189 t f b;
#X obj 129 212 s \$1-wait;
#X obj 883 188 r \$1-wait;
#X obj 1072 289 tabwrite \$1-presets;
#X obj 1183 214 * 16;
#X obj 1183 269 +;
#X text 1060 141 copy scene;
#X obj 1104 165 r copy-scene;
#X obj 1104 186 t b f;
#X obj 1072 221 f;
#X text 830 144 writing param to scene;
#X text 95 146 reading param from array to gui;
#X obj 327 305 tabread \$1-presets;
#X obj 327 210 * 16;
#X obj 327 265 +;
#X obj 327 187 t f b;
#X obj 357 210 s \$1-wait;
#X text 323 144 reading param from array to scene A;
#X obj 327 167 r a-scene;
#X obj 573 305 tabread \$1-presets;
#X obj 573 210 * 16;
#X obj 573 265 +;
#X obj 573 187 t f b;
#X obj 603 210 s \$1-wait;
#X text 567 144 reading param from array to scene B;
#X obj 573 167 r b-scene;
#X obj 327 286 f;
#X obj 353 286 t b;
#X obj 573 286 f;
#X obj 599 286 t b;
#X obj 113 -127 inlet;
#X obj 103 507 outlet;
#X obj 348 -122 inlet;
#X obj 328 502 outlet;
#X obj 574 500 outlet;
#X connect 1 0 2 0;
#X connect 2 0 3 0;
#X connect 3 0 0 1;
#X connect 4 0 44 0;
#X connect 5 0 13 0;
#X connect 6 0 7 0;
#X connect 7 0 4 0;
#X connect 8 0 10 0;
#X connect 8 0 11 0;
#X connect 9 0 0 0;
#X connect 10 0 9 1;
#X connect 11 0 12 0;
#X connect 12 0 9 1;
#X connect 13 0 6 0;
#X connect 13 1 14 0;
#X connect 15 0 8 0;
#X connect 17 0 18 0;
#X connect 18 0 16 1;
#X connect 20 0 21 0;
#X connect 21 0 22 0;
#X connect 21 1 17 0;
#X connect 22 0 16 0;
#X connect 25 0 46 0;
#X connect 26 0 27 0;
#X connect 27 0 39 0;
#X connect 28 0 26 0;
#X connect 28 1 29 0;
#X connect 31 0 28 0;
#X connect 32 0 47 0;
#X connect 33 0 34 0;
#X connect 34 0 41 0;
#X connect 35 0 33 0;
#X connect 35 1 36 0;
#X connect 38 0 35 0;
#X connect 39 0 25 0;
#X connect 40 0 39 0;
#X connect 41 0 32 0;
#X connect 42 0 41 0;
#X connect 43 0 7 1;
#X connect 43 0 27 1;
#X connect 43 0 34 1;
#X connect 43 0 3 1;
#X connect 43 0 18 1;
#X connect 45 0 40 0;
#X connect 45 0 42 0;
#X connect 45 0 9 0;
#X connect 45 0 22 1;
#X restore 600 1134 pd param;
#N canvas 105 70 1335 536 param 0;
#X obj 850 286 tabwrite \$1-presets;
#X obj 961 193 r gui-scene;
#X obj 961 211 * 16;
#X obj 961 266 +;
#X obj 99 285 tabread \$1-presets;
#X obj 99 169 r gui-scene;
#X obj 99 212 * 16;
#X obj 99 267 +;
#X obj 883 208 t b;
#X obj 850 264 spigot;
#X msg 883 227 0;
#X obj 919 209 del 5;
#X msg 919 228 1;
#X obj 99 189 t f b;
#X obj 129 212 s \$1-wait;
#X obj 883 188 r \$1-wait;
#X obj 1072 289 tabwrite \$1-presets;
#X obj 1183 214 * 16;
#X obj 1183 269 +;
#X text 1060 141 copy scene;
#X obj 1104 165 r copy-scene;
#X obj 1104 186 t b f;
#X obj 1072 221 f;
#X text 830 144 writing param to scene;
#X text 95 146 reading param from array to gui;
#X obj 327 305 tabread \$1-presets;
#X obj 327 210 * 16;
#X obj 327 265 +;
#X obj 327 187 t f b;
#X obj 357 210 s \$1-wait;
#X text 323 144 reading param from array to scene A;
#X obj 327 167 r a-scene;
#X obj 573 305 tabread \$1-presets;
#X obj 573 210 * 16;
#X obj 573 265 +;
#X obj 573 187 t f b;
#X obj 603 210 s \$1-wait;
#X text 567 144 reading param from array to scene B;
#X obj 573 167 r b-scene;
#X obj 327 286 f;
#X obj 353 286 t b;
#X obj 573 286 f;
#X obj 599 286 t b;
#X obj 113 -127 inlet;
#X obj 103 507 outlet;
#X obj 348 -122 inlet;
#X obj 328 502 outlet;
#X obj 574 500 outlet;
#X connect 1 0 2 0;
#X connect 2 0 3 0;
#X connect 3 0 0 1;
#X connect 4 0 44 0;
#X connect 5 0 13 0;
#X connect 6 0 7 0;
#X connect 7 0 4 0;
#X connect 8 0 10 0;
#X connect 8 0 11 0;
#X connect 9 0 0 0;
#X connect 10 0 9 1;
#X connect 11 0 12 0;
#X connect 12 0 9 1;
#X connect 13 0 6 0;
#X connect 13 1 14 0;
#X connect 15 0 8 0;
#X connect 17 0 18 0;
#X connect 18 0 16 1;
#X connect 20 0 21 0;
#X connect 21 0 22 0;
#X connect 21 1 17 0;
#X connect 22 0 16 0;
#X connect 25 0 46 0;
#X connect 26 0 27 0;
#X connect 27 0 39 0;
#X connect 28 0 26 0;
#X connect 28 1 29 0;
#X connect 31 0 28 0;
#X connect 32 0 47 0;
#X connect 33 0 34 0;
#X connect 34 0 41 0;
#X connect 35 0 33 0;
#X connect 35 1 36 0;
#X connect 38 0 35 0;
#X connect 39 0 25 0;
#X connect 40 0 39 0;
#X connect 41 0 32 0;
#X connect 42 0 41 0;
#X connect 43 0 7 1;
#X connect 43 0 27 1;
#X connect 43 0 34 1;
#X connect 43 0 3 1;
#X connect 43 0 18 1;
#X connect 45 0 40 0;
#X connect 45 0 42 0;
#X connect 45 0 9 0;
#X connect 45 0 22 1;
#X restore 780 1134 pd param;
#X msg 230 1116 5;
#X obj 281 1115 r \$1-param-5-s;
#X obj 281 1158 s \$1-param-5-r-b;
#X obj 255 1178 s \$1-param-5-r-a;
#X obj 230 1197 s \$1-param-5-r;
#X msg 410 1116 6;
#X obj 461 1115 r \$1-param-6-s;
#X obj 461 1158 s \$1-param-6-r-b;
#X obj 435 1178 s \$1-param-6-r-a;
#X obj 410 1197 s \$1-param-6-r;
#X msg 600 1116 7;
#X obj 651 1115 r \$1-param-7-s;
#X obj 651 1158 s \$1-param-7-r-b;
#X obj 625 1178 s \$1-param-7-r-a;
#X obj 600 1197 s \$1-param-7-r;
#X msg 780 1116 8;
#X obj 831 1115 r \$1-param-8-s;
#X obj 831 1158 s \$1-param-8-r-b;
#X obj 805 1178 s \$1-param-8-r-a;
#X obj 780 1197 s \$1-param-8-r;
#X obj 230 1238 loadbang;
#X obj 410 1238 loadbang;
#N canvas 105 70 1335 536 param 0;
#X obj 850 286 tabwrite \$1-presets;
#X obj 961 193 r gui-scene;
#X obj 961 211 * 16;
#X obj 961 266 +;
#X obj 99 285 tabread \$1-presets;
#X obj 99 169 r gui-scene;
#X obj 99 212 * 16;
#X obj 99 267 +;
#X obj 883 208 t b;
#X obj 850 264 spigot;
#X msg 883 227 0;
#X obj 919 209 del 5;
#X msg 919 228 1;
#X obj 99 189 t f b;
#X obj 129 212 s \$1-wait;
#X obj 883 188 r \$1-wait;
#X obj 1072 289 tabwrite \$1-presets;
#X obj 1183 214 * 16;
#X obj 1183 269 +;
#X text 1060 141 copy scene;
#X obj 1104 165 r copy-scene;
#X obj 1104 186 t b f;
#X obj 1072 221 f;
#X text 830 144 writing param to scene;
#X text 95 146 reading param from array to gui;
#X obj 327 305 tabread \$1-presets;
#X obj 327 210 * 16;
#X obj 327 265 +;
#X obj 327 187 t f b;
#X obj 357 210 s \$1-wait;
#X text 323 144 reading param from array to scene A;
#X obj 327 167 r a-scene;
#X obj 573 305 tabread \$1-presets;
#X obj 573 210 * 16;
#X obj 573 265 +;
#X obj 573 187 t f b;
#X obj 603 210 s \$1-wait;
#X text 567 144 reading param from array to scene B;
#X obj 573 167 r b-scene;
#X obj 327 286 f;
#X obj 353 286 t b;
#X obj 573 286 f;
#X obj 599 286 t b;
#X obj 113 -127 inlet;
#X obj 103 507 outlet;
#X obj 348 -122 inlet;
#X obj 328 502 outlet;
#X obj 574 500 outlet;
#X connect 1 0 2 0;
#X connect 2 0 3 0;
#X connect 3 0 0 1;
#X connect 4 0 44 0;
#X connect 5 0 13 0;
#X connect 6 0 7 0;
#X connect 7 0 4 0;
#X connect 8 0 10 0;
#X connect 8 0 11 0;
#X connect 9 0 0 0;
#X connect 10 0 9 1;
#X connect 11 0 12 0;
#X connect 12 0 9 1;
#X connect 13 0 6 0;
#X connect 13 1 14 0;
#X connect 15 0 8 0;
#X connect 17 0 18 0;
#X connect 18 0 16 1;
#X connect 20 0 21 0;
#X connect 21 0 22 0;
#X connect 21 1 17 0;
#X connect 22 0 16 0;
#X connect 25 0 46 0;
#X connect 26 0 27 0;
#X connect 27 0 39 0;
#X connect 28 0 26 0;
#X connect 28 1 29 0;
#X connect 31 0 28 0;
#X connect 32 0 47 0;
#X connect 33 0 34 0;
#X connect 34 0 41 0;
#X connect 35 0 33 0;
#X connect 35 1 36 0;
#X connect 38 0 35 0;
#X connect 39 0 25 0;
#X connect 40 0 39 0;
#X connect 41 0 32 0;
#X connect 42 0 41 0;
#X connect 43 0 7 1;
#X connect 43 0 27 1;
#X connect 43 0 34 1;
#X connect 43 0 3 1;
#X connect 43 0 18 1;
#X connect 45 0 40 0;
#X connect 45 0 42 0;
#X connect 45 0 9 0;
#X connect 45 0 22 1;
#X restore 230 1274 pd param;
#N canvas 105 70 1335 536 param 0;
#X obj 850 286 tabwrite \$1-presets;
#X obj 961 193 r gui-scene;
#X obj 961 211 * 16;
#X obj 961 266 +;
#X obj 99 285 tabread \$1-presets;
#X obj 99 169 r gui-scene;
#X obj 99 212 * 16;
#X obj 99 267 +;
#X obj 883 208 t b;
#X obj 850 264 spigot;
#X msg 883 227 0;
#X obj 919 209 del 5;
#X msg 919 228 1;
#X obj 99 189 t f b;
#X obj 129 212 s \$1-wait;
#X obj 883 188 r \$1-wait;
#X obj 1072 289 tabwrite \$1-presets;
#X obj 1183 214 * 16;
#X obj 1183 269 +;
#X text 1060 141 copy scene;
#X obj 1104 165 r copy-scene;
#X obj 1104 186 t b f;
#X obj 1072 221 f;
#X text 830 144 writing param to scene;
#X text 95 146 reading param from array to gui;
#X obj 327 305 tabread \$1-presets;
#X obj 327 210 * 16;
#X obj 327 265 +;
#X obj 327 187 t f b;
#X obj 357 210 s \$1-wait;
#X text 323 144 reading param from array to scene A;
#X obj 327 167 r a-scene;
#X obj 573 305 tabread \$1-presets;
#X obj 573 210 * 16;
#X obj 573 265 +;
#X obj 573 187 t f b;
#X obj 603 210 s \$1-wait;
#X text 567 144 reading param from array to scene B;
#X obj 573 167 r b-scene;
#X obj 327 286 f;
#X obj 353 286 t b;
#X obj 573 286 f;
#X obj 599 286 t b;
#X obj 113 -127 inlet;
#X obj 103 507 outlet;
#X obj 348 -122 inlet;
#X obj 328 502 outlet;
#X obj 574 500 outlet;
#X connect 1 0 2 0;
#X connect 2 0 3 0;
#X connect 3 0 0 1;
#X connect 4 0 44 0;
#X connect 5 0 13 0;
#X connect 6 0 7 0;
#X connect 7 0 4 0;
#X connect 8 0 10 0;
#X connect 8 0 11 0;
#X connect 9 0 0 0;
#X connect 10 0 9 1;
#X connect 11 0 12 0;
#X connect 12 0 9 1;
#X connect 13 0 6 0;
#X connect 13 1 14 0;
#X connect 15 0 8 0;
#X connect 17 0 18 0;
#X connect 18 0 16 1;
#X connect 20 0 21 0;
#X connect 21 0 22 0;
#X connect 21 1 17 0;
#X connect 22 0 16 0;
#X connect 25 0 46 0;
#X connect 26 0 27 0;
#X connect 27 0 39 0;
#X connect 28 0 26 0;
#X connect 28 1 29 0;
#X connect 31 0 28 0;
#X connect 32 0 47 0;
#X connect 33 0 34 0;
#X connect 34 0 41 0;
#X connect 35 0 33 0;
#X connect 35 1 36 0;
#X connect 38 0 35 0;
#X connect 39 0 25 0;
#X connect 40 0 39 0;
#X connect 41 0 32 0;
#X connect 42 0 41 0;
#X connect 43 0 7 1;
#X connect 43 0 27 1;
#X connect 43 0 34 1;
#X connect 43 0 3 1;
#X connect 43 0 18 1;
#X connect 45 0 40 0;
#X connect 45 0 42 0;
#X connect 45 0 9 0;
#X connect 45 0 22 1;
#X restore 410 1274 pd param;
#X obj 600 1238 loadbang;
#X obj 780 1238 loadbang;
#N canvas 105 70 1335 536 param 0;
#X obj 850 286 tabwrite \$1-presets;
#X obj 961 193 r gui-scene;
#X obj 961 211 * 16;
#X obj 961 266 +;
#X obj 99 285 tabread \$1-presets;
#X obj 99 169 r gui-scene;
#X obj 99 212 * 16;
#X obj 99 267 +;
#X obj 883 208 t b;
#X obj 850 264 spigot;
#X msg 883 227 0;
#X obj 919 209 del 5;
#X msg 919 228 1;
#X obj 99 189 t f b;
#X obj 129 212 s \$1-wait;
#X obj 883 188 r \$1-wait;
#X obj 1072 289 tabwrite \$1-presets;
#X obj 1183 214 * 16;
#X obj 1183 269 +;
#X text 1060 141 copy scene;
#X obj 1104 165 r copy-scene;
#X obj 1104 186 t b f;
#X obj 1072 221 f;
#X text 830 144 writing param to scene;
#X text 95 146 reading param from array to gui;
#X obj 327 305 tabread \$1-presets;
#X obj 327 210 * 16;
#X obj 327 265 +;
#X obj 327 187 t f b;
#X obj 357 210 s \$1-wait;
#X text 323 144 reading param from array to scene A;
#X obj 327 167 r a-scene;
#X obj 573 305 tabread \$1-presets;
#X obj 573 210 * 16;
#X obj 573 265 +;
#X obj 573 187 t f b;
#X obj 603 210 s \$1-wait;
#X text 567 144 reading param from array to scene B;
#X obj 573 167 r b-scene;
#X obj 327 286 f;
#X obj 353 286 t b;
#X obj 573 286 f;
#X obj 599 286 t b;
#X obj 113 -127 inlet;
#X obj 103 507 outlet;
#X obj 348 -122 inlet;
#X obj 328 502 outlet;
#X obj 574 500 outlet;
#X connect 1 0 2 0;
#X connect 2 0 3 0;
#X connect 3 0 0 1;
#X connect 4 0 44 0;
#X connect 5 0 13 0;
#X connect 6 0 7 0;
#X connect 7 0 4 0;
#X connect 8 0 10 0;
#X connect 8 0 11 0;
#X connect 9 0 0 0;
#X connect 10 0 9 1;
#X connect 11 0 12 0;
#X connect 12 0 9 1;
#X connect 13 0 6 0;
#X connect 13 1 14 0;
#X connect 15 0 8 0;
#X connect 17 0 18 0;
#X connect 18 0 16 1;
#X connect 20 0 21 0;
#X connect 21 0 22 0;
#X connect 21 1 17 0;
#X connect 22 0 16 0;
#X connect 25 0 46 0;
#X connect 26 0 27 0;
#X connect 27 0 39 0;
#X connect 28 0 26 0;
#X connect 28 1 29 0;
#X connect 31 0 28 0;
#X connect 32 0 47 0;
#X connect 33 0 34 0;
#X connect 34 0 41 0;
#X connect 35 0 33 0;
#X connect 35 1 36 0;
#X connect 38 0 35 0;
#X connect 39 0 25 0;
#X connect 40 0 39 0;
#X connect 41 0 32 0;
#X connect 42 0 41 0;
#X connect 43 0 7 1;
#X connect 43 0 27 1;
#X connect 43 0 34 1;
#X connect 43 0 3 1;
#X connect 43 0 18 1;
#X connect 45 0 40 0;
#X connect 45 0 42 0;
#X connect 45 0 9 0;
#X connect 45 0 22 1;
#X restore 600 1274 pd param;
#N canvas 105 70 1335 536 param 0;
#X obj 850 286 tabwrite \$1-presets;
#X obj 961 193 r gui-scene;
#X obj 961 211 * 16;
#X obj 961 266 +;
#X obj 99 285 tabread \$1-presets;
#X obj 99 169 r gui-scene;
#X obj 99 212 * 16;
#X obj 99 267 +;
#X obj 883 208 t b;
#X obj 850 264 spigot;
#X msg 883 227 0;
#X obj 919 209 del 5;
#X msg 919 228 1;
#X obj 99 189 t f b;
#X obj 129 212 s \$1-wait;
#X obj 883 188 r \$1-wait;
#X obj 1072 289 tabwrite \$1-presets;
#X obj 1183 214 * 16;
#X obj 1183 269 +;
#X text 1060 141 copy scene;
#X obj 1104 165 r copy-scene;
#X obj 1104 186 t b f;
#X obj 1072 221 f;
#X text 830 144 writing param to scene;
#X text 95 146 reading param from array to gui;
#X obj 327 305 tabread \$1-presets;
#X obj 327 210 * 16;
#X obj 327 265 +;
#X obj 327 187 t f b;
#X obj 357 210 s \$1-wait;
#X text 323 144 reading param from array to scene A;
#X obj 327 167 r a-scene;
#X obj 573 305 tabread \$1-presets;
#X obj 573 210 * 16;
#X obj 573 265 +;
#X obj 573 187 t f b;
#X obj 603 210 s \$1-wait;
#X text 567 144 reading param from array to scene B;
#X obj 573 167 r b-scene;
#X obj 327 286 f;
#X obj 353 286 t b;
#X obj 573 286 f;
#X obj 599 286 t b;
#X obj 113 -127 inlet;
#X obj 103 507 outlet;
#X obj 348 -122 inlet;
#X obj 328 502 outlet;
#X obj 574 500 outlet;
#X connect 1 0 2 0;
#X connect 2 0 3 0;
#X connect 3 0 0 1;
#X connect 4 0 44 0;
#X connect 5 0 13 0;
#X connect 6 0 7 0;
#X connect 7 0 4 0;
#X connect 8 0 10 0;
#X connect 8 0 11 0;
#X connect 9 0 0 0;
#X connect 10 0 9 1;
#X connect 11 0 12 0;
#X connect 12 0 9 1;
#X connect 13 0 6 0;
#X connect 13 1 14 0;
#X connect 15 0 8 0;
#X connect 17 0 18 0;
#X connect 18 0 16 1;
#X connect 20 0 21 0;
#X connect 21 0 22 0;
#X connect 21 1 17 0;
#X connect 22 0 16 0;
#X connect 25 0 46 0;
#X connect 26 0 27 0;
#X connect 27 0 39 0;
#X connect 28 0 26 0;
#X connect 28 1 29 0;
#X connect 31 0 28 0;
#X connect 32 0 47 0;
#X connect 33 0 34 0;
#X connect 34 0 41 0;
#X connect 35 0 33 0;
#X connect 35 1 36 0;
#X connect 38 0 35 0;
#X connect 39 0 25 0;
#X connect 40 0 39 0;
#X connect 41 0 32 0;
#X connect 42 0 41 0;
#X connect 43 0 7 1;
#X connect 43 0 27 1;
#X connect 43 0 34 1;
#X connect 43 0 3 1;
#X connect 43 0 18 1;
#X connect 45 0 40 0;
#X connect 45 0 42 0;
#X connect 45 0 9 0;
#X connect 45 0 22 1;
#X restore 780 1274 pd param;
#X msg 230 1256 9;
#X obj 281 1255 r \$1-param-9-s;
#X obj 281 1298 s \$1-param-9-r-b;
#X obj 255 1318 s \$1-param-9-r-a;
#X obj 230 1337 s \$1-param-9-r;
#X msg 410 1256 10;
#X obj 461 1255 r \$1-param-10-s;
#X obj 461 1298 s \$1-param-10-r-b;
#X obj 435 1318 s \$1-param-10-r-a;
#X obj 410 1337 s \$1-param-10-r;
#X msg 600 1256 11;
#X obj 651 1255 r \$1-param-11-s;
#X obj 651 1298 s \$1-param-11-r-b;
#X obj 625 1318 s \$1-param-11-r-a;
#X obj 600 1337 s \$1-param-11-r;
#X msg 780 1256 12;
#X obj 831 1255 r \$1-param-12-s;
#X obj 831 1299 s \$1-param-12-r-b;
#X obj 805 1318 s \$1-param-12-r-a;
#X obj 780 1337 s \$1-param-12-r;
#X obj 230 1381 loadbang;
#X obj 410 1381 loadbang;
#N canvas 105 70 1335 536 param 0;
#X obj 850 286 tabwrite \$1-presets;
#X obj 961 193 r gui-scene;
#X obj 961 211 * 16;
#X obj 961 266 +;
#X obj 99 285 tabread \$1-presets;
#X obj 99 169 r gui-scene;
#X obj 99 212 * 16;
#X obj 99 267 +;
#X obj 883 208 t b;
#X obj 850 264 spigot;
#X msg 883 227 0;
#X obj 919 209 del 5;
#X msg 919 228 1;
#X obj 99 189 t f b;
#X obj 129 212 s \$1-wait;
#X obj 883 188 r \$1-wait;
#X obj 1072 289 tabwrite \$1-presets;
#X obj 1183 214 * 16;
#X obj 1183 269 +;
#X text 1060 141 copy scene;
#X obj 1104 165 r copy-scene;
#X obj 1104 186 t b f;
#X obj 1072 221 f;
#X text 830 144 writing param to scene;
#X text 95 146 reading param from array to gui;
#X obj 327 305 tabread \$1-presets;
#X obj 327 210 * 16;
#X obj 327 265 +;
#X obj 327 187 t f b;
#X obj 357 210 s \$1-wait;
#X text 323 144 reading param from array to scene A;
#X obj 327 167 r a-scene;
#X obj 573 305 tabread \$1-presets;
#X obj 573 210 * 16;
#X obj 573 265 +;
#X obj 573 187 t f b;
#X obj 603 210 s \$1-wait;
#X text 567 144 reading param from array to scene B;
#X obj 573 167 r b-scene;
#X obj 327 286 f;
#X obj 353 286 t b;
#X obj 573 286 f;
#X obj 599 286 t b;
#X obj 113 -127 inlet;
#X obj 103 507 outlet;
#X obj 348 -122 inlet;
#X obj 328 502 outlet;
#X obj 574 500 outlet;
#X connect 1 0 2 0;
#X connect 2 0 3 0;
#X connect 3 0 0 1;
#X connect 4 0 44 0;
#X connect 5 0 13 0;
#X connect 6 0 7 0;
#X connect 7 0 4 0;
#X connect 8 0 10 0;
#X connect 8 0 11 0;
#X connect 9 0 0 0;
#X connect 10 0 9 1;
#X connect 11 0 12 0;
#X connect 12 0 9 1;
#X connect 13 0 6 0;
#X connect 13 1 14 0;
#X connect 15 0 8 0;
#X connect 17 0 18 0;
#X connect 18 0 16 1;
#X connect 20 0 21 0;
#X connect 21 0 22 0;
#X connect 21 1 17 0;
#X connect 22 0 16 0;
#X connect 25 0 46 0;
#X connect 26 0 27 0;
#X connect 27 0 39 0;
#X connect 28 0 26 0;
#X connect 28 1 29 0;
#X connect 31 0 28 0;
#X connect 32 0 47 0;
#X connect 33 0 34 0;
#X connect 34 0 41 0;
#X connect 35 0 33 0;
#X connect 35 1 36 0;
#X connect 38 0 35 0;
#X connect 39 0 25 0;
#X connect 40 0 39 0;
#X connect 41 0 32 0;
#X connect 42 0 41 0;
#X connect 43 0 7 1;
#X connect 43 0 27 1;
#X connect 43 0 34 1;
#X connect 43 0 3 1;
#X connect 43 0 18 1;
#X connect 45 0 40 0;
#X connect 45 0 42 0;
#X connect 45 0 9 0;
#X connect 45 0 22 1;
#X restore 230 1417 pd param;
#N canvas 105 70 1335 536 param 0;
#X obj 850 286 tabwrite \$1-presets;
#X obj 961 193 r gui-scene;
#X obj 961 211 * 16;
#X obj 961 266 +;
#X obj 99 285 tabread \$1-presets;
#X obj 99 169 r gui-scene;
#X obj 99 212 * 16;
#X obj 99 267 +;
#X obj 883 208 t b;
#X obj 850 264 spigot;
#X msg 883 227 0;
#X obj 919 209 del 5;
#X msg 919 228 1;
#X obj 99 189 t f b;
#X obj 129 212 s \$1-wait;
#X obj 883 188 r \$1-wait;
#X obj 1072 289 tabwrite \$1-presets;
#X obj 1183 214 * 16;
#X obj 1183 269 +;
#X text 1060 141 copy scene;
#X obj 1104 165 r copy-scene;
#X obj 1104 186 t b f;
#X obj 1072 221 f;
#X text 830 144 writing param to scene;
#X text 95 146 reading param from array to gui;
#X obj 327 305 tabread \$1-presets;
#X obj 327 210 * 16;
#X obj 327 265 +;
#X obj 327 187 t f b;
#X obj 357 210 s \$1-wait;
#X text 323 144 reading param from array to scene A;
#X obj 327 167 r a-scene;
#X obj 573 305 tabread \$1-presets;
#X obj 573 210 * 16;
#X obj 573 265 +;
#X obj 573 187 t f b;
#X obj 603 210 s \$1-wait;
#X text 567 144 reading param from array to scene B;
#X obj 573 167 r b-scene;
#X obj 327 286 f;
#X obj 353 286 t b;
#X obj 573 286 f;
#X obj 599 286 t b;
#X obj 113 -127 inlet;
#X obj 103 507 outlet;
#X obj 348 -122 inlet;
#X obj 328 502 outlet;
#X obj 574 500 outlet;
#X connect 1 0 2 0;
#X connect 2 0 3 0;
#X connect 3 0 0 1;
#X connect 4 0 44 0;
#X connect 5 0 13 0;
#X connect 6 0 7 0;
#X connect 7 0 4 0;
#X connect 8 0 10 0;
#X connect 8 0 11 0;
#X connect 9 0 0 0;
#X connect 10 0 9 1;
#X connect 11 0 12 0;
#X connect 12 0 9 1;
#X connect 13 0 6 0;
#X connect 13 1 14 0;
#X connect 15 0 8 0;
#X connect 17 0 18 0;
#X connect 18 0 16 1;
#X connect 20 0 21 0;
#X connect 21 0 22 0;
#X connect 21 1 17 0;
#X connect 22 0 16 0;
#X connect 25 0 46 0;
#X connect 26 0 27 0;
#X connect 27 0 39 0;
#X connect 28 0 26 0;
#X connect 28 1 29 0;
#X connect 31 0 28 0;
#X connect 32 0 47 0;
#X connect 33 0 34 0;
#X connect 34 0 41 0;
#X connect 35 0 33 0;
#X connect 35 1 36 0;
#X connect 38 0 35 0;
#X connect 39 0 25 0;
#X connect 40 0 39 0;
#X connect 41 0 32 0;
#X connect 42 0 41 0;
#X connect 43 0 7 1;
#X connect 43 0 27 1;
#X connect 43 0 34 1;
#X connect 43 0 3 1;
#X connect 43 0 18 1;
#X connect 45 0 40 0;
#X connect 45 0 42 0;
#X connect 45 0 9 0;
#X connect 45 0 22 1;
#X restore 410 1417 pd param;
#X obj 600 1381 loadbang;
#X obj 780 1381 loadbang;
#N canvas 105 70 1335 536 param 0;
#X obj 850 286 tabwrite \$1-presets;
#X obj 961 193 r gui-scene;
#X obj 961 211 * 16;
#X obj 961 266 +;
#X obj 99 285 tabread \$1-presets;
#X obj 99 169 r gui-scene;
#X obj 99 212 * 16;
#X obj 99 267 +;
#X obj 883 208 t b;
#X obj 850 264 spigot;
#X msg 883 227 0;
#X obj 919 209 del 5;
#X msg 919 228 1;
#X obj 99 189 t f b;
#X obj 129 212 s \$1-wait;
#X obj 883 188 r \$1-wait;
#X obj 1072 289 tabwrite \$1-presets;
#X obj 1183 214 * 16;
#X obj 1183 269 +;
#X text 1060 141 copy scene;
#X obj 1104 165 r copy-scene;
#X obj 1104 186 t b f;
#X obj 1072 221 f;
#X text 830 144 writing param to scene;
#X text 95 146 reading param from array to gui;
#X obj 327 305 tabread \$1-presets;
#X obj 327 210 * 16;
#X obj 327 265 +;
#X obj 327 187 t f b;
#X obj 357 210 s \$1-wait;
#X text 323 144 reading param from array to scene A;
#X obj 327 167 r a-scene;
#X obj 573 305 tabread \$1-presets;
#X obj 573 210 * 16;
#X obj 573 265 +;
#X obj 573 187 t f b;
#X obj 603 210 s \$1-wait;
#X text 567 144 reading param from array to scene B;
#X obj 573 167 r b-scene;
#X obj 327 286 f;
#X obj 353 286 t b;
#X obj 573 286 f;
#X obj 599 286 t b;
#X obj 113 -127 inlet;
#X obj 103 507 outlet;
#X obj 348 -122 inlet;
#X obj 328 502 outlet;
#X obj 574 500 outlet;
#X connect 1 0 2 0;
#X connect 2 0 3 0;
#X connect 3 0 0 1;
#X connect 4 0 44 0;
#X connect 5 0 13 0;
#X connect 6 0 7 0;
#X connect 7 0 4 0;
#X connect 8 0 10 0;
#X connect 8 0 11 0;
#X connect 9 0 0 0;
#X connect 10 0 9 1;
#X connect 11 0 12 0;
#X connect 12 0 9 1;
#X connect 13 0 6 0;
#X connect 13 1 14 0;
#X connect 15 0 8 0;
#X connect 17 0 18 0;
#X connect 18 0 16 1;
#X connect 20 0 21 0;
#X connect 21 0 22 0;
#X connect 21 1 17 0;
#X connect 22 0 16 0;
#X connect 25 0 46 0;
#X connect 26 0 27 0;
#X connect 27 0 39 0;
#X connect 28 0 26 0;
#X connect 28 1 29 0;
#X connect 31 0 28 0;
#X connect 32 0 47 0;
#X connect 33 0 34 0;
#X connect 34 0 41 0;
#X connect 35 0 33 0;
#X connect 35 1 36 0;
#X connect 38 0 35 0;
#X connect 39 0 25 0;
#X connect 40 0 39 0;
#X connect 41 0 32 0;
#X connect 42 0 41 0;
#X connect 43 0 7 1;
#X connect 43 0 27 1;
#X connect 43 0 34 1;
#X connect 43 0 3 1;
#X connect 43 0 18 1;
#X connect 45 0 40 0;
#X connect 45 0 42 0;
#X connect 45 0 9 0;
#X connect 45 0 22 1;
#X restore 600 1417 pd param;
#N canvas 105 70 1335 536 param 0;
#X obj 850 286 tabwrite \$1-presets;
#X obj 961 193 r gui-scene;
#X obj 961 211 * 16;
#X obj 961 266 +;
#X obj 99 285 tabread \$1-presets;
#X obj 99 169 r gui-scene;
#X obj 99 212 * 16;
#X obj 99 267 +;
#X obj 883 208 t b;
#X obj 850 264 spigot;
#X msg 883 227 0;
#X obj 919 209 del 5;
#X msg 919 228 1;
#X obj 99 189 t f b;
#X obj 129 212 s \$1-wait;
#X obj 883 188 r \$1-wait;
#X obj 1072 289 tabwrite \$1-presets;
#X obj 1183 214 * 16;
#X obj 1183 269 +;
#X text 1060 141 copy scene;
#X obj 1104 165 r copy-scene;
#X obj 1104 186 t b f;
#X obj 1072 221 f;
#X text 830 144 writing param to scene;
#X text 95 146 reading param from array to gui;
#X obj 327 305 tabread \$1-presets;
#X obj 327 210 * 16;
#X obj 327 265 +;
#X obj 327 187 t f b;
#X obj 357 210 s \$1-wait;
#X text 323 144 reading param from array to scene A;
#X obj 327 167 r a-scene;
#X obj 573 305 tabread \$1-presets;
#X obj 573 210 * 16;
#X obj 573 265 +;
#X obj 573 187 t f b;
#X obj 603 210 s \$1-wait;
#X text 567 144 reading param from array to scene B;
#X obj 573 167 r b-scene;
#X obj 327 286 f;
#X obj 353 286 t b;
#X obj 573 286 f;
#X obj 599 286 t b;
#X obj 113 -127 inlet;
#X obj 103 507 outlet;
#X obj 348 -122 inlet;
#X obj 328 502 outlet;
#X obj 574 500 outlet;
#X connect 1 0 2 0;
#X connect 2 0 3 0;
#X connect 3 0 0 1;
#X connect 4 0 44 0;
#X connect 5 0 13 0;
#X connect 6 0 7 0;
#X connect 7 0 4 0;
#X connect 8 0 10 0;
#X connect 8 0 11 0;
#X connect 9 0 0 0;
#X connect 10 0 9 1;
#X connect 11 0 12 0;
#X connect 12 0 9 1;
#X connect 13 0 6 0;
#X connect 13 1 14 0;
#X connect 15 0 8 0;
#X connect 17 0 18 0;
#X connect 18 0 16 1;
#X connect 20 0 21 0;
#X connect 21 0 22 0;
#X connect 21 1 17 0;
#X connect 22 0 16 0;
#X connect 25 0 46 0;
#X connect 26 0 27 0;
#X connect 27 0 39 0;
#X connect 28 0 26 0;
#X connect 28 1 29 0;
#X connect 31 0 28 0;
#X connect 32 0 47 0;
#X connect 33 0 34 0;
#X connect 34 0 41 0;
#X connect 35 0 33 0;
#X connect 35 1 36 0;
#X connect 38 0 35 0;
#X connect 39 0 25 0;
#X connect 40 0 39 0;
#X connect 41 0 32 0;
#X connect 42 0 41 0;
#X connect 43 0 7 1;
#X connect 43 0 27 1;
#X connect 43 0 34 1;
#X connect 43 0 3 1;
#X connect 43 0 18 1;
#X connect 45 0 40 0;
#X connect 45 0 42 0;
#X connect 45 0 9 0;
#X connect 45 0 22 1;
#X restore 780 1417 pd param;
#X msg 230 1399 13;
#X obj 281 1398 r \$1-param-13-s;
#X obj 281 1441 s \$1-param-13-r-b;
#X obj 255 1461 s \$1-param-13-r-a;
#X obj 230 1480 s \$1-param-13-r;
#X msg 410 1399 14;
#X obj 461 1398 r \$1-param-14-s;
#X obj 461 1441 s \$1-param-14-r-b;
#X obj 435 1461 s \$1-param-14-r-a;
#X obj 410 1480 s \$1-param-14-r;
#X msg 600 1399 15;
#X obj 651 1398 r \$1-param-15-s;
#X obj 651 1441 s \$1-param-15-r-b;
#X obj 625 1461 s \$1-param-15-r-a;
#X obj 600 1480 s \$1-param-15-r;
#X msg 780 1399 16;
#X obj 831 1398 r \$1-param-16-s;
#X obj 831 1442 s \$1-param-16-r-b;
#X obj 805 1461 s \$1-param-16-r-a;
#X obj 780 1480 s \$1-param-16-r;
#X obj 230 1518 loadbang;
#X obj 410 1518 loadbang;
#N canvas 105 70 1335 536 param 0;
#X obj 850 286 tabwrite \$1-presets;
#X obj 961 193 r gui-scene;
#X obj 961 211 * 16;
#X obj 961 266 +;
#X obj 99 285 tabread \$1-presets;
#X obj 99 169 r gui-scene;
#X obj 99 212 * 16;
#X obj 99 267 +;
#X obj 883 208 t b;
#X obj 850 264 spigot;
#X msg 883 227 0;
#X obj 919 209 del 5;
#X msg 919 228 1;
#X obj 99 189 t f b;
#X obj 129 212 s \$1-wait;
#X obj 883 188 r \$1-wait;
#X obj 1072 289 tabwrite \$1-presets;
#X obj 1183 214 * 16;
#X obj 1183 269 +;
#X text 1060 141 copy scene;
#X obj 1104 165 r copy-scene;
#X obj 1104 186 t b f;
#X obj 1072 221 f;
#X text 830 144 writing param to scene;
#X text 95 146 reading param from array to gui;
#X obj 327 305 tabread \$1-presets;
#X obj 327 210 * 16;
#X obj 327 265 +;
#X obj 327 187 t f b;
#X obj 357 210 s \$1-wait;
#X text 323 144 reading param from array to scene A;
#X obj 327 167 r a-scene;
#X obj 573 305 tabread \$1-presets;
#X obj 573 210 * 16;
#X obj 573 265 +;
#X obj 573 187 t f b;
#X obj 603 210 s \$1-wait;
#X text 567 144 reading param from array to scene B;
#X obj 573 167 r b-scene;
#X obj 327 286 f;
#X obj 353 286 t b;
#X obj 573 286 f;
#X obj 599 286 t b;
#X obj 113 -127 inlet;
#X obj 103 507 outlet;
#X obj 348 -122 inlet;
#X obj 328 502 outlet;
#X obj 574 500 outlet;
#X connect 1 0 2 0;
#X connect 2 0 3 0;
#X connect 3 0 0 1;
#X connect 4 0 44 0;
#X connect 5 0 13 0;
#X connect 6 0 7 0;
#X connect 7 0 4 0;
#X connect 8 0 10 0;
#X connect 8 0 11 0;
#X connect 9 0 0 0;
#X connect 10 0 9 1;
#X connect 11 0 12 0;
#X connect 12 0 9 1;
#X connect 13 0 6 0;
#X connect 13 1 14 0;
#X connect 15 0 8 0;
#X connect 17 0 18 0;
#X connect 18 0 16 1;
#X connect 20 0 21 0;
#X connect 21 0 22 0;
#X connect 21 1 17 0;
#X connect 22 0 16 0;
#X connect 25 0 46 0;
#X connect 26 0 27 0;
#X connect 27 0 39 0;
#X connect 28 0 26 0;
#X connect 28 1 29 0;
#X connect 31 0 28 0;
#X connect 32 0 47 0;
#X connect 33 0 34 0;
#X connect 34 0 41 0;
#X connect 35 0 33 0;
#X connect 35 1 36 0;
#X connect 38 0 35 0;
#X connect 39 0 25 0;
#X connect 40 0 39 0;
#X connect 41 0 32 0;
#X connect 42 0 41 0;
#X connect 43 0 7 1;
#X connect 43 0 27 1;
#X connect 43 0 34 1;
#X connect 43 0 3 1;
#X connect 43 0 18 1;
#X connect 45 0 40 0;
#X connect 45 0 42 0;
#X connect 45 0 9 0;
#X connect 45 0 22 1;
#X restore 230 1554 pd param;
#N canvas 105 70 1335 536 param 0;
#X obj 850 286 tabwrite \$1-presets;
#X obj 961 193 r gui-scene;
#X obj 961 211 * 16;
#X obj 961 266 +;
#X obj 99 285 tabread \$1-presets;
#X obj 99 169 r gui-scene;
#X obj 99 212 * 16;
#X obj 99 267 +;
#X obj 883 208 t b;
#X obj 850 264 spigot;
#X msg 883 227 0;
#X obj 919 209 del 5;
#X msg 919 228 1;
#X obj 99 189 t f b;
#X obj 129 212 s \$1-wait;
#X obj 883 188 r \$1-wait;
#X obj 1072 289 tabwrite \$1-presets;
#X obj 1183 214 * 16;
#X obj 1183 269 +;
#X text 1060 141 copy scene;
#X obj 1104 165 r copy-scene;
#X obj 1104 186 t b f;
#X obj 1072 221 f;
#X text 830 144 writing param to scene;
#X text 95 146 reading param from array to gui;
#X obj 327 305 tabread \$1-presets;
#X obj 327 210 * 16;
#X obj 327 265 +;
#X obj 327 187 t f b;
#X obj 357 210 s \$1-wait;
#X text 323 144 reading param from array to scene A;
#X obj 327 167 r a-scene;
#X obj 573 305 tabread \$1-presets;
#X obj 573 210 * 16;
#X obj 573 265 +;
#X obj 573 187 t f b;
#X obj 603 210 s \$1-wait;
#X text 567 144 reading param from array to scene B;
#X obj 573 167 r b-scene;
#X obj 327 286 f;
#X obj 353 286 t b;
#X obj 573 286 f;
#X obj 599 286 t b;
#X obj 113 -127 inlet;
#X obj 103 507 outlet;
#X obj 348 -122 inlet;
#X obj 328 502 outlet;
#X obj 574 500 outlet;
#X connect 1 0 2 0;
#X connect 2 0 3 0;
#X connect 3 0 0 1;
#X connect 4 0 44 0;
#X connect 5 0 13 0;
#X connect 6 0 7 0;
#X connect 7 0 4 0;
#X connect 8 0 10 0;
#X connect 8 0 11 0;
#X connect 9 0 0 0;
#X connect 10 0 9 1;
#X connect 11 0 12 0;
#X connect 12 0 9 1;
#X connect 13 0 6 0;
#X connect 13 1 14 0;
#X connect 15 0 8 0;
#X connect 17 0 18 0;
#X connect 18 0 16 1;
#X connect 20 0 21 0;
#X connect 21 0 22 0;
#X connect 21 1 17 0;
#X connect 22 0 16 0;
#X connect 25 0 46 0;
#X connect 26 0 27 0;
#X connect 27 0 39 0;
#X connect 28 0 26 0;
#X connect 28 1 29 0;
#X connect 31 0 28 0;
#X connect 32 0 47 0;
#X connect 33 0 34 0;
#X connect 34 0 41 0;
#X connect 35 0 33 0;
#X connect 35 1 36 0;
#X connect 38 0 35 0;
#X connect 39 0 25 0;
#X connect 40 0 39 0;
#X connect 41 0 32 0;
#X connect 42 0 41 0;
#X connect 43 0 7 1;
#X connect 43 0 27 1;
#X connect 43 0 34 1;
#X connect 43 0 3 1;
#X connect 43 0 18 1;
#X connect 45 0 40 0;
#X connect 45 0 42 0;
#X connect 45 0 9 0;
#X connect 45 0 22 1;
#X restore 410 1554 pd param;
#X obj 600 1518 loadbang;
#X obj 780 1518 loadbang;
#N canvas 105 70 1335 536 param 0;
#X obj 850 286 tabwrite \$1-presets;
#X obj 961 193 r gui-scene;
#X obj 961 211 * 16;
#X obj 961 266 +;
#X obj 99 285 tabread \$1-presets;
#X obj 99 169 r gui-scene;
#X obj 99 212 * 16;
#X obj 99 267 +;
#X obj 883 208 t b;
#X obj 850 264 spigot;
#X msg 883 227 0;
#X obj 919 209 del 5;
#X msg 919 228 1;
#X obj 99 189 t f b;
#X obj 129 212 s \$1-wait;
#X obj 883 188 r \$1-wait;
#X obj 1072 289 tabwrite \$1-presets;
#X obj 1183 214 * 16;
#X obj 1183 269 +;
#X text 1060 141 copy scene;
#X obj 1104 165 r copy-scene;
#X obj 1104 186 t b f;
#X obj 1072 221 f;
#X text 830 144 writing param to scene;
#X text 95 146 reading param from array to gui;
#X obj 327 305 tabread \$1-presets;
#X obj 327 210 * 16;
#X obj 327 265 +;
#X obj 327 187 t f b;
#X obj 357 210 s \$1-wait;
#X text 323 144 reading param from array to scene A;
#X obj 327 167 r a-scene;
#X obj 573 305 tabread \$1-presets;
#X obj 573 210 * 16;
#X obj 573 265 +;
#X obj 573 187 t f b;
#X obj 603 210 s \$1-wait;
#X text 567 144 reading param from array to scene B;
#X obj 573 167 r b-scene;
#X obj 327 286 f;
#X obj 353 286 t b;
#X obj 573 286 f;
#X obj 599 286 t b;
#X obj 113 -127 inlet;
#X obj 103 507 outlet;
#X obj 348 -122 inlet;
#X obj 328 502 outlet;
#X obj 574 500 outlet;
#X connect 1 0 2 0;
#X connect 2 0 3 0;
#X connect 3 0 0 1;
#X connect 4 0 44 0;
#X connect 5 0 13 0;
#X connect 6 0 7 0;
#X connect 7 0 4 0;
#X connect 8 0 10 0;
#X connect 8 0 11 0;
#X connect 9 0 0 0;
#X connect 10 0 9 1;
#X connect 11 0 12 0;
#X connect 12 0 9 1;
#X connect 13 0 6 0;
#X connect 13 1 14 0;
#X connect 15 0 8 0;
#X connect 17 0 18 0;
#X connect 18 0 16 1;
#X connect 20 0 21 0;
#X connect 21 0 22 0;
#X connect 21 1 17 0;
#X connect 22 0 16 0;
#X connect 25 0 46 0;
#X connect 26 0 27 0;
#X connect 27 0 39 0;
#X connect 28 0 26 0;
#X connect 28 1 29 0;
#X connect 31 0 28 0;
#X connect 32 0 47 0;
#X connect 33 0 34 0;
#X connect 34 0 41 0;
#X connect 35 0 33 0;
#X connect 35 1 36 0;
#X connect 38 0 35 0;
#X connect 39 0 25 0;
#X connect 40 0 39 0;
#X connect 41 0 32 0;
#X connect 42 0 41 0;
#X connect 43 0 7 1;
#X connect 43 0 27 1;
#X connect 43 0 34 1;
#X connect 43 0 3 1;
#X connect 43 0 18 1;
#X connect 45 0 40 0;
#X connect 45 0 42 0;
#X connect 45 0 9 0;
#X connect 45 0 22 1;
#X restore 600 1554 pd param;
#N canvas 105 70 1335 536 param 0;
#X obj 850 286 tabwrite \$1-presets;
#X obj 961 193 r gui-scene;
#X obj 961 211 * 16;
#X obj 961 266 +;
#X obj 99 285 tabread \$1-presets;
#X obj 99 169 r gui-scene;
#X obj 99 212 * 16;
#X obj 99 267 +;
#X obj 883 208 t b;
#X obj 850 264 spigot;
#X msg 883 227 0;
#X obj 919 209 del 5;
#X msg 919 228 1;
#X obj 99 189 t f b;
#X obj 129 212 s \$1-wait;
#X obj 883 188 r \$1-wait;
#X obj 1072 289 tabwrite \$1-presets;
#X obj 1183 214 * 16;
#X obj 1183 269 +;
#X text 1060 141 copy scene;
#X obj 1104 165 r copy-scene;
#X obj 1104 186 t b f;
#X obj 1072 221 f;
#X text 830 144 writing param to scene;
#X text 95 146 reading param from array to gui;
#X obj 327 305 tabread \$1-presets;
#X obj 327 210 * 16;
#X obj 327 265 +;
#X obj 327 187 t f b;
#X obj 357 210 s \$1-wait;
#X text 323 144 reading param from array to scene A;
#X obj 327 167 r a-scene;
#X obj 573 305 tabread \$1-presets;
#X obj 573 210 * 16;
#X obj 573 265 +;
#X obj 573 187 t f b;
#X obj 603 210 s \$1-wait;
#X text 567 144 reading param from array to scene B;
#X obj 573 167 r b-scene;
#X obj 327 286 f;
#X obj 353 286 t b;
#X obj 573 286 f;
#X obj 599 286 t b;
#X obj 113 -127 inlet;
#X obj 103 507 outlet;
#X obj 348 -122 inlet;
#X obj 328 502 outlet;
#X obj 574 500 outlet;
#X connect 1 0 2 0;
#X connect 2 0 3 0;
#X connect 3 0 0 1;
#X connect 4 0 44 0;
#X connect 5 0 13 0;
#X connect 6 0 7 0;
#X connect 7 0 4 0;
#X connect 8 0 10 0;
#X connect 8 0 11 0;
#X connect 9 0 0 0;
#X connect 10 0 9 1;
#X connect 11 0 12 0;
#X connect 12 0 9 1;
#X connect 13 0 6 0;
#X connect 13 1 14 0;
#X connect 15 0 8 0;
#X connect 17 0 18 0;
#X connect 18 0 16 1;
#X connect 20 0 21 0;
#X connect 21 0 22 0;
#X connect 21 1 17 0;
#X connect 22 0 16 0;
#X connect 25 0 46 0;
#X connect 26 0 27 0;
#X connect 27 0 39 0;
#X connect 28 0 26 0;
#X connect 28 1 29 0;
#X connect 31 0 28 0;
#X connect 32 0 47 0;
#X connect 33 0 34 0;
#X connect 34 0 41 0;
#X connect 35 0 33 0;
#X connect 35 1 36 0;
#X connect 38 0 35 0;
#X connect 39 0 25 0;
#X connect 40 0 39 0;
#X connect 41 0 32 0;
#X connect 42 0 41 0;
#X connect 43 0 7 1;
#X connect 43 0 27 1;
#X connect 43 0 34 1;
#X connect 43 0 3 1;
#X connect 43 0 18 1;
#X connect 45 0 40 0;
#X connect 45 0 42 0;
#X connect 45 0 9 0;
#X connect 45 0 22 1;
#X restore 780 1554 pd param;
#X msg 230 1536 17;
#X obj 281 1535 r \$1-param-17-s;
#X obj 281 1578 s \$1-param-17-r-b;
#X obj 255 1598 s \$1-param-17-r-a;
#X obj 230 1617 s \$1-param-17-r;
#X msg 410 1536 18;
#X obj 461 1535 r \$1-param-18-s;
#X obj 461 1578 s \$1-param-18-r-b;
#X obj 435 1598 s \$1-param-18-r-a;
#X obj 410 1617 s \$1-param-18-r;
#X msg 600 1536 19;
#X obj 651 1535 r \$1-param-19-s;
#X obj 651 1578 s \$1-param-19-r-b;
#X obj 625 1598 s \$1-param-19-r-a;
#X obj 600 1617 s \$1-param-19-r;
#X msg 780 1536 20;
#X obj 831 1535 r \$1-param-20-s;
#X obj 831 1579 s \$1-param-20-r-b;
#X obj 805 1598 s \$1-param-20-r-a;
#X obj 780 1617 s \$1-param-20-r;
#X obj 230 1668 loadbang;
#X obj 410 1668 loadbang;
#N canvas 105 70 1335 536 param 0;
#X obj 850 286 tabwrite \$1-presets;
#X obj 961 193 r gui-scene;
#X obj 961 211 * 16;
#X obj 961 266 +;
#X obj 99 285 tabread \$1-presets;
#X obj 99 169 r gui-scene;
#X obj 99 212 * 16;
#X obj 99 267 +;
#X obj 883 208 t b;
#X obj 850 264 spigot;
#X msg 883 227 0;
#X obj 919 209 del 5;
#X msg 919 228 1;
#X obj 99 189 t f b;
#X obj 129 212 s \$1-wait;
#X obj 883 188 r \$1-wait;
#X obj 1072 289 tabwrite \$1-presets;
#X obj 1183 214 * 16;
#X obj 1183 269 +;
#X text 1060 141 copy scene;
#X obj 1104 165 r copy-scene;
#X obj 1104 186 t b f;
#X obj 1072 221 f;
#X text 830 144 writing param to scene;
#X text 95 146 reading param from array to gui;
#X obj 327 305 tabread \$1-presets;
#X obj 327 210 * 16;
#X obj 327 265 +;
#X obj 327 187 t f b;
#X obj 357 210 s \$1-wait;
#X text 323 144 reading param from array to scene A;
#X obj 327 167 r a-scene;
#X obj 573 305 tabread \$1-presets;
#X obj 573 210 * 16;
#X obj 573 265 +;
#X obj 573 187 t f b;
#X obj 603 210 s \$1-wait;
#X text 567 144 reading param from array to scene B;
#X obj 573 167 r b-scene;
#X obj 327 286 f;
#X obj 353 286 t b;
#X obj 573 286 f;
#X obj 599 286 t b;
#X obj 113 -127 inlet;
#X obj 103 507 outlet;
#X obj 348 -122 inlet;
#X obj 328 502 outlet;
#X obj 574 500 outlet;
#X connect 1 0 2 0;
#X connect 2 0 3 0;
#X connect 3 0 0 1;
#X connect 4 0 44 0;
#X connect 5 0 13 0;
#X connect 6 0 7 0;
#X connect 7 0 4 0;
#X connect 8 0 10 0;
#X connect 8 0 11 0;
#X connect 9 0 0 0;
#X connect 10 0 9 1;
#X connect 11 0 12 0;
#X connect 12 0 9 1;
#X connect 13 0 6 0;
#X connect 13 1 14 0;
#X connect 15 0 8 0;
#X connect 17 0 18 0;
#X connect 18 0 16 1;
#X connect 20 0 21 0;
#X connect 21 0 22 0;
#X connect 21 1 17 0;
#X connect 22 0 16 0;
#X connect 25 0 46 0;
#X connect 26 0 27 0;
#X connect 27 0 39 0;
#X connect 28 0 26 0;
#X connect 28 1 29 0;
#X connect 31 0 28 0;
#X connect 32 0 47 0;
#X connect 33 0 34 0;
#X connect 34 0 41 0;
#X connect 35 0 33 0;
#X connect 35 1 36 0;
#X connect 38 0 35 0;
#X connect 39 0 25 0;
#X connect 40 0 39 0;
#X connect 41 0 32 0;
#X connect 42 0 41 0;
#X connect 43 0 7 1;
#X connect 43 0 27 1;
#X connect 43 0 34 1;
#X connect 43 0 3 1;
#X connect 43 0 18 1;
#X connect 45 0 40 0;
#X connect 45 0 42 0;
#X connect 45 0 9 0;
#X connect 45 0 22 1;
#X restore 230 1704 pd param;
#N canvas 105 70 1335 536 param 0;
#X obj 850 286 tabwrite \$1-presets;
#X obj 961 193 r gui-scene;
#X obj 961 211 * 16;
#X obj 961 266 +;
#X obj 99 285 tabread \$1-presets;
#X obj 99 169 r gui-scene;
#X obj 99 212 * 16;
#X obj 99 267 +;
#X obj 883 208 t b;
#X obj 850 264 spigot;
#X msg 883 227 0;
#X obj 919 209 del 5;
#X msg 919 228 1;
#X obj 99 189 t f b;
#X obj 129 212 s \$1-wait;
#X obj 883 188 r \$1-wait;
#X obj 1072 289 tabwrite \$1-presets;
#X obj 1183 214 * 16;
#X obj 1183 269 +;
#X text 1060 141 copy scene;
#X obj 1104 165 r copy-scene;
#X obj 1104 186 t b f;
#X obj 1072 221 f;
#X text 830 144 writing param to scene;
#X text 95 146 reading param from array to gui;
#X obj 327 305 tabread \$1-presets;
#X obj 327 210 * 16;
#X obj 327 265 +;
#X obj 327 187 t f b;
#X obj 357 210 s \$1-wait;
#X text 323 144 reading param from array to scene A;
#X obj 327 167 r a-scene;
#X obj 573 305 tabread \$1-presets;
#X obj 573 210 * 16;
#X obj 573 265 +;
#X obj 573 187 t f b;
#X obj 603 210 s \$1-wait;
#X text 567 144 reading param from array to scene B;
#X obj 573 167 r b-scene;
#X obj 327 286 f;
#X obj 353 286 t b;
#X obj 573 286 f;
#X obj 599 286 t b;
#X obj 113 -127 inlet;
#X obj 103 507 outlet;
#X obj 348 -122 inlet;
#X obj 328 502 outlet;
#X obj 574 500 outlet;
#X connect 1 0 2 0;
#X connect 2 0 3 0;
#X connect 3 0 0 1;
#X connect 4 0 44 0;
#X connect 5 0 13 0;
#X connect 6 0 7 0;
#X connect 7 0 4 0;
#X connect 8 0 10 0;
#X connect 8 0 11 0;
#X connect 9 0 0 0;
#X connect 10 0 9 1;
#X connect 11 0 12 0;
#X connect 12 0 9 1;
#X connect 13 0 6 0;
#X connect 13 1 14 0;
#X connect 15 0 8 0;
#X connect 17 0 18 0;
#X connect 18 0 16 1;
#X connect 20 0 21 0;
#X connect 21 0 22 0;
#X connect 21 1 17 0;
#X connect 22 0 16 0;
#X connect 25 0 46 0;
#X connect 26 0 27 0;
#X connect 27 0 39 0;
#X connect 28 0 26 0;
#X connect 28 1 29 0;
#X connect 31 0 28 0;
#X connect 32 0 47 0;
#X connect 33 0 34 0;
#X connect 34 0 41 0;
#X connect 35 0 33 0;
#X connect 35 1 36 0;
#X connect 38 0 35 0;
#X connect 39 0 25 0;
#X connect 40 0 39 0;
#X connect 41 0 32 0;
#X connect 42 0 41 0;
#X connect 43 0 7 1;
#X connect 43 0 27 1;
#X connect 43 0 34 1;
#X connect 43 0 3 1;
#X connect 43 0 18 1;
#X connect 45 0 40 0;
#X connect 45 0 42 0;
#X connect 45 0 9 0;
#X connect 45 0 22 1;
#X restore 410 1704 pd param;
#X obj 600 1668 loadbang;
#X obj 780 1668 loadbang;
#N canvas 105 70 1335 536 param 0;
#X obj 850 286 tabwrite \$1-presets;
#X obj 961 193 r gui-scene;
#X obj 961 211 * 16;
#X obj 961 266 +;
#X obj 99 285 tabread \$1-presets;
#X obj 99 169 r gui-scene;
#X obj 99 212 * 16;
#X obj 99 267 +;
#X obj 883 208 t b;
#X obj 850 264 spigot;
#X msg 883 227 0;
#X obj 919 209 del 5;
#X msg 919 228 1;
#X obj 99 189 t f b;
#X obj 129 212 s \$1-wait;
#X obj 883 188 r \$1-wait;
#X obj 1072 289 tabwrite \$1-presets;
#X obj 1183 214 * 16;
#X obj 1183 269 +;
#X text 1060 141 copy scene;
#X obj 1104 165 r copy-scene;
#X obj 1104 186 t b f;
#X obj 1072 221 f;
#X text 830 144 writing param to scene;
#X text 95 146 reading param from array to gui;
#X obj 327 305 tabread \$1-presets;
#X obj 327 210 * 16;
#X obj 327 265 +;
#X obj 327 187 t f b;
#X obj 357 210 s \$1-wait;
#X text 323 144 reading param from array to scene A;
#X obj 327 167 r a-scene;
#X obj 573 305 tabread \$1-presets;
#X obj 573 210 * 16;
#X obj 573 265 +;
#X obj 573 187 t f b;
#X obj 603 210 s \$1-wait;
#X text 567 144 reading param from array to scene B;
#X obj 573 167 r b-scene;
#X obj 327 286 f;
#X obj 353 286 t b;
#X obj 573 286 f;
#X obj 599 286 t b;
#X obj 113 -127 inlet;
#X obj 103 507 outlet;
#X obj 348 -122 inlet;
#X obj 328 502 outlet;
#X obj 574 500 outlet;
#X connect 1 0 2 0;
#X connect 2 0 3 0;
#X connect 3 0 0 1;
#X connect 4 0 44 0;
#X connect 5 0 13 0;
#X connect 6 0 7 0;
#X connect 7 0 4 0;
#X connect 8 0 10 0;
#X connect 8 0 11 0;
#X connect 9 0 0 0;
#X connect 10 0 9 1;
#X connect 11 0 12 0;
#X connect 12 0 9 1;
#X connect 13 0 6 0;
#X connect 13 1 14 0;
#X connect 15 0 8 0;
#X connect 17 0 18 0;
#X connect 18 0 16 1;
#X connect 20 0 21 0;
#X connect 21 0 22 0;
#X connect 21 1 17 0;
#X connect 22 0 16 0;
#X connect 25 0 46 0;
#X connect 26 0 27 0;
#X connect 27 0 39 0;
#X connect 28 0 26 0;
#X connect 28 1 29 0;
#X connect 31 0 28 0;
#X connect 32 0 47 0;
#X connect 33 0 34 0;
#X connect 34 0 41 0;
#X connect 35 0 33 0;
#X connect 35 1 36 0;
#X connect 38 0 35 0;
#X connect 39 0 25 0;
#X connect 40 0 39 0;
#X connect 41 0 32 0;
#X connect 42 0 41 0;
#X connect 43 0 7 1;
#X connect 43 0 27 1;
#X connect 43 0 34 1;
#X connect 43 0 3 1;
#X connect 43 0 18 1;
#X connect 45 0 40 0;
#X connect 45 0 42 0;
#X connect 45 0 9 0;
#X connect 45 0 22 1;
#X restore 600 1704 pd param;
#N canvas 105 70 1335 536 param 0;
#X obj 850 286 tabwrite \$1-presets;
#X obj 961 193 r gui-scene;
#X obj 961 211 * 16;
#X obj 961 266 +;
#X obj 99 285 tabread \$1-presets;
#X obj 99 169 r gui-scene;
#X obj 99 212 * 16;
#X obj 99 267 +;
#X obj 883 208 t b;
#X obj 850 264 spigot;
#X msg 883 227 0;
#X obj 919 209 del 5;
#X msg 919 228 1;
#X obj 99 189 t f b;
#X obj 129 212 s \$1-wait;
#X obj 883 188 r \$1-wait;
#X obj 1072 289 tabwrite \$1-presets;
#X obj 1183 214 * 16;
#X obj 1183 269 +;
#X text 1060 141 copy scene;
#X obj 1104 165 r copy-scene;
#X obj 1104 186 t b f;
#X obj 1072 221 f;
#X text 830 144 writing param to scene;
#X text 95 146 reading param from array to gui;
#X obj 327 305 tabread \$1-presets;
#X obj 327 210 * 16;
#X obj 327 265 +;
#X obj 327 187 t f b;
#X obj 357 210 s \$1-wait;
#X text 323 144 reading param from array to scene A;
#X obj 327 167 r a-scene;
#X obj 573 305 tabread \$1-presets;
#X obj 573 210 * 16;
#X obj 573 265 +;
#X obj 573 187 t f b;
#X obj 603 210 s \$1-wait;
#X text 567 144 reading param from array to scene B;
#X obj 573 167 r b-scene;
#X obj 327 286 f;
#X obj 353 286 t b;
#X obj 573 286 f;
#X obj 599 286 t b;
#X obj 113 -127 inlet;
#X obj 103 507 outlet;
#X obj 348 -122 inlet;
#X obj 328 502 outlet;
#X obj 574 500 outlet;
#X connect 1 0 2 0;
#X connect 2 0 3 0;
#X connect 3 0 0 1;
#X connect 4 0 44 0;
#X connect 5 0 13 0;
#X connect 6 0 7 0;
#X connect 7 0 4 0;
#X connect 8 0 10 0;
#X connect 8 0 11 0;
#X connect 9 0 0 0;
#X connect 10 0 9 1;
#X connect 11 0 12 0;
#X connect 12 0 9 1;
#X connect 13 0 6 0;
#X connect 13 1 14 0;
#X connect 15 0 8 0;
#X connect 17 0 18 0;
#X connect 18 0 16 1;
#X connect 20 0 21 0;
#X connect 21 0 22 0;
#X connect 21 1 17 0;
#X connect 22 0 16 0;
#X connect 25 0 46 0;
#X connect 26 0 27 0;
#X connect 27 0 39 0;
#X connect 28 0 26 0;
#X connect 28 1 29 0;
#X connect 31 0 28 0;
#X connect 32 0 47 0;
#X connect 33 0 34 0;
#X connect 34 0 41 0;
#X connect 35 0 33 0;
#X connect 35 1 36 0;
#X connect 38 0 35 0;
#X connect 39 0 25 0;
#X connect 40 0 39 0;
#X connect 41 0 32 0;
#X connect 42 0 41 0;
#X connect 43 0 7 1;
#X connect 43 0 27 1;
#X connect 43 0 34 1;
#X connect 43 0 3 1;
#X connect 43 0 18 1;
#X connect 45 0 40 0;
#X connect 45 0 42 0;
#X connect 45 0 9 0;
#X connect 45 0 22 1;
#X restore 780 1704 pd param;
#X msg 230 1686 21;
#X obj 281 1685 r \$1-param-21-s;
#X obj 281 1728 s \$1-param-21-r-b;
#X obj 255 1748 s \$1-param-21-r-a;
#X obj 230 1767 s \$1-param-21-r;
#X msg 410 1686 22;
#X obj 461 1685 r \$1-param-22-s;
#X obj 461 1728 s \$1-param-22-r-b;
#X obj 435 1748 s \$1-param-22-r-a;
#X obj 410 1767 s \$1-param-22-r;
#X msg 600 1686 23;
#X obj 651 1685 r \$1-param-23-s;
#X obj 651 1728 s \$1-param-23-r-b;
#X obj 625 1748 s \$1-param-23-r-a;
#X obj 600 1767 s \$1-param-23-r;
#X msg 780 1686 24;
#X obj 831 1685 r \$1-param-24-s;
#X obj 831 1729 s \$1-param-24-r-b;
#X obj 805 1748 s \$1-param-24-r-a;
#X obj 780 1767 s \$1-param-24-r;
#X obj 185 480 f \$2;
#X obj 253 615 s \$1-instance-num-2;
#X msg 569 715 set read \$2/statesave/\$1-\$3-ss.txt;
#X msg 183 717 set write \$2/statesave/\$1-\$3-ss.txt;
#X obj 470 870 list prepend;
#X msg 160 201 0, f 6;
#X obj 160 182 loadbang;
#X obj 160 218 text get \$1-modul-settings;
#X listbox 160 261 20 0 0 0 - - - 0;
#X obj 470 850 array get \$1-presets;
#X obj 470 828 bng 16 250 50 0 empty empty empty 0 -8 0 10 #fcfcfc #000000 #000000;
#X listbox 156 348 20 0 0 0 - - - 0;
#X obj 160 240 pack symbol f;
#X msg 156 327 symbol \$1\$2;
#X obj 470 889 s saving-data;
#X listbox 338 211 42 0 0 0 - - - 0;
#X obj 338 183 inlet;
#X obj 338 258 array set \$1-presets;
#X obj 214 933 r reload-saving;
#X obj 394 933 r reload-saving;
#X obj 587 937 r reload-saving;
#X obj 767 937 r reload-saving;
#X obj 214 1077 r reload-saving;
#X obj 394 1077 r reload-saving;
#X obj 587 1081 r reload-saving;
#X obj 767 1081 r reload-saving;
#X obj 216 1217 r reload-saving;
#X obj 396 1217 r reload-saving;
#X obj 589 1221 r reload-saving;
#X obj 769 1221 r reload-saving;
#X obj 216 1361 r reload-saving;
#X obj 396 1361 r reload-saving;
#X obj 589 1365 r reload-saving;
#X obj 769 1365 r reload-saving;
#X obj 219 1504 r reload-saving;
#X obj 399 1504 r reload-saving;
#X obj 592 1508 r reload-saving;
#X obj 772 1508 r reload-saving;
#X obj 219 1654 r reload-saving;
#X obj 399 1654 r reload-saving;
#X obj 592 1658 r reload-saving;
#X obj 772 1658 r reload-saving;
#X connect 0 0 73 0;
#X connect 1 0 12 0;
#X connect 2 0 1 0;
#X connect 4 0 1 1;
#X connect 4 1 13 0;
#X connect 4 2 71 0;
#X connect 4 2 243 0;
#X connect 4 2 254 1;
#X connect 5 0 252 0;
#X connect 6 0 5 0;
#X connect 7 0 69 1;
#X connect 11 0 68 1;
#X connect 12 0 10 0;
#X connect 12 1 68 0;
#X connect 13 0 14 0;
#X connect 14 0 8 0;
#X connect 14 1 69 0;
#X connect 17 0 61 0;
#X connect 18 0 54 0;
#X connect 19 0 17 0;
#X connect 21 0 28 0;
#X connect 22 0 24 0;
#X connect 22 0 25 0;
#X connect 23 0 20 0;
#X connect 24 0 23 1;
#X connect 25 0 26 0;
#X connect 26 0 23 1;
#X connect 27 0 22 0;
#X connect 28 0 20 1;
#X connect 30 0 63 0;
#X connect 31 0 56 0;
#X connect 33 0 41 0;
#X connect 34 0 36 0;
#X connect 34 0 37 0;
#X connect 35 0 32 0;
#X connect 36 0 35 1;
#X connect 37 0 38 0;
#X connect 38 0 35 1;
#X connect 39 0 34 0;
#X connect 40 0 30 0;
#X connect 41 0 32 1;
#X connect 42 0 64 0;
#X connect 43 0 58 0;
#X connect 45 0 53 0;
#X connect 46 0 48 0;
#X connect 46 0 49 0;
#X connect 47 0 44 0;
#X connect 48 0 47 1;
#X connect 49 0 50 0;
#X connect 50 0 47 1;
#X connect 51 0 46 0;
#X connect 52 0 42 0;
#X connect 53 0 44 1;
#X connect 54 0 19 0;
#X connect 54 1 55 0;
#X connect 56 0 40 0;
#X connect 56 1 57 0;
#X connect 58 0 52 0;
#X connect 58 1 59 0;
#X connect 60 0 23 0;
#X connect 62 0 35 0;
#X connect 65 0 47 0;
#X connect 66 0 67 0;
#X connect 67 0 68 2;
#X connect 67 0 69 2;
#X connect 68 0 245 0;
#X connect 69 0 244 0;
#X connect 71 0 72 0;
#X connect 72 0 70 0;
#X connect 73 1 242 0;
#X connect 73 2 9 0;
#X connect 73 3 66 0;
#X connect 74 0 81 1;
#X connect 75 0 76 0;
#X connect 76 0 81 0;
#X connect 80 0 83 0;
#X connect 81 0 77 0;
#X connect 81 1 78 0;
#X connect 81 2 79 0;
#X connect 82 0 87 0;
#X connect 82 1 86 0;
#X connect 82 2 85 0;
#X connect 83 0 82 0;
#X connect 84 0 82 1;
#X connect 88 0 92 0;
#X connect 89 0 93 0;
#X connect 90 0 97 0;
#X connect 90 1 96 0;
#X connect 90 2 95 0;
#X connect 91 0 101 0;
#X connect 91 1 100 0;
#X connect 91 2 99 0;
#X connect 92 0 90 0;
#X connect 93 0 91 0;
#X connect 94 0 90 1;
#X connect 98 0 91 1;
#X connect 102 0 110 0;
#X connect 103 0 115 0;
#X connect 104 0 114 0;
#X connect 104 1 113 0;
#X connect 104 2 112 0;
#X connect 105 0 119 0;
#X connect 105 1 118 0;
#X connect 105 2 117 0;
#X connect 106 0 120 0;
#X connect 107 0 125 0;
#X connect 108 0 124 0;
#X connect 108 1 123 0;
#X connect 108 2 122 0;
#X connect 109 0 129 0;
#X connect 109 1 128 0;
#X connect 109 2 127 0;
#X connect 110 0 104 0;
#X connect 111 0 104 1;
#X connect 115 0 105 0;
#X connect 116 0 105 1;
#X connect 120 0 108 0;
#X connect 121 0 108 1;
#X connect 125 0 109 0;
#X connect 126 0 109 1;
#X connect 130 0 138 0;
#X connect 131 0 143 0;
#X connect 132 0 142 0;
#X connect 132 1 141 0;
#X connect 132 2 140 0;
#X connect 133 0 147 0;
#X connect 133 1 146 0;
#X connect 133 2 145 0;
#X connect 134 0 148 0;
#X connect 135 0 153 0;
#X connect 136 0 152 0;
#X connect 136 1 151 0;
#X connect 136 2 150 0;
#X connect 137 0 157 0;
#X connect 137 1 156 0;
#X connect 137 2 155 0;
#X connect 138 0 132 0;
#X connect 139 0 132 1;
#X connect 143 0 133 0;
#X connect 144 0 133 1;
#X connect 148 0 136 0;
#X connect 149 0 136 1;
#X connect 153 0 137 0;
#X connect 154 0 137 1;
#X connect 158 0 166 0;
#X connect 159 0 171 0;
#X connect 160 0 170 0;
#X connect 160 1 169 0;
#X connect 160 2 168 0;
#X connect 161 0 175 0;
#X connect 161 1 174 0;
#X connect 161 2 173 0;
#X connect 162 0 176 0;
#X connect 163 0 181 0;
#X connect 164 0 180 0;
#X connect 164 1 179 0;
#X connect 164 2 178 0;
#X connect 165 0 185 0;
#X connect 165 1 184 0;
#X connect 165 2 183 0;
#X connect 166 0 160 0;
#X connect 167 0 160 1;
#X connect 171 0 161 0;
#X connect 172 0 161 1;
#X connect 176 0 164 0;
#X connect 177 0 164 1;
#X connect 181 0 165 0;
#X connect 182 0 165 1;
#X connect 186 0 194 0;
#X connect 187 0 199 0;
#X connect 188 0 198 0;
#X connect 188 1 197 0;
#X connect 188 2 196 0;
#X connect 189 0 203 0;
#X connect 189 1 202 0;
#X connect 189 2 201 0;
#X connect 190 0 204 0;
#X connect 191 0 209 0;
#X connect 192 0 208 0;
#X connect 192 1 207 0;
#X connect 192 2 206 0;
#X connect 193 0 213 0;
#X connect 193 1 212 0;
#X connect 193 2 211 0;
#X connect 194 0 188 0;
#X connect 195 0 188 1;
#X connect 199 0 189 0;
#X connect 200 0 189 1;
#X connect 204 0 192 0;
#X connect 205 0 192 1;
#X connect 209 0 193 0;
#X connect 210 0 193 1;
#X connect 214 0 222 0;
#X connect 215 0 227 0;
#X connect 216 0 226 0;
#X connect 216 1 225 0;
#X connect 216 2 224 0;
#X connect 217 0 231 0;
#X connect 217 1 230 0;
#X connect 217 2 229 0;
#X connect 218 0 232 0;
#X connect 219 0 237 0;
#X connect 220 0 236 0;
#X connect 220 1 235 0;
#X connect 220 2 234 0;
#X connect 221 0 241 0;
#X connect 221 1 240 0;
#X connect 221 2 239 0;
#X connect 222 0 216 0;
#X connect 223 0 216 1;
#X connect 227 0 217 0;
#X connect 228 0 217 1;
#X connect 232 0 220 0;
#X connect 233 0 220 1;
#X connect 237 0 221 0;
#X connect 238 0 221 1;
#X connect 242 0 4 0;
#X connect 244 0 8 0;
#X connect 245 0 10 0;
#X connect 246 0 256 0;
#X connect 247 0 249 0;
#X connect 248 0 247 0;
#X connect 249 0 254 0;
#X connect 250 0 255 0;
#X connect 251 0 246 0;
#X connect 252 0 251 0;
#X connect 253 0 246 1;
#X connect 254 0 250 0;
#X connect 255 0 253 0;
#X connect 257 0 259 0;
#X connect 258 0 257 0;
#X connect 260 0 76 0;
#X connect 261 0 83 0;
#X connect 262 0 92 0;
#X connect 263 0 93 0;
#X connect 264 0 110 0;
#X connect 265 0 115 0;
#X connect 266 0 120 0;
#X connect 267 0 125 0;
#X connect 268 0 138 0;
#X connect 269 0 143 0;
#X connect 270 0 148 0;
#X connect 271 0 153 0;
#X connect 272 0 166 0;
#X connect 273 0 171 0;
#X connect 274 0 176 0;
#X connect 275 0 181 0;
#X connect 276 0 194 0;
#X connect 277 0 199 0;
#X connect 278 0 204 0;
#X connect 279 0 209 0;
#X connect 280 0 222 0;
#X connect 281 0 227 0;
#X connect 282 0 232 0;
#X connect 283 0 237 0;
#X coords 0 847 1 846 220 120 0;
