#N canvas 9 25 1431 847 10;
#X declare -path ../000-SAMPLE-LIBRARY;
#X declare -path ../patch_editor_abs;
#X declare -path ../patch_editor_abs/test;
#X declare -path ../patch_editor_abs/controller;
#X declare -path ../patch_editor_abs/airwindows;
#X declare -path ../patch_editor_abs/drums;
#X declare -path ../patch_editor_abs/mixer;
#X declare -path ../patch_editor_abs/sequencers;
#X declare -path ../patch_editor_abs/effects;
#X declare -path ../patch_editor_abs/utility;
#X declare -path ../patch_editor_abs/filters;
#X declare -path ../patch_editor_abs/reverbs;
#X declare -path ../patch_editor_abs/modifier;
#X declare -path ../patch_editor_abs/looper;
#X declare -path ../patch_editor_abs/sequencers/rhythm-designer;
#X declare -path ../patch_editor_abs/drums/simple-hats;
#X declare -path ../patch_editor_abs/drums/cmbcym;
#X declare -path ../patch_editor_abs/drums/fmperc;
#X obj 671 526 cmbcym;
#X obj 2 798 diet-audio-to-mixer 34;
#X obj 463 1039 diet-saturation 26;
#X obj 449 799 diet-audio-to-mixer 36;
#X obj 671 799 diet-audio-to-mixer 38;
#X obj 894 800 diet-audio-to-mixer 39;
#X obj 1554 862 diet-audio-to-mixer 40;
#X obj 1555 523 diet-looper 1;
#X obj 1555 782 mixer2 6;
#X obj 2 524 synth-kick 31;
#X obj 88 7 menu;
#N canvas 279 183 773 552 do-not-delete 0;
#X obj 100 182 declare -path ../000-SAMPLE-LIBRARY;
#X obj 100 201 declare -path ../patch_editor_abs;
#X obj 100 239 declare -path ../patch_editor_abs/test;
#X obj 100 220 declare -path ../patch_editor_abs/controller;
#X obj 491 105 pdcontrol;
#X msg 491 87 dir;
#X obj 491 125 pack s;
#X obj 491 144 s patch-path;
#X obj 491 67 r update-path;
#X obj 549 85 loadbang;
#X obj 100 258 declare -path ../patch_editor_abs/airwindows;
#X obj 105 163 cnv 5 5 5 empty empty NOT_DELETE 0 0 0 12 #fcfcfc #404040 0;
#X obj 100 278 declare -path ../patch_editor_abs/drums;
#X obj 100 358 declare -path ../patch_editor_abs/mixer;
#X obj 100 378 declare -path ../patch_editor_abs/sequencers;
#X obj 100 418 declare -path ../patch_editor_abs/effects;
#X obj 100 438 declare -path ../patch_editor_abs/utility;
#X obj 100 458 declare -path ../patch_editor_abs/filters;
#X obj 100 478 declare -path ../patch_editor_abs/reverbs;
#X obj 100 498 declare -path ../patch_editor_abs/modifier;
#X obj 100 518 declare -path ../patch_editor_abs/looper;
#X obj 105 113 cnv 5 5 5 empty empty MOLIPE 0 0 0 18 #fcfcfc #404040 0;
#X obj 110 398 declare -path ../patch_editor_abs/sequencers/rhythm-designer;
#X obj 110 298 declare -path ../patch_editor_abs/drums/simple-hats;
#X obj 110 318 declare -path ../patch_editor_abs/drums/cmbcym;
#X obj 110 338 declare -path ../patch_editor_abs/drums/fmperc;
#X connect 4 0 6 0;
#X connect 5 0 4 0;
#X connect 6 0 7 0;
#X connect 8 0 5 0;
#X connect 9 0 5 0;
#X coords 0 -1 1 1 85 70 2 100 100;
#X restore 1 7 pd do-not-delete;
#X obj 224 645 mymembrane 38;
#X obj 1200 798 diet-audio-to-mixer 41;
#X obj 225 919 diet-audio-to-mixer 42;
#X obj 1555 679 diet-saturation 28;
#X obj 1108 58 mymembrane-kick 1;
#X obj 225 426 basic-lfo 21;
#X obj 1518 129 diet-looper 2;
#X obj 3 417 basic-lfo 22;
#X obj 449 416 basic-lfo 23;
#X obj 463 924 perk-clap-mod;
#X obj 463 1143 spacestation 23;
#X obj 2 83 rhythm-designer 2;
#X obj 449 526 simple-hats 1;
#X obj 876 222 xfade 4;
#X obj 1193 511 fmperc;
#X obj 225 535 basic-lfo 24;
#X obj 676 405 basic-lfo 24;
#N canvas 208 233 766 569 scene-organizer 0;
#X obj 119 252 hsl 128 15 0 127 0 1 \$0-sample-rate-s \$0-sample-rate-r SCENE-MIX 133 7 0 10 #fcfcfc #000000 #000000 1000 1;
#X obj 135 348 cnv 5 5 5 empty empty <4 0 0 0 8 #fcfcfc #000000 0;
#X obj 135 332 cnv 5 5 5 empty empty <3 0 0 0 8 #fcfcfc #000000 0;
#X obj 135 317 cnv 5 5 5 empty empty <2 0 0 0 8 #fcfcfc #000000 0;
#X obj 135 302 cnv 5 5 5 empty empty <1 0 0 0 8 #fcfcfc #000000 0;
#X obj 116 295 vradio 15 1 0 4 \$0-8-diet-drum-seq-note-repeat-s \$0-8-diet-drum-seq-note-repeat-r empty 0 -8 0 10 #fcfcfc #000000 #000000 0;
#X obj 218 348 cnv 5 5 5 empty empty <4 0 0 0 8 #fcfcfc #000000 0;
#X obj 218 332 cnv 5 5 5 empty empty <3 0 0 0 8 #fcfcfc #000000 0;
#X obj 218 317 cnv 5 5 5 empty empty <2 0 0 0 8 #fcfcfc #000000 0;
#X obj 218 302 cnv 5 5 5 empty empty <1 0 0 0 8 #fcfcfc #000000 0;
#X obj 199 295 vradio 15 1 0 4 \$0-8-diet-drum-seq-note-repeat-s \$0-8-diet-drum-seq-note-repeat-r empty 0 -8 0 10 #fcfcfc #000000 #000000 0;
#X obj 199 283 cnv 5 5 5 empty empty SCENE\ B 0 0 0 10 #fcfcfc #000000 0;
#X obj 116 283 cnv 5 5 5 empty empty SCENE\ A 0 0 0 10 #fcfcfc #000000 0;
#X obj 135 208 cnv 5 5 5 empty empty <4 0 0 0 8 #fcfcfc #000000 0;
#X obj 135 192 cnv 5 5 5 empty empty <3 0 0 0 8 #fcfcfc #000000 0;
#X obj 135 177 cnv 5 5 5 empty empty <2 0 0 0 8 #fcfcfc #000000 0;
#X obj 135 162 cnv 5 5 5 empty empty <1 0 0 0 8 #fcfcfc #000000 0;
#X obj 116 155 vradio 15 1 0 4 \$0-8-diet-drum-seq-note-repeat-s \$0-8-diet-drum-seq-note-repeat-r empty 0 -8 0 10 #fcfcfc #000000 #000000 0;
#X obj 116 143 cnv 5 5 5 empty empty GUI-SCENE: 0 0 0 10 #fcfcfc #000000 0;
#X obj 156 215 bng 15 250 50 0 empty empty LOAD-> -40 8 0 10 #fcfcfc #000000 #000000;
#X obj 115 120 cnv 5 5 5 empty empty SCENE-ORGANIZER 0 0 0 12 #fcfcfc #404040 0;
#X obj 382 153 f;
#X obj 382 171 + 1;
#X obj 382 190 s gui-scene;
#X obj 215 208 cnv 5 5 5 empty empty <4 0 0 0 8 #fcfcfc #000000 0;
#X obj 215 192 cnv 5 5 5 empty empty <3 0 0 0 8 #fcfcfc #000000 0;
#X obj 215 177 cnv 5 5 5 empty empty <2 0 0 0 8 #fcfcfc #000000 0;
#X obj 215 162 cnv 5 5 5 empty empty <1 0 0 0 8 #fcfcfc #000000 0;
#X obj 196 155 vradio 15 1 0 4 \$0-8-diet-drum-seq-note-repeat-s \$0-8-diet-drum-seq-note-repeat-r empty 0 -8 0 10 #fcfcfc #000000 #000000 0;
#X obj 196 143 cnv 5 5 5 empty empty SCENE-COPY-TO: 0 0 0 10 #fcfcfc #000000 0;
#X obj 236 215 bng 15 250 50 0 empty empty COPY-> -40 8 0 10 #fcfcfc #000000 #000000;
#X obj 472 152 f;
#X obj 472 171 + 1;
#X obj 472 190 s copy-scene;
#X connect 17 0 21 1;
#X connect 19 0 21 0;
#X connect 21 0 22 0;
#X connect 22 0 23 0;
#X connect 28 0 31 1;
#X connect 30 0 31 0;
#X connect 31 0 32 0;
#X connect 32 0 33 0;
#X coords 0 -1 1 1 220 270 2 100 100;
#X restore 509 90 pd scene-organizer;
#X connect 0 0 4 0;
#X connect 2 0 22 0;
#X connect 7 0 15 0;
#X connect 8 1 6 0;
#X connect 9 0 1 0;
#X connect 10 0 23 0;
#X connect 10 2 23 1;
#X connect 10 3 7 1;
#X connect 10 3 23 4;
#X connect 12 0 22 0;
#X connect 12 0 14 0;
#X connect 15 0 8 0;
#X connect 17 3 12 1;
#X connect 19 0 9 4;
#X connect 19 3 9 1;
#X connect 20 0 24 1;
#X connect 20 0 9 7;
#X connect 20 3 24 2;
#X connect 21 0 2 0;
#X connect 22 0 14 0;
#X connect 23 0 9 0;
#X connect 23 1 12 0;
#X connect 23 2 24 0;
#X connect 23 3 0 0;
#X connect 23 7 7 0;
#X connect 24 0 3 0;
#X connect 27 3 12 2;
#X connect 28 3 0 2;
