#N canvas 9 25 1431 847 10;
#X declare -path ../000-SAMPLE-LIBRARY;
#X declare -path ../patch_editor_abs;
#X declare -path ../patch_editor_abs/test;
#X declare -path ../patch_editor_abs/controller;
#X declare -path ../patch_editor_abs/airwindows;
#X declare -path ../patch_editor_abs/drums;
#X declare -path ../patch_editor_abs/mixer;
#X declare -path ../patch_editor_abs/sequencers;
#X declare -path ../patch_editor_abs/effects;
#X declare -path ../patch_editor_abs/utility;
#X declare -path ../patch_editor_abs/filters;
#X declare -path ../patch_editor_abs/reverbs;
#X declare -path ../patch_editor_abs/modifier;
#X declare -path ../patch_editor_abs/looper;
#X declare -path ../patch_editor_abs/sequencers/rhythm-designer;
#X declare -path ../patch_editor_abs/drums/simple-hats;
#X declare -path ../patch_editor_abs/drums/cmbcym;
#X declare -path ../patch_editor_abs/drums/fmperc;
#X obj 671 526 cmbcym;
#X obj 2 798 diet-audio-to-mixer 34;
#X obj 463 1039 diet-saturation 26;
#X obj 449 799 diet-audio-to-mixer 36;
#X obj 671 799 diet-audio-to-mixer 38;
#X obj 894 800 diet-audio-to-mixer 39;
#X obj 1554 862 diet-audio-to-mixer 40;
#X obj 1555 523 diet-looper 1;
#X obj 1555 782 mixer2 6;
#X obj 2 524 synth-kick 31;
#X obj 88 7 menu;
#N canvas 279 183 773 552 do-not-delete 0;
#X obj 100 182 declare -path ../000-SAMPLE-LIBRARY;
#X obj 100 201 declare -path ../patch_editor_abs;
#X obj 100 239 declare -path ../patch_editor_abs/test;
#X obj 100 220 declare -path ../patch_editor_abs/controller;
#X obj 491 105 pdcontrol;
#X msg 491 87 dir;
#X obj 491 125 pack s;
#X obj 491 144 s patch-path;
#X obj 491 67 r update-path;
#X obj 549 85 loadbang;
#X obj 100 258 declare -path ../patch_editor_abs/airwindows;
#X obj 105 163 cnv 5 5 5 empty empty NOT_DELETE 0 0 0 12 #fcfcfc #404040 0;
#X obj 100 278 declare -path ../patch_editor_abs/drums;
#X obj 100 358 declare -path ../patch_editor_abs/mixer;
#X obj 100 378 declare -path ../patch_editor_abs/sequencers;
#X obj 100 418 declare -path ../patch_editor_abs/effects;
#X obj 100 438 declare -path ../patch_editor_abs/utility;
#X obj 100 458 declare -path ../patch_editor_abs/filters;
#X obj 100 478 declare -path ../patch_editor_abs/reverbs;
#X obj 100 498 declare -path ../patch_editor_abs/modifier;
#X obj 100 518 declare -path ../patch_editor_abs/looper;
#X obj 105 113 cnv 5 5 5 empty empty MOLIPE 0 0 0 18 #fcfcfc #404040 0;
#X obj 110 398 declare -path ../patch_editor_abs/sequencers/rhythm-designer;
#X obj 110 298 declare -path ../patch_editor_abs/drums/simple-hats;
#X obj 110 318 declare -path ../patch_editor_abs/drums/cmbcym;
#X obj 110 338 declare -path ../patch_editor_abs/drums/fmperc;
#X connect 4 0 6 0;
#X connect 5 0 4 0;
#X connect 6 0 7 0;
#X connect 8 0 5 0;
#X connect 9 0 5 0;
#X coords 0 -1 1 1 85 70 2 100 100;
#X restore 1 7 pd do-not-delete;
#X obj 224 645 mymembrane 38;
#X obj 1200 798 diet-audio-to-mixer 41;
#X obj 225 919 diet-audio-to-mixer 42;
#X obj 1555 679 diet-saturation 28;
#X obj 1108 58 mymembrane-kick 1;
#X obj 225 426 basic-lfo 21;
#X obj 1518 129 diet-looper 2;
#X obj 3 417 basic-lfo 22;
#X obj 449 416 basic-lfo 23;
#X obj 463 924 perk-clap-mod;
#X obj 463 1143 spacestation 23;
#X obj 2 83 rhythm-designer 2;
#X obj 449 526 simple-hats 1;
#X obj 876 222 xfade 4;
#X obj 1193 511 fmperc;
#X obj 225 535 basic-lfo 24;
#X obj 676 405 basic-lfo 24;
#N canvas 208 233 1210 573 scene-organizer 0;
#X obj 119 252 hsl 128 15 0 127 0 1 \$0-param-3-s \$0-param-3-r SCENE-MIX 133 7 0 10 #fcfcfc #000000 #000000 8700 1;
#X obj 135 348 cnv 5 5 5 empty empty <4 0 0 0 8 #fcfcfc #000000 0;
#X obj 135 332 cnv 5 5 5 empty empty <3 0 0 0 8 #fcfcfc #000000 0;
#X obj 135 317 cnv 5 5 5 empty empty <2 0 0 0 8 #fcfcfc #000000 0;
#X obj 135 302 cnv 5 5 5 empty empty <1 0 0 0 8 #fcfcfc #000000 0;
#X obj 116 295 vradio 15 1 0 4 \$0-param-4-s \$0-param-4-r empty 0 -8 0 10 #fcfcfc #000000 #000000 0;
#X obj 218 348 cnv 5 5 5 empty empty <4 0 0 0 8 #fcfcfc #000000 0;
#X obj 218 332 cnv 5 5 5 empty empty <3 0 0 0 8 #fcfcfc #000000 0;
#X obj 218 317 cnv 5 5 5 empty empty <2 0 0 0 8 #fcfcfc #000000 0;
#X obj 218 302 cnv 5 5 5 empty empty <1 0 0 0 8 #fcfcfc #000000 0;
#X obj 199 295 vradio 15 1 0 4 \$0-param-5-s \$0-param-5-r empty 0 -8 0 10 #fcfcfc #000000 #000000 0;
#X obj 199 283 cnv 5 5 5 empty empty SCENE\ B 0 0 0 10 #fcfcfc #000000 0;
#X obj 116 283 cnv 5 5 5 empty empty SCENE\ A 0 0 0 10 #fcfcfc #000000 0;
#X obj 135 208 cnv 5 5 5 empty empty <4 0 0 0 8 #fcfcfc #000000 0;
#X obj 135 192 cnv 5 5 5 empty empty <3 0 0 0 8 #fcfcfc #000000 0;
#X obj 135 177 cnv 5 5 5 empty empty <2 0 0 0 8 #fcfcfc #000000 0;
#X obj 135 162 cnv 5 5 5 empty empty <1 0 0 0 8 #fcfcfc #000000 0;
#X obj 116 155 vradio 15 1 0 4 \$0-param-1-s \$0-param-1-r empty 0 -8 0 10 #fcfcfc #000000 #000000 0;
#X obj 116 143 cnv 5 5 5 empty empty GUI-SCENE: 0 0 0 10 #fcfcfc #000000 0;
#X obj 156 215 bng 15 250 50 0 empty empty LOAD-> -40 8 0 10 #fcfcfc #000000 #000000;
#X obj 115 120 cnv 5 5 5 empty empty SCENE-ORGANIZER 0 0 0 12 #fcfcfc #404040 0;
#X obj 382 153 f;
#X obj 382 171 + 1;
#X obj 382 190 s gui-scene;
#X obj 215 208 cnv 5 5 5 empty empty <4 0 0 0 8 #fcfcfc #000000 0;
#X obj 215 192 cnv 5 5 5 empty empty <3 0 0 0 8 #fcfcfc #000000 0;
#X obj 215 177 cnv 5 5 5 empty empty <2 0 0 0 8 #fcfcfc #000000 0;
#X obj 215 162 cnv 5 5 5 empty empty <1 0 0 0 8 #fcfcfc #000000 0;
#X obj 196 155 vradio 15 1 0 4 \$0-param-2-s \$0-param-2-r empty 0 -8 0 10 #fcfcfc #000000 #000000 0;
#X obj 196 143 cnv 5 5 5 empty empty SCENE-COPY-TO: 0 0 0 10 #fcfcfc #000000 0;
#X obj 236 215 bng 15 250 50 0 empty empty COPY-> -40 8 0 10 #fcfcfc #000000 #000000;
#X obj 472 152 f;
#X obj 472 171 + 1;
#X obj 472 190 s copy-scene;
#X obj 626 166 s \$0-instance-num;
#X obj 626 128 makefilename %d;
#X msg 626 147 label \$1;
#N canvas 8 33 1425 832 state-saving-multiple-instances-with-scenes 0;
#X obj 223 18 loadbang;
#X obj 230 247 f;
#X obj 230 226 t b b b;
#X obj 281 206 outlet;
#X text 277 226 INSTANCE NUMBER;
#X obj 242 92 f \$1;
#X obj 242 128 t f f f;
#X obj 230 202 bng 15 250 50 0 empty empty empty 17 7 0 10 #fcfcfc #000000 #000000;
#X obj 230 179 r SAVE-S;
#X obj 631 291 r patch-path;
#X msg 575 350 read /Users/johannklug/Documents/Bass\ Dieter/2025/Diet/MODULAR_LIVE_\ PERFORMER/patch1/statesave/0-scene-org-ss.txt;
#X obj 272 92 s update-path;
#X obj 223 51 t b b b;
#X msg 230 350 write /Users/johannklug/Documents/Bass\ Dieter/2025/Diet/MODULAR_LIVE_\ PERFORMER/patch1/statesave/0-scene-org-ss.txt;
#X obj 586 310 pack f s;
#X obj 285 289 r patch-path;
#X obj 240 309 pack f s;
#X obj 230 268 t b f;
#X obj 575 269 f;
#X obj 575 290 t b f;
#X obj 229 448 array define \$0-presets 256;
#X obj 225 853 tabwrite \$0-presets;
#X obj 336 816 loadbang;
#X obj 225 679 tabread \$0-presets;
#X obj 258 795 t b;
#X obj 225 831 spigot;
#X msg 258 814 0;
#X obj 294 796 del 5;
#X msg 294 815 1;
#X obj 225 697 s \$0-param-1-r;
#X obj 225 754 r \$0-param-1-s;
#X obj 445 853 tabwrite \$0-presets;
#X obj 445 679 tabread \$0-presets;
#X obj 478 795 t b;
#X obj 445 831 spigot;
#X msg 478 814 0;
#X obj 514 796 del 5;
#X msg 514 815 1;
#X obj 445 697 s \$0-param-2-r;
#X obj 445 754 r \$0-param-2-s;
#X obj 665 853 tabwrite \$0-presets;
#X obj 665 679 tabread \$0-presets;
#X obj 698 795 t b;
#X obj 665 831 spigot;
#X msg 698 814 0;
#X obj 734 796 del 5;
#X msg 734 815 1;
#X obj 885 853 tabwrite \$0-presets;
#X obj 885 679 tabread \$0-presets;
#X obj 918 795 t b;
#X obj 885 831 spigot;
#X msg 918 814 0;
#X obj 954 796 del 5;
#X msg 954 815 1;
#X obj 665 697 s \$0-param-3-r;
#X obj 665 754 r \$0-param-3-s;
#X obj 885 697 s \$0-param-4-r;
#X obj 885 754 r \$0-param-4-s;
#X text 221 725 writing param to scene;
#X text 221 510 reading param from array;
#X text 885 39 Array - Saving Rules \; -Slot 1-16 for non-scene values \; -Each Scene has 16 slots -There are 4 Scene-Slots;
#X obj 1105 853 tabwrite \$0-presets;
#X obj 1105 679 tabread \$0-presets;
#X obj 1138 795 t b;
#X obj 1105 831 spigot;
#X msg 1138 814 0;
#X obj 1174 796 del 5;
#X obj 1325 853 tabwrite \$0-presets;
#X obj 1325 679 tabread \$0-presets;
#X obj 1358 795 t b;
#X obj 1325 831 spigot;
#X msg 1358 814 0;
#X obj 1394 796 del 5;
#X msg 1394 815 1;
#X obj 1358 775 r \$0-wait;
#X obj 1545 853 tabwrite \$0-presets;
#X obj 1545 679 tabread \$0-presets;
#X obj 1578 795 t b;
#X obj 1545 831 spigot;
#X msg 1578 814 0;
#X obj 1614 796 del 5;
#X obj 1578 775 r \$0-wait;
#X obj 1765 853 tabwrite \$0-presets;
#X obj 1765 679 tabread \$0-presets;
#X obj 1798 795 t b;
#X obj 1765 831 spigot;
#X msg 1798 814 0;
#X obj 1834 796 del 5;
#X msg 1834 815 1;
#X obj 1798 775 r \$0-wait;
#X text 1101 725 writing param to scene;
#X obj 1105 697 s \$0-param-5-r;
#X obj 1325 697 s \$0-param-6-r;
#X obj 1545 697 s \$0-param-7-r;
#X obj 1765 697 s \$0-param-8-r;
#X msg 1174 815 1;
#X msg 1614 815 1;
#X obj 1105 754 r \$0-param-5-s;
#X obj 1325 754 r \$0-param-6-s;
#X obj 1545 754 r \$0-param-7-s;
#X obj 1765 754 r \$0-param-8-s;
#X msg 240 329 set write \$2/statesave/\$1-scene-org-ss.txt;
#X msg 586 329 set read \$2/statesave/\$1-scene-org-ss.txt;
#X msg 225 660 17;
#X msg 445 660 18;
#X msg 336 834 17;
#X msg 665 659 19;
#X msg 885 660 20;
#X msg 1107 651 21;
#X msg 1325 659 22;
#X msg 1545 660 23;
#X msg 1765 660 24;
#X msg 556 835 18;
#X msg 776 835 19;
#X msg 996 835 20;
#X msg 1216 834 21;
#X obj 1436 816 r loadbang;
#X msg 1436 834 22;
#X msg 1656 834 23;
#X msg 1876 833 24;
#X obj 258 775 loadbang;
#X obj 478 775 loadbang;
#X obj 698 775 loadbang;
#X obj 918 775 loadbang;
#X obj 1138 775 loadbang;
#X obj 556 817 loadbang;
#X obj 225 641 loadbang;
#X obj 445 641 loadbang;
#X obj 665 640 loadbang;
#X obj 885 641 loadbang;
#X obj 1107 632 loadbang;
#X obj 776 817 loadbang;
#X obj 996 817 loadbang;
#X obj 1216 816 loadbang;
#X obj 1656 816 loadbang;
#X obj 1876 815 loadbang;
#X obj 1325 640 loadbang;
#X obj 1545 640 loadbang;
#X obj 1765 641 loadbang;
#X connect 0 0 12 0;
#X connect 1 0 17 0;
#X connect 2 0 1 0;
#X connect 5 0 6 0;
#X connect 6 0 1 1;
#X connect 6 1 18 0;
#X connect 6 2 3 0;
#X connect 7 0 2 0;
#X connect 8 0 7 0;
#X connect 9 0 14 1;
#X connect 10 0 20 0;
#X connect 12 1 5 0;
#X connect 12 2 11 0;
#X connect 13 0 20 0;
#X connect 14 0 102 0;
#X connect 15 0 16 1;
#X connect 16 0 101 0;
#X connect 17 0 13 0;
#X connect 17 1 16 0;
#X connect 18 0 19 0;
#X connect 19 0 10 0;
#X connect 19 1 14 0;
#X connect 22 0 105 0;
#X connect 23 0 29 0;
#X connect 24 0 26 0;
#X connect 24 0 27 0;
#X connect 25 0 21 0;
#X connect 26 0 25 1;
#X connect 27 0 28 0;
#X connect 28 0 25 1;
#X connect 30 0 25 0;
#X connect 32 0 38 0;
#X connect 33 0 35 0;
#X connect 33 0 36 0;
#X connect 34 0 31 0;
#X connect 35 0 34 1;
#X connect 36 0 37 0;
#X connect 37 0 34 1;
#X connect 39 0 34 0;
#X connect 41 0 54 0;
#X connect 42 0 44 0;
#X connect 42 0 45 0;
#X connect 43 0 40 0;
#X connect 44 0 43 1;
#X connect 45 0 46 0;
#X connect 46 0 43 1;
#X connect 48 0 56 0;
#X connect 49 0 51 0;
#X connect 49 0 52 0;
#X connect 50 0 47 0;
#X connect 51 0 50 1;
#X connect 52 0 53 0;
#X connect 53 0 50 1;
#X connect 55 0 43 0;
#X connect 57 0 50 0;
#X connect 62 0 91 0;
#X connect 63 0 65 0;
#X connect 63 0 66 0;
#X connect 64 0 61 0;
#X connect 65 0 64 1;
#X connect 66 0 95 0;
#X connect 68 0 92 0;
#X connect 69 0 71 0;
#X connect 69 0 72 0;
#X connect 70 0 67 0;
#X connect 71 0 70 1;
#X connect 72 0 73 0;
#X connect 73 0 70 1;
#X connect 74 0 69 0;
#X connect 76 0 93 0;
#X connect 77 0 79 0;
#X connect 77 0 80 0;
#X connect 78 0 75 0;
#X connect 79 0 78 1;
#X connect 80 0 96 0;
#X connect 81 0 77 0;
#X connect 83 0 94 0;
#X connect 84 0 86 0;
#X connect 84 0 87 0;
#X connect 85 0 82 0;
#X connect 86 0 85 1;
#X connect 87 0 88 0;
#X connect 88 0 85 1;
#X connect 89 0 84 0;
#X connect 95 0 64 1;
#X connect 96 0 78 1;
#X connect 97 0 64 0;
#X connect 98 0 70 0;
#X connect 99 0 78 0;
#X connect 100 0 85 0;
#X connect 101 0 13 0;
#X connect 102 0 10 0;
#X connect 103 0 23 0;
#X connect 104 0 32 0;
#X connect 105 0 21 1;
#X connect 106 0 41 0;
#X connect 107 0 48 0;
#X connect 108 0 62 0;
#X connect 109 0 68 0;
#X connect 110 0 76 0;
#X connect 111 0 83 0;
#X connect 112 0 31 1;
#X connect 113 0 40 1;
#X connect 114 0 47 1;
#X connect 115 0 61 1;
#X connect 116 0 117 0;
#X connect 117 0 67 1;
#X connect 118 0 75 1;
#X connect 119 0 82 1;
#X connect 120 0 24 0;
#X connect 121 0 33 0;
#X connect 122 0 42 0;
#X connect 123 0 49 0;
#X connect 124 0 63 0;
#X connect 125 0 112 0;
#X connect 126 0 103 0;
#X connect 127 0 104 0;
#X connect 128 0 106 0;
#X connect 129 0 107 0;
#X connect 130 0 108 0;
#X connect 131 0 113 0;
#X connect 132 0 114 0;
#X connect 133 0 115 0;
#X connect 134 0 118 0;
#X connect 135 0 119 0;
#X connect 136 0 109 0;
#X connect 137 0 110 0;
#X connect 138 0 111 0;
#X restore 626 109 pd state-saving-multiple-instances-with-scenes;
#X obj 156 28 loadbang;
#X obj 156 49 del 100;
#X connect 17 0 21 1;
#X connect 19 0 21 0;
#X connect 21 0 22 0;
#X connect 22 0 23 0;
#X connect 28 0 31 1;
#X connect 30 0 31 0;
#X connect 31 0 32 0;
#X connect 32 0 33 0;
#X connect 35 0 36 0;
#X connect 36 0 34 0;
#X connect 37 0 35 0;
#X connect 38 0 39 0;
#X connect 39 0 19 0;
#X coords 0 -1 1 1 220 270 2 100 100;
#X restore 509 90 pd scene-organizer;
#X connect 0 0 4 0;
#X connect 2 0 22 0;
#X connect 7 0 15 0;
#X connect 8 1 6 0;
#X connect 9 0 1 0;
#X connect 10 0 23 0;
#X connect 10 2 23 1;
#X connect 10 3 7 1;
#X connect 10 3 23 4;
#X connect 12 0 22 0;
#X connect 12 0 14 0;
#X connect 15 0 8 0;
#X connect 17 3 12 1;
#X connect 19 0 9 4;
#X connect 19 3 9 1;
#X connect 20 0 24 1;
#X connect 20 0 9 7;
#X connect 20 3 24 2;
#X connect 21 0 2 0;
#X connect 22 0 14 0;
#X connect 23 0 9 0;
#X connect 23 1 12 0;
#X connect 23 2 24 0;
#X connect 23 3 0 0;
#X connect 23 7 7 0;
#X connect 24 0 3 0;
#X connect 27 3 12 2;
#X connect 28 3 0 2;
