#N canvas 15 25 1425 832 10;
#X declare -path ../../patch_editor_abs/drums/simple-hats;
#X declare -path ../../000-SAMPLE-LIBRARY;
#X declare -path ../../patch_editor_abs;
#X declare -path ../../patch_editor_abs/controller;
#X declare -path ../../patch_editor_abs/test;
#X declare -path ../../patch_editor_abs/airwindows;
#X declare -path ../../patch_editor_abs/drums;
#X declare -path ../../patch_editor_abs/drums/cmbcym;
#X declare -path ../../patch_editor_abs/drums/fmperc;
#X declare -path ../../patch_editor_abs/mixer;
#X declare -path ../../patch_editor_abs/sequencers;
#X declare -path ../../patch_editor_abs/sequencers/rhythm-designer;
#X declare -path ../../patch_editor_abs/sequencers/mono-rhythm;
#X declare -path ../../patch_editor_abs/effects;
#X declare -path ../../patch_editor_abs/effects/delay;
#X declare -path ../../patch_editor_abs/utility/scene-conductor;
#X declare -path ../../patch_editor_abs/filters;
#X declare -path ../../patch_editor_abs/reverbs;
#X declare -path ../../patch_editor_abs/modifier;
#X declare -path ../../patch_editor_abs/looper;
#X declare -path ../../patch_editor_abs/shared-objects;
#X declare -path ../../patch_editor_abs/core;
#X declare -path ../../patch_editor_abs/utility;
#X obj 2 1420 diet-audio-to-mixer 34;
#X obj 2188 1136 diet-saturation 26;
#X obj 447 1420 diet-audio-to-mixer 36;
#X obj 668 1421 diet-audio-to-mixer 38;
#X obj 891 1419 diet-audio-to-mixer 39;
#X obj 1790 1500 diet-audio-to-mixer 40;
#X obj 1118 535 diet-looper 1;
#X obj 2206 954 mixer2 6;
#X obj 1563 47 menu;
#X obj 223 850 mymembrane 38;
#X obj 1567 1500 diet-audio-to-mixer 41;
#X obj 225 1419 diet-audio-to-mixer 42;
#X obj 2206 853 diet-saturation 28;
#X obj 446 853 simple-hats 1;
#X obj 1339 49 scene-conductor;
#X obj 1570 1205 catch~ send1;
#X obj 1567 913 catch~ send2;
#X obj 1567 933 stereo-delay 6;
#X obj 1569 1223 millerverb 3;
#X obj 1997 1022 clipper 3;
#X obj 1116 1730 diet-audio-to-mixer 43;
#X obj 450 47 mono-rhythm 1;
#X obj 227 47 mono-rhythm 2;
#X obj 4 372 mute-group 1;
#X obj 4 427 repeater-group 1;
#X obj 5 47 mono-rhythm 3;
#X obj 672 48 mono-rhythm 4;
#X obj 4 527 basic-lfo 1;
#X obj 7 687 basic-lfo 2;
#X obj 224 527 basic-lfo 3;
#X obj 227 687 basic-lfo 4;
#X obj 445 528 basic-lfo 5;
#X obj 445 688 basic-lfo 6;
#X obj 666 528 basic-lfo 7;
#X obj 667 688 basic-lfo 8;
#X obj 886 528 basic-lfo 9;
#X obj 887 688 basic-lfo 10;
#X obj 1344 528 basic-lfo 13;
#X obj 1344 721 basic-lfo 14;
#X obj 2 850 synth-kick2 1;
#X obj 894 47 mono-rhythm 5;
#X obj 1117 49 mono-rhythm 6;
#X obj 2 1125 channel 1;
#X obj 223 1125 channel 2;
#X obj 446 1126 channel 3;
#X obj 668 1125 channel 4;
#X obj 891 1124 channel 5;
#X obj 1116 1439 channel 6;
#X obj 1568 529 basic-lfo 15;
#X obj 1567 722 basic-lfo 16;
#X obj 1344 1207 channel 7;
#X obj 891 851 perk-clap-mod 1;
#X obj 1894 750 fmperc 1;
#X obj 668 851 cmbcym 1;
#N canvas 279 183 979 649 do-not-delete 0;
#X obj 484 311 pdcontrol;
#X msg 484 293 dir;
#X obj 484 331 pack s;
#X obj 484 350 s patch-path;
#X obj 484 273 r update-path;
#X obj 542 291 loadbang;
#X obj 496 116 cnv 5 5 5 empty empty //////\ DO_NOT_DELETE\ ///////// 0 0 0 12 #fcfcfc #404040 0;
#X obj 110 368 declare -path ../../patch_editor_abs/drums/simple-hats;
#X obj 100 252 declare -path ../../000-SAMPLE-LIBRARY;
#X obj 100 271 declare -path ../../patch_editor_abs;
#X obj 100 290 declare -path ../../patch_editor_abs/controller;
#X obj 100 309 declare -path ../../patch_editor_abs/test;
#X obj 100 328 declare -path ../../patch_editor_abs/airwindows;
#X obj 100 347 declare -path ../../patch_editor_abs/drums;
#X obj 110 388 declare -path ../../patch_editor_abs/drums/cmbcym;
#X obj 110 408 declare -path ../../patch_editor_abs/drums/fmperc;
#X obj 100 428 declare -path ../../patch_editor_abs/mixer;
#X obj 100 448 declare -path ../../patch_editor_abs/sequencers;
#X obj 110 468 declare -path ../../patch_editor_abs/sequencers/rhythm-designer, f 69;
#X obj 110 488 declare -path ../../patch_editor_abs/sequencers/mono-rhythm;
#X obj 100 508 declare -path ../../patch_editor_abs/effects;
#X obj 110 528 declare -path ../../patch_editor_abs/effects/delay;
#X obj 110 568 declare -path ../../patch_editor_abs/utility/scene-conductor;
#X obj 100 588 declare -path ../../patch_editor_abs/filters;
#X obj 100 608 declare -path ../../patch_editor_abs/reverbs;
#X obj 100 628 declare -path ../../patch_editor_abs/modifier;
#X obj 100 648 declare -path ../../patch_editor_abs/looper;
#X obj 100 668 declare -path ../../patch_editor_abs/shared-objects;
#X obj 100 688 declare -path ../../patch_editor_abs/core;
#X obj 100 548 declare -path ../../patch_editor_abs/utility;
#X obj 110 105 cnv 16 50 50 empty empty M 4 25 1 50 #ed8008 #ffffff 0;
#X obj 165 105 cnv 16 50 50 empty empty O 5 25 1 50 #e86b0d #ffffff 0;
#X obj 220 105 cnv 16 50 50 empty empty L 10 25 1 50 #e25511 #ffffff 0;
#X obj 275 105 cnv 16 50 50 empty empty I 17 25 1 50 #db3e14 #ffffff 0;
#X obj 330 105 cnv 16 50 50 empty empty P 10 25 1 50 #d22616 #ffffff 0;
#X obj 385 105 cnv 16 50 50 empty empty E 6 25 1 50 #c91917 #ffffff 0;
#X obj 440 105 cnv 16 50 50 empty empty /// 3 25 1 50 #c01718 #ffffff 0;
#X obj 495 130 cnv 16 380 25 empty empty MODULAR\ LIVE\ PERFORMER 14 13 1 25 #dfdfdf #404040 0;
#X connect 0 0 2 0;
#X connect 1 0 0 0;
#X connect 2 0 3 0;
#X connect 4 0 1 0;
#X connect 5 0 1 0;
#X coords 0 -1 1 1 1780 60 2 100 100;
#X restore 5 -17 pd do-not-delete;
#X obj -110 405 s global-sidechain;
#X obj 1115 851 diet-looper 2;
#X obj 1116 1147 diet-looper 3;
#X obj 1788 47 core_mother;
#X text 1827 27 OFF THE GRID - MODULES:;
#N canvas 0 25 1440 847 network-communicator 0;
#X obj 104 103 cnv 5 5 5 empty empty DISPLAY-COMMUNICATOR: 0 12 0 10 #fcfcfc #404040 0;
#X msg 410 138 connect localhost 9001;
#X obj 410 198 netsend -u;
#X obj 410 95 loadbang;
#X obj 421 163 r display-message;
#X obj 411 577 s display-message;
#X obj 596 -6 r patch-nr-loaded;
#X obj 908 32 s display-message;
#X obj 908 -10 r patch-nr-loaded;
#X obj 1527 77 s display-message;
#X msg 908 9 1 0 #5f503e #000000 center BPM:120;
#N canvas 63 88 1263 654 knobs-preset 0;
#X obj 812 179 pack f f;
#X floatatom 812 133 5 0 0 0 - - - 0;
#X floatatom 851 135 5 0 0 0 - - - 0;
#X obj 851 153 t b f;
#X msg 811 198 send RINGVAL 3 1 \$1 \$2;
#X msg 811 236 3 3 #736b1e #000000 center mod*LFO;
#X msg 811 218 3 2 #736b1e #000000 center FREQ;
#X obj 576 181 pack f f;
#X floatatom 576 128 5 0 0 0 - - - 0;
#X floatatom 612 130 5 0 0 0 - - - 0;
#X obj 615 155 t b f;
#X msg 576 200 send RINGVAL 2 1 \$1 \$2;
#X msg 577 219 2 2 #bf1b1b #000000 center FREQ;
#X msg 577 238 2 3 #bf1b1b #000000 center mod*LFO;
#X obj 343 176 pack f f;
#X floatatom 343 123 5 0 0 0 - - - 0;
#X floatatom 379 125 5 0 0 0 - - - 0;
#X obj 382 150 t b f;
#X msg 343 197 send RINGVAL 1 1 \$1 \$2;
#X msg 343 218 1 2 #ed3f1c #000000 center FREQ;
#X msg 343 238 1 3 #912610 #000000 center mod*LFO;
#X obj 113 177 pack f f;
#X floatatom 113 124 5 0 0 0 - - - 0;
#X floatatom 149 126 5 0 0 0 - - - 0;
#X obj 152 151 t b f;
#X msg 113 218 0 2 #ed8008 #000000 center FREQ;
#X msg 113 238 0 3 #912610 #000000 center mod*LFO;
#X msg 113 198 send RINGVAL 0 1 \$1 \$2;
#X obj 807 363 pack f f;
#X floatatom 807 310 5 0 0 0 - - - 0;
#X floatatom 843 312 5 0 0 0 - - - 0;
#X obj 846 337 t b f;
#X obj 577 363 pack f f;
#X floatatom 577 310 5 0 0 0 - - - 0;
#X floatatom 613 312 5 0 0 0 - - - 0;
#X obj 616 337 t b f;
#X obj 344 360 pack f f;
#X floatatom 344 307 5 0 0 0 - - - 0;
#X floatatom 380 309 5 0 0 0 - - - 0;
#X obj 383 334 t b f;
#X obj 115 359 pack f f;
#X floatatom 115 306 5 0 0 0 - - - 0;
#X floatatom 154 314 5 0 0 0 - - - 0;
#X obj 154 333 t b f;
#X msg 807 403 3 6 #d9c3b0 #000000 center FREQ;
#X msg 807 422 3 7 #d9c3b0 #000000 center mod*LFO;
#X msg 807 384 send RINGVAL 3 5 \$1 \$2;
#X msg 577 402 2 6 #bfa07a #000000 center FREQ;
#X msg 577 421 2 7 #bfa07a #000000 center mod*LFO;
#X msg 577 384 send RINGVAL 2 5 \$1 \$2;
#X msg 344 401 1 6 #3b4b59 #000000 center FREQ;
#X msg 344 420 1 7 #3b4b59 #000000 center mod*LFO;
#X msg 344 381 send RINGVAL 1 5 \$1 \$2;
#X msg 115 399 0 6 #cc6324 #000000 center FREQ;
#X msg 115 418 0 7 #cc6324 #000000 center mod*LFO;
#X msg 115 380 send RINGVAL 0 5 \$1 \$2;
#X text 115 98 PARA1;
#X text 341 97 PARA2;
#X text 574 105 PARA3;
#X text 810 107 PARA4;
#X text 113 283 PARA5;
#X text 343 283 PARA6;
#X text 576 288 PARA7;
#X text 804 291 PARA8;
#X connect 0 0 4 0;
#X connect 1 0 0 0;
#X connect 2 0 3 0;
#X connect 3 0 0 0;
#X connect 3 1 0 1;
#X connect 7 0 11 0;
#X connect 8 0 7 0;
#X connect 9 0 10 0;
#X connect 10 0 7 0;
#X connect 10 1 7 1;
#X connect 14 0 18 0;
#X connect 15 0 14 0;
#X connect 16 0 17 0;
#X connect 17 0 14 0;
#X connect 17 1 14 1;
#X connect 21 0 27 0;
#X connect 22 0 21 0;
#X connect 23 0 24 0;
#X connect 24 0 21 0;
#X connect 24 1 21 1;
#X connect 28 0 46 0;
#X connect 29 0 28 0;
#X connect 30 0 31 0;
#X connect 31 0 28 0;
#X connect 31 1 28 1;
#X connect 32 0 49 0;
#X connect 33 0 32 0;
#X connect 34 0 35 0;
#X connect 35 0 32 0;
#X connect 35 1 32 1;
#X connect 36 0 52 0;
#X connect 37 0 36 0;
#X connect 38 0 39 0;
#X connect 39 0 36 0;
#X connect 39 1 36 1;
#X connect 40 0 55 0;
#X connect 41 0 40 0;
#X connect 42 0 43 0;
#X connect 43 0 40 0;
#X connect 43 1 40 1;
#X restore 410 229 pd knobs-preset;
#X text 591 -36 cell1;
#X text 907 -30 cell2;
#X text 1523 -36 cell4;
#X msg 1527 8 3 0 #5f503e #000000 center CPU:\$1%;
#X obj 1527 -11 r CPU;
#N canvas 63 88 1322 357 set-rings 0;
#X msg 976 120 send RING 3 1 #e3e3e3 #736b1e #000000 250 20 45;
#X obj 672 144 s display-message;
#X msg 672 124 send RING 2 1 #e3e3e3 #bf1b1b #000000 250 20 45;
#X obj 364 148 s display-message;
#X msg 364 128 send RING 1 1 #e3e3e3 #ed3f1c #000000 250 20 45;
#X obj 39 159 s display-message;
#X msg 39 140 send RING 0 1 #e3e3e3 #ed8008 #000000 250 20 45;
#X obj 976 141 s display-message;
#X obj 673 249 s display-message;
#X obj 366 251 s display-message;
#X obj 38 263 s display-message;
#X obj 974 251 s display-message;
#X msg 974 233 send RING 3 5 #e3e3e3 #d9c3b0 #000000 250 20 45;
#X msg 673 230 send RING 2 5 #e3e3e3 #bfa07a #000000 250 20 45;
#X msg 366 232 send RING 1 5 #e3e3e3 #3b4b59 #000000 250 20 45;
#X msg 38 243 send RING 0 5 #e3e3e3 #cc6324 #000000 250 20 45;
#X obj 39 112 del 50;
#X obj 364 107 del 50;
#X obj 672 104 del 50;
#X obj 976 100 del 50;
#X connect 0 0 7 0;
#X connect 2 0 1 0;
#X connect 4 0 3 0;
#X connect 6 0 5 0;
#X connect 12 0 11 0;
#X connect 13 0 8 0;
#X connect 14 0 9 0;
#X connect 15 0 10 0;
#X connect 16 0 6 0;
#X connect 17 0 4 0;
#X connect 18 0 2 0;
#X connect 19 0 0 0;
#X restore 411 253 pd set-rings;
#X obj 659 100 text define menu-labels;
#X text 658 81 Receives Names of Modules:;
#X obj 17 271 r menu-labels;
#X msg 418 558 0 9 #ffffff #000000 center \$1;
#X msg 411 538 0 9 #000000 #ffffff center \$1;
#X obj 453 501 text get menu-labels;
#X obj 453 519 symbol;
#X msg 453 483 0;
#X obj 411 465 text get menu-labels;
#X obj 411 483 symbol;
#X obj 17 310 t s b;
#X obj 58 310 f;
#X obj 17 347 text set menu-labels;
#X obj 17 328 symbol;
#X obj 17 291 unpack s f;
#X obj 660 296 text fromlist menu-labels;
#X obj 660 149 loadbang;
#X msg 411 447 0;
#X text 658 120 makes sure the text file is long enough to save necessary data:;
#X obj 611 577 s display-message;
#X obj 653 501 text get menu-labels;
#X obj 653 519 symbol;
#X obj 611 465 text get menu-labels;
#X obj 611 483 symbol;
#X msg 611 538 1 9 #000000 #ffffff center \$1;
#X msg 618 558 1 9 #ffffff #000000 center \$1;
#X msg 611 447 8;
#X obj 811 577 s display-message;
#X obj 853 501 text get menu-labels;
#X obj 853 519 symbol;
#X obj 811 465 text get menu-labels;
#X obj 811 483 symbol;
#X msg 811 538 2 9 #000000 #ffffff center \$1;
#X msg 818 558 2 9 #ffffff #000000 center \$1;
#X msg 811 447 16;
#X obj 1011 577 s display-message;
#X obj 1053 501 text get menu-labels;
#X obj 1053 519 symbol;
#X obj 1011 465 text get menu-labels;
#X obj 1011 483 symbol;
#X msg 1011 447 24;
#X msg 1011 538 3 9 #000000 #ffffff center \$1;
#X msg 1018 558 3 9 #ffffff #000000 center \$1;
#X obj 1221 577 s display-message;
#X obj 1263 501 text get menu-labels;
#X obj 1263 519 symbol;
#X obj 1221 465 text get menu-labels;
#X obj 1221 483 symbol;
#X msg 1221 538 4 9 #000000 #ffffff center \$1;
#X msg 1228 558 4 9 #ffffff #000000 center \$1;
#X msg 1221 447 32;
#X obj 411 351 r all-menu;
#X obj 411 391 unpack f f;
#X floatatom 411 410 5 0 0 0 - - - 0;
#X obj 411 370 route 1;
#X obj 411 428 sel 1;
#X msg 653 483 8;
#X msg 853 483 16;
#X msg 1053 483 24;
#X msg 1263 483 32;
#X obj 611 350 r all-menu;
#X obj 611 390 unpack f f;
#X floatatom 611 409 5 0 0 0 - - - 0;
#X obj 611 369 route 1;
#X obj 611 427 sel 2;
#X obj 811 351 r all-menu;
#X obj 811 391 unpack f f;
#X floatatom 811 410 5 0 0 0 - - - 0;
#X obj 811 370 route 1;
#X obj 811 428 sel 3;
#X obj 1011 351 r all-menu;
#X obj 1011 391 unpack f f;
#X floatatom 1011 410 5 0 0 0 - - - 0;
#X obj 1011 370 route 1;
#X obj 1011 428 sel 4;
#X obj 1221 350 r all-menu;
#X obj 1221 390 unpack f f;
#X floatatom 1221 409 5 0 0 0 - - - 0;
#X obj 1221 369 route 1;
#X obj 1221 427 sel 5;
#X obj 1431 577 s display-message;
#X obj 1473 501 text get menu-labels;
#X obj 1473 519 symbol;
#X obj 1431 465 text get menu-labels;
#X obj 1431 483 symbol;
#X obj 1631 577 s display-message;
#X obj 1673 501 text get menu-labels;
#X obj 1673 519 symbol;
#X obj 1631 465 text get menu-labels;
#X obj 1631 483 symbol;
#X obj 1841 577 s display-message;
#X obj 1883 501 text get menu-labels;
#X obj 1883 519 symbol;
#X obj 1841 465 text get menu-labels;
#X obj 1841 483 symbol;
#X obj 1431 351 r all-menu;
#X obj 1431 391 unpack f f;
#X floatatom 1431 410 5 0 0 0 - - - 0;
#X obj 1431 370 route 1;
#X obj 1631 351 r all-menu;
#X obj 1631 391 unpack f f;
#X floatatom 1631 410 5 0 0 0 - - - 0;
#X obj 1631 370 route 1;
#X obj 1841 350 r all-menu;
#X obj 1841 390 unpack f f;
#X floatatom 1841 409 5 0 0 0 - - - 0;
#X obj 1841 369 route 1;
#X msg 1431 538 5 9 #000000 #ffffff center \$1;
#X msg 1438 558 5 9 #ffffff #000000 center \$1;
#X msg 1631 538 6 9 #000000 #ffffff center \$1;
#X msg 1638 558 6 9 #ffffff #000000 center \$1;
#X msg 1841 538 7 9 #000000 #ffffff center \$1;
#X msg 1848 558 7 9 #ffffff #000000 center \$1;
#X msg 1431 447 40;
#X msg 1473 483 40;
#X msg 1631 447 48;
#X msg 1673 483 48;
#X msg 1841 447 56;
#X msg 1883 483 56;
#X obj 1431 428 sel 6;
#X obj 1631 428 sel 7;
#X obj 1841 427 sel 8;
#X obj 411 921 s display-message;
#X obj 457 847 text get menu-labels;
#X obj 457 865 symbol;
#X obj 411 829 text get menu-labels;
#X obj 411 847 symbol;
#X obj 410 611 r all-menu;
#X obj 410 632 unpack f f f;
#X floatatom 411 651 5 0 0 0 - - - 0;
#X obj 411 669 - 1;
#X obj 411 690 * 8;
#X obj 411 810 f;
#X obj 537 829 f;
#X msg 411 882 0 10 #000000 #ffffff center \$1;
#X msg 416 901 0 10 #ffffff #000000 center \$1;
#X obj 411 711 t b b f;
#X floatatom 450 759 5 0 0 0 - - - 0;
#X floatatom 412 757 5 0 0 0 - - - 0;
#X obj 412 776 sel 1;
#X obj 412 793 bng 16 250 50 0 empty empty empty 0 -8 0 10 #fcfcfc #000000 #000000;
#X obj 536 811 bng 16 250 50 0 empty empty empty 0 -8 0 10 #fcfcfc #000000 #000000;
#X obj 412 737 f;
#X obj 612 921 s display-message;
#X obj 655 847 text get menu-labels;
#X obj 655 865 symbol;
#X obj 612 829 text get menu-labels;
#X obj 612 847 symbol;
#X obj 610 610 r all-menu;
#X obj 610 631 unpack f f f;
#X floatatom 611 650 5 0 0 0 - - - 0;
#X obj 611 668 - 1;
#X obj 611 689 * 8;
#X obj 612 810 f;
#X obj 738 829 f;
#X obj 611 710 t b b f;
#X floatatom 650 758 5 0 0 0 - - - 0;
#X floatatom 612 756 5 0 0 0 - - - 0;
#X obj 612 793 bng 16 250 50 0 empty empty empty 0 -8 0 10 #fcfcfc #000000 #000000;
#X obj 737 811 bng 16 250 50 0 empty empty empty 0 -8 0 10 #fcfcfc #000000 #000000;
#X obj 612 736 f;
#X obj 612 775 sel 2;
#X msg 612 882 1 10 #000000 #ffffff center \$1;
#X msg 617 901 1 10 #ffffff #000000 center \$1;
#X obj 650 733 + 1;
#X obj 812 921 s display-message;
#X obj 855 847 text get menu-labels;
#X obj 855 865 symbol;
#X obj 812 829 text get menu-labels;
#X obj 812 847 symbol;
#X obj 810 610 r all-menu;
#X obj 810 631 unpack f f f;
#X floatatom 811 650 5 0 0 0 - - - 0;
#X obj 811 668 - 1;
#X obj 811 689 * 8;
#X obj 812 810 f;
#X obj 938 829 f;
#X obj 811 710 t b b f;
#X floatatom 850 758 5 0 0 0 - - - 0;
#X floatatom 812 756 5 0 0 0 - - - 0;
#X obj 812 793 bng 16 250 50 0 empty empty empty 0 -8 0 10 #fcfcfc #000000 #000000;
#X obj 937 811 bng 16 250 50 0 empty empty empty 0 -8 0 10 #fcfcfc #000000 #000000;
#X obj 812 736 f;
#X obj 850 733 + 2;
#X msg 812 882 2 10 #000000 #ffffff center \$1;
#X msg 817 901 2 10 #ffffff #000000 center \$1;
#X obj 812 775 sel 3;
#X obj 1012 921 s display-message;
#X obj 1055 847 text get menu-labels;
#X obj 1055 865 symbol;
#X obj 1012 829 text get menu-labels;
#X obj 1012 847 symbol;
#X obj 1010 610 r all-menu;
#X obj 1010 631 unpack f f f;
#X floatatom 1011 650 5 0 0 0 - - - 0;
#X obj 1011 668 - 1;
#X obj 1011 689 * 8;
#X obj 1012 810 f;
#X obj 1138 829 f;
#X obj 1011 710 t b b f;
#X floatatom 1050 758 5 0 0 0 - - - 0;
#X floatatom 1012 756 5 0 0 0 - - - 0;
#X obj 1012 793 bng 16 250 50 0 empty empty empty 0 -8 0 10 #fcfcfc #000000 #000000;
#X obj 1137 811 bng 16 250 50 0 empty empty empty 0 -8 0 10 #fcfcfc #000000 #000000;
#X obj 1012 736 f;
#X obj 1050 733 + 3;
#X obj 1012 775 sel 4;
#X obj 1222 921 s display-message;
#X obj 1265 847 text get menu-labels;
#X obj 1265 865 symbol;
#X obj 1222 829 text get menu-labels;
#X obj 1222 847 symbol;
#X obj 1220 610 r all-menu;
#X obj 1220 631 unpack f f f;
#X floatatom 1221 650 5 0 0 0 - - - 0;
#X obj 1221 668 - 1;
#X obj 1221 689 * 8;
#X obj 1222 810 f;
#X obj 1348 829 f;
#X obj 1221 710 t b b f;
#X floatatom 1260 758 5 0 0 0 - - - 0;
#X floatatom 1222 756 5 0 0 0 - - - 0;
#X obj 1222 793 bng 16 250 50 0 empty empty empty 0 -8 0 10 #fcfcfc #000000 #000000;
#X obj 1347 811 bng 16 250 50 0 empty empty empty 0 -8 0 10 #fcfcfc #000000 #000000;
#X obj 1222 736 f;
#X obj 1260 733 + 4;
#X obj 1222 775 sel 5;
#X msg 1012 882 3 10 #000000 #ffffff center \$1;
#X msg 1017 901 3 10 #ffffff #000000 center \$1;
#X msg 1222 882 4 10 #000000 #ffffff center \$1;
#X msg 1227 901 4 10 #ffffff #000000 center \$1;
#X obj 1432 921 s display-message;
#X obj 1475 847 text get menu-labels;
#X obj 1475 865 symbol;
#X obj 1432 829 text get menu-labels;
#X obj 1432 847 symbol;
#X obj 1430 610 r all-menu;
#X obj 1430 631 unpack f f f;
#X floatatom 1431 650 5 0 0 0 - - - 0;
#X obj 1431 668 - 1;
#X obj 1431 689 * 8;
#X obj 1432 810 f;
#X obj 1558 829 f;
#X obj 1431 710 t b b f;
#X floatatom 1470 758 5 0 0 0 - - - 0;
#X floatatom 1432 756 5 0 0 0 - - - 0;
#X obj 1432 793 bng 16 250 50 0 empty empty empty 0 -8 0 10 #fcfcfc #000000 #000000;
#X obj 1557 811 bng 16 250 50 0 empty empty empty 0 -8 0 10 #fcfcfc #000000 #000000;
#X obj 1432 736 f;
#X obj 1470 733 + 5;
#X obj 1432 775 sel 6;
#X msg 1432 882 5 10 #000000 #ffffff center \$1;
#X msg 1437 901 5 10 #ffffff #000000 center \$1;
#X obj 1632 921 s display-message;
#X obj 1675 847 text get menu-labels;
#X obj 1675 865 symbol;
#X obj 1632 829 text get menu-labels;
#X obj 1632 847 symbol;
#X obj 1630 610 r all-menu;
#X obj 1630 631 unpack f f f;
#X floatatom 1631 650 5 0 0 0 - - - 0;
#X obj 1631 668 - 1;
#X obj 1631 689 * 8;
#X obj 1632 810 f;
#X obj 1758 829 f;
#X obj 1631 710 t b b f;
#X floatatom 1670 758 5 0 0 0 - - - 0;
#X floatatom 1632 756 5 0 0 0 - - - 0;
#X obj 1632 793 bng 16 250 50 0 empty empty empty 0 -8 0 10 #fcfcfc #000000 #000000;
#X obj 1757 811 bng 16 250 50 0 empty empty empty 0 -8 0 10 #fcfcfc #000000 #000000;
#X obj 1632 736 f;
#X obj 1670 733 + 6;
#X obj 1632 775 sel 7;
#X msg 1632 882 6 10 #000000 #ffffff center \$1;
#X msg 1637 901 6 10 #ffffff #000000 center \$1;
#X obj 1842 921 s display-message;
#X obj 1885 847 text get menu-labels;
#X obj 1885 865 symbol;
#X obj 1842 829 text get menu-labels;
#X obj 1842 847 symbol;
#X obj 1840 610 r all-menu;
#X obj 1840 631 unpack f f f;
#X floatatom 1841 650 5 0 0 0 - - - 0;
#X obj 1841 668 - 1;
#X obj 1841 689 * 8;
#X obj 1842 810 f;
#X obj 1968 829 f;
#X obj 1841 710 t b b f;
#X floatatom 1880 758 5 0 0 0 - - - 0;
#X floatatom 1842 756 5 0 0 0 - - - 0;
#X obj 1842 793 bng 16 250 50 0 empty empty empty 0 -8 0 10 #fcfcfc #000000 #000000;
#X obj 1967 811 bng 16 250 50 0 empty empty empty 0 -8 0 10 #fcfcfc #000000 #000000;
#X obj 1842 736 f;
#X obj 1880 733 + 7;
#X obj 1842 775 sel 8;
#X msg 1842 882 7 10 #000000 #ffffff center \$1;
#X msg 1847 901 7 10 #ffffff #000000 center \$1;
#X floatatom 148 146 5 0 0 1 CPU% CPU - 24;
#X obj 23 487 s all-menu;
#X obj 23 422 loadbang;
#X msg 23 464 1 8 8;
#X text 84 421 <--loads menu 8 + submenu 8 at startup;
#X msg 660 167 2 \\\; - \\\; - \\\; - \\\; - \\\; - \\\; - \\\; - \\\; - \\\; - \\\; - \\\; - \\\; - \\\; - \\\; - \\\; - \\\; - \\\; - \\\; - \\\; - \\\; - \\\; - \\\; - \\\; - \\\; - \\\; - \\\; - \\\; - \\\; - \\\; - \\\; - \\\; - \\\; - \\\; - \\\; - \\\; - \\\; - \\\; - \\\; - \\\; - \\\; - \\\; - \\\; - \\\; - \\\; - \\\; - \\\; - \\\; - \\\; - \\\; - \\\; - \\\; - \\\; - \\\; - \\\; - \\\; - \\\; - \\\; - \\\; - \\\; - \\\; - \\\; - \\\; - \\\; - \\\; - \\\; - \\\; - \\\; - \\\; - \\\; - \\\; - \\\; - \\\; - \\\; - \\\; - \\\; - \\\; - \\\; - \\\; - \\\; - \\\; - \\\; - \\\; - \\\; - \\\; - \\\; - \\\; - \\\; - \\\; - \\\; - \\\; - \\\; - \\\; - \\\; - \\\; - \\\; - \\\; - \\\; - \\\; - \\\; - \\\; - \\\; - \\\; - \\\; - \\\; - \\\; - \\\; - \\\; - \\\; - \\\; - \\\; - \\\; - \\\; - \\\; - \\\; - \\\; - \\\; - \\\; - \\\; - \\\; - \\\; - \\\; - \\\; - \\\; - \\\; - \\\; - \\\; - \\\; - \\\; - \\\; - \\\; - \\\; - \\\; - \\\; - \\\; - \\\; - \\\; - \\\; - \\\; - \\\; - \\\; - \\\; - \\\; - \\\; - \\\; - \\\; - \\\; - \\\; - \\\; - \\\; - \\\; - \\\; - \\\; - \\\; - \\\; - \\\; - \\\; - \\\; - \\\; - \\\; - \\\; - \\\; - \\\; - \\\; - \\\; - \\\; - \\\; - \\\; - \\\; - \\\; - \\\; - \\\; - \\\; - \\\; - \\\; - \\\; - \\\; - \\\; - \\\; - \\\; - \\\; - \\\; - \\\; - \\\; - \\\; - \\\; - \\\; - \\\; - \\\; - \\\; - \\\; - \\\; - \\\; - \\\; - \\\; - \\\; - \\\; - \\\; - \\\; - \\\; - \\\; - \\\; - \\\; - \\\; - \\\; - \\\; - \\\; - \\\; - \\\; - \\\; - \\\; - \\\; - \\\; - \\\; - \\\; - \\\; - \\\; - \\\; - \\\; - \\\; - \\\; - \\\; - \\\; - \\\; - \\\; - \\\; - \\\;, f 113;
#X obj 23 443 del 100;
#X obj 596 35 s display-message;
#X msg 596 16 0 0 #5f503e #000000 center PATCH:\$1;
#X connect 1 0 2 0;
#X connect 3 0 1 0;
#X connect 4 0 2 0;
#X connect 6 0 323 0;
#X connect 8 0 10 0;
#X connect 15 0 9 0;
#X connect 16 0 15 0;
#X connect 20 0 32 0;
#X connect 21 0 5 0;
#X connect 22 0 5 0;
#X connect 23 0 24 0;
#X connect 24 0 21 0;
#X connect 25 0 23 0;
#X connect 26 0 27 0;
#X connect 27 0 22 0;
#X connect 28 0 31 0;
#X connect 28 1 29 0;
#X connect 29 0 30 1;
#X connect 31 0 30 0;
#X connect 32 0 28 0;
#X connect 32 1 29 1;
#X connect 34 0 320 0;
#X connect 35 0 26 0;
#X connect 38 0 39 0;
#X connect 39 0 43 0;
#X connect 40 0 41 0;
#X connect 41 0 42 0;
#X connect 42 0 37 0;
#X connect 43 0 37 0;
#X connect 44 0 40 0;
#X connect 46 0 47 0;
#X connect 47 0 51 0;
#X connect 48 0 49 0;
#X connect 49 0 50 0;
#X connect 50 0 45 0;
#X connect 51 0 45 0;
#X connect 52 0 48 0;
#X connect 54 0 55 0;
#X connect 55 0 60 0;
#X connect 56 0 57 0;
#X connect 57 0 59 0;
#X connect 58 0 56 0;
#X connect 59 0 53 0;
#X connect 60 0 53 0;
#X connect 62 0 63 0;
#X connect 63 0 67 0;
#X connect 64 0 65 0;
#X connect 65 0 66 0;
#X connect 66 0 61 0;
#X connect 67 0 61 0;
#X connect 68 0 64 0;
#X connect 69 0 72 0;
#X connect 70 0 71 0;
#X connect 71 0 73 0;
#X connect 72 0 70 0;
#X connect 73 0 35 0;
#X connect 73 1 25 0;
#X connect 74 0 38 0;
#X connect 75 0 46 0;
#X connect 76 0 54 0;
#X connect 77 0 62 0;
#X connect 78 0 81 0;
#X connect 79 0 80 0;
#X connect 80 0 82 0;
#X connect 81 0 79 0;
#X connect 82 0 44 0;
#X connect 82 1 74 0;
#X connect 83 0 86 0;
#X connect 84 0 85 0;
#X connect 85 0 87 0;
#X connect 86 0 84 0;
#X connect 87 0 52 0;
#X connect 87 1 75 0;
#X connect 88 0 91 0;
#X connect 89 0 90 0;
#X connect 90 0 92 0;
#X connect 91 0 89 0;
#X connect 92 0 58 0;
#X connect 92 1 76 0;
#X connect 93 0 96 0;
#X connect 94 0 95 0;
#X connect 95 0 97 0;
#X connect 96 0 94 0;
#X connect 97 0 68 0;
#X connect 97 1 77 0;
#X connect 99 0 100 0;
#X connect 100 0 126 0;
#X connect 101 0 102 0;
#X connect 102 0 125 0;
#X connect 104 0 105 0;
#X connect 105 0 128 0;
#X connect 106 0 107 0;
#X connect 107 0 127 0;
#X connect 109 0 110 0;
#X connect 110 0 130 0;
#X connect 111 0 112 0;
#X connect 112 0 129 0;
#X connect 113 0 116 0;
#X connect 114 0 115 0;
#X connect 115 0 137 0;
#X connect 116 0 114 0;
#X connect 117 0 120 0;
#X connect 118 0 119 0;
#X connect 119 0 138 0;
#X connect 120 0 118 0;
#X connect 121 0 124 0;
#X connect 122 0 123 0;
#X connect 123 0 139 0;
#X connect 124 0 122 0;
#X connect 125 0 98 0;
#X connect 126 0 98 0;
#X connect 127 0 103 0;
#X connect 128 0 103 0;
#X connect 129 0 108 0;
#X connect 130 0 108 0;
#X connect 131 0 101 0;
#X connect 132 0 99 0;
#X connect 133 0 106 0;
#X connect 134 0 104 0;
#X connect 135 0 111 0;
#X connect 136 0 109 0;
#X connect 137 0 131 0;
#X connect 137 1 132 0;
#X connect 138 0 133 0;
#X connect 138 1 134 0;
#X connect 139 0 135 0;
#X connect 139 1 136 0;
#X connect 141 0 142 0;
#X connect 142 0 153 0;
#X connect 143 0 144 0;
#X connect 144 0 152 0;
#X connect 145 0 146 0;
#X connect 146 1 147 0;
#X connect 146 2 160 1;
#X connect 147 0 148 0;
#X connect 148 0 149 0;
#X connect 149 0 154 0;
#X connect 150 0 143 0;
#X connect 151 0 141 0;
#X connect 152 0 140 0;
#X connect 153 0 140 0;
#X connect 154 0 160 0;
#X connect 154 2 155 0;
#X connect 155 0 150 1;
#X connect 155 0 151 1;
#X connect 156 0 157 0;
#X connect 157 0 158 0;
#X connect 157 1 159 0;
#X connect 158 0 150 0;
#X connect 159 0 151 0;
#X connect 160 0 156 0;
#X connect 162 0 163 0;
#X connect 163 0 181 0;
#X connect 164 0 165 0;
#X connect 165 0 180 0;
#X connect 166 0 167 0;
#X connect 167 1 168 0;
#X connect 167 2 178 1;
#X connect 168 0 169 0;
#X connect 169 0 170 0;
#X connect 170 0 173 0;
#X connect 171 0 164 0;
#X connect 172 0 162 0;
#X connect 173 0 178 0;
#X connect 173 2 182 0;
#X connect 174 0 171 1;
#X connect 174 0 172 1;
#X connect 175 0 179 0;
#X connect 176 0 171 0;
#X connect 177 0 172 0;
#X connect 178 0 175 0;
#X connect 179 0 176 0;
#X connect 179 1 177 0;
#X connect 180 0 161 0;
#X connect 181 0 161 0;
#X connect 182 0 174 0;
#X connect 184 0 185 0;
#X connect 185 0 203 0;
#X connect 186 0 187 0;
#X connect 187 0 202 0;
#X connect 188 0 189 0;
#X connect 189 1 190 0;
#X connect 189 2 200 1;
#X connect 190 0 191 0;
#X connect 191 0 192 0;
#X connect 192 0 195 0;
#X connect 193 0 186 0;
#X connect 194 0 184 0;
#X connect 195 0 200 0;
#X connect 195 2 201 0;
#X connect 196 0 193 1;
#X connect 196 0 194 1;
#X connect 197 0 204 0;
#X connect 198 0 193 0;
#X connect 199 0 194 0;
#X connect 200 0 197 0;
#X connect 201 0 196 0;
#X connect 202 0 183 0;
#X connect 203 0 183 0;
#X connect 204 0 198 0;
#X connect 204 1 199 0;
#X connect 206 0 207 0;
#X connect 207 0 246 0;
#X connect 208 0 209 0;
#X connect 209 0 245 0;
#X connect 210 0 211 0;
#X connect 211 1 212 0;
#X connect 211 2 222 1;
#X connect 212 0 213 0;
#X connect 213 0 214 0;
#X connect 214 0 217 0;
#X connect 215 0 208 0;
#X connect 216 0 206 0;
#X connect 217 0 222 0;
#X connect 217 2 223 0;
#X connect 218 0 215 1;
#X connect 218 0 216 1;
#X connect 219 0 224 0;
#X connect 220 0 215 0;
#X connect 221 0 216 0;
#X connect 222 0 219 0;
#X connect 223 0 218 0;
#X connect 224 0 220 0;
#X connect 224 1 221 0;
#X connect 226 0 227 0;
#X connect 227 0 248 0;
#X connect 228 0 229 0;
#X connect 229 0 247 0;
#X connect 230 0 231 0;
#X connect 231 1 232 0;
#X connect 231 2 242 1;
#X connect 232 0 233 0;
#X connect 233 0 234 0;
#X connect 234 0 237 0;
#X connect 235 0 228 0;
#X connect 236 0 226 0;
#X connect 237 0 242 0;
#X connect 237 2 243 0;
#X connect 238 0 235 1;
#X connect 238 0 236 1;
#X connect 239 0 244 0;
#X connect 240 0 235 0;
#X connect 241 0 236 0;
#X connect 242 0 239 0;
#X connect 243 0 238 0;
#X connect 244 0 240 0;
#X connect 244 1 241 0;
#X connect 245 0 205 0;
#X connect 246 0 205 0;
#X connect 247 0 225 0;
#X connect 248 0 225 0;
#X connect 250 0 251 0;
#X connect 251 0 270 0;
#X connect 252 0 253 0;
#X connect 253 0 269 0;
#X connect 254 0 255 0;
#X connect 255 1 256 0;
#X connect 255 2 266 1;
#X connect 256 0 257 0;
#X connect 257 0 258 0;
#X connect 258 0 261 0;
#X connect 259 0 252 0;
#X connect 260 0 250 0;
#X connect 261 0 266 0;
#X connect 261 2 267 0;
#X connect 262 0 259 1;
#X connect 262 0 260 1;
#X connect 263 0 268 0;
#X connect 264 0 259 0;
#X connect 265 0 260 0;
#X connect 266 0 263 0;
#X connect 267 0 262 0;
#X connect 268 0 264 0;
#X connect 268 1 265 0;
#X connect 269 0 249 0;
#X connect 270 0 249 0;
#X connect 272 0 273 0;
#X connect 273 0 292 0;
#X connect 274 0 275 0;
#X connect 275 0 291 0;
#X connect 276 0 277 0;
#X connect 277 1 278 0;
#X connect 277 2 288 1;
#X connect 278 0 279 0;
#X connect 279 0 280 0;
#X connect 280 0 283 0;
#X connect 281 0 274 0;
#X connect 282 0 272 0;
#X connect 283 0 288 0;
#X connect 283 2 289 0;
#X connect 284 0 281 1;
#X connect 284 0 282 1;
#X connect 285 0 290 0;
#X connect 286 0 281 0;
#X connect 287 0 282 0;
#X connect 288 0 285 0;
#X connect 289 0 284 0;
#X connect 290 0 286 0;
#X connect 290 1 287 0;
#X connect 291 0 271 0;
#X connect 292 0 271 0;
#X connect 294 0 295 0;
#X connect 295 0 314 0;
#X connect 296 0 297 0;
#X connect 297 0 313 0;
#X connect 298 0 299 0;
#X connect 299 1 300 0;
#X connect 299 2 310 1;
#X connect 300 0 301 0;
#X connect 301 0 302 0;
#X connect 302 0 305 0;
#X connect 303 0 296 0;
#X connect 304 0 294 0;
#X connect 305 0 310 0;
#X connect 305 2 311 0;
#X connect 306 0 303 1;
#X connect 306 0 304 1;
#X connect 307 0 312 0;
#X connect 308 0 303 0;
#X connect 309 0 304 0;
#X connect 310 0 307 0;
#X connect 311 0 306 0;
#X connect 312 0 308 0;
#X connect 312 1 309 0;
#X connect 313 0 293 0;
#X connect 314 0 293 0;
#X connect 317 0 321 0;
#X connect 318 0 316 0;
#X connect 320 0 33 0;
#X connect 321 0 318 0;
#X connect 323 0 322 0;
#X coords 0 -1 1 1 220 115 2 100 100;
#X restore 2063 200 pd network-communicator;
#X obj 2063 47 push-mk1;
#X connect 6 0 47 0;
#X connect 9 0 43 0;
#X connect 12 0 7 0;
#X connect 13 0 44 0;
#X connect 15 0 18 0;
#X connect 16 0 17 0;
#X connect 17 0 10 0;
#X connect 17 1 5 0;
#X connect 18 0 10 0;
#X connect 18 1 5 0;
#X connect 21 0 23 2;
#X connect 21 1 24 5;
#X connect 22 0 23 1;
#X connect 22 1 24 3;
#X connect 23 0 24 0;
#X connect 23 1 24 2;
#X connect 23 2 24 4;
#X connect 23 3 24 6;
#X connect 23 4 24 8;
#X connect 23 5 24 10;
#X connect 24 0 39 0;
#X connect 24 1 9 0;
#X connect 24 2 13 0;
#X connect 24 3 53 0;
#X connect 24 4 51 0;
#X connect 24 5 56 0;
#X connect 24 5 6 0;
#X connect 24 5 57 0;
#X connect 25 0 23 0;
#X connect 25 0 55 0;
#X connect 25 1 24 1;
#X connect 26 0 23 3;
#X connect 26 1 24 7;
#X connect 27 0 39 1;
#X connect 27 0 42 1;
#X connect 28 0 39 2;
#X connect 28 0 42 2;
#X connect 29 0 9 1;
#X connect 30 0 9 2;
#X connect 31 0 13 1;
#X connect 32 0 13 2;
#X connect 33 0 53 1;
#X connect 34 0 53 2;
#X connect 39 0 42 0;
#X connect 40 0 23 4;
#X connect 40 1 24 9;
#X connect 41 0 23 5;
#X connect 41 1 24 11;
#X connect 42 0 0 0;
#X connect 43 0 11 0;
#X connect 44 0 2 0;
#X connect 45 0 3 0;
#X connect 46 0 4 0;
#X connect 47 0 20 0;
#X connect 48 0 17 1;
#X connect 48 0 18 1;
#X connect 49 0 17 2;
#X connect 49 0 18 2;
#X connect 51 0 46 0;
#X connect 53 0 45 0;
#X connect 56 0 47 0;
#X connect 57 0 47 0;
