#N canvas 0 25 1440 789 10;
#X obj 25 532 loadbang;
#X obj 100 531 r reload-library;
#N canvas 0 25 1440 789 load-kick 0;
#X floatatom 194 395 5 0 0 0 - - - 0;
#X obj 194 447 pack f f;
#X obj 194 412 t f f;
#X obj 194 547 s pd-sample-library.pd;
#X msg 194 129 1;
#X obj 194 150 tgl 16 0 empty empty empty 0 -8 0 10 #fcfcfc #000000 #000000 0 1;
#X obj 194 211 f;
#X obj 221 211 + 1;
#X obj 233 258 sel 10;
#X msg 233 279 0;
#X text 268 279 reset;
#X floatatom 266 230 5 0 0 0 - - - 0;
#X msg 548 254 line 0 \, bang;
#X obj 548 323 list split 2;
#X obj 548 300 list split 1;
#X obj 548 346 unpack;
#X obj 548 392 pack f f f;
#X obj 605 369 + 1;
#X obj 548 369 - 1;
#X obj 576 369 + 1;
#X msg 521 474 clear;
#X msg 548 415 vis 1 \, editmode 1 \, mouse \$1 \$3 1 0 \, mouseup \$2 \$3 0 \, cut \, editmode 0;
#X obj 521 231 t b b;
#X obj 521 185 ==;
#X obj 521 208 sel;
#X obj 521 121 bng 16 250 50 0 empty empty empty 0 -8 0 10 #fcfcfc #000000 #000000;
#X obj 194 485 t a a;
#X obj 221 504 list;
#X obj 548 448 s pd-sample-library.pd;
#X obj 194 105 t b b b;
#X obj 239 428 * 20;
#X obj 285 422 s reload-sample-ram;
#X msg 302 392 \; pd-sample-library.pd menuclose \;;
#X msg 319 363 \; pd-mother.pd editmode 0;
#X msg 336 326 menusave;
#X obj 285 307 t b b b b;
#X obj 336 345 s pd-sample-library.pd;
#X obj 194 170 metro 50;
#X obj 194 25 inlet;
#X obj 266 189 text size kick;
#X msg 194 465 obj 0 \$2 sample-loader kick\$1;
#X obj 545 122 text define -k \$0-objects-kick;
#A set obj 0 0 sample-loader kick0 \; obj 0 20 sample-loader kick1 \;;
#X obj 521 162 text size \$0-objects-kick;
#X obj 548 277 text sequence \$0-objects-kick;
#X obj 521 497 s \$0-objects-kick;
#X obj 221 522 text set \$0-objects-kick 1e+06;
#X obj 266 210 - 1;
#X connect 0 0 2 0;
#X connect 1 0 40 0;
#X connect 2 0 1 0;
#X connect 2 1 30 0;
#X connect 4 0 5 0;
#X connect 5 0 37 0;
#X connect 6 0 7 0;
#X connect 6 0 8 0;
#X connect 6 0 0 0;
#X connect 7 0 6 1;
#X connect 8 0 9 0;
#X connect 8 0 35 0;
#X connect 9 0 5 0;
#X connect 9 0 6 1;
#X connect 11 0 8 1;
#X connect 12 0 43 0;
#X connect 13 0 15 0;
#X connect 14 1 13 0;
#X connect 15 0 18 0;
#X connect 15 0 19 0;
#X connect 15 1 17 0;
#X connect 16 0 21 0;
#X connect 17 0 16 2;
#X connect 18 0 16 0;
#X connect 19 0 16 1;
#X connect 20 0 44 0;
#X connect 21 0 28 0;
#X connect 22 0 20 0;
#X connect 22 1 12 0;
#X connect 23 0 24 0;
#X connect 24 0 22 0;
#X connect 25 0 42 0;
#X connect 26 0 3 0;
#X connect 26 1 27 0;
#X connect 27 0 45 0;
#X connect 29 0 4 0;
#X connect 29 1 39 0;
#X connect 29 2 25 0;
#X connect 30 0 1 1;
#X connect 34 0 36 0;
#X connect 35 0 31 0;
#X connect 35 1 32 0;
#X connect 35 2 33 0;
#X connect 35 3 34 0;
#X connect 37 0 6 0;
#X connect 38 0 29 0;
#X connect 39 0 46 0;
#X connect 40 0 26 0;
#X connect 42 0 23 0;
#X connect 43 0 14 0;
#X connect 46 0 11 0;
#X restore 26 589 pd load-kick;
#X obj 26 567 bng 16 250 50 0 empty empty empty 0 -8 0 10 #fcfcfc #000000 #000000;
#X obj 111 567 bng 16 250 50 0 empty empty empty 0 -8 0 10 #fcfcfc #000000 #000000;
#N canvas 0 25 1440 789 load-snare 0;
#X floatatom 194 395 5 0 0 0 - - - 0;
#X obj 194 447 pack f f;
#X obj 194 412 t f f;
#X obj 194 547 s pd-sample-library.pd;
#X msg 194 129 1;
#X obj 194 150 tgl 16 0 empty empty empty 0 -8 0 10 #fcfcfc #000000 #000000 0 1;
#X obj 194 211 f;
#X obj 221 211 + 1;
#X obj 233 258 sel 10;
#X msg 233 279 0;
#X text 268 279 reset;
#X floatatom 266 230 5 0 0 0 - - - 0;
#X msg 548 254 line 0 \, bang;
#X obj 548 323 list split 2;
#X obj 548 300 list split 1;
#X obj 548 346 unpack;
#X obj 548 392 pack f f f;
#X obj 605 369 + 1;
#X obj 548 369 - 1;
#X obj 576 369 + 1;
#X msg 521 474 clear;
#X msg 548 415 vis 1 \, editmode 1 \, mouse \$1 \$3 1 0 \, mouseup \$2 \$3 0 \, cut \, editmode 0;
#X obj 521 231 t b b;
#X obj 521 185 ==;
#X obj 521 208 sel;
#X obj 521 121 bng 16 250 50 0 empty empty empty 0 -8 0 10 #fcfcfc #000000 #000000;
#X obj 194 485 t a a;
#X obj 221 504 list;
#X obj 548 448 s pd-sample-library.pd;
#X obj 194 105 t b b b;
#X obj 239 428 * 20;
#X obj 285 422 s reload-sample-ram;
#X msg 302 392 \; pd-sample-library.pd menuclose \;;
#X msg 319 363 \; pd-mother.pd editmode 0;
#X msg 336 326 menusave;
#X obj 285 307 t b b b b;
#X obj 336 345 s pd-sample-library.pd;
#X obj 194 170 metro 50;
#X obj 194 25 inlet;
#X obj 266 209 text size snare;
#X obj 545 122 text define -k \$0-objects-snare;
#A set obj 100 0 sample-loader snare0 \; obj 100 20 sample-loader snare1 \; obj 100 40 sample-loader snare2 \;;
#X obj 521 162 text size \$0-objects-snare;
#X obj 548 277 text sequence \$0-objects-snare;
#X obj 521 497 s \$0-objects-snare;
#X msg 194 465 obj 100 \$2 sample-loader snare\$1;
#X obj 221 522 text set \$0-objects-snare 1e+06;
#X connect 0 0 2 0;
#X connect 1 0 44 0;
#X connect 2 0 1 0;
#X connect 2 1 30 0;
#X connect 4 0 5 0;
#X connect 5 0 37 0;
#X connect 6 0 7 0;
#X connect 6 0 8 0;
#X connect 6 0 0 0;
#X connect 7 0 6 1;
#X connect 8 0 9 0;
#X connect 8 0 35 0;
#X connect 9 0 5 0;
#X connect 9 0 6 1;
#X connect 11 0 8 1;
#X connect 12 0 42 0;
#X connect 13 0 15 0;
#X connect 14 1 13 0;
#X connect 15 0 18 0;
#X connect 15 0 19 0;
#X connect 15 1 17 0;
#X connect 16 0 21 0;
#X connect 17 0 16 2;
#X connect 18 0 16 0;
#X connect 19 0 16 1;
#X connect 20 0 43 0;
#X connect 21 0 28 0;
#X connect 22 0 20 0;
#X connect 22 1 12 0;
#X connect 23 0 24 0;
#X connect 24 0 22 0;
#X connect 25 0 41 0;
#X connect 26 0 3 0;
#X connect 26 1 27 0;
#X connect 27 0 45 0;
#X connect 29 0 4 0;
#X connect 29 1 39 0;
#X connect 29 2 25 0;
#X connect 30 0 1 1;
#X connect 34 0 36 0;
#X connect 35 0 31 0;
#X connect 35 1 32 0;
#X connect 35 2 33 0;
#X connect 35 3 34 0;
#X connect 37 0 6 0;
#X connect 38 0 29 0;
#X connect 39 0 11 0;
#X connect 41 0 23 0;
#X connect 42 0 14 0;
#X connect 44 0 26 0;
#X restore 111 589 pd load-snare;
#X obj 199 567 bng 16 250 50 0 empty empty empty 0 -8 0 10 #fcfcfc #000000 #000000;
#N canvas 0 25 1440 789 load-hat 0;
#X floatatom 194 395 5 0 0 0 - - - 0;
#X obj 194 447 pack f f;
#X obj 194 412 t f f;
#X obj 194 547 s pd-sample-library.pd;
#X msg 194 129 1;
#X obj 194 150 tgl 16 0 empty empty empty 0 -8 0 10 #fcfcfc #000000 #000000 0 1;
#X obj 194 211 f;
#X obj 221 211 + 1;
#X obj 233 258 sel 10;
#X msg 233 279 0;
#X text 268 279 reset;
#X floatatom 266 230 5 0 0 0 - - - 0;
#X msg 548 254 line 0 \, bang;
#X obj 548 323 list split 2;
#X obj 548 300 list split 1;
#X obj 548 346 unpack;
#X obj 548 392 pack f f f;
#X obj 605 369 + 1;
#X obj 548 369 - 1;
#X obj 576 369 + 1;
#X msg 521 474 clear;
#X msg 548 415 vis 1 \, editmode 1 \, mouse \$1 \$3 1 0 \, mouseup \$2 \$3 0 \, cut \, editmode 0;
#X obj 521 231 t b b;
#X obj 521 185 ==;
#X obj 521 208 sel;
#X obj 521 121 bng 16 250 50 0 empty empty empty 0 -8 0 10 #fcfcfc #000000 #000000;
#X obj 194 485 t a a;
#X obj 221 504 list;
#X obj 548 448 s pd-sample-library.pd;
#X obj 194 105 t b b b;
#X obj 239 428 * 20;
#X obj 285 422 s reload-sample-ram;
#X msg 302 392 \; pd-sample-library.pd menuclose \;;
#X msg 319 363 \; pd-mother.pd editmode 0;
#X msg 336 326 menusave;
#X obj 285 307 t b b b b;
#X obj 336 345 s pd-sample-library.pd;
#X obj 194 170 metro 50;
#X obj 194 25 inlet;
#X obj 221 522 text set \$0-objects-hat 1e+06;
#X obj 545 122 text define -k \$0-objects-hat;
#A set obj 100 0 sample-loader hat0 \; obj 100 20 sample-loader hat1 \; obj 100 40 sample-loader hat2 \;;
#X obj 521 162 text size \$0-objects-hat;
#X obj 548 277 text sequence \$0-objects-hat;
#X obj 521 497 s \$0-objects-hat;
#X obj 266 209 text size hat;
#X msg 194 465 obj 100 \$2 sample-loader hat\$1;
#X connect 0 0 2 0;
#X connect 1 0 45 0;
#X connect 2 0 1 0;
#X connect 2 1 30 0;
#X connect 4 0 5 0;
#X connect 5 0 37 0;
#X connect 6 0 7 0;
#X connect 6 0 8 0;
#X connect 6 0 0 0;
#X connect 7 0 6 1;
#X connect 8 0 9 0;
#X connect 8 0 35 0;
#X connect 9 0 5 0;
#X connect 9 0 6 1;
#X connect 11 0 8 1;
#X connect 12 0 42 0;
#X connect 13 0 15 0;
#X connect 14 1 13 0;
#X connect 15 0 18 0;
#X connect 15 0 19 0;
#X connect 15 1 17 0;
#X connect 16 0 21 0;
#X connect 17 0 16 2;
#X connect 18 0 16 0;
#X connect 19 0 16 1;
#X connect 20 0 43 0;
#X connect 21 0 28 0;
#X connect 22 0 20 0;
#X connect 22 1 12 0;
#X connect 23 0 24 0;
#X connect 24 0 22 0;
#X connect 25 0 41 0;
#X connect 26 0 3 0;
#X connect 26 1 27 0;
#X connect 27 0 39 0;
#X connect 29 0 4 0;
#X connect 29 1 44 0;
#X connect 29 2 25 0;
#X connect 30 0 1 1;
#X connect 34 0 36 0;
#X connect 35 0 31 0;
#X connect 35 1 32 0;
#X connect 35 2 33 0;
#X connect 35 3 34 0;
#X connect 37 0 6 0;
#X connect 38 0 29 0;
#X connect 41 0 23 0;
#X connect 42 0 14 0;
#X connect 44 0 11 0;
#X connect 45 0 26 0;
#X restore 199 588 pd load-hat;
#X obj 136 86 sample-loader snare0;
#X obj 136 106 sample-loader snare1;
#X obj 136 126 sample-loader snare2;
#X obj 13 86 sample-loader kick0;
#X obj 13 106 sample-loader kick1;
#X obj 13 126 sample-loader kick2;
#X obj 387 86 sample-loader hat0;
#X obj 387 106 sample-loader hat1;
#X obj 387 126 sample-loader hat2;
#X obj 387 146 sample-loader hat3;
#X obj 264 86 sample-loader clap0;
#X obj 264 106 sample-loader clap1;
#X obj 264 126 sample-loader clap2;
#X obj 264 146 sample-loader clap3;
#X obj 13 146 sample-loader kick3;
#X obj 13 166 sample-loader kick4;
#X obj 13 186 sample-loader kick5;
#X obj 13 206 sample-loader kick6;
#X obj 13 226 sample-loader kick7;
#X obj 136 146 sample-loader snare3;
#X obj 136 166 sample-loader snare4;
#X obj 136 186 sample-loader snare5;
#X obj 136 206 sample-loader snare6;
#X obj 136 226 sample-loader snare7;
#X obj 264 166 sample-loader clap4;
#X obj 264 186 sample-loader clap5;
#X obj 264 206 sample-loader clap6;
#X obj 264 226 sample-loader clap7;
#X obj 387 166 sample-loader hat4;
#X obj 387 186 sample-loader hat5;
#X obj 387 206 sample-loader hat6;
#X obj 387 226 sample-loader hat7;
#X obj 17 276 sample-loader shaker0;
#X obj 17 296 sample-loader shaker1;
#X obj 17 316 sample-loader shaker2;
#X obj 17 336 sample-loader shaker3;
#X obj 17 356 sample-loader shaker4;
#X obj 17 376 sample-loader shaker5;
#X obj 17 396 sample-loader shaker6;
#X obj 17 416 sample-loader shaker7;
#X obj 157 276 sample-loader percs0;
#X obj 157 296 sample-loader percs1;
#X obj 157 316 sample-loader percs2;
#X obj 157 336 sample-loader percs3;
#X obj 157 356 sample-loader percs4;
#X obj 157 376 sample-loader percs5;
#X obj 157 396 sample-loader percs6;
#X obj 157 416 sample-loader percs7;
#X text 19 495 old dynamic patching für arrays - removed because of technical problems.;
#X connect 3 0 2 0;
#X connect 4 0 5 0;
#X connect 6 0 7 0;
