#N canvas 0 36 1280 747 10;
#X obj 448 124 tgl 15 1 \$0-param-1-s \$0-param-1-r PTRN-LTH 17 7 0 10 #8f5adf #000000 #000000 1 1;
#X obj 463 124 tgl 15 1 \$0-param-2-s \$0-param-2-r OFFSET 17 7 0 10 #a86ada #000000 #000000 1 1;
#X obj 423 132 cnv 5 5 5 empty empty MUTE 0 0 0 8 #fcfcfc #000000 0;
#X obj 478 124 tgl 15 1 \$0-param-3-s \$0-param-3-r RND-VEL 17 7 0 10 #c07cd2 #000000 #000000 1 1;
#X obj 493 124 tgl 15 1 \$0-param-4-s \$0-param-4-r - 17 7 0 10 #d48dc1 #000000 #000000 1 1;
#X obj 508 124 tgl 15 1 \$0-param-5-s \$0-param-5-r - 17 7 0 10 #e69fad #000000 #000000 1 1;
#X obj 523 124 tgl 15 1 \$0-param-6-s \$0-param-6-r - 17 7 0 10 #f3b08f #000000 #000000 1 1;
#X obj 538 124 tgl 15 1 \$0-param-7-s \$0-param-7-r - 17 7 0 10 #fbc070 #000000 #000000 1 1;
#X obj 553 124 tgl 15 1 \$0-param-8-s \$0-param-8-r - 17 7 0 10 #ffcf4f #000000 #000000 1 1;
#X obj 103 126 cnv 5 5 5 empty empty MUTE-GROUP 0 0 0 12 #fcfcfc #404040 0;
#X obj 177 126 cnv 5 5 5 empty \$0-instance-num 1 0 0 0 12 #fcfcfc #404040 0;
#X obj 102 345 spigot;
#X obj 135 295 sel 0;
#X msg 135 316 1;
#X msg 164 316 0;
#X obj 102 240 inlet;
#X obj 102 406 outlet;
#X obj 135 275 r \$0-param-1-s;
#X obj 232 345 spigot;
#X obj 265 295 sel 0;
#X msg 265 316 1;
#X msg 294 316 0;
#X obj 232 240 inlet;
#X obj 232 406 outlet;
#X obj 265 275 r \$0-param-2-s;
#X obj 372 345 spigot;
#X obj 405 295 sel 0;
#X msg 405 316 1;
#X msg 434 316 0;
#X obj 372 240 inlet;
#X obj 372 406 outlet;
#X obj 502 345 spigot;
#X obj 535 295 sel 0;
#X msg 535 316 1;
#X msg 564 316 0;
#X obj 502 240 inlet;
#X obj 502 406 outlet;
#X obj 405 275 r \$0-param-3-s;
#X obj 535 275 r \$0-param-4-s;
#X obj 632 345 spigot;
#X obj 665 295 sel 0;
#X msg 665 316 1;
#X msg 694 316 0;
#X obj 632 240 inlet;
#X obj 632 406 outlet;
#X obj 762 345 spigot;
#X obj 795 295 sel 0;
#X msg 795 316 1;
#X msg 824 316 0;
#X obj 762 240 inlet;
#X obj 762 406 outlet;
#X obj 902 345 spigot;
#X obj 935 295 sel 0;
#X msg 935 316 1;
#X msg 964 316 0;
#X obj 902 240 inlet;
#X obj 902 406 outlet;
#X obj 1032 345 spigot;
#X obj 1065 295 sel 0;
#X msg 1065 316 1;
#X msg 1094 316 0;
#X obj 1032 240 inlet;
#X obj 1032 406 outlet;
#X obj 665 275 r \$0-param-5-s;
#X obj 795 275 r \$0-param-6-s;
#X obj 935 275 r \$0-param-7-s;
#X obj 1065 275 r \$0-param-8-s;
#X obj 103 108 cnv 5 5 5 empty empty TR01 0 0 0 8 #ffffff #ff8300 0;
#X obj 198 108 cnv 5 5 5 empty empty TR02 0 0 0 8 #fcfcfc #ff8300 0;
#X obj 303 108 cnv 5 5 5 empty empty TR03 0 0 0 8 #fcfcfc #ff8300 0;
#X obj 409 108 cnv 5 5 5 empty empty TR04 0 0 0 8 #fcfcfc #ff8300 0;
#X obj 520 108 cnv 5 5 5 empty empty TR05 0 0 0 8 #fcfcfc #ff8300 0;
#X obj 627 108 cnv 5 5 5 empty empty TR06 0 0 0 8 #fcfcfc #ff8300 0;
#X obj 726 108 cnv 5 5 5 empty empty TR07 0 0 0 8 #fcfcfc #ff8300 0;
#X obj 828 108 cnv 5 5 5 empty empty TR08 0 0 0 8 #fcfcfc #ff8300 0;
#X obj 275 28 r mute1-r;
#X obj 335 28 r mute2-r;
#X obj 306 180 s mute1-s;
#X obj 366 180 s mute2-s;
#X obj 426 180 s mute3-s;
#X obj 486 180 s mute4-s;
#X obj 546 180 s mute5-s;
#X obj 606 180 s mute6-s;
#X obj 666 180 s mute7-s;
#X obj 726 180 s mute8-s;
#X obj 395 28 r mute3-r;
#X obj 455 28 r mute4-r;
#X obj 515 28 r mute5-r;
#X obj 575 28 r mute6-r;
#X obj 635 28 r mute7-r;
#X obj 695 28 r mute8-r;
#X text 1430 330 <--modules values are saved here;
#X obj 1240 180 text define -k \$0-modul-settings;
#A set MUTE \; - \; - \; - \; - \; - \; - \; - \; - \; SRC \; 7 \; #8f5adf \; #a86ada \; #c07cd2 \; #d48dc1 \; #e69fad \; #f3b08f \; #fbc070 \; #ffcf4f \;;
#N canvas 324 349 425 350 info 0;
#X text 23 12 This textfile contains all necessery names of the module and the names of the gui (faders etc.). This way its much easier to change the names of all elements simply by editing the text object.;
#X text 25 93 The Order of the file \; 0=Modul-Name \; 1=Name Param1 - write non if unused \; 2=Name Param2 \; 3=Name Param3 \; 4=Name Param4 \; 5=Name Param5 \; 6=Name Param6 \; 7=Name Param7 \; 8=Name Param8 \; 9=Type of Module (SRC \, MOD \, LFO \, EFX etc) \; 10=Number of used Parameters (1-8) \; 11=Color of Param1-Circle 12=Color of Param2-Circle \; 13=Color of Param3-Circle \; 14=Color of Param4-Circle \; 15=Color of Param5-Circle \; 16=Color of Param6-Circle \; 17=Color of Param7-Circle \; 18=Color of Param8-Circle \; ....;
#X restore 1462 181 pd info;
#X text 1440 180 ->;
#X text 1238 160 Parameter-Values + Names + Colors:;
#X text 1239 227 Modul Core:;
#X obj 1240 330 core_state_saving \$0 \$1 \$2 \$3;
#X connect 0 0 77 0;
#X connect 1 0 78 0;
#X connect 3 0 79 0;
#X connect 4 0 80 0;
#X connect 5 0 81 0;
#X connect 6 0 82 0;
#X connect 7 0 83 0;
#X connect 8 0 84 0;
#X connect 11 0 16 0;
#X connect 12 0 13 0;
#X connect 12 1 14 0;
#X connect 13 0 11 1;
#X connect 14 0 11 1;
#X connect 15 0 11 0;
#X connect 17 0 12 0;
#X connect 18 0 23 0;
#X connect 19 0 20 0;
#X connect 19 1 21 0;
#X connect 20 0 18 1;
#X connect 21 0 18 1;
#X connect 22 0 18 0;
#X connect 24 0 19 0;
#X connect 25 0 30 0;
#X connect 26 0 27 0;
#X connect 26 1 28 0;
#X connect 27 0 25 1;
#X connect 28 0 25 1;
#X connect 29 0 25 0;
#X connect 31 0 36 0;
#X connect 32 0 33 0;
#X connect 32 1 34 0;
#X connect 33 0 31 1;
#X connect 34 0 31 1;
#X connect 35 0 31 0;
#X connect 37 0 26 0;
#X connect 38 0 32 0;
#X connect 39 0 44 0;
#X connect 40 0 41 0;
#X connect 40 1 42 0;
#X connect 41 0 39 1;
#X connect 42 0 39 1;
#X connect 43 0 39 0;
#X connect 45 0 50 0;
#X connect 46 0 47 0;
#X connect 46 1 48 0;
#X connect 47 0 45 1;
#X connect 48 0 45 1;
#X connect 49 0 45 0;
#X connect 51 0 56 0;
#X connect 52 0 53 0;
#X connect 52 1 54 0;
#X connect 53 0 51 1;
#X connect 54 0 51 1;
#X connect 55 0 51 0;
#X connect 57 0 62 0;
#X connect 58 0 59 0;
#X connect 58 1 60 0;
#X connect 59 0 57 1;
#X connect 60 0 57 1;
#X connect 61 0 57 0;
#X connect 63 0 40 0;
#X connect 64 0 46 0;
#X connect 65 0 52 0;
#X connect 66 0 58 0;
#X connect 75 0 0 0;
#X connect 76 0 1 0;
#X connect 85 0 3 0;
#X connect 86 0 4 0;
#X connect 87 0 5 0;
#X connect 88 0 6 0;
#X connect 89 0 7 0;
#X connect 90 0 8 0;
#X coords 0 -1 1 1 1780 50 1 100 100;
