#N canvas 0 125 1440 747 10;
#X obj 839 697 bng 15 250 50 0 SAVE-S SAVE-R <--SAVE!(s) 17 7 0 10 #fcfcfc #00fc04 #000000;
#X obj 137 232 hsl 128 15 0 127 0 1 \$0-param-4-s \$0-param-4-r AUDIO 133 7 0 10 #db3e14 #000000 #000000 8200 1;
#X obj -79 173 hsl 128 15 0 127 0 1 \$0-param-2-s \$0-param-2-r LOAD 133 7 0 10 #e86b0d #000000 #000000 700 1;
#X obj -79 142 hsl 128 15 0 127 0 1 \$0-param-1-s \$0-param-1-r PATCH 133 7 0 10 #ed8008 #000000 #000000 10500 1;
#X obj 137 201 hsl 128 15 0 127 0 1 \$0-param-3-s \$0-param-3-r SAVE! 133 7 0 10 #e25511 #000000 #000000 0 1;
#X obj 134 127 cnv 5 5 5 empty \$0-modul-name MOTHER 0 0 0 12 #fcfcfc #404040 0;
#X obj 176 127 cnv 5 5 5 empty \$0-instance-num 1 0 0 0 12 #fcfcfc #404040 0;
#X obj 103 362 cnv 5 5 5 empty empty OUT 0 0 0 8 #fcfcfc #000000 0;
#X obj 308 358 bng 10 250 50 0 \$0-options-button \$0-options-button-r OPTIONS -45 5 0 10 #fcfcfc #000000 #000000;
#X text 487 248 <--rename labels here;
#X text 487 268 <--modules values are saved here;
#X obj 337 118 text define -k \$0-modul-settings;
#A set MOTHER \; PATCH \; LOAD \; SAVE! \; AUDIO \; MD-DV \; - \; - \; - \; SRC \; 7 \; #ed8008 \; #e86b0d \; #e25511 \; #db3e14 \; #d22616 \; #c91917 \; #c01718 \; #bf1b1b \;;
#N canvas 324 349 425 350 info 0;
#X text 23 12 This textfile contains all necessery names of the module and the names of the gui (faders etc.). This way its much easier to change the names of all elements simply by editing the text object.;
#X text 25 93 The Order of the file \; 0=Modul-Name \; 1=Name Param1 - write non if unused \; 2=Name Param2 \; 3=Name Param3 \; 4=Name Param4 \; 5=Name Param5 \; 6=Name Param6 \; 7=Name Param7 \; 8=Name Param8 \; 9=Type of Module (SRC \, MOD \, LFO \, EFX etc) \; 10=Number of used Parameters (1-8) \; 11=Color of Param1-Circle 12=Color of Param2-Circle \; 13=Color of Param3-Circle \; 14=Color of Param4-Circle \; 15=Color of Param5-Circle \; 16=Color of Param6-Circle \; 17=Color of Param7-Circle \; 18=Color of Param8-Circle \; ....;
#X restore 559 119 pd info;
#X text 537 118 ->;
#X text 335 98 Parameter-Values + Names + Colors:;
#X text 488 286 <--Opens the Options-Subpatch;
#X text 99 82 DESKTOP-GUI-INTERFACE:;
#X obj 339 542 s \$0-param-1-t;
#X floatatom 339 474 5 0 0 0 - - - 0;
#X obj 339 494 i;
#X text 437 206 <--receives encoder messages from mother.pd;
#X text 437 186 <--sends display info to mother.pd;
#X text 447 226 <--checks menu and if module is "active";
#X obj 339 434 r \$0-param-1-s;
#X obj 435 455 / 1.27;
#X floatatom 435 474 5 0 0 0 - - - 0;
#X obj 435 494 i;
#X obj 435 434 r \$0-param-2-s;
#X obj 435 532 s \$0-param-2-t;
#X obj 533 454 / 1.27;
#X floatatom 533 473 5 0 0 0 - - - 0;
#X obj 533 493 i;
#X obj 533 433 r \$0-param-3-s;
#X obj 533 531 s \$0-param-3-t;
#X obj 633 474 i;
#X obj 633 433 r \$0-param-4-s;
#X obj 633 561 s \$0-param-4-t;
#X obj 339 657 i;
#X msg 435 693 symbol \$1%;
#X obj 435 635 / 1.27;
#X floatatom 435 654 5 0 0 0 - - - 0;
#X obj 435 674 i;
#X msg 533 692 symbol \$1%;
#X obj 533 634 / 1.27;
#X floatatom 533 653 5 0 0 0 - - - 0;
#X obj 533 673 i;
#X msg 633 692 symbol \$1%;
#X obj 633 634 / 1.27;
#X floatatom 633 653 5 0 0 0 - - - 0;
#X obj 633 673 i;
#X obj 339 614 r \$0-param-5-s;
#X obj 339 715 s \$0-param-5-t;
#X obj 435 614 r \$0-param-6-s;
#X obj 435 712 s \$0-param-6-t;
#X obj 533 613 r \$0-param-7-s;
#X obj 533 711 s \$0-param-7-t;
#X obj 633 613 r \$0-param-8-s;
#X obj 633 711 s \$0-param-8-t;
#X obj 337 186 core_display \$0;
#X obj 337 206 core_encoder \$0;
#X obj 337 227 core_main_menu \$0;
#X obj 337 248 core_module_settings \$0;
#X text 336 165 Modul Core:;
#X text 337 410 Value Display Representation:;
#X obj 337 307 core_mod_display \$0;
#X floatatom 19 127 5 0 0 0 - - - 0;
#X text 336 267 ##removed;
#N canvas 237 262 869 304 modified-core-options 0;
#X msg 64 57 1;
#X obj 19 76 pack f f;
#X obj 19 40 t b b;
#X text 17 5 Opens the Options-Subpatch:;
#X text 211 42 Comment: \; This patch is a modification of the options core patch because its uses not saving structure of the normal core patches because it is located in the mother patch that cannot save its status in the patch folders.;
#X obj 19 22 r \$0-options-button;
#N canvas 721 264 237 200 \$0options 0;
#X text 11 10 Ableton-Push-Interface:;
#X obj 15 70 hradio 16 1 0 8 \$0-main-menu-s \$0-main-menu-r Main-Menu 0 -8 0 10 #fcfcfc #000000 #000000 0;
#X obj 15 110 hradio 16 1 0 8 \$0-sub-menu-s \$0-sub-menu-r Sub-Menu 0 -8 0 10 #fcfcfc #000000 #000000 0;
#X obj 15 150 hradio 16 1 0 8 \$0-sub2-menu-s \$0-sub2-menu-r Sub2-Menu 0 -8 0 10 #fcfcfc #000000 #000000 0;
#X text 11 30 (DISPLAY);
#X obj 176 41 loadbang;
#X msg 176 62 7;
#X msg 108 40 0;
#X connect 5 0 6 0;
#X connect 5 0 7 0;
#X connect 6 0 2 0;
#X connect 6 0 3 0;
#X connect 7 0 1 0;
#X restore 19 123 pd \$0options;
#X obj 19 58 f \$0;
#X msg 19 94 \; pd-\$1options vis \$2;
#X connect 0 0 1 1;
#X connect 1 0 8 0;
#X connect 2 0 7 0;
#X connect 2 1 0 0;
#X connect 5 0 2 0;
#X connect 7 0 1 0;
#X restore 337 286 pd modified-core-options;
#X msg 435 513 symbol >>>;
#X msg 533 512 symbol >>>;
#X obj 339 455 / 12.7;
#X msg 339 523 symbol \$1/;
#X obj 368 502 + 1;
#X obj 802 634 tgl 16 0 empty empty empty 0 -8 0 10 #fcfcfc #000000 #000000 0 1;
#X obj 802 655 sel 1;
#X msg 802 697 0;
#X obj 802 613 > 120;
#X obj 802 591 r \$0-param-3-s;
#X obj 802 743 s \$0-param-3-r;
#X obj 633 454 / 64;
#X obj 633 495 sel 0 1;
#X msg 633 533 symbol 2x;
#X msg 697 509 symbol 8x;
#X obj 137 268 hsl 128 15 0 127 0 1 \$0-param-5-s \$0-param-5-r MD-DV 133 7 0 10 #d22616 #000000 #000000 0 1;
#X obj 137 295 hsl 128 15 0 127 0 1 \$0-param-6-s \$0-param-6-r - 133 7 0 10 #c91917 #000000 #000000 9500 1;
#X obj 137 321 hsl 128 15 0 127 0 1 \$0-param-7-s \$0-param-7-r - 133 7 0 10 #c01718 #000000 #000000 7800 1;
#X obj 139 436 s hw-audio;
#X obj 235 459 s md-device;
#X obj 339 635 / 15.875;
#X msg 339 698 symbol \$1/;
#X obj 339 678 + 1;
#N canvas 92 117 1260 589 audio-out 0;
#X obj 463 91 catch~ hw1;
#X obj 463 414 dac~ 1 2 3 4 5 6 7 8, f 46;
#X obj 502 111 catch~ hw2;
#X obj 542 130 catch~ hw3;
#X obj 582 149 catch~ hw4;
#X obj 613 168 catch~ hw5;
#X obj 653 187 catch~ hw6;
#X obj 694 208 catch~ hw7;
#X obj 734 227 catch~ hw8;
#X obj 463 387 *~;
#X obj 110 120 vradio 15 1 0 2 empty empty empty 0 -8 0 10 #fcfcfc #000000 #000000 0;
#X obj 346 229 line~;
#X msg 345 193 \$1 5;
#X obj 130 127 cnv 5 5 5 empty empty STEREO-OUT 0 0 0 8 #fcfcfc #000000 0;
#X obj 130 142 cnv 5 5 5 empty empty MULTIPLE\ OUT 0 0 0 8 #fcfcfc #000000 0;
#X obj 502 389 *~;
#X obj 543 387 *~;
#X obj 582 389 *~;
#X obj 615 387 *~;
#X obj 654 389 *~;
#X obj 695 387 *~;
#X obj 734 389 *~;
#X obj 893 519 dac~ 1 2;
#X obj 986 328 line~;
#X msg 985 292 \$1 5;
#X obj 894 409 *~;
#X obj 938 408 *~;
#X obj 971 199 sel 0 1;
#X msg 971 220 1;
#X msg 1002 220 0;
#X obj 889 152 catch~ stereo1;
#X obj 939 121 catch~ stereo2;
#X obj 109 109 cnv 5 5 5 empty empty HARDWARE-AUDIO-SETTINGS: 0 0 0 10 #fcfcfc #404040 0;
#X floatatom 141 68 5 0 0 0 - - - 0;
#X msg 141 32 0, f 6;
#X obj 141 14 loadbang;
#X obj 141 50 text get hw-audio-status;
#X obj 109 169 text set hw-audio-status;
#X obj 109 187 text define -k hw-audio-status;
#A set 1 \;;
#X obj 48 15 r hw-audio;
#X obj 48 36 / 64;
#X obj 48 57 i;
#X connect 0 0 9 0;
#X connect 2 0 15 0;
#X connect 3 0 16 0;
#X connect 4 0 17 0;
#X connect 5 0 18 0;
#X connect 6 0 19 0;
#X connect 7 0 20 0;
#X connect 8 0 21 0;
#X connect 9 0 1 0;
#X connect 10 0 12 0;
#X connect 10 0 27 0;
#X connect 10 0 37 0;
#X connect 11 0 9 1;
#X connect 11 0 15 1;
#X connect 11 0 16 1;
#X connect 11 0 17 1;
#X connect 11 0 18 1;
#X connect 11 0 19 1;
#X connect 11 0 20 1;
#X connect 11 0 21 1;
#X connect 12 0 11 0;
#X connect 15 0 1 1;
#X connect 16 0 1 2;
#X connect 17 0 1 3;
#X connect 18 0 1 4;
#X connect 19 0 1 5;
#X connect 20 0 1 6;
#X connect 21 0 1 7;
#X connect 23 0 25 1;
#X connect 23 0 26 1;
#X connect 24 0 23 0;
#X connect 25 0 22 0;
#X connect 26 0 22 1;
#X connect 27 0 28 0;
#X connect 27 1 29 0;
#X connect 28 0 24 0;
#X connect 29 0 24 0;
#X connect 30 0 25 0;
#X connect 31 0 26 0;
#X connect 33 0 10 0;
#X connect 34 0 36 0;
#X connect 35 0 34 0;
#X connect 36 0 33 0;
#X connect 39 0 40 0;
#X connect 40 0 41 0;
#X connect 41 0 10 0;
#X restore -63 255 pd audio-out;
#N canvas 121 146 895 464 midi-clock-out 0;
#X obj 240 207 cnv 5 5 5 empty empty MIDI-CLOCK-DEVICE: 0 0 0 8 #fcfcfc #000000 0;
#X obj 239 191 cnv 5 5 5 empty empty HARDWARE-MIDI-SETTINGS: 0 0 0 10 #fcfcfc #404040 0;
#X floatatom 272 149 5 0 0 0 - - - 0;
#X msg 272 113 0, f 6;
#X obj 272 95 loadbang;
#X obj 240 318 text define -k hw-midi-status;
#A set 0 \;;
#X obj 240 300 text set hw-midi-status;
#X obj 272 131 text get hw-midi-status;
#X obj 239 216 hradio 16 1 0 8 empty empty empty 0 -8 0 10 #fcfcfc #000000 #000000 0;
#X obj 438 298 + 1;
#X obj 438 317 s clock-to-hw-device-nr;
#X obj 194 118 / 15.875;
#X obj 194 95 r md-device;
#X text 191 64 HW-MIDI-CLOCK-OUT-DEVICE:;
#X connect 2 0 8 0;
#X connect 3 0 7 0;
#X connect 4 0 3 0;
#X connect 7 0 2 0;
#X connect 8 0 6 0;
#X connect 8 0 9 0;
#X connect 9 0 10 0;
#X connect 11 0 8 0;
#X connect 12 0 11 0;
#X restore -63 274 pd midi-clock-out;
#X floatatom 235 253 5 0 0 0 - - - 0;
#X connect 1 0 86 0;
#X connect 18 0 19 0;
#X connect 19 0 72 0;
#X connect 23 0 70 0;
#X connect 24 0 25 0;
#X connect 25 0 26 0;
#X connect 26 0 68 0;
#X connect 27 0 24 0;
#X connect 29 0 30 0;
#X connect 30 0 31 0;
#X connect 31 0 69 0;
#X connect 32 0 29 0;
#X connect 34 0 80 0;
#X connect 35 0 79 0;
#X connect 37 0 90 0;
#X connect 38 0 53 0;
#X connect 39 0 40 0;
#X connect 40 0 41 0;
#X connect 41 0 38 0;
#X connect 42 0 55 0;
#X connect 43 0 44 0;
#X connect 44 0 45 0;
#X connect 45 0 42 0;
#X connect 46 0 57 0;
#X connect 47 0 48 0;
#X connect 48 0 49 0;
#X connect 49 0 46 0;
#X connect 50 0 88 0;
#X connect 52 0 39 0;
#X connect 54 0 43 0;
#X connect 56 0 47 0;
#X connect 68 0 28 0;
#X connect 69 0 33 0;
#X connect 70 0 18 0;
#X connect 71 0 17 0;
#X connect 72 0 71 0;
#X connect 73 0 74 0;
#X connect 74 0 0 0;
#X connect 74 0 75 0;
#X connect 75 0 78 0;
#X connect 76 0 73 0;
#X connect 77 0 76 0;
#X connect 79 0 34 0;
#X connect 80 0 81 0;
#X connect 80 1 82 0;
#X connect 81 0 36 0;
#X connect 82 0 36 0;
#X connect 83 0 87 0;
#X connect 88 0 37 0;
#X connect 89 0 51 0;
#X connect 90 0 89 0;
#X connect 90 0 93 0;
#X coords 0 -1 1 1 220 270 2 100 100;
