#N canvas 525 155 1440 747 10;
#X obj 1046 273 pdcontrol;
#X msg 1046 250 dir;
#X obj 1046 320 pack s s s;
#X obj 1026 400 pack s;
#X msg 1034 421 \; pd open main.pd \$1;
#X msg 1116 260 \; pd-main.pd menuclose \;;
#X msg 1079 296 symbol patch\$1;
#X obj 1026 203 f;
#X obj 875 540 bng 19 250 50 0 empty empty LOAD> -33 9 0 10 #fcfcfc #000000 #000000;
#X msg 1026 369 /Users/johannklug/Documents/Bass\ Dieter/2025/Diet/MODULAR_LIVE_\ PERFORMER/patch1, f 89;
#X obj 799 105 cnv 5 5 5 empty empty OPEN/CLOSE\ PATCHES: 0 12 0 10 #fcfcfc #404040 0;
#X obj 1026 225 t b b f b b;
#X obj 1026 296 del 200;
#X floatatom 913 35 5 0 0 0 - - - 0;
#X obj 886 16 t b f;
#X obj 1025 72 text define -k patch-status;
#A set 0 \;;
#X obj 1025 54 text set patch-status;
#X obj 991 -10 text get patch-status;
#X floatatom 991 8 5 0 0 0 - - - 0;
#X msg 991 -28 0, f 6;
#X obj 991 -46 loadbang;
#X obj 886 -4 r \$0-patchnr-r;
#X floatatom 801 135 2 1 5 1 PATCH_NR - - 24;
#X obj 1024 117 s \$0-patchnr-s;
#X obj 1026 452 t b;
#X obj 1026 471 del 500;
#X obj 1026 519 s main-menu;
#X msg 1026 500 1;
#X text 1265 -15 This subpatch opens and closes other subpatches located in Molipe’s main folder. Each subpatch folder must be named patch+number in order to be recognized and opened. The number of patches is limited only by the storage capacity of the device running Molipe.;
#X text 1012 145 <--------change this number to increase the number of loadable patches;
#X obj 1115 481 r clock-to-hw-device-nr;
#X obj 1100 500 f;
#X obj 1100 519 s clock-to-hw-device-nr;
#X text 1273 506 <-- resends midi clock device settings at startup of patch;
#X obj 785 287 s patch-nr;
#X obj 913 64 + 1;
#X obj 981 55 - 1;
#X obj 1124 342 s patch-nr-loaded;
#X text 837 320 for gui status of patches;
#X text 1239 343 for gui status of patch that is loaded;
#N canvas 46 141 1372 580 encoder 0;
#X obj 53 80 push-encoder-reader;
#X obj 298 75 push-encoder-reader;
#X obj 536 77 push-encoder-reader;
#X obj 781 72 push-encoder-reader;
#X obj 56 241 push-encoder-reader;
#X obj 301 236 push-encoder-reader;
#X obj 539 238 push-encoder-reader;
#X text 37 -47 Encoder to volume (submenu1);
#X obj 164 58 r \$0-param-1-s;
#X obj 54 106 s \$0-param-1-r;
#X obj 409 53 r \$0-param-3-s;
#X obj 299 101 s \$0-param-3-r;
#X obj 647 55 r \$0-param-5-s;
#X obj 537 103 s \$0-param-5-r;
#X obj 892 50 r \$0-param-7-s;
#X obj 782 98 s \$0-param-7-r;
#X obj 167 219 r \$0-param-9-s;
#X obj 57 267 s \$0-param-9-r;
#X obj 412 214 r \$0-param-11-s;
#X obj 302 262 s \$0-param-11-r;
#X obj 650 216 r \$0-param-13-s;
#X obj 540 264 s \$0-param-13-r;
#X obj 86 6 r \$0-modul-active;
#X obj 53 25 spigot;
#X obj 331 -3 r \$0-modul-active;
#X obj 298 16 spigot;
#X obj 569 0 r \$0-modul-active;
#X obj 536 19 spigot;
#X obj 814 -2 r \$0-modul-active;
#X obj 781 17 spigot;
#X obj 90 180 r \$0-modul-active;
#X obj 57 199 spigot;
#X obj 334 176 r \$0-modul-active;
#X obj 301 195 spigot;
#X obj 572 180 r \$0-modul-active;
#X obj 539 199 spigot;
#X obj 53 -14 r enc1;
#X obj 298 -21 r enc2;
#X obj 536 -21 r enc3;
#X obj 781 -21 r enc4;
#X obj 57 160 r enc5;
#X obj 301 155 r enc6;
#X obj 539 158 r enc7;
#X obj 781 164 r enc8;
#X connect 0 0 9 0;
#X connect 1 0 11 0;
#X connect 2 0 13 0;
#X connect 3 0 15 0;
#X connect 4 0 17 0;
#X connect 5 0 19 0;
#X connect 6 0 21 0;
#X connect 8 0 0 1;
#X connect 10 0 1 1;
#X connect 12 0 2 1;
#X connect 14 0 3 1;
#X connect 16 0 4 1;
#X connect 18 0 5 1;
#X connect 20 0 6 1;
#X connect 22 0 23 1;
#X connect 23 0 0 0;
#X connect 24 0 25 1;
#X connect 25 0 1 0;
#X connect 26 0 27 1;
#X connect 27 0 2 0;
#X connect 28 0 29 1;
#X connect 29 0 3 0;
#X connect 30 0 31 1;
#X connect 31 0 4 0;
#X connect 32 0 33 1;
#X connect 33 0 5 0;
#X connect 34 0 35 1;
#X connect 35 0 6 0;
#X connect 36 0 23 0;
#X connect 37 0 25 0;
#X connect 38 0 27 0;
#X connect 39 0 29 0;
#X connect 40 0 31 0;
#X connect 41 0 33 0;
#X connect 42 0 35 0;
#X restore 1409 110 pd encoder;
#N canvas 63 88 450 300 options 0;
#X obj 15 70 hradio 16 1 0 8 \$0-main-menu-s \$0-main-menu-r Main-Menu 0 -8 0 10 #fcfcfc #000000 #000000 0;
#X obj 15 110 hradio 16 1 0 8 \$0-sub-menu-s \$0-sub-menu-r Sub-Menu 0 -8 0 10 #fcfcfc #000000 #000000 0;
#X obj 15 150 hradio 16 1 0 8 \$0-sub2-menu-s \$0-sub2-menu-r Sub2-Menu 0 -8 0 10 #fcfcfc #000000 #000000 0;
#X obj 134 5 loadbang;
#X msg 134 26 2;
#X msg 191 73 0;
#X connect 3 0 4 0;
#X connect 3 0 5 0;
#X connect 4 0 0 0;
#X connect 5 0 1 0;
#X connect 5 0 2 0;
#X restore 1551 93 pd options;
#N canvas 11 84 729 487 main-menu 0;
#X obj 243 98 s \$0-sm1;
#X obj 182 51 r \$0-main-menu-s;
#X obj 215 75 r \$0-sub-menu-s;
#X obj 250 115 r \$0-sub2-menu-s;
#X obj 165 148 r all-menu;
#X obj 165 169 unpack f f f;
#X obj 165 195 ==;
#X obj 199 195 ==;
#X obj 235 189 ==;
#X floatatom 165 222 5 0 0 0 - - - 0;
#X floatatom 199 222 5 0 0 0 - - - 0;
#X floatatom 235 223 5 0 0 0 - - - 0;
#X obj 165 247 +;
#X obj 165 271 +;
#X obj 235 242 t b f;
#X obj 199 243 t b f;
#X obj 165 312 sel 3;
#X msg 165 365 1;
#X msg 195 364 0;
#X obj 166 395 tgl 16 0 empty empty empty 0 -8 0 10 #fcfcfc #000000 #000000 0 1;
#X obj 166 419 s \$0-modul-active;
#X text 353 116 The Submenu2 number of the module;
#X text 317 75 The Submenu number of the module;
#X text 294 51 the mainmenu number of the module;
#X obj 182 72 + 1;
#X obj 215 96 + 1;
#X obj 250 136 + 1;
#X obj 455 402 s \$0-main-menu-active;
#X msg 454 347 1;
#X msg 484 346 0;
#X obj 455 377 tgl 16 0 empty empty empty 0 -8 0 10 #fcfcfc #000000 #000000 0 1;
#X obj 454 294 sel 1;
#X msg 314 348 1;
#X msg 344 347 0;
#X obj 315 378 tgl 16 0 empty empty empty 0 -8 0 10 #fcfcfc #000000 #000000 0 1;
#X obj 315 403 s \$0-sub-menu-active;
#X obj 314 295 sel 2;
#X obj 165 292 change;
#X obj 314 276 change;
#X obj 454 275 change;
#X connect 1 0 24 0;
#X connect 2 0 25 0;
#X connect 3 0 26 0;
#X connect 4 0 5 0;
#X connect 5 0 6 0;
#X connect 5 1 7 0;
#X connect 5 2 8 0;
#X connect 6 0 9 0;
#X connect 6 0 39 0;
#X connect 7 0 10 0;
#X connect 8 0 11 0;
#X connect 9 0 12 0;
#X connect 10 0 15 0;
#X connect 11 0 14 0;
#X connect 12 0 13 0;
#X connect 12 0 38 0;
#X connect 13 0 37 0;
#X connect 14 0 13 0;
#X connect 14 1 13 1;
#X connect 15 1 12 1;
#X connect 16 0 17 0;
#X connect 16 1 18 0;
#X connect 17 0 19 0;
#X connect 18 0 19 0;
#X connect 19 0 20 0;
#X connect 24 0 6 1;
#X connect 25 0 7 1;
#X connect 26 0 8 1;
#X connect 28 0 30 0;
#X connect 29 0 30 0;
#X connect 30 0 27 0;
#X connect 31 0 28 0;
#X connect 31 1 29 0;
#X connect 32 0 34 0;
#X connect 33 0 34 0;
#X connect 34 0 35 0;
#X connect 36 0 32 0;
#X connect 36 1 33 0;
#X connect 37 0 16 0;
#X connect 38 0 36 0;
#X connect 39 0 31 0;
#X restore 1409 128 pd main-menu;
#X obj 901 657 bng 15 250 50 0 SAVE-S SAVE-R <--SAVE!(s) 17 7 0 10 #fcfcfc #00fc04 #000000;
#X obj 137 232 hsl 128 15 0 127 0 1 \$0-param-4-s \$0-param-4-r AUDIO 133 7 0 10 #db3e14 #000000 #000000 5100 1;
#X obj 137 170 hsl 128 15 0 127 0 1 \$0-param-2-s \$0-param-2-r LOAD 133 7 0 10 #e86b0d #000000 #000000 2500 1;
#X obj 137 139 hsl 128 15 0 127 0 1 \$0-param-1-s \$0-param-1-r PATCH 133 7 0 10 #ed8008 #000000 #000000 0 1;
#X obj 137 201 hsl 128 15 0 127 0 1 \$0-param-3-s \$0-param-3-r SAVE! 133 7 0 10 #e25511 #000000 #000000 2100 1;
#X obj 103 109 cnv 5 5 5 empty empty IN 0 0 0 8 #ffffff #ff8300 0;
#X obj 134 127 cnv 5 5 5 empty \$0-modul-name MOTHER 0 0 0 12 #fcfcfc #404040 0;
#X obj 176 127 cnv 5 5 5 empty \$0-instance-num 1 0 0 0 12 #fcfcfc #404040 0;
#X obj 103 362 cnv 5 5 5 empty empty OUT 0 0 0 8 #fcfcfc #000000 0;
#X obj 199 109 cnv 5 5 5 empty empty MOD1 0 0 0 8 #fcfcfc #404040 0;
#X obj 308 358 bng 10 250 50 0 \$0-options-button \$0-options-button-r OPTIONS -45 5 0 10 #fcfcfc #000000 #000000;
#X text 487 248 <--rename labels here;
#X text 487 268 <--modules values are saved here;
#X obj 337 118 text define -k \$0-modul-settings;
#A set MOTHER \; PATCH \; LOAD \; SAVE! \; AUDIO \; MD-DV \; - \; - \; - \; SRC \; 7 \; #ed8008 \; #e86b0d \; #e25511 \; #db3e14 \; #d22616 \; #c91917 \; #c01718 \; #bf1b1b \;;
#N canvas 324 349 425 350 info 0;
#X text 23 12 This textfile contains all necessery names of the module and the names of the gui (faders etc.). This way its much easier to change the names of all elements simply by editing the text object.;
#X text 25 93 The Order of the file \; 0=Modul-Name \; 1=Name Param1 - write non if unused \; 2=Name Param2 \; 3=Name Param3 \; 4=Name Param4 \; 5=Name Param5 \; 6=Name Param6 \; 7=Name Param7 \; 8=Name Param8 \; 9=Type of Module (SRC \, MOD \, LFO \, EFX etc) \; 10=Number of used Parameters (1-8) \; 11=Color of Param1-Circle 12=Color of Param2-Circle \; 13=Color of Param3-Circle \; 14=Color of Param4-Circle \; 15=Color of Param5-Circle \; 16=Color of Param6-Circle \; 17=Color of Param7-Circle \; 18=Color of Param8-Circle \; ....;
#X restore 559 119 pd info;
#X text 537 118 ->;
#X text 335 98 Parameter-Values + Names + Colors:;
#X text 488 286 <--Opens the Options-Subpatch;
#X text 99 82 DESKTOP-GUI-INTERFACE:;
#X obj 339 542 s \$0-param-1-t;
#X floatatom 339 474 5 0 0 0 - - - 0;
#X obj 339 494 i;
#X text 437 206 <--receives encoder messages from mother.pd;
#X text 437 186 <--sends display info to mother.pd;
#X text 447 226 <--checks menu and if module is "active";
#X obj 339 434 r \$0-param-1-s;
#X obj 435 455 / 1.27;
#X floatatom 435 474 5 0 0 0 - - - 0;
#X obj 435 494 i;
#X obj 435 434 r \$0-param-2-s;
#X obj 435 532 s \$0-param-2-t;
#X obj 533 454 / 1.27;
#X floatatom 533 473 5 0 0 0 - - - 0;
#X obj 533 493 i;
#X obj 533 433 r \$0-param-3-s;
#X obj 533 531 s \$0-param-3-t;
#X obj 633 474 i;
#X obj 633 433 r \$0-param-4-s;
#X obj 633 561 s \$0-param-4-t;
#X obj 339 657 i;
#X msg 435 693 symbol \$1%;
#X obj 435 635 / 1.27;
#X floatatom 435 654 5 0 0 0 - - - 0;
#X obj 435 674 i;
#X msg 533 692 symbol \$1%;
#X obj 533 634 / 1.27;
#X floatatom 533 653 5 0 0 0 - - - 0;
#X obj 533 673 i;
#X msg 633 692 symbol \$1%;
#X obj 633 634 / 1.27;
#X floatatom 633 653 5 0 0 0 - - - 0;
#X obj 633 673 i;
#X obj 339 614 r \$0-param-5-s;
#X obj 339 715 s \$0-param-5-t;
#X obj 435 614 r \$0-param-6-s;
#X obj 435 712 s \$0-param-6-t;
#X obj 533 613 r \$0-param-7-s;
#X obj 533 711 s \$0-param-7-t;
#X obj 633 613 r \$0-param-8-s;
#X obj 633 711 s \$0-param-8-t;
#X obj 298 108 cnv 5 5 5 empty empty MOD2 0 0 0 8 #fcfcfc #404040 0;
#X obj 337 186 core_display \$0;
#X obj 337 206 core_encoder \$0;
#X obj 337 227 core_main_menu \$0;
#X obj 337 248 core_module_settings \$0;
#X text 336 165 Modul Core:;
#X text 337 410 Value Display Representation:;
#X obj 337 307 core_mod_display \$0;
#X obj 652 6 / 12.7;
#X obj 652 27 i;
#X obj 652 48 + 1;
#X obj 1146 202 r patch-path-mother;
#X msg 1046 343 set \$2/\$1;
#X floatatom 235 124 5 0 0 0 - - - 0;
#X obj 787 372 r patch-load;
#X text 336 267 ##removed;
#N canvas 237 262 869 304 modified-core-options 0;
#X msg 64 57 1;
#X obj 19 76 pack f f;
#X obj 19 40 t b b;
#X text 17 5 Opens the Options-Subpatch:;
#X text 211 42 Comment: \; This patch is a modification of the options core patch because its uses not saving structure of the normal core patches because it is located in the mother patch that cannot save its status in the patch folders.;
#X obj 19 22 r \$0-options-button;
#N canvas 721 264 237 200 \$0options 0;
#X text 11 10 Ableton-Push-Interface:;
#X obj 15 70 hradio 16 1 0 8 \$0-main-menu-s \$0-main-menu-r Main-Menu 0 -8 0 10 #fcfcfc #000000 #000000 0;
#X obj 15 110 hradio 16 1 0 8 \$0-sub-menu-s \$0-sub-menu-r Sub-Menu 0 -8 0 10 #fcfcfc #000000 #000000 0;
#X obj 15 150 hradio 16 1 0 8 \$0-sub2-menu-s \$0-sub2-menu-r Sub2-Menu 0 -8 0 10 #fcfcfc #000000 #000000 0;
#X text 11 30 (DISPLAY);
#X obj 176 41 loadbang;
#X msg 176 62 7;
#X msg 108 40 0;
#X connect 5 0 6 0;
#X connect 5 0 7 0;
#X connect 6 0 2 0;
#X connect 6 0 3 0;
#X connect 7 0 1 0;
#X restore 19 123 pd \$0options;
#X obj 19 58 f \$0;
#X msg 19 94 \; pd-\$1options vis \$2;
#X connect 0 0 1 1;
#X connect 1 0 8 0;
#X connect 2 0 7 0;
#X connect 2 1 0 0;
#X connect 5 0 2 0;
#X connect 7 0 1 0;
#X restore 337 286 pd modified-core-options;
#N canvas 63 88 1096 570 modified-core-display 0;
#X obj 87 830 t b;
#X obj 94 850 r \$1-param-1-s;
#X obj 87 810 sel 1;
#X msg 37 458 1, f 6;
#X text 266 377 PARAM 2:;
#X text 481 380 PARAM 3:;
#X text 692 381 PARAM 4:;
#X text 906 378 PARAM 5:;
#X text 1117 378 PARAM 6:;
#X text 1324 375 PARAM 7:;
#X text 1534 376 PARAM 8:;
#X obj 37 398 r \$1-modul-active;
#X obj 37 417 sel 1;
#X obj 36 590 s display-message;
#X obj 94 888 spigot;
#X text 35 644 PARAM 1:;
#X text 267 642 PARAM 2:;
#X text 480 640 PARAM 3:;
#X obj 37 658 r \$1-modul-active;
#X obj 37 696 sel 1;
#X obj 39 1121 s display-message;
#X obj 44 829 spigot;
#X obj 48 786 r \$1-param-1-s-post;
#X obj 37 159 t b;
#X obj 37 138 sel 1;
#X obj 37 275 s display-message;
#X obj 37 48 r \$1-main-menu-active;
#X text 33 29 CHANNEL-NAME:;
#X obj 236 274 s display-message;
#X msg 37 178 0, f 6;
#X obj 44 70 r \$1-sub-menu-active;
#X obj 236 159 t b;
#X msg 236 178 0, f 6;
#X obj 236 138 sel 2;
#X obj 37 113 +;
#X obj 44 91 t b f;
#X text 457 30 SUBMODUL-NAME:;
#X obj 82 217 r \$1-sub-menu-s;
#X msg 37 256 \$2 11 #ffffff #000000 center \$1;
#X obj 281 216 r \$1-sub-menu-s;
#X msg 236 255 \$2 11 #000000 #ffffff center \$1;
#X obj 37 237 pack s f;
#X obj 236 236 pack s f;
#X obj 454 164 t b;
#X obj 454 143 sel 1;
#X obj 454 280 s display-message;
#X obj 653 279 s display-message;
#X obj 653 164 t b;
#X obj 653 143 sel 2;
#X obj 454 118 +;
#X obj 461 96 t b f;
#X obj 454 242 pack s f;
#X obj 653 241 pack s f;
#X obj 499 222 r \$1-sub2-menu-s;
#X obj 698 221 r \$1-sub2-menu-s;
#X obj 454 53 r \$1-sub-menu-active;
#X obj 461 75 r \$1-modul-active;
#X msg 454 261 \$2 12 #383838 #000000 center \$1;
#X msg 653 260 \$2 12 #ffffff #000000 center \$1;
#X msg 454 183 9, f 6;
#X msg 653 183 9, f 6;
#X obj 37 197 text get \$1-modul-settings;
#X obj 236 197 text get \$1-modul-settings;
#X obj 454 202 text get \$1-modul-settings;
#X obj 653 202 text get \$1-modul-settings;
#X obj 37 476 text get \$1-modul-settings;
#N canvas 63 88 1263 654 knobs-preset 0;
#X obj 812 179 pack f f;
#X floatatom 812 133 5 0 0 0 - - - 0;
#X floatatom 851 135 5 0 0 0 - - - 0;
#X obj 851 153 t b f;
#X msg 811 198 send RINGVAL 3 1 \$1 \$2;
#X msg 811 236 3 3 #736b1e #000000 center mod*LFO;
#X msg 811 218 3 2 #736b1e #000000 center FREQ;
#X obj 576 181 pack f f;
#X floatatom 576 128 5 0 0 0 - - - 0;
#X floatatom 612 130 5 0 0 0 - - - 0;
#X obj 615 155 t b f;
#X msg 576 200 send RINGVAL 2 1 \$1 \$2;
#X msg 577 219 2 2 #bf1b1b #000000 center FREQ;
#X msg 577 238 2 3 #bf1b1b #000000 center mod*LFO;
#X obj 343 176 pack f f;
#X floatatom 343 123 5 0 0 0 - - - 0;
#X floatatom 379 125 5 0 0 0 - - - 0;
#X obj 382 150 t b f;
#X msg 343 197 send RINGVAL 1 1 \$1 \$2;
#X msg 343 218 1 2 #ed3f1c #000000 center FREQ;
#X msg 343 238 1 3 #912610 #000000 center mod*LFO;
#X obj 113 177 pack f f;
#X floatatom 113 124 5 0 0 0 - - - 0;
#X floatatom 149 126 5 0 0 0 - - - 0;
#X obj 152 151 t b f;
#X msg 113 218 0 2 #ed8008 #000000 center FREQ;
#X msg 113 238 0 3 #912610 #000000 center mod*LFO;
#X msg 113 198 send RINGVAL 0 1 \$1 \$2;
#X obj 807 363 pack f f;
#X floatatom 807 310 5 0 0 0 - - - 0;
#X floatatom 843 312 5 0 0 0 - - - 0;
#X obj 846 337 t b f;
#X obj 577 363 pack f f;
#X floatatom 577 310 5 0 0 0 - - - 0;
#X floatatom 613 312 5 0 0 0 - - - 0;
#X obj 616 337 t b f;
#X obj 344 360 pack f f;
#X floatatom 344 307 5 0 0 0 - - - 0;
#X floatatom 380 309 5 0 0 0 - - - 0;
#X obj 383 334 t b f;
#X obj 115 359 pack f f;
#X floatatom 115 306 5 0 0 0 - - - 0;
#X floatatom 154 314 5 0 0 0 - - - 0;
#X obj 154 333 t b f;
#X msg 807 403 3 6 #d9c3b0 #000000 center FREQ;
#X msg 807 422 3 7 #d9c3b0 #000000 center mod*LFO;
#X msg 807 384 send RINGVAL 3 5 \$1 \$2;
#X msg 577 402 2 6 #bfa07a #000000 center FREQ;
#X msg 577 421 2 7 #bfa07a #000000 center mod*LFO;
#X msg 577 384 send RINGVAL 2 5 \$1 \$2;
#X msg 344 401 1 6 #3b4b59 #000000 center FREQ;
#X msg 344 420 1 7 #3b4b59 #000000 center mod*LFO;
#X msg 344 381 send RINGVAL 1 5 \$1 \$2;
#X msg 115 399 0 6 #cc6324 #000000 center FREQ;
#X msg 115 418 0 7 #cc6324 #000000 center mod*LFO;
#X msg 115 380 send RINGVAL 0 5 \$1 \$2;
#X text 115 98 PARA1;
#X text 341 97 PARA2;
#X text 574 105 PARA3;
#X text 810 107 PARA4;
#X text 113 283 PARA5;
#X text 343 283 PARA6;
#X text 576 288 PARA7;
#X text 804 291 PARA8;
#X connect 0 0 4 0;
#X connect 1 0 0 0;
#X connect 2 0 3 0;
#X connect 3 0 0 0;
#X connect 3 1 0 1;
#X connect 7 0 11 0;
#X connect 8 0 7 0;
#X connect 9 0 10 0;
#X connect 10 0 7 0;
#X connect 10 1 7 1;
#X connect 14 0 18 0;
#X connect 15 0 14 0;
#X connect 16 0 17 0;
#X connect 17 0 14 0;
#X connect 17 1 14 1;
#X connect 21 0 27 0;
#X connect 22 0 21 0;
#X connect 23 0 24 0;
#X connect 24 0 21 0;
#X connect 24 1 21 1;
#X connect 28 0 46 0;
#X connect 29 0 28 0;
#X connect 30 0 31 0;
#X connect 31 0 28 0;
#X connect 31 1 28 1;
#X connect 32 0 49 0;
#X connect 33 0 32 0;
#X connect 34 0 35 0;
#X connect 35 0 32 0;
#X connect 35 1 32 1;
#X connect 36 0 52 0;
#X connect 37 0 36 0;
#X connect 38 0 39 0;
#X connect 39 0 36 0;
#X connect 39 1 36 1;
#X connect 40 0 55 0;
#X connect 41 0 40 0;
#X connect 42 0 43 0;
#X connect 43 0 40 0;
#X connect 43 1 40 1;
#X restore 1147 65 pd knobs-preset;
#X obj 88 933 t b f;
#X obj 88 910 i;
#X obj 38 851 i;
#X obj 38 925 change;
#X text 42 1168 MOD-PARAM 1:;
#X text 36 378 NAME-PARAM 1:;
#N canvas 63 88 1343 426 set-rings 0;
#X msg 976 120 send RING 3 1 #e3e3e3 #736b1e #000000 250 20 45;
#X obj 672 144 s display-message;
#X msg 672 124 send RING 2 1 #e3e3e3 #bf1b1b #000000 250 20 45;
#X obj 364 148 s display-message;
#X msg 364 128 send RING 1 1 #e3e3e3 #ed3f1c #000000 250 20 45;
#X obj 39 159 s display-message;
#X msg 39 140 send RING 0 1 #e3e3e3 #ed8008 #000000 250 20 45;
#X obj 976 141 s display-message;
#X obj 673 209 s display-message;
#X obj 366 211 s display-message;
#X obj 38 223 s display-message;
#X obj 974 211 s display-message;
#X msg 974 193 send RING 3 5 #e3e3e3 #d9c3b0 #000000 250 20 45;
#X msg 673 190 send RING 2 5 #e3e3e3 #bfa07a #000000 250 20 45;
#X msg 366 192 send RING 1 5 #e3e3e3 #3b4b59 #000000 250 20 45;
#X msg 38 203 send RING 0 5 #e3e3e3 #cc6324 #000000 250 20 45;
#X obj 39 112 del 50;
#X obj 364 107 del 50;
#X obj 672 104 del 50;
#X obj 976 100 del 50;
#X text 36 40 DIETER RAM Colors sceme:;
#X connect 0 0 7 0;
#X connect 2 0 1 0;
#X connect 4 0 3 0;
#X connect 6 0 5 0;
#X connect 12 0 11 0;
#X connect 13 0 8 0;
#X connect 14 0 9 0;
#X connect 15 0 10 0;
#X connect 16 0 6 0;
#X connect 17 0 4 0;
#X connect 18 0 2 0;
#X connect 19 0 0 0;
#X restore 1146 88 pd set-rings;
#X obj 74 714 text get \$1-modul-settings, f 23;
#X msg 74 696 11, f 6;
#X obj 37 514 sel none;
#X msg 37 572 0 2 #000000 #000000 center \$1;
#X obj 85 447 text get \$1-modul-settings, f 18;
#X msg 85 429 11, f 6;
#X obj 37 495 t s s;
#X obj 37 438 t b b;
#X msg 42 554 0 2 \$3 #000000 center \$2;
#X obj 42 534 pack s s s;
#X msg 47 1006 1, f 6;
#X obj 47 1025 text get \$1-modul-settings, f 28;
#X obj 47 1044 sel none;
#X msg 47 1083 0 1 #000000 #000000 center \$1;
#X obj 37 716 t b b;
#X obj 39 1102 spigot;
#X msg 53 1065 0;
#X msg 82 1065 1;
#X obj 37 677 t f f b;
#X obj 268 398 r \$1-modul-active;
#X obj 268 417 sel 1;
#X obj 267 590 s display-message;
#X obj 268 476 text get \$1-modul-settings;
#X obj 268 514 sel none;
#X obj 316 447 text get \$1-modul-settings, f 18;
#X obj 268 495 t s s;
#X obj 268 438 t b b;
#X obj 273 534 pack s s s;
#X msg 268 458 2, f 6;
#X msg 273 554 1 2 \$3 #000000 center \$2;
#X msg 268 572 1 2 #000000 #000000 center \$1;
#X obj 318 830 t b;
#X obj 318 810 sel 1;
#X obj 325 888 spigot;
#X obj 268 658 r \$1-modul-active;
#X obj 268 696 sel 1;
#X obj 270 1121 s display-message;
#X obj 275 829 spigot;
#X obj 319 936 t b f;
#X obj 319 910 i;
#X obj 269 851 i;
#X obj 270 947 change;
#X obj 305 714 text get \$1-modul-settings, f 23;
#X obj 278 1025 text get \$1-modul-settings, f 28;
#X obj 278 1044 sel none;
#X obj 268 716 t b b;
#X obj 270 1102 spigot;
#X msg 284 1065 0;
#X msg 313 1065 1;
#X obj 268 677 t f f b;
#X msg 305 743 send RING 1 1 #e3e3e3 \$1 #000000 250 20 45, f 22;
#X msg 278 1083 1 1 #000000 #000000 center \$1;
#X obj 275 791 r \$1-param-2-s-post;
#X obj 325 850 r \$1-param-2-s;
#X msg 278 1006 2, f 6;
#X msg 316 429 12, f 6;
#X msg 305 696 12, f 6;
#X obj 481 398 r \$1-modul-active;
#X obj 481 417 sel 1;
#X obj 480 590 s display-message;
#X obj 481 476 text get \$1-modul-settings;
#X obj 481 514 sel none;
#X obj 529 447 text get \$1-modul-settings, f 18;
#X obj 481 495 t s s;
#X obj 481 438 t b b;
#X obj 486 534 pack s s s;
#X msg 529 429 13, f 6;
#X msg 481 458 3, f 6;
#X msg 481 572 2 2 #000000 #000000 center \$1;
#X msg 486 554 2 2 \$3 #000000 center \$2;
#X obj 531 830 t b;
#X obj 531 810 sel 1;
#X obj 538 888 spigot;
#X obj 481 658 r \$1-modul-active;
#X obj 481 696 sel 1;
#X obj 483 1121 s display-message;
#X obj 488 829 spigot;
#X obj 532 930 t b f;
#X obj 532 910 i;
#X obj 482 851 i;
#X obj 483 944 change;
#X obj 518 714 text get \$1-modul-settings, f 23;
#X obj 491 1025 text get \$1-modul-settings, f 28;
#X obj 491 1044 sel none;
#X obj 481 716 t b b;
#X obj 483 1102 spigot;
#X msg 497 1065 0;
#X msg 526 1065 1;
#X obj 481 677 t f f b;
#X msg 518 696 13, f 6;
#X msg 518 743 send RING 2 1 #e3e3e3 \$1 #000000 250 20 45, f 22;
#X msg 491 1083 2 1 #000000 #000000 center \$1;
#X obj 488 791 r \$1-param-3-s-post;
#X obj 538 850 r \$1-param-3-s;
#X obj 693 398 r \$1-modul-active;
#X obj 693 417 sel 1;
#X obj 692 590 s display-message;
#X obj 693 476 text get \$1-modul-settings;
#X obj 693 514 sel none;
#X obj 741 447 text get \$1-modul-settings, f 18;
#X obj 693 495 t s s;
#X obj 693 438 t b b;
#X obj 698 534 pack s s s;
#X msg 741 429 14, f 6;
#X msg 698 554 3 2 \$3 #000000 center \$2;
#X msg 693 572 3 2 #000000 #000000 center \$1;
#X msg 693 458 4, f 6;
#X text 270 1168 MOD-PARAM 2:;
#X text 482 1168 MOD-PARAM 3:;
#X obj 741 830 t b;
#X obj 741 810 sel 1;
#X obj 748 888 spigot;
#X obj 691 658 r \$1-modul-active;
#X obj 691 696 sel 1;
#X obj 693 1121 s display-message;
#X obj 698 829 spigot;
#X obj 742 930 t b f;
#X obj 742 910 i;
#X obj 692 851 i;
#X obj 682 938 change;
#X obj 728 714 text get \$1-modul-settings, f 23;
#X obj 701 1025 text get \$1-modul-settings, f 28;
#X obj 701 1044 sel none;
#X obj 691 716 t b b;
#X obj 693 1102 spigot;
#X msg 707 1065 0;
#X msg 736 1065 1;
#X obj 691 677 t f f b;
#X text 690 640 PARAM 4:;
#X msg 728 696 14, f 6;
#X msg 728 743 send RING 3 1 #e3e3e3 \$1 #000000 250 20 45, f 22;
#X obj 698 791 r \$1-param-4-s-post;
#X obj 748 850 r \$1-param-4-s;
#X msg 701 1083 3 1 #000000 #000000 center \$1;
#X msg 491 1006 3, f 6;
#X msg 701 1006 4, f 6;
#X text 693 1168 MOD-PARAM 4:;
#X obj 38 906 f;
#X obj 38 870 r \$1-framerate;
#X obj 958 137 r \$1-modul-active;
#X obj 925 165 spigot;
#X obj 925 186 s \$1-framerate;
#X obj 270 906 f;
#X obj 270 870 r \$1-framerate;
#X obj 483 907 f;
#X obj 483 871 r \$1-framerate;
#X obj 693 905 f;
#X obj 676 878 r \$1-framerate;
#X obj 925 117 metro 60;
#X obj 907 396 r \$1-modul-active;
#X obj 907 415 sel 1;
#X obj 906 588 s display-message;
#X obj 907 474 text get \$1-modul-settings;
#X obj 907 512 sel none;
#X obj 955 445 text get \$1-modul-settings, f 18;
#X obj 907 493 t s s;
#X obj 907 436 t b b;
#X obj 912 532 pack s s s;
#X msg 955 427 15, f 6;
#X msg 907 456 5, f 6;
#X obj 1119 396 r \$1-modul-active;
#X obj 1119 415 sel 1;
#X obj 1118 588 s display-message;
#X obj 1119 474 text get \$1-modul-settings;
#X obj 1119 512 sel none;
#X obj 1167 445 text get \$1-modul-settings, f 18;
#X obj 1119 493 t s s;
#X obj 1119 436 t b b;
#X obj 1124 532 pack s s s;
#X msg 1167 427 16, f 6;
#X msg 1119 456 6, f 6;
#X msg 1124 552 1 6 \$3 #000000 center \$2;
#X msg 1119 570 1 6 #000000 #000000 center \$1;
#X obj 1326 396 r \$1-modul-active;
#X obj 1326 415 sel 1;
#X obj 1325 588 s display-message;
#X obj 1326 474 text get \$1-modul-settings;
#X obj 1326 512 sel none;
#X obj 1374 445 text get \$1-modul-settings, f 18;
#X obj 1326 493 t s s;
#X obj 1326 436 t b b;
#X obj 1331 532 pack s s s;
#X msg 1326 456 7, f 6;
#X msg 1374 427 17, f 6;
#X msg 1331 552 2 6 \$3 #000000 center \$2;
#X msg 1326 570 2 6 #000000 #000000 center \$1;
#X obj 1534 396 r \$1-modul-active;
#X obj 1534 415 sel 1;
#X obj 1533 588 s display-message;
#X obj 1534 474 text get \$1-modul-settings;
#X obj 1534 512 sel none;
#X obj 1582 445 text get \$1-modul-settings, f 18;
#X obj 1534 493 t s s;
#X obj 1534 436 t b b;
#X obj 1539 532 pack s s s;
#X msg 1534 456 8, f 6;
#X msg 1582 427 18, f 6;
#X msg 1539 552 3 6 \$3 #000000 center \$2;
#X msg 1534 570 3 6 #000000 #000000 center \$1;
#X msg 912 552 0 6 \$3 #000000 center \$2;
#X msg 907 570 0 6 #000000 #000000 center \$1;
#X msg 39 986 send RINGVAL 0 1 \$1 \$2 \$3;
#X obj 39 967 pack f f s;
#X obj 138 912 r \$1-param-1-t;
#X obj 270 967 pack f f s;
#X obj 352 910 r \$1-param-2-t;
#X obj 483 967 pack f f s;
#X obj 575 906 r \$1-param-3-t;
#X obj 693 967 pack f f s;
#X obj 786 913 r \$1-param-4-t;
#X msg 279 986 send RINGVAL 1 1 \$1 \$2 \$3;
#X msg 483 986 send RINGVAL 2 1 \$1 \$2 \$3;
#X msg 693 986 send RINGVAL 3 1 \$1 \$2 \$3;
#X obj 961 830 t b;
#X obj 961 810 sel 1;
#X obj 968 888 spigot;
#X obj 911 658 r \$1-modul-active;
#X obj 911 696 sel 1;
#X obj 913 1121 s display-message;
#X obj 918 829 spigot;
#X obj 962 930 t b f;
#X obj 962 910 i;
#X obj 912 851 i;
#X obj 902 938 change;
#X obj 948 714 text get \$1-modul-settings, f 23;
#X obj 921 1025 text get \$1-modul-settings, f 28;
#X obj 921 1044 sel none;
#X obj 911 716 t b b;
#X obj 913 1102 spigot;
#X msg 927 1065 0;
#X msg 956 1065 1;
#X obj 911 677 t f f b;
#X obj 913 905 f;
#X obj 896 878 r \$1-framerate;
#X obj 913 967 pack f f s;
#X text 910 640 PARAM 5:;
#X msg 948 743 send RING 0 5 #e3e3e3 \$1 #000000 250 20 45, f 22;
#X msg 948 696 15, f 6;
#X obj 918 791 r \$1-param-5-s-post;
#X obj 968 850 r \$1-param-5-s;
#X obj 1006 913 r \$1-param-5-t;
#X msg 913 986 send RINGVAL 0 5 \$1 \$2 \$3;
#X msg 921 1083 0 5 #000000 #000000 center \$1;
#X obj 1172 831 t b;
#X obj 1172 811 sel 1;
#X obj 1179 889 spigot;
#X obj 1122 659 r \$1-modul-active;
#X obj 1122 697 sel 1;
#X obj 1124 1122 s display-message;
#X obj 1129 830 spigot;
#X obj 1173 931 t b f;
#X obj 1173 911 i;
#X obj 1123 852 i;
#X obj 1123 909 change;
#X obj 1159 715 text get \$1-modul-settings, f 23;
#X obj 1132 1026 text get \$1-modul-settings, f 28;
#X obj 1132 1045 sel none;
#X obj 1122 717 t b b;
#X obj 1124 1103 spigot;
#X msg 1138 1066 0;
#X msg 1167 1066 1;
#X obj 1122 678 t f f b;
#X obj 1123 890 f;
#X obj 1123 870 r \$1-framerate;
#X obj 1124 968 pack f f s;
#X text 1121 641 PARAM 6:;
#X msg 1159 697 16, f 6;
#X msg 1159 744 send RING 1 5 #e3e3e3 \$1 #000000 250 20 45, f 22;
#X obj 1129 792 r \$1-param-6-s-post;
#X obj 1179 851 r \$1-param-6-s;
#X obj 1217 914 r \$1-param-6-t;
#X msg 1124 987 send RINGVAL 1 5 \$1 \$2 \$3;
#X msg 1131 1084 1 5 #000000 #000000 center \$1;
#X obj 1381 833 t b;
#X obj 1381 813 sel 1;
#X obj 1388 891 spigot;
#X obj 1331 661 r \$1-modul-active;
#X obj 1331 699 sel 1;
#X obj 1333 1124 s display-message;
#X obj 1338 832 spigot;
#X obj 1382 933 t b f;
#X obj 1382 913 i;
#X obj 1332 854 i;
#X obj 1332 911 change;
#X obj 1368 717 text get \$1-modul-settings, f 23;
#X obj 1341 1028 text get \$1-modul-settings, f 28;
#X obj 1341 1047 sel none;
#X obj 1331 719 t b b;
#X obj 1333 1105 spigot;
#X msg 1347 1068 0;
#X msg 1376 1068 1;
#X obj 1331 680 t f f b;
#X obj 1332 892 f;
#X obj 1332 872 r \$1-framerate;
#X obj 1333 970 pack f f s;
#X text 1330 643 PARAM 7:;
#X msg 1368 699 17, f 6;
#X msg 1368 746 send RING 2 5 #e3e3e3 \$1 #000000 250 20 45, f 22;
#X obj 1338 794 r \$1-param-7-s-post;
#X obj 1388 853 r \$1-param-7-s;
#X obj 1426 916 r \$1-param-7-t;
#X msg 1333 989 send RINGVAL 2 5 \$1 \$2 \$3;
#X msg 1340 1086 2 5 #000000 #000000 center \$1;
#X msg 921 1006 5, f 6;
#X msg 1132 1007 6, f 6;
#X msg 1341 1009 7, f 6;
#X obj 1583 833 t b;
#X obj 1583 813 sel 1;
#X obj 1590 891 spigot;
#X obj 1533 661 r \$1-modul-active;
#X obj 1533 699 sel 1;
#X obj 1535 1124 s display-message;
#X obj 1540 832 spigot;
#X obj 1584 933 t b f;
#X obj 1584 913 i;
#X obj 1534 854 i;
#X obj 1534 911 change;
#X obj 1570 717 text get \$1-modul-settings, f 23;
#X obj 1543 1028 text get \$1-modul-settings, f 28;
#X obj 1543 1047 sel none;
#X obj 1533 719 t b b;
#X obj 1535 1105 spigot;
#X msg 1549 1068 0;
#X msg 1578 1068 1;
#X obj 1533 680 t f f b;
#X obj 1534 892 f;
#X obj 1534 872 r \$1-framerate;
#X obj 1535 970 pack f f s;
#X text 1532 643 PARAM 7:;
#X msg 1570 699 18, f 6;
#X msg 1570 746 send RING 3 5 #e3e3e3 \$1 #000000 250 20 45, f 22;
#X obj 1540 794 r \$1-param-8-s-post;
#X obj 1590 853 r \$1-param-8-s;
#X obj 1628 916 r \$1-param-8-t;
#X msg 1542 1086 3 5 #000000 #000000 center \$1;
#X msg 1535 989 send RINGVAL 3 5 \$1 \$2 \$3;
#X msg 1543 1009 8, f 6;
#X obj 42 1374 s display-message;
#X obj 70 1247 r \$1-param-9-t;
#X obj 42 1187 r \$1-modul-active;
#X obj 42 1206 sel 1;
#X obj 42 1227 t b b;
#X obj 109 1266 r \$1-param-17-t;
#X obj 272 1373 s display-message;
#X obj 272 1186 r \$1-modul-active;
#X obj 272 1205 sel 1;
#X obj 272 1226 t b b;
#X obj 339 1265 r \$1-param-18-t;
#X obj 482 1374 s display-message;
#X obj 482 1187 r \$1-modul-active;
#X obj 482 1206 sel 1;
#X obj 482 1227 t b b;
#X obj 712 1373 s display-message;
#X obj 712 1186 r \$1-modul-active;
#X obj 712 1205 sel 1;
#X obj 712 1226 t b b;
#X obj 510 1247 r \$1-param-11-t;
#X obj 740 1246 r \$1-param-12-t;
#X obj 549 1266 r \$1-param-19-t;
#X obj 779 1265 r \$1-param-20-t;
#X obj 912 1374 s display-message;
#X obj 912 1187 r \$1-modul-active;
#X obj 912 1206 sel 1;
#X obj 912 1227 t b b;
#X obj 1142 1373 s display-message;
#X obj 1142 1186 r \$1-modul-active;
#X obj 1142 1205 sel 1;
#X obj 1142 1226 t b b;
#X obj 1352 1374 s display-message;
#X obj 1352 1187 r \$1-modul-active;
#X obj 1352 1206 sel 1;
#X obj 1352 1227 t b b;
#X obj 1582 1373 s display-message;
#X obj 1582 1186 r \$1-modul-active;
#X obj 1582 1205 sel 1;
#X obj 1582 1226 t b b;
#X text 910 1164 PARAM 5:;
#X text 1143 1165 PARAM 6:;
#X text 1352 1167 PARAM 7:;
#X text 1580 1167 PARAM 7:;
#X obj 940 1247 r \$1-param-13-t;
#X obj 1170 1246 r \$1-param-14-t;
#X obj 1380 1247 r \$1-param-15-t;
#X obj 1610 1246 r \$1-param-16-t;
#X obj 979 1266 r \$1-param-21-t;
#X obj 1209 1265 r \$1-param-22-t;
#X obj 1419 1266 r \$1-param-23-t;
#X obj 1649 1265 r \$1-param-24-t;
#X msg 74 744 send RING 0 1 #e3e3e3 \$1 #000000 200 20 45, f 22;
#X msg 42 1347 send ARC 0 1 \$2 \$3;
#X msg 272 1347 send ARC 1 1 \$2 \$3;
#X obj 70 1266 t b f;
#X obj 109 1284 t b f;
#X obj 42 1324 pack f f f;
#X obj 300 1265 t b f;
#X obj 339 1283 t b f;
#X obj 272 1323 pack f f f;
#X msg 910 1350 send ARC 0 5 \$2 \$3;
#X obj 912 1324 pack f f f;
#X obj 940 1266 t b f;
#X obj 979 1284 t b f;
#X obj 482 1324 pack f f f;
#X msg 482 1347 send ARC 2 1 \$2 \$3;
#X obj 712 1323 pack f f f;
#X msg 1142 1347 send ARC 1 5 \$2 \$3;
#X obj 1142 1323 pack f f f;
#X obj 1352 1324 pack f f f;
#X msg 1352 1347 send ARC 2 5 \$2 \$3;
#X msg 1582 1347 send ARC 3 5 \$2 \$3;
#X msg 712 1347 send ARC 3 1 \$2 \$3;
#X obj 1582 1323 pack f f f;
#X obj 510 1266 t b f;
#X obj 549 1284 t b f;
#X obj 740 1265 t b f;
#X obj 779 1283 t b f;
#X obj 1170 1265 t b f;
#X obj 1209 1283 t b f;
#X obj 1380 1266 t b f;
#X obj 1419 1284 t b f;
#X obj 1610 1265 t b f;
#X obj 1649 1283 t b f;
#X obj 300 1246 r \$1-param-10-t;
#X connect 0 0 68 0;
#X connect 1 0 14 0;
#X connect 1 0 68 1;
#X connect 2 0 0 0;
#X connect 3 0 65 0;
#X connect 11 0 12 0;
#X connect 12 0 81 0;
#X connect 14 0 68 0;
#X connect 18 0 92 0;
#X connect 19 0 88 0;
#X connect 21 0 69 0;
#X connect 22 0 21 0;
#X connect 22 0 69 1;
#X connect 23 0 29 0;
#X connect 24 0 23 0;
#X connect 26 0 34 0;
#X connect 29 0 61 0;
#X connect 30 0 35 0;
#X connect 31 0 32 0;
#X connect 32 0 62 0;
#X connect 33 0 31 0;
#X connect 34 0 24 0;
#X connect 34 0 33 0;
#X connect 35 0 34 0;
#X connect 35 1 34 1;
#X connect 37 0 41 1;
#X connect 38 0 25 0;
#X connect 39 0 42 1;
#X connect 40 0 28 0;
#X connect 41 0 38 0;
#X connect 42 0 40 0;
#X connect 43 0 59 0;
#X connect 44 0 43 0;
#X connect 47 0 60 0;
#X connect 48 0 47 0;
#X connect 49 0 44 0;
#X connect 49 0 48 0;
#X connect 50 0 49 0;
#X connect 50 1 49 1;
#X connect 51 0 57 0;
#X connect 52 0 58 0;
#X connect 53 0 51 1;
#X connect 54 0 52 1;
#X connect 55 0 49 0;
#X connect 56 0 50 0;
#X connect 57 0 45 0;
#X connect 58 0 46 0;
#X connect 59 0 63 0;
#X connect 60 0 64 0;
#X connect 61 0 41 0;
#X connect 62 0 42 0;
#X connect 63 0 51 0;
#X connect 64 0 52 0;
#X connect 65 0 80 0;
#X connect 67 0 276 0;
#X connect 67 1 276 1;
#X connect 68 0 67 0;
#X connect 69 0 211 1;
#X connect 70 0 276 0;
#X connect 74 0 462 0;
#X connect 75 0 74 0;
#X connect 76 0 77 0;
#X connect 76 1 83 0;
#X connect 77 0 13 0;
#X connect 78 0 83 2;
#X connect 79 0 78 0;
#X connect 80 0 76 0;
#X connect 80 1 83 1;
#X connect 81 0 3 0;
#X connect 81 1 79 0;
#X connect 82 0 13 0;
#X connect 83 0 82 0;
#X connect 84 0 85 0;
#X connect 85 0 86 0;
#X connect 86 0 87 0;
#X connect 86 0 90 0;
#X connect 86 1 91 0;
#X connect 87 0 20 0;
#X connect 88 0 69 0;
#X connect 88 1 75 0;
#X connect 89 0 20 0;
#X connect 90 0 89 1;
#X connect 91 0 89 1;
#X connect 92 0 19 0;
#X connect 92 1 21 1;
#X connect 92 1 2 0;
#X connect 92 1 14 1;
#X connect 92 2 84 0;
#X connect 93 0 94 0;
#X connect 94 0 100 0;
#X connect 96 0 99 0;
#X connect 97 0 104 0;
#X connect 97 1 101 0;
#X connect 98 0 101 2;
#X connect 99 0 97 0;
#X connect 99 1 101 1;
#X connect 100 0 102 0;
#X connect 100 1 129 0;
#X connect 101 0 103 0;
#X connect 102 0 96 0;
#X connect 103 0 95 0;
#X connect 104 0 95 0;
#X connect 105 0 113 0;
#X connect 106 0 105 0;
#X connect 107 0 113 0;
#X connect 108 0 123 0;
#X connect 109 0 119 0;
#X connect 111 0 114 0;
#X connect 112 0 278 0;
#X connect 112 1 278 1;
#X connect 113 0 112 0;
#X connect 114 0 216 1;
#X connect 115 0 278 0;
#X connect 116 0 124 0;
#X connect 117 0 118 0;
#X connect 118 0 125 0;
#X connect 118 0 121 0;
#X connect 118 1 122 0;
#X connect 119 0 114 0;
#X connect 119 1 130 0;
#X connect 120 0 110 0;
#X connect 121 0 120 1;
#X connect 122 0 120 1;
#X connect 123 0 109 0;
#X connect 123 1 111 1;
#X connect 123 1 106 0;
#X connect 123 1 107 1;
#X connect 123 2 128 0;
#X connect 124 0 120 0;
#X connect 125 0 110 0;
#X connect 126 0 111 0;
#X connect 126 0 114 1;
#X connect 127 0 107 0;
#X connect 127 0 113 1;
#X connect 128 0 117 0;
#X connect 129 0 98 0;
#X connect 130 0 116 0;
#X connect 131 0 132 0;
#X connect 132 0 138 0;
#X connect 134 0 137 0;
#X connect 135 0 142 0;
#X connect 135 1 139 0;
#X connect 136 0 139 2;
#X connect 137 0 135 0;
#X connect 137 1 139 1;
#X connect 138 0 141 0;
#X connect 138 1 140 0;
#X connect 139 0 143 0;
#X connect 140 0 136 0;
#X connect 141 0 134 0;
#X connect 142 0 133 0;
#X connect 143 0 133 0;
#X connect 144 0 152 0;
#X connect 145 0 144 0;
#X connect 146 0 152 0;
#X connect 147 0 162 0;
#X connect 148 0 158 0;
#X connect 150 0 153 0;
#X connect 151 0 280 0;
#X connect 151 1 280 1;
#X connect 152 0 151 0;
#X connect 153 0 218 1;
#X connect 154 0 280 0;
#X connect 155 0 164 0;
#X connect 156 0 157 0;
#X connect 157 0 165 0;
#X connect 157 0 160 0;
#X connect 157 1 161 0;
#X connect 158 0 153 0;
#X connect 158 1 163 0;
#X connect 159 0 149 0;
#X connect 160 0 159 1;
#X connect 161 0 159 1;
#X connect 162 0 148 0;
#X connect 162 1 150 1;
#X connect 162 1 145 0;
#X connect 162 1 146 1;
#X connect 162 2 208 0;
#X connect 163 0 155 0;
#X connect 164 0 159 0;
#X connect 165 0 149 0;
#X connect 166 0 150 0;
#X connect 166 0 153 1;
#X connect 167 0 146 0;
#X connect 167 0 152 1;
#X connect 168 0 169 0;
#X connect 169 0 175 0;
#X connect 171 0 174 0;
#X connect 172 0 179 0;
#X connect 172 1 176 0;
#X connect 173 0 176 2;
#X connect 174 0 172 0;
#X connect 174 1 176 1;
#X connect 175 0 180 0;
#X connect 175 1 177 0;
#X connect 176 0 178 0;
#X connect 177 0 173 0;
#X connect 178 0 170 0;
#X connect 179 0 170 0;
#X connect 180 0 171 0;
#X connect 183 0 191 0;
#X connect 184 0 183 0;
#X connect 185 0 191 0;
#X connect 186 0 201 0;
#X connect 187 0 197 0;
#X connect 189 0 192 0;
#X connect 190 0 282 0;
#X connect 190 1 282 1;
#X connect 191 0 190 0;
#X connect 192 0 220 1;
#X connect 193 0 282 0;
#X connect 194 0 204 0;
#X connect 195 0 196 0;
#X connect 196 0 207 0;
#X connect 196 0 199 0;
#X connect 196 1 200 0;
#X connect 197 0 192 0;
#X connect 197 1 203 0;
#X connect 198 0 188 0;
#X connect 199 0 198 1;
#X connect 200 0 198 1;
#X connect 201 0 187 0;
#X connect 201 1 189 1;
#X connect 201 1 184 0;
#X connect 201 1 185 1;
#X connect 201 2 209 0;
#X connect 203 0 194 0;
#X connect 204 0 198 0;
#X connect 205 0 189 0;
#X connect 205 0 192 1;
#X connect 206 0 185 0;
#X connect 206 0 191 1;
#X connect 207 0 188 0;
#X connect 208 0 156 0;
#X connect 209 0 195 0;
#X connect 211 0 70 0;
#X connect 212 0 211 0;
#X connect 213 0 214 1;
#X connect 213 0 222 0;
#X connect 214 0 215 0;
#X connect 216 0 115 0;
#X connect 217 0 216 0;
#X connect 218 0 154 0;
#X connect 219 0 218 0;
#X connect 220 0 193 0;
#X connect 221 0 220 0;
#X connect 222 0 214 0;
#X connect 223 0 224 0;
#X connect 224 0 230 0;
#X connect 226 0 229 0;
#X connect 227 0 274 0;
#X connect 227 1 231 0;
#X connect 228 0 231 2;
#X connect 229 0 227 0;
#X connect 229 1 231 1;
#X connect 230 0 233 0;
#X connect 230 1 232 0;
#X connect 231 0 273 0;
#X connect 232 0 228 0;
#X connect 233 0 226 0;
#X connect 234 0 235 0;
#X connect 235 0 241 0;
#X connect 237 0 240 0;
#X connect 238 0 246 0;
#X connect 238 1 242 0;
#X connect 239 0 242 2;
#X connect 240 0 238 0;
#X connect 240 1 242 1;
#X connect 241 0 244 0;
#X connect 241 1 243 0;
#X connect 242 0 245 0;
#X connect 243 0 239 0;
#X connect 244 0 237 0;
#X connect 245 0 236 0;
#X connect 246 0 236 0;
#X connect 247 0 248 0;
#X connect 248 0 254 0;
#X connect 250 0 253 0;
#X connect 251 0 259 0;
#X connect 251 1 255 0;
#X connect 252 0 255 2;
#X connect 253 0 251 0;
#X connect 253 1 255 1;
#X connect 254 0 256 0;
#X connect 254 1 257 0;
#X connect 255 0 258 0;
#X connect 256 0 250 0;
#X connect 257 0 252 0;
#X connect 258 0 249 0;
#X connect 259 0 249 0;
#X connect 260 0 261 0;
#X connect 261 0 267 0;
#X connect 263 0 266 0;
#X connect 264 0 272 0;
#X connect 264 1 268 0;
#X connect 265 0 268 2;
#X connect 266 0 264 0;
#X connect 266 1 268 1;
#X connect 267 0 269 0;
#X connect 267 1 270 0;
#X connect 268 0 271 0;
#X connect 269 0 263 0;
#X connect 270 0 265 0;
#X connect 271 0 262 0;
#X connect 272 0 262 0;
#X connect 273 0 225 0;
#X connect 274 0 225 0;
#X connect 275 0 89 0;
#X connect 276 0 275 0;
#X connect 277 0 276 2;
#X connect 278 0 284 0;
#X connect 279 0 278 2;
#X connect 280 0 285 0;
#X connect 281 0 280 2;
#X connect 282 0 286 0;
#X connect 283 0 282 2;
#X connect 284 0 120 0;
#X connect 285 0 159 0;
#X connect 286 0 198 0;
#X connect 287 0 295 0;
#X connect 288 0 287 0;
#X connect 289 0 295 0;
#X connect 290 0 305 0;
#X connect 291 0 301 0;
#X connect 293 0 296 0;
#X connect 294 0 308 0;
#X connect 294 1 308 1;
#X connect 295 0 294 0;
#X connect 296 0 306 1;
#X connect 297 0 308 0;
#X connect 298 0 310 0;
#X connect 299 0 300 0;
#X connect 300 0 316 0;
#X connect 300 0 303 0;
#X connect 300 1 304 0;
#X connect 301 0 296 0;
#X connect 301 1 311 0;
#X connect 302 0 292 0;
#X connect 303 0 302 1;
#X connect 304 0 302 1;
#X connect 305 0 291 0;
#X connect 305 1 293 1;
#X connect 305 1 288 0;
#X connect 305 1 289 1;
#X connect 305 2 377 0;
#X connect 306 0 297 0;
#X connect 307 0 306 0;
#X connect 308 0 315 0;
#X connect 310 0 302 0;
#X connect 311 0 298 0;
#X connect 312 0 293 0;
#X connect 312 0 296 1;
#X connect 313 0 289 0;
#X connect 313 0 295 1;
#X connect 314 0 308 2;
#X connect 315 0 302 0;
#X connect 316 0 292 0;
#X connect 317 0 325 0;
#X connect 318 0 317 0;
#X connect 319 0 325 0;
#X connect 320 0 335 0;
#X connect 321 0 331 0;
#X connect 323 0 326 0;
#X connect 324 0 338 0;
#X connect 324 1 338 1;
#X connect 325 0 324 0;
#X connect 326 0 336 1;
#X connect 327 0 338 0;
#X connect 328 0 341 0;
#X connect 329 0 330 0;
#X connect 330 0 346 0;
#X connect 330 0 333 0;
#X connect 330 1 334 0;
#X connect 331 0 326 0;
#X connect 331 1 340 0;
#X connect 332 0 322 0;
#X connect 333 0 332 1;
#X connect 334 0 332 1;
#X connect 335 0 321 0;
#X connect 335 1 323 1;
#X connect 335 1 318 0;
#X connect 335 1 319 1;
#X connect 335 2 378 0;
#X connect 336 0 327 0;
#X connect 337 0 336 0;
#X connect 338 0 345 0;
#X connect 340 0 328 0;
#X connect 341 0 332 0;
#X connect 342 0 323 0;
#X connect 342 0 326 1;
#X connect 343 0 319 0;
#X connect 343 0 325 1;
#X connect 344 0 338 2;
#X connect 345 0 332 0;
#X connect 346 0 322 0;
#X connect 347 0 355 0;
#X connect 348 0 347 0;
#X connect 349 0 355 0;
#X connect 350 0 365 0;
#X connect 351 0 361 0;
#X connect 353 0 356 0;
#X connect 354 0 368 0;
#X connect 354 1 368 1;
#X connect 355 0 354 0;
#X connect 356 0 366 1;
#X connect 357 0 368 0;
#X connect 358 0 371 0;
#X connect 359 0 360 0;
#X connect 360 0 376 0;
#X connect 360 0 363 0;
#X connect 360 1 364 0;
#X connect 361 0 356 0;
#X connect 361 1 370 0;
#X connect 362 0 352 0;
#X connect 363 0 362 1;
#X connect 364 0 362 1;
#X connect 365 0 351 0;
#X connect 365 1 353 1;
#X connect 365 1 348 0;
#X connect 365 1 349 1;
#X connect 365 2 379 0;
#X connect 366 0 357 0;
#X connect 367 0 366 0;
#X connect 368 0 375 0;
#X connect 370 0 358 0;
#X connect 371 0 362 0;
#X connect 372 0 353 0;
#X connect 372 0 356 1;
#X connect 373 0 349 0;
#X connect 373 0 355 1;
#X connect 374 0 368 2;
#X connect 375 0 362 0;
#X connect 376 0 352 0;
#X connect 377 0 299 0;
#X connect 378 0 329 0;
#X connect 379 0 359 0;
#X connect 380 0 388 0;
#X connect 381 0 380 0;
#X connect 382 0 388 0;
#X connect 383 0 398 0;
#X connect 384 0 394 0;
#X connect 386 0 389 0;
#X connect 387 0 401 0;
#X connect 387 1 401 1;
#X connect 388 0 387 0;
#X connect 389 0 399 1;
#X connect 390 0 401 0;
#X connect 391 0 404 0;
#X connect 392 0 393 0;
#X connect 393 0 408 0;
#X connect 393 0 396 0;
#X connect 393 1 397 0;
#X connect 394 0 389 0;
#X connect 394 1 403 0;
#X connect 395 0 385 0;
#X connect 396 0 395 1;
#X connect 397 0 395 1;
#X connect 398 0 384 0;
#X connect 398 1 386 1;
#X connect 398 1 381 0;
#X connect 398 1 382 1;
#X connect 398 2 410 0;
#X connect 399 0 390 0;
#X connect 400 0 399 0;
#X connect 401 0 409 0;
#X connect 403 0 391 0;
#X connect 404 0 395 0;
#X connect 405 0 386 0;
#X connect 405 0 389 1;
#X connect 406 0 382 0;
#X connect 406 0 388 1;
#X connect 407 0 401 2;
#X connect 408 0 385 0;
#X connect 409 0 395 0;
#X connect 410 0 392 0;
#X connect 412 0 465 0;
#X connect 413 0 414 0;
#X connect 414 0 415 0;
#X connect 415 0 467 0;
#X connect 416 0 466 0;
#X connect 418 0 419 0;
#X connect 419 0 420 0;
#X connect 420 0 470 0;
#X connect 421 0 469 0;
#X connect 423 0 424 0;
#X connect 424 0 425 0;
#X connect 425 0 475 0;
#X connect 427 0 428 0;
#X connect 428 0 429 0;
#X connect 429 0 477 0;
#X connect 430 0 485 0;
#X connect 431 0 487 0;
#X connect 432 0 486 0;
#X connect 433 0 488 0;
#X connect 435 0 436 0;
#X connect 436 0 437 0;
#X connect 437 0 472 0;
#X connect 439 0 440 0;
#X connect 440 0 441 0;
#X connect 441 0 479 0;
#X connect 443 0 444 0;
#X connect 444 0 445 0;
#X connect 445 0 480 0;
#X connect 447 0 448 0;
#X connect 448 0 449 0;
#X connect 449 0 484 0;
#X connect 454 0 473 0;
#X connect 455 0 489 0;
#X connect 456 0 491 0;
#X connect 457 0 493 0;
#X connect 458 0 474 0;
#X connect 459 0 490 0;
#X connect 460 0 492 0;
#X connect 461 0 494 0;
#X connect 462 0 89 0;
#X connect 463 0 411 0;
#X connect 464 0 417 0;
#X connect 465 0 467 0;
#X connect 465 1 467 1;
#X connect 466 0 467 0;
#X connect 466 1 467 2;
#X connect 467 0 463 0;
#X connect 468 0 470 0;
#X connect 468 1 470 1;
#X connect 469 0 470 0;
#X connect 469 1 470 2;
#X connect 470 0 464 0;
#X connect 471 0 434 0;
#X connect 472 0 471 0;
#X connect 473 0 472 0;
#X connect 473 1 472 1;
#X connect 474 0 472 0;
#X connect 474 1 472 2;
#X connect 475 0 476 0;
#X connect 476 0 422 0;
#X connect 477 0 483 0;
#X connect 478 0 438 0;
#X connect 479 0 478 0;
#X connect 480 0 481 0;
#X connect 481 0 442 0;
#X connect 482 0 446 0;
#X connect 483 0 426 0;
#X connect 484 0 482 0;
#X connect 485 0 475 0;
#X connect 485 1 475 1;
#X connect 486 0 475 0;
#X connect 486 1 475 2;
#X connect 487 0 477 0;
#X connect 487 1 477 1;
#X connect 488 0 477 0;
#X connect 488 1 477 2;
#X connect 489 0 479 0;
#X connect 489 1 479 1;
#X connect 490 0 479 0;
#X connect 490 1 479 2;
#X connect 491 0 480 0;
#X connect 491 1 480 1;
#X connect 492 0 480 0;
#X connect 492 1 480 2;
#X connect 493 0 484 0;
#X connect 493 1 484 1;
#X connect 494 0 484 0;
#X connect 494 1 484 2;
#X connect 495 0 468 0;
#X restore 68 498 pd modified-core-display;
#X msg 435 513 symbol >>>;
#X msg 533 512 symbol >>>;
#X obj 339 455 / 12.7;
#X msg 339 523 symbol \$1/;
#X obj 368 502 + 1;
#X obj 800 452 tgl 16 0 empty empty empty 0 -8 0 10 #fcfcfc #000000 #000000 0 1;
#X obj 800 473 sel 1;
#X obj 800 494 del 15;
#X msg 800 515 0;
#X obj 800 431 > 120;
#X obj 800 409 r \$0-param-2-s;
#X obj 800 561 s \$0-param-2-r;
#X obj 802 634 tgl 16 0 empty empty empty 0 -8 0 10 #fcfcfc #000000 #000000 0 1;
#X obj 802 655 sel 1;
#X msg 802 697 0;
#X obj 802 613 > 120;
#X obj 802 591 r \$0-param-3-s;
#X obj 802 743 s \$0-param-3-r;
#X obj 633 454 / 64;
#X obj 633 495 sel 0 1;
#X msg 633 533 symbol 2x;
#X msg 697 509 symbol 8x;
#X obj 137 258 hsl 128 15 0 127 0 1 \$0-param-5-s \$0-param-5-r NOISE 133 7 0 10 #d22616 #000000 #000000 12700 1;
#X obj 137 285 hsl 128 15 0 127 0 1 \$0-param-6-s \$0-param-6-r LOPASS 133 7 0 10 #c91917 #000000 #000000 12700 1;
#X obj 137 311 hsl 128 15 0 127 0 1 \$0-param-7-s \$0-param-7-r DECAY 133 7 0 10 #c01718 #000000 #000000 7800 1;
#X obj 139 436 s hw-audio;
#X obj 235 459 s md-device;
#X obj 339 635 / 15.875;
#X msg 339 698 symbol \$1/;
#X obj 339 678 + 1;
#X connect 1 0 0 0;
#X connect 2 0 115 0;
#X connect 3 0 4 0;
#X connect 3 0 24 0;
#X connect 6 0 2 0;
#X connect 7 0 11 0;
#X connect 7 0 37 0;
#X connect 8 0 7 0;
#X connect 9 0 3 0;
#X connect 11 0 12 0;
#X connect 11 1 1 0;
#X connect 11 2 6 0;
#X connect 11 3 5 0;
#X connect 12 0 9 0;
#X connect 13 0 35 0;
#X connect 14 1 13 0;
#X connect 17 0 18 0;
#X connect 18 0 35 0;
#X connect 19 0 17 0;
#X connect 20 0 19 0;
#X connect 21 0 14 0;
#X connect 22 0 34 0;
#X connect 22 0 7 1;
#X connect 22 0 36 0;
#X connect 22 0 116 0;
#X connect 24 0 25 0;
#X connect 25 0 27 0;
#X connect 25 0 31 0;
#X connect 27 0 26 0;
#X connect 30 0 31 1;
#X connect 31 0 32 0;
#X connect 35 0 22 0;
#X connect 36 0 16 0;
#X connect 44 0 146 0;
#X connect 46 0 111 0;
#X connect 63 0 64 0;
#X connect 64 0 125 0;
#X connect 68 0 123 0;
#X connect 69 0 70 0;
#X connect 70 0 71 0;
#X connect 71 0 121 0;
#X connect 72 0 69 0;
#X connect 74 0 75 0;
#X connect 75 0 76 0;
#X connect 76 0 122 0;
#X connect 77 0 74 0;
#X connect 79 0 140 0;
#X connect 80 0 139 0;
#X connect 82 0 150 0;
#X connect 83 0 98 0;
#X connect 84 0 85 0;
#X connect 85 0 86 0;
#X connect 86 0 83 0;
#X connect 87 0 100 0;
#X connect 88 0 89 0;
#X connect 89 0 90 0;
#X connect 90 0 87 0;
#X connect 91 0 102 0;
#X connect 92 0 93 0;
#X connect 93 0 94 0;
#X connect 94 0 91 0;
#X connect 95 0 148 0;
#X connect 97 0 84 0;
#X connect 99 0 88 0;
#X connect 101 0 92 0;
#X connect 111 0 112 0;
#X connect 112 0 113 0;
#X connect 113 0 22 0;
#X connect 114 0 2 1;
#X connect 115 0 9 0;
#X connect 121 0 73 0;
#X connect 122 0 78 0;
#X connect 123 0 63 0;
#X connect 124 0 62 0;
#X connect 125 0 124 0;
#X connect 126 0 127 0;
#X connect 127 0 128 0;
#X connect 127 0 8 0;
#X connect 128 0 129 0;
#X connect 129 0 132 0;
#X connect 130 0 126 0;
#X connect 131 0 130 0;
#X connect 133 0 134 0;
#X connect 134 0 43 0;
#X connect 134 0 135 0;
#X connect 135 0 138 0;
#X connect 136 0 133 0;
#X connect 137 0 136 0;
#X connect 139 0 79 0;
#X connect 140 0 141 0;
#X connect 140 1 142 0;
#X connect 141 0 81 0;
#X connect 142 0 81 0;
#X connect 143 0 147 0;
#X connect 148 0 82 0;
#X connect 149 0 96 0;
#X connect 150 0 149 0;
#X coords 0 -1 1 1 220 270 2 100 100;
