#N canvas 521 108 895 502 10;
#X declare -path module-zdsf;
#X floatatom 192 156 5 0 150 0 - - - 0;
#X obj 192 178 mtof;
#X obj 193 273 line~;
#X floatatom 192 220 7 0 0 0 - - - 0;
#X text 194 63 ----- filter parameters ----;
#X obj 309 248 line~;
#X text 15 82 ----- test input ----;
#X obj 192 200 clip 10 18000;
#X text 172 80 cutoff frequency;
#X obj 309 223 pack 0 50;
#X text 305 98 resonance;
#X obj 178 358 zdsv~;
#X floatatom 309 190 5 0 100 0 - - - 0;
#X text 351 191 0 to 100;
#X text 7 5 zdsv~ : A zero delay feedback State Variable Filter.;
#X text 6 21 Output 1: Low pass Output 2: Band pass Output 3: High pass;
#X obj 193 242 pack 0 150;
#X obj 178 396 expr~ tanh($v1 * 2);
#X obj 435 90 inlet;
#X obj 500 93 inlet;
#X obj 110 107 inlet~;
#X obj 178 433 outlet~;
#X obj 441 183 declare -path module-zdsf;
#X connect 0 0 1 0;
#X connect 1 0 7 0;
#X connect 2 0 11 1;
#X connect 3 0 16 0;
#X connect 5 0 11 2;
#X connect 7 0 3 0;
#X connect 9 0 5 0;
#X connect 11 0 17 0;
#X connect 12 0 9 0;
#X connect 16 0 2 0;
#X connect 17 0 21 0;
#X connect 18 0 1 0;
#X connect 19 0 12 0;
#X connect 20 0 11 0;
