#N canvas 121 146 1319 461 12;
#X obj 62 311 tgl 16 0 empty empty empty 0 -8 0 10 #fcfcfc #000000 #000000 0 1;
#X obj 62 415 outlet;
#X obj 115 231 f \$1;
#X obj 115 205 loadbang;
#X obj 202 290 route 3;
#X obj 202 311 tgl 16 0 empty empty empty 0 -8 0 10 #fcfcfc #000000 #000000 0 1;
#X obj 202 415 outlet;
#X obj 248 223 f \$1;
#X obj 248 181 loadbang;
#X obj 248 202 t b b;
#X obj 248 258 +;
#X obj 342 290 route 3;
#X obj 342 311 tgl 16 0 empty empty empty 0 -8 0 10 #fcfcfc #000000 #000000 0 1;
#X obj 342 415 outlet;
#X obj 388 223 f \$1;
#X obj 388 181 loadbang;
#X obj 388 202 t b b;
#X obj 388 268 +;
#X obj 472 290 route 3;
#X obj 472 311 tgl 16 0 empty empty empty 0 -8 0 10 #fcfcfc #000000 #000000 0 1;
#X obj 472 415 outlet;
#X obj 518 223 f \$1;
#X obj 518 181 loadbang;
#X obj 518 202 t b b;
#X obj 518 268 +;
#X obj 592 290 route 3;
#X obj 592 311 tgl 16 0 empty empty empty 0 -8 0 10 #fcfcfc #000000 #000000 0 1;
#X obj 592 415 outlet;
#X obj 638 223 f \$1;
#X obj 638 181 loadbang;
#X obj 638 202 t b b;
#X obj 638 268 +;
#X obj 722 290 route 3;
#X obj 722 311 tgl 16 0 empty empty empty 0 -8 0 10 #fcfcfc #000000 #000000 0 1;
#X obj 722 415 outlet;
#X obj 768 223 f \$1;
#X obj 768 181 loadbang;
#X obj 768 202 t b b;
#X obj 768 268 +;
#X obj 852 290 route 3;
#X obj 852 311 tgl 16 0 empty empty empty 0 -8 0 10 #fcfcfc #000000 #000000 0 1;
#X obj 852 415 outlet;
#X obj 898 223 f \$1;
#X obj 898 181 loadbang;
#X obj 898 202 t b b;
#X obj 898 268 +;
#X obj 982 290 route 3;
#X obj 982 311 tgl 16 0 empty empty empty 0 -8 0 10 #fcfcfc #000000 #000000 0 1;
#X obj 982 415 outlet;
#X obj 1028 223 f \$1;
#X obj 1028 181 loadbang;
#X obj 1028 202 t b b;
#X obj 1028 268 +;
#X obj 61 62 notein;
#X obj 73 -11 notein;
#X floatatom 73 26 5 0 0 0 - - - 0;
#X obj 62 290 route 92;
#X obj 62 117 pack f f;
#X msg 282 223 1;
#X msg 422 223 2;
#X msg 552 223 3;
#X msg 672 223 4;
#X msg 802 223 5;
#X msg 932 223 6;
#X msg 1062 223 7;
#X obj 203 61 notein;
#X obj 204 116 pack f f;
#X obj 340 61 notein;
#X obj 341 116 pack f f;
#X obj 473 63 notein;
#X obj 474 118 pack f f;
#X obj 609 62 notein;
#X obj 610 117 pack f f;
#X obj 751 61 notein;
#X obj 752 116 pack f f;
#X obj 888 61 notein;
#X obj 889 116 pack f f;
#X obj 1021 63 notein;
#X obj 1022 118 pack f f;
#X msg 58 377 127;
#X msg 91 376 0;
#X obj 60 338 sel 0;
#X msg 212 378 127;
#X msg 245 377 0;
#X obj 214 339 sel 0;
#X msg 352 378 127;
#X msg 385 377 0;
#X obj 354 339 sel 0;
#X msg 482 378 127;
#X msg 515 377 0;
#X obj 484 339 sel 0;
#X msg 602 378 127;
#X msg 635 377 0;
#X obj 604 339 sel 0;
#X msg 732 378 127;
#X msg 765 377 0;
#X obj 734 339 sel 0;
#X msg 862 377 127;
#X msg 895 376 0;
#X obj 864 338 sel 0;
#X msg 992 378 127;
#X msg 1025 377 0;
#X obj 994 339 sel 0;
#X connect 0 0 81 0;
#X connect 2 0 56 1;
#X connect 3 0 2 0;
#X connect 4 0 5 0;
#X connect 5 0 84 0;
#X connect 7 0 10 0;
#X connect 8 0 9 0;
#X connect 9 0 7 0;
#X connect 9 1 58 0;
#X connect 10 0 4 1;
#X connect 11 0 12 0;
#X connect 12 0 87 0;
#X connect 14 0 17 0;
#X connect 15 0 16 0;
#X connect 16 0 14 0;
#X connect 16 1 59 0;
#X connect 17 0 11 1;
#X connect 18 0 19 0;
#X connect 19 0 90 0;
#X connect 21 0 24 0;
#X connect 22 0 23 0;
#X connect 23 0 21 0;
#X connect 23 1 60 0;
#X connect 24 0 18 1;
#X connect 25 0 26 0;
#X connect 26 0 93 0;
#X connect 28 0 31 0;
#X connect 29 0 30 0;
#X connect 30 0 28 0;
#X connect 30 1 61 0;
#X connect 31 0 25 1;
#X connect 32 0 33 0;
#X connect 33 0 96 0;
#X connect 35 0 38 0;
#X connect 36 0 37 0;
#X connect 37 0 35 0;
#X connect 37 1 62 0;
#X connect 38 0 32 1;
#X connect 39 0 40 0;
#X connect 40 0 99 0;
#X connect 42 0 45 0;
#X connect 43 0 44 0;
#X connect 44 0 42 0;
#X connect 44 1 63 0;
#X connect 45 0 39 1;
#X connect 46 0 47 0;
#X connect 47 0 102 0;
#X connect 49 0 52 0;
#X connect 50 0 51 0;
#X connect 51 0 49 0;
#X connect 51 1 64 0;
#X connect 52 0 46 1;
#X connect 53 0 57 0;
#X connect 53 1 57 1;
#X connect 54 0 55 0;
#X connect 56 0 0 0;
#X connect 57 0 56 0;
#X connect 58 0 10 1;
#X connect 59 0 17 1;
#X connect 60 0 24 1;
#X connect 61 0 31 1;
#X connect 62 0 38 1;
#X connect 63 0 45 1;
#X connect 64 0 52 1;
#X connect 65 0 66 0;
#X connect 65 1 66 1;
#X connect 66 0 4 0;
#X connect 67 0 68 0;
#X connect 67 1 68 1;
#X connect 68 0 11 0;
#X connect 69 0 70 0;
#X connect 69 1 70 1;
#X connect 70 0 18 0;
#X connect 71 0 72 0;
#X connect 71 1 72 1;
#X connect 72 0 25 0;
#X connect 73 0 74 0;
#X connect 73 1 74 1;
#X connect 74 0 32 0;
#X connect 75 0 76 0;
#X connect 75 1 76 1;
#X connect 76 0 39 0;
#X connect 77 0 78 0;
#X connect 77 1 78 1;
#X connect 78 0 46 0;
#X connect 79 0 1 0;
#X connect 80 0 1 0;
#X connect 81 0 80 0;
#X connect 81 1 79 0;
#X connect 82 0 6 0;
#X connect 83 0 6 0;
#X connect 84 0 83 0;
#X connect 84 1 82 0;
#X connect 85 0 13 0;
#X connect 86 0 13 0;
#X connect 87 0 86 0;
#X connect 87 1 85 0;
#X connect 88 0 20 0;
#X connect 89 0 20 0;
#X connect 90 0 89 0;
#X connect 90 1 88 0;
#X connect 91 0 27 0;
#X connect 92 0 27 0;
#X connect 93 0 92 0;
#X connect 93 1 91 0;
#X connect 94 0 34 0;
#X connect 95 0 34 0;
#X connect 96 0 95 0;
#X connect 96 1 94 0;
#X connect 97 0 41 0;
#X connect 98 0 41 0;
#X connect 99 0 98 0;
#X connect 99 1 97 0;
#X connect 100 0 48 0;
#X connect 101 0 48 0;
#X connect 102 0 101 0;
#X connect 102 1 100 0;
