#N canvas 121 146 1217 461 12;
#X obj 144 234 f \$1;
#X obj 144 208 loadbang;
#X obj 248 243 f \$1;
#X obj 248 201 loadbang;
#X obj 248 222 t b b;
#X obj 248 265 +;
#X obj 388 243 f \$1;
#X obj 388 201 loadbang;
#X obj 388 222 t b b;
#X obj 388 288 +;
#X obj 518 243 f \$1;
#X obj 518 201 loadbang;
#X obj 518 222 t b b;
#X obj 518 288 +;
#X obj 638 243 f \$1;
#X obj 638 201 loadbang;
#X obj 638 222 t b b;
#X obj 638 288 +;
#X obj 768 243 f \$1;
#X obj 768 201 loadbang;
#X obj 768 222 t b b;
#X obj 768 288 +;
#X obj 898 243 f \$1;
#X obj 898 201 loadbang;
#X obj 898 222 t b b;
#X obj 898 288 +;
#X obj 1028 243 f \$1;
#X obj 1028 201 loadbang;
#X obj 1028 222 t b b;
#X obj 1028 288 +;
#X obj 113 172 inlet;
#X obj 111 424 noteout;
#X obj 111 365 pack f f;
#X obj 111 316 t b f;
#X obj 111 341 f;
#X obj 223 172 inlet;
#X obj 221 424 noteout;
#X obj 221 365 pack f f;
#X obj 221 316 t b f;
#X obj 221 341 f;
#X obj 363 172 inlet;
#X obj 361 424 noteout;
#X obj 361 365 pack f f;
#X obj 361 316 t b f;
#X obj 361 341 f;
#X obj 493 172 inlet;
#X obj 491 424 noteout;
#X obj 491 365 pack f f;
#X obj 491 316 t b f;
#X obj 491 341 f;
#X obj 613 172 inlet;
#X obj 611 424 noteout;
#X obj 611 365 pack f f;
#X obj 611 316 t b f;
#X obj 611 341 f;
#X obj 753 172 inlet;
#X obj 751 424 noteout;
#X obj 751 365 pack f f;
#X obj 751 316 t b f;
#X obj 751 341 f;
#X obj 883 172 inlet;
#X obj 881 424 noteout;
#X obj 881 365 pack f f;
#X obj 881 316 t b f;
#X obj 881 341 f;
#X obj 1013 172 inlet;
#X obj 1011 424 noteout;
#X obj 1011 365 pack f f;
#X obj 1011 316 t b f;
#X obj 1011 341 f;
#X msg 282 243 1;
#X msg 422 243 2;
#X msg 552 243 3;
#X msg 672 243 4;
#X msg 802 243 5;
#X msg 932 243 6;
#X msg 1062 243 7;
#X connect 0 0 34 1;
#X connect 1 0 0 0;
#X connect 2 0 5 0;
#X connect 3 0 4 0;
#X connect 4 0 2 0;
#X connect 4 1 70 0;
#X connect 5 0 39 1;
#X connect 6 0 9 0;
#X connect 7 0 8 0;
#X connect 8 0 6 0;
#X connect 8 1 71 0;
#X connect 9 0 44 1;
#X connect 10 0 13 0;
#X connect 11 0 12 0;
#X connect 12 0 10 0;
#X connect 12 1 72 0;
#X connect 13 0 49 1;
#X connect 14 0 17 0;
#X connect 15 0 16 0;
#X connect 16 0 14 0;
#X connect 16 1 73 0;
#X connect 17 0 54 1;
#X connect 18 0 21 0;
#X connect 19 0 20 0;
#X connect 20 0 18 0;
#X connect 20 1 74 0;
#X connect 21 0 59 1;
#X connect 22 0 25 0;
#X connect 23 0 24 0;
#X connect 24 0 22 0;
#X connect 24 1 75 0;
#X connect 25 0 64 1;
#X connect 26 0 29 0;
#X connect 27 0 28 0;
#X connect 28 0 26 0;
#X connect 28 1 76 0;
#X connect 29 0 69 1;
#X connect 30 0 33 0;
#X connect 32 0 31 0;
#X connect 33 0 34 0;
#X connect 33 1 32 1;
#X connect 34 0 32 0;
#X connect 35 0 38 0;
#X connect 37 0 36 0;
#X connect 38 0 39 0;
#X connect 38 1 37 1;
#X connect 39 0 37 0;
#X connect 40 0 43 0;
#X connect 42 0 41 0;
#X connect 43 0 44 0;
#X connect 43 1 42 1;
#X connect 44 0 42 0;
#X connect 45 0 48 0;
#X connect 47 0 46 0;
#X connect 48 0 49 0;
#X connect 48 1 47 1;
#X connect 49 0 47 0;
#X connect 50 0 53 0;
#X connect 52 0 51 0;
#X connect 53 0 54 0;
#X connect 53 1 52 1;
#X connect 54 0 52 0;
#X connect 55 0 58 0;
#X connect 57 0 56 0;
#X connect 58 0 59 0;
#X connect 58 1 57 1;
#X connect 59 0 57 0;
#X connect 60 0 63 0;
#X connect 62 0 61 0;
#X connect 63 0 64 0;
#X connect 63 1 62 1;
#X connect 64 0 62 0;
#X connect 65 0 68 0;
#X connect 67 0 66 0;
#X connect 68 0 69 0;
#X connect 68 1 67 1;
#X connect 69 0 67 0;
#X connect 70 0 5 1;
#X connect 71 0 9 1;
#X connect 72 0 13 1;
#X connect 73 0 17 1;
#X connect 74 0 21 1;
#X connect 75 0 25 1;
#X connect 76 0 29 1;
