#N canvas 121 146 531 374 12;
#X obj 53 27 inlet;
#X obj 53 152 outlet;
#X obj 86 52 r main-menu;
#X obj 86 79 sel 1;
#X msg 86 105 1;
#X msg 113 105 0;
#X obj 53 131 spigot;
#X obj 118 27 inlet;
#X connect 0 0 6 0;
#X connect 2 0 3 0;
#X connect 3 0 4 0;
#X connect 3 1 5 0;
#X connect 4 0 6 1;
#X connect 5 0 6 1;
#X connect 6 0 1 0;
#X connect 7 0 3 1;
