#N canvas 0 25 1440 789 12;
#X obj 48 78 midiout;
#X obj 48 55 list append 247;
#X obj 48 -229 list fromsymbol, f 20;
#X obj 48 -177 unpack f f f f f f f f f;
#X obj 48 -158 pack f f f f f f f f f;
#X obj 238 -229 list fromsymbol, f 20;
#X obj 238 -210 list append 32 32 32 32 32 32 32 32, f 20;
#X obj 238 -177 unpack f f f f f f f f;
#X obj 238 -159 pack f f f f f f f f;
#X obj 418 -229 list fromsymbol, f 20;
#X obj 418 -177 unpack f f f f f f f f f;
#X obj 418 -158 pack f f f f f f f f f;
#X obj 608 -229 list fromsymbol, f 20;
#X obj 608 -210 list append 32 32 32 32 32 32 32 32, f 20;
#X obj 608 -177 unpack f f f f f f f f;
#X obj 608 -159 pack f f f f f f f f;
#X obj 783 -230 list fromsymbol, f 20;
#X obj 783 -178 unpack f f f f f f f f f;
#X obj 783 -159 pack f f f f f f f f f;
#X obj 973 -230 list fromsymbol, f 20;
#X obj 973 -211 list append 32 32 32 32 32 32 32 32, f 20;
#X obj 973 -178 unpack f f f f f f f f;
#X obj 973 -160 pack f f f f f f f f;
#X obj 1153 -230 list fromsymbol, f 20;
#X obj 1153 -178 unpack f f f f f f f f f;
#X obj 1153 -159 pack f f f f f f f f f;
#X obj 1343 -230 list fromsymbol, f 20;
#X obj 1343 -211 list append 32 32 32 32 32 32 32 32, f 20;
#X obj 1343 -178 unpack f f f f f f f f;
#X obj 1343 -160 pack f f f f f f f f;
#X obj 48 -105 list append 32 32 32 32 32 32 32 32;
#X obj 48 -59 list append 32 32 32 32 32 32 32 32;
#X obj 48 -14 list append 32 32 32 32 32 32 32 32;
#X obj 48 32 list append 32 32 32 32 32 32 32 32;
#X obj 48 -210 list append 32 32 32 32 32 32 32 32 32, f 20;
#X obj 418 -210 list append 32 32 32 32 32 32 32 32 32, f 20;
#X obj 783 -211 list append 32 32 32 32 32 32 32 32 32, f 20;
#X obj 1153 -211 list append 32 32 32 32 32 32 32 32 32, f 20;
#X obj 48 -83 list append 32 32 32 32 32 32 32 32 32;
#X obj 48 -36 list append 32 32 32 32 32 32 32 32 32;
#X obj 48 8 list append 32 32 32 32 32 32 32 32 32;
#X obj 48 -257 unpack s s s s s s s s;
#X obj 48 -386 inlet;
#X obj 48 -290 pack s s s s s s s s, f 56;
#X obj 93 -386 inlet;
#X obj 93 -338 t b s;
#X obj 44 -338 symbol;
#X obj 136 -387 inlet;
#X obj 136 -339 t b s;
#X obj 181 -387 inlet;
#X obj 181 -339 t b s;
#X obj 231 -387 inlet;
#X obj 231 -339 t b s;
#X obj 291 -387 inlet;
#X obj 291 -339 t b s;
#X obj 351 -387 inlet;
#X obj 351 -339 t b s;
#X obj 411 -387 inlet;
#X obj 411 -339 t b s;
#X obj 48 -130 list prepend 240 71 127 21 \$1 0 69 0;
#X text 558 -382 Line 1= 24 \; Line 2= 25 \; Line 3= 26 \; Line 4= 27 \;;
#X connect 1 0 0 0;
#X connect 2 0 34 0;
#X connect 3 0 4 0;
#X connect 3 1 4 1;
#X connect 3 2 4 2;
#X connect 3 3 4 3;
#X connect 3 4 4 4;
#X connect 3 5 4 5;
#X connect 3 6 4 6;
#X connect 3 7 4 7;
#X connect 3 8 4 8;
#X connect 4 0 59 0;
#X connect 5 0 6 0;
#X connect 6 0 7 0;
#X connect 7 0 8 0;
#X connect 7 1 8 1;
#X connect 7 2 8 2;
#X connect 7 3 8 3;
#X connect 7 4 8 4;
#X connect 7 5 8 5;
#X connect 7 6 8 6;
#X connect 7 7 8 7;
#X connect 8 0 30 1;
#X connect 9 0 35 0;
#X connect 10 0 11 0;
#X connect 10 1 11 1;
#X connect 10 2 11 2;
#X connect 10 3 11 3;
#X connect 10 4 11 4;
#X connect 10 5 11 5;
#X connect 10 6 11 6;
#X connect 10 7 11 7;
#X connect 10 8 11 8;
#X connect 11 0 38 1;
#X connect 12 0 13 0;
#X connect 13 0 14 0;
#X connect 14 0 15 0;
#X connect 14 1 15 1;
#X connect 14 2 15 2;
#X connect 14 3 15 3;
#X connect 14 4 15 4;
#X connect 14 5 15 5;
#X connect 14 6 15 6;
#X connect 14 7 15 7;
#X connect 15 0 31 1;
#X connect 16 0 36 0;
#X connect 17 0 18 0;
#X connect 17 1 18 1;
#X connect 17 2 18 2;
#X connect 17 3 18 3;
#X connect 17 4 18 4;
#X connect 17 5 18 5;
#X connect 17 6 18 6;
#X connect 17 7 18 7;
#X connect 17 8 18 8;
#X connect 18 0 39 1;
#X connect 19 0 20 0;
#X connect 20 0 21 0;
#X connect 21 0 22 0;
#X connect 21 1 22 1;
#X connect 21 2 22 2;
#X connect 21 3 22 3;
#X connect 21 4 22 4;
#X connect 21 5 22 5;
#X connect 21 6 22 6;
#X connect 21 7 22 7;
#X connect 22 0 32 1;
#X connect 23 0 37 0;
#X connect 24 0 25 0;
#X connect 24 1 25 1;
#X connect 24 2 25 2;
#X connect 24 3 25 3;
#X connect 24 4 25 4;
#X connect 24 5 25 5;
#X connect 24 6 25 6;
#X connect 24 7 25 7;
#X connect 24 8 25 8;
#X connect 25 0 40 1;
#X connect 26 0 27 0;
#X connect 27 0 28 0;
#X connect 28 0 29 0;
#X connect 28 1 29 1;
#X connect 28 2 29 2;
#X connect 28 3 29 3;
#X connect 28 4 29 4;
#X connect 28 5 29 5;
#X connect 28 6 29 6;
#X connect 28 7 29 7;
#X connect 29 0 33 1;
#X connect 30 0 38 0;
#X connect 31 0 39 0;
#X connect 32 0 40 0;
#X connect 33 0 1 0;
#X connect 34 0 3 0;
#X connect 35 0 10 0;
#X connect 36 0 17 0;
#X connect 37 0 24 0;
#X connect 38 0 31 0;
#X connect 39 0 32 0;
#X connect 40 0 33 0;
#X connect 41 0 2 0;
#X connect 41 1 5 0;
#X connect 41 2 9 0;
#X connect 41 3 12 0;
#X connect 41 4 16 0;
#X connect 41 5 19 0;
#X connect 41 6 23 0;
#X connect 41 7 26 0;
#X connect 42 0 46 0;
#X connect 43 0 41 0;
#X connect 44 0 45 0;
#X connect 45 0 46 0;
#X connect 45 1 43 1;
#X connect 46 0 43 0;
#X connect 47 0 48 0;
#X connect 48 0 46 0;
#X connect 48 1 43 2;
#X connect 49 0 50 0;
#X connect 50 0 46 0;
#X connect 50 1 43 3;
#X connect 51 0 52 0;
#X connect 52 0 46 0;
#X connect 52 1 43 4;
#X connect 53 0 54 0;
#X connect 54 0 46 0;
#X connect 54 1 43 5;
#X connect 55 0 56 0;
#X connect 56 0 46 0;
#X connect 56 1 43 6;
#X connect 57 0 58 0;
#X connect 58 0 46 0;
#X connect 58 1 43 7;
#X connect 59 0 30 0;
